<?xml version="1.0" encoding="UTF-8" standalone="no"?>
<!-- Created with Inkscape (http://www.inkscape.org/) -->

<svg
   style="background-color:black"
   width="128mm"
   height="32mm"
   viewBox="0 0 128 32"
   version="1.1"
   id="svg1"
   xml:space="preserve"
   inkscape:version="1.3.2 (091e20e, 2023-11-25)"
   sodipodi:docname="auth token intro.svg"
   inkscape:export-filename="Auth Token Intro.png"
   inkscape:export-xdpi="50.799999"
   inkscape:export-ydpi="50.799999"
   xmlns:inkscape="http://www.inkscape.org/namespaces/inkscape"
   xmlns:sodipodi="http://sodipodi.sourceforge.net/DTD/sodipodi-0.dtd"
   xmlns:xlink="http://www.w3.org/1999/xlink"
   xmlns="http://www.w3.org/2000/svg"
   xmlns:svg="http://www.w3.org/2000/svg"><sodipodi:namedview
     id="namedview1"
     pagecolor="#000000"
     bordercolor="#000000"
     borderopacity="0.25"
     inkscape:showpageshadow="2"
     inkscape:pageopacity="0.0"
     inkscape:pagecheckerboard="0"
     inkscape:deskcolor="#d1d1d1"
     inkscape:document-units="mm"
     inkscape:zoom="3.1895021"
     inkscape:cx="276.21866"
     inkscape:cy="37.780191"
     inkscape:window-width="2800"
     inkscape:window-height="1212"
     inkscape:window-x="0"
     inkscape:window-y="25"
     inkscape:window-maximized="0"
     inkscape:current-layer="layer1"
     inkscape:export-bgcolor="#000000ff" /><defs
     id="defs1"><color-profile
       name="Black-White"
       xlink:href="file:///Library/ColorSync/Profiles/Black%20&amp;%20White.icc"
       id="color-profile2" /></defs><g
     inkscape:label="Layer 1"
     inkscape:groupmode="layer"
     id="layer1"><path
       style="-inkscape-font-specification:Prototype;fill:#ffffff;stroke-width:0.264583"
       d="m 34.630595,21.545272 q 0,0.105834 0.141111,0.105834 h 2.293057 q 0.176389,0 0.229306,-0.176389 l 0.934861,-3.016252 q 0.05292,-0.194028 0.229306,-0.194028 h 4.145142 q 0.176389,0 0.229305,0.176389 l 0.934862,3.05153 q 0.05292,0.15875 0.229306,0.15875 h 2.310696 q 0.123472,0 0.123472,-0.105834 L 42.8856,10.044709 Q 42.673933,9.3567921 42.09185,9.180403 41.527405,9.004014 40.521987,9.004014 q -0.970139,0 -1.534584,0.176389 -0.564445,0.1763891 -0.776112,0.864306 z m 7.337782,-5.909031 q 0,0.03528 0,0.05292 0.01764,0.01764 0.01764,0.03528 0,0.123473 -0.141111,0.123473 h -2.628196 q -0.141111,0 -0.141111,-0.123473 0,-0.01764 0,-0.03528 0.01764,-0.01764 0.01764,-0.05292 l 1.234723,-4.02167 q 0.105834,-0.3175 0.194028,-0.3175 0.08819,0 0.123473,0.07056 0.03528,0.05292 0.08819,0.246944 z m 10.847938,-2.998613 v 6.191254 q 0,0.15875 -0.15875,0.299861 -0.141111,0.141111 -0.388056,0.246945 -0.246945,0.105833 -0.564445,0.15875 -0.299861,0.05292 -0.635,0.05292 -0.335139,0 -0.652639,-0.05292 -0.317501,-0.05292 -0.564445,-0.15875 -0.229306,-0.105834 -0.388056,-0.246945 -0.141111,-0.141111 -0.141111,-0.299861 v -6.191254 q 0,-0.176389 -0.176389,-0.176389 h -1.799168 q -0.176389,0 -0.176389,0.176389 v 6.949726 q 0,0.564445 0.335139,0.97014 0.352778,0.405695 0.899584,0.670278 0.546806,0.264584 1.234723,0.388056 0.705556,0.123472 1.428751,0.123472 0.705556,0 1.393473,-0.123472 0.705556,-0.123472 1.252362,-0.388056 0.564445,-0.264583 0.899584,-0.670278 0.352778,-0.405695 0.352778,-0.97014 v -6.949726 q 0,-0.176389 -0.176389,-0.176389 h -1.799168 q -0.176389,0 -0.176389,0.176389 z m 6.561678,2.151945 q 0,-0.176389 0.176389,-0.176389 h 1.44639 q 0.176389,0 0.176389,-0.176389 v -1.799167 q 0,-0.176389 -0.176389,-0.176389 h -1.44639 q -0.176389,0 -0.176389,-0.176389 v -2.204863 q 0,-0.176389 -0.176389,-0.176389 h -1.799168 q -0.176389,0 -0.176389,0.176389 v 2.204863 q 0,0.176389 -0.176389,0.176389 h -0.934861 q -0.176389,0 -0.176389,0.176389 v 1.799167 q 0,0.176389 0.176389,0.176389 h 0.934861 q 0.176389,0 0.176389,0.176389 v 5.503338 q 0,0.546805 0.440973,0.9525 0.440972,0.405695 1.111251,0.405695 h 2.222501 q 0.176389,0 0.176389,-0.176389 v -1.799168 q 0,-0.15875 -0.141111,-0.176389 h -1.481668 q -0.176389,0 -0.176389,-0.176389 z m 8.925298,1.28764 v 5.397504 q 0,0.176389 0.176389,0.176389 h 1.799167 q 0.176389,0 0.176389,-0.176389 v -6.402921 q 0,-0.529167 -0.246944,-1.005417 -0.246945,-0.476251 -0.65264,-0.829029 -0.388055,-0.370417 -0.917222,-0.564445 -0.511528,-0.211666 -1.058334,-0.211666 H 64.510927 V 9.180403 q 0,-0.176389 -0.176389,-0.176389 H 62.53537 q -0.176389,0 -0.176389,0.176389 v 10.459868 0.03528 1.799168 q 0,0.176389 0.176389,0.176389 h 1.799168 q 0.176389,0 0.176389,-0.176389 v -6.085421 q 0,-0.246944 0.15875,-0.405695 0.15875,-0.15875 0.388056,-0.229305 0.246944,-0.0882 0.546806,-0.105834 0.299861,-0.03528 0.599722,-0.03528 0.881945,0 1.481668,0.352778 0.617362,0.33514 0.617362,1.111251 z M 82.096906,11.47346 q 0,-0.176389 0.176389,-0.176389 h 2.875141 q 0.176389,0 0.176389,-0.176389 V 9.180403 q 0,-0.176389 -0.176389,-0.176389 h -8.6607 q -0.176389,0 -0.176389,0.176389 v 1.940279 q 0,0.176389 0.176389,0.176389 h 2.875141 q 0.176389,0 0.176389,0.176389 v 10.001257 q 0,0.176389 0.176389,0.176389 h 2.204862 q 0.176389,0 0.176389,-0.176389 z m 12.012096,3.633614 q 0,-0.635001 -0.246944,-1.111251 -0.229306,-0.493889 -0.617362,-0.829028 -0.370417,-0.352778 -0.864306,-0.529167 -0.47625,-0.176389 -0.9525,-0.176389 h -3.563058 q -0.564445,0 -1.075973,0.194027 -0.49389,0.194028 -0.864306,0.564445 -0.370417,0.352778 -0.599723,0.864306 -0.211667,0.511529 -0.211667,1.146529 v 3.104447 q 0,0.617361 0.123472,1.217084 0.123473,0.582083 0.440973,1.058334 0.3175,0.458611 0.846667,0.758472 0.529167,0.282223 1.340557,0.282223 h 3.139724 q 0.811389,0 1.393473,-0.15875 0.582084,-0.15875 0.952501,-0.564445 0.388056,-0.405695 0.564445,-1.093612 0.194027,-0.687917 0.194027,-1.746251 z m -2.169584,1.92264 v 1.411112 q 0,0.458611 -0.476251,0.758473 -0.458611,0.299861 -1.093611,0.299861 h -1.622779 q -0.229306,0 -0.49389,-0.03528 -0.264583,-0.05292 -0.493889,-0.176389 -0.229305,-0.141111 -0.388056,-0.370417 -0.141111,-0.229305 -0.141111,-0.582083 v -2.822225 q 0,-0.246944 0.123472,-0.423333 0.123473,-0.176389 0.299862,-0.282223 0.194028,-0.105833 0.423333,-0.141111 0.229306,-0.05292 0.458612,-0.05292 h 1.92264 q 0.264584,0 0.529167,0.05292 0.264584,0.05292 0.47625,0.176389 0.211667,0.105834 0.335139,0.282223 0.141112,0.15875 0.141112,0.370417 z m 6.279432,-1.181806 q -0.141111,0.176389 -0.229305,0.388055 -0.0882,0.194028 -0.0882,0.335139 0,0.194028 0.0882,0.405695 0.08819,0.194028 0.211667,0.352778 l 3.069168,4.162781 q 0.12347,0.15875 0.29986,0.15875 h 2.27542 q 0.14111,0 0.0529,-0.123472 l -3.49251,-4.744865 q -0.0353,-0.03528 -0.0882,-0.105833 -0.0353,-0.07056 -0.0353,-0.105834 0,-0.03528 0.0353,-0.08819 0.0529,-0.05292 0.0882,-0.08819 l 3.29848,-3.757085 q 0.0705,-0.07056 0.0529,-0.123473 0,-0.05292 -0.0882,-0.05292 h -2.29306 q -0.19402,0 -0.29986,0.141111 z M 95.396626,9.180403 v 10.459868 0.03528 1.799168 q 0,0.176389 0.176389,0.176389 h 1.799168 q 0.176389,0 0.176389,-0.176389 V 9.180403 q 0,-0.176389 -0.176389,-0.176389 h -1.799168 q -0.176389,0 -0.176389,0.176389 z m 10.389334,8.907645 h 6.52639 q 0.17639,0 0.17639,-0.176389 v -1.834446 q 0,-0.829028 -0.24695,-1.499306 -0.2293,-0.670279 -0.74083,-1.12889 -0.51153,-0.47625 -1.30528,-0.723195 -0.79375,-0.264583 -1.88736,-0.264583 -0.88195,0 -1.76389,0.229305 -0.86431,0.211667 -1.56986,0.758473 -0.68792,0.546806 -1.12889,1.481668 -0.42334,0.917223 -0.42334,2.328335 0,1.164167 0.24695,1.993195 0.26458,0.829029 0.8643,1.375835 0.61737,0.529167 1.60514,0.776111 1.00542,0.246945 2.48709,0.246945 h 2.98097 q 0.17639,0 0.17639,-0.176389 v -1.799168 q 0,-0.176389 -0.17639,-0.176389 h -4.19805 q -0.37042,0 -0.70556,-0.08819 -0.33514,-0.105833 -0.58208,-0.264583 -0.22931,-0.176389 -0.37042,-0.388056 -0.14111,-0.229306 -0.14111,-0.493889 0,-0.176389 0.17639,-0.176389 z m 0,-2.063751 q -0.17639,0 -0.17639,-0.176389 0,-0.33514 0.26458,-0.599723 0.26458,-0.282223 0.65264,-0.458612 0.4057,-0.194027 0.82903,-0.299861 0.44097,-0.105833 0.79375,-0.105833 1.11125,0 1.72861,0.405694 0.61736,0.388056 0.61736,1.058335 0,0.176389 -0.17639,0.176389 z m 10.16001,-1.164168 q 0,-0.15875 0.15875,-0.299861 0.17639,-0.141111 0.37042,-0.141111 h 1.71097 q 0.37042,0 0.68792,0.07056 0.3175,0.05292 0.54681,0.211667 0.24694,0.15875 0.37041,0.440973 0.14111,0.282222 0.14111,0.723194 v 5.609171 q 0,0.176389 0.17639,0.176389 h 1.78153 q 0.19403,0 0.19403,-0.176389 V 15.49513 q 0,-0.582084 -0.22931,-1.12889 -0.2293,-0.546806 -0.65264,-0.97014 -0.40569,-0.423333 -0.9525,-0.670278 -0.5468,-0.264583 -1.1818,-0.264583 h -3.98639 q -0.56445,0 -0.93487,0.370417 -0.35277,0.352778 -0.35277,0.79375 v 7.320144 q 0,0.282222 0.10583,0.493889 0.12347,0.211667 0.37042,0.211667 h 1.1818 q 0.49389,0 0.49389,-0.564445 z"
       id="text1"
       aria-label="Auth Token" /><path
       d="m 10.275931,20.150552 v -1.666668 h 18.181815 v 1.666668 z m 1.045457,-5.041666 -1.181821,-0.625002 0.772727,-1.249999 H 9.3668387 v -1.25 h 1.5454553 l -0.772727,-1.208334 1.181821,-0.624999 0.772724,1.208334 0.772728,-1.208334 1.18182,0.624999 -0.772728,1.208334 h 1.545453 v 1.25 h -1.545453 l 0.772728,1.249999 -1.18182,0.625002 -0.772728,-1.25 z m 7.272724,0 -1.181817,-0.625002 0.772727,-1.249999 h -1.545455 v -1.25 h 1.545455 l -0.772727,-1.208334 1.181817,-0.624999 0.772727,1.208334 0.772728,-1.208334 1.181817,0.624999 -0.772728,1.208334 h 1.545456 v 1.25 h -1.545456 l 0.772728,1.249999 -1.181817,0.625002 -0.772728,-1.25 z m 7.272727,0 -1.181817,-0.625002 0.772724,-1.249999 h -1.545452 v -1.25 h 1.545452 l -0.772724,-1.208334 1.181817,-0.624999 0.772727,1.208334 0.772728,-1.208334 1.181817,0.624999 -0.772728,1.208334 h 1.545456 v 1.25 h -1.545456 l 0.772728,1.249999 -1.181817,0.625002 -0.772728,-1.25 z"
       id="path1"
       style="fill:#ffffff;stroke-width:0.0217597" /></g></svg>
