<?xml version="1.0" encoding="UTF-8" standalone="no"?>
<!-- Created with Inkscape (http://www.inkscape.org/) -->

<svg
   style="background-color:black"
   width="128mm"
   height="32mm"
   viewBox="0 0 128 32"
   version="1.1"
   id="svg1"
   xml:space="preserve"
   inkscape:version="1.3.2 (091e20e, 2023-11-25)"
   sodipodi:docname="auth token.svg"
   inkscape:export-filename="Auth Token.png"
   inkscape:export-xdpi="50.799999"
   inkscape:export-ydpi="50.799999"
   xmlns:inkscape="http://www.inkscape.org/namespaces/inkscape"
   xmlns:sodipodi="http://sodipodi.sourceforge.net/DTD/sodipodi-0.dtd"
   xmlns:xlink="http://www.w3.org/1999/xlink"
   xmlns="http://www.w3.org/2000/svg"
   xmlns:svg="http://www.w3.org/2000/svg"><sodipodi:namedview
     id="namedview1"
     pagecolor="#000000"
     bordercolor="#000000"
     borderopacity="0.25"
     inkscape:showpageshadow="2"
     inkscape:pageopacity="0.0"
     inkscape:pagecheckerboard="0"
     inkscape:deskcolor="#d1d1d1"
     inkscape:document-units="mm"
     inkscape:zoom="3.1895021"
     inkscape:cx="142.34197"
     inkscape:cy="23.357878"
     inkscape:window-width="2800"
     inkscape:window-height="1212"
     inkscape:window-x="0"
     inkscape:window-y="25"
     inkscape:window-maximized="0"
     inkscape:current-layer="layer1"
     inkscape:export-bgcolor="#000000ff" /><defs
     id="defs1"><color-profile
       name="Black-White"
       xlink:href="file:///Library/ColorSync/Profiles/Black%20&amp;%20White.icc"
       id="color-profile2" /></defs><g
     inkscape:label="Layer 1"
     inkscape:groupmode="layer"
     id="layer1"><path
       id="rect1"
       style="fill:#ffffff;stroke:#000000;stroke-width:0.264002;stroke-opacity:0"
       d="m 123.4359,1.2440263 h 3.736 V 30.980024 h -3.736 z" /><path
       id="rect2"
       style="stroke:#000000;stroke-width:0.272199;stroke-opacity:0"
       d="m 123.44001,26.217407 h 3.7278 v 3.727802 h -3.7278 z" /><path
       id="rect3"
       style="fill:#ffffff;stroke:#000000;stroke-width:0.236211;stroke-opacity:0"
       d="M 0.39310554,27.118105 H 122.15689 v 3.763789 H 0.39310554 Z" /><path
       id="rect2-4"
       style="stroke:#000000;stroke-width:1.04592;stroke-opacity:0"
       d="m 52.031773,27.522959 h 69.455147 v 2.954083 H 52.031773 Z" /><path
       style="-inkscape-font-specification:Prototype;fill:#ffffff;stroke-width:0.264583"
       d="m 22.142491,10.456687 v 6.191254 q 0,0.15875 -0.15875,0.299861 -0.141112,0.141112 -0.388056,0.246945 -0.246945,0.105833 -0.564445,0.15875 -0.299861,0.05292 -0.635,0.05292 -0.33514,0 -0.65264,-0.05292 -0.3175,-0.05292 -0.564445,-0.15875 Q 18.94985,17.088914 18.7911,16.947802 18.649988,16.806691 18.649988,16.647941 v -6.191254 q 0,-0.176389 -0.176389,-0.176389 h -1.799168 q -0.176389,0 -0.176389,0.176389 v 6.949727 q 0,0.564445 0.33514,0.970139 0.352778,0.405695 0.899584,0.670279 0.546805,0.264583 1.234723,0.388055 0.705556,0.123473 1.428751,0.123473 0.705556,0 1.393473,-0.123473 0.705556,-0.123472 1.252362,-0.388055 0.564444,-0.264584 0.899584,-0.670279 0.352778,-0.405694 0.352778,-0.970139 v -6.949727 q 0,-0.176389 -0.176389,-0.176389 H 22.31888 q -0.176389,0 -0.176389,0.176389 z m 11.959182,8.890006 -2.698751,-4.198058 q -0.15875,-0.246945 -0.15875,-0.388056 0,-0.123473 0.05292,-0.211667 0.05292,-0.08819 0.123473,-0.194028 l 2.487085,-3.915836 q 0.05292,-0.07056 0.05292,-0.123472 0,-0.03528 -0.105833,-0.03528 h -2.398891 q -0.229305,0 -0.3175,0.15875 l -0.987778,1.658057 q -0.03528,0.07055 -0.123473,0.15875 -0.07056,0.07055 -0.176389,0.07055 -0.105833,0 -0.194028,-0.07055 -0.07055,-0.0882 -0.105833,-0.15875 L 28.54542,10.439048 q -0.08819,-0.15875 -0.299862,-0.15875 h -2.416529 q -0.105833,0 -0.105833,0.01764 0,0.07056 0.05292,0.141111 l 2.504724,3.915836 q 0.07056,0.08819 0.105834,0.194028 0.05292,0.08819 0.05292,0.211667 0,0.194028 -0.141111,0.388056 l -2.698752,4.198058 q -0.03528,0.07056 -0.03528,0.08819 0,0.03528 0.07055,0.03528 h 2.257779 q 0.158751,0 0.211667,-0.03528 0.05292,-0.03528 0.08819,-0.105833 l 1.375834,-2.134307 q 0.05292,-0.07056 0.123472,-0.141111 0.07056,-0.0882 0.15875,-0.0882 0.08819,0 0.141112,0.0882 0.07055,0.07055 0.123472,0.141111 l 1.393473,2.134307 q 0.03528,0.07056 0.08819,0.105833 0.05292,0.03528 0.194027,0.03528 h 2.293058 q 0.05292,0 0.05292,-0.03528 0,-0.01764 -0.03528,-0.08819 z m 6.879164,0.299861 q 0,-0.176389 -0.176389,-0.176389 h -1.852085 q -0.881945,0 -1.622779,-0.282222 -0.723195,-0.282223 -1.252362,-0.864306 -0.511528,-0.582084 -0.811389,-1.481668 -0.282223,-0.899584 -0.282223,-2.151946 0,-0.846667 0.176389,-1.640418 0.176389,-0.79375 0.582084,-1.411112 0.423334,-0.617361 1.111251,-0.987778 0.705556,-0.370417 1.746251,-0.370417 h 4.356808 q 0.176389,0 0.176389,0.176389 V 22.60989 q 0,0.176389 -0.176389,0.176389 h -1.799167 q -0.176389,0 -0.176389,-0.176389 z m 0,-7.037921 q 0,-0.176389 -0.176389,-0.176389 h -2.328335 q -0.264584,0 -0.529167,0.176389 -0.246945,0.15875 -0.458612,0.405695 -0.194028,0.246944 -0.335139,0.564444 -0.123472,0.317501 -0.123472,0.599723 v 1.358195 q 0,0.299862 0.123472,0.617362 0.141111,0.3175 0.335139,0.582084 0.211667,0.246944 0.458612,0.423333 0.264583,0.15875 0.529167,0.15875 h 2.328335 q 0.176389,0 0.176389,-0.176389 z m 9.895416,6.861532 q 0.705556,0 1.252362,-0.282222 0.564445,-0.282223 0.952501,-0.740834 0.405694,-0.47625 0.617361,-1.075973 0.211667,-0.617361 0.211667,-1.252362 0,-0.899584 -0.15875,-1.569862 -0.141111,-0.687917 -0.635,-1.252362 -0.105834,-0.141111 -0.317501,-0.282222 -0.211666,-0.158751 -0.211666,-0.211667 0,-0.05292 0.211666,-0.141111 0.211667,-0.0882 0.317501,-0.176389 0.493889,-0.388056 0.617361,-0.917223 0.123472,-0.546806 0.123472,-1.28764 0,-1.60514 -1.058334,-2.5223628 -1.058334,-0.9348618 -3.104446,-0.9348618 h -4.921254 q -0.176389,0 -0.176389,0.176389 V 8.851547 q 0,0.176389 0.176389,0.176389 h 5.132921 q 0.229305,0 0.440972,0.1058334 0.229306,0.1058334 0.405695,0.2822224 0.176389,0.1587501 0.282222,0.3880558 0.105834,0.2293054 0.105834,0.4762504 0,0.229306 -0.105834,0.47625 -0.105833,0.229306 -0.282222,0.423334 -0.176389,0.176389 -0.405695,0.299861 -0.211667,0.123473 -0.440972,0.123473 h -3.774725 q -0.176389,0 -0.176389,0.176389 v 1.852084 q 0,0.176389 0.176389,0.176389 h 3.033891 q 0.705556,0 1.111251,0.211667 0.423333,0.194028 0.635,0.493889 0.211667,0.299861 0.264583,0.635001 0.07056,0.335139 0.07056,0.582083 0,0.264584 -0.123472,0.529167 -0.105834,0.264584 -0.3175,0.49389 -0.194028,0.229305 -0.458612,0.370416 -0.246944,0.141112 -0.529167,0.141112 h -5.044726 q -0.176389,0 -0.176389,0.176389 v 1.852084 q 0,0.176389 0.176389,0.176389 z M 63.258762,17.177108 H 58.47862 q -0.687917,0 -0.687917,-0.582084 V 6.9994624 q 0,-0.176389 -0.176389,-0.176389 h -2.204863 q -0.176389,0 -0.176389,0.176389 v 9.3838956 q 0,1.481667 0.617361,2.222501 0.617362,0.723195 2.081391,0.846667 0.08819,0.01764 0.211667,0.01764 0.123472,0 0.264583,0 h 4.850698 q 0.176389,0 0.176389,-0.176389 v -1.940279 q 0,-0.176389 -0.176389,-0.176389 z m 7.249572,-7.073199 V 6.9994624 q 0,-0.176389 0.176389,-0.176389 h 1.799168 q 0.176389,0 0.176389,0.176389 V 19.293776 q 0,0.176389 -0.176389,0.176389 h -5.485698 q -0.846667,0 -1.44639,-0.423333 -0.599723,-0.440973 -0.987779,-1.111251 -0.388055,-0.670278 -0.582083,-1.464029 -0.176389,-0.79375 -0.176389,-1.534584 0,-1.040695 0.176389,-1.905002 0.194028,-0.864306 0.582083,-1.464028 0.388056,-0.617362 0.987779,-0.952501 0.599723,-0.335139 1.44639,-0.335139 h 3.333752 q 0.176389,0 0.176389,-0.176389 z m 0,2.504724 q 0,-0.176389 -0.176389,-0.176389 h -1.92264 q -0.546806,0 -1.005418,0.105833 -0.440972,0.0882 -0.776111,0.370417 -0.3175,0.264584 -0.493889,0.758473 -0.176389,0.493889 -0.176389,1.270001 0,0.723195 0.176389,1.181806 0.176389,0.458612 0.493889,0.723195 0.3175,0.264584 0.758473,0.370417 0.458611,0.105833 1.023056,0.105833 h 1.92264 q 0.176389,0 0.176389,-0.176389 z m 9.225156,-2.151946 v 6.191254 q 0,0.15875 -0.15875,0.299861 -0.141111,0.141112 -0.388056,0.246945 -0.246944,0.105833 -0.564444,0.15875 -0.299862,0.05292 -0.635001,0.05292 -0.335139,0 -0.652639,-0.05292 -0.3175,-0.05292 -0.564445,-0.15875 -0.229306,-0.105833 -0.388056,-0.246945 -0.141111,-0.141111 -0.141111,-0.299861 v -6.191254 q 0,-0.176389 -0.176389,-0.176389 h -1.799168 q -0.176389,0 -0.176389,0.176389 v 6.949727 q 0,0.564445 0.335139,0.970139 0.352778,0.405695 0.899584,0.670279 0.546806,0.264583 1.234723,0.388055 0.705556,0.123473 1.428751,0.123473 0.705556,0 1.393473,-0.123473 0.705556,-0.123472 1.252362,-0.388055 0.564445,-0.264584 0.899584,-0.670279 0.352778,-0.405694 0.352778,-0.970139 v -6.949727 q 0,-0.176389 -0.176389,-0.176389 h -1.799168 q -0.176389,0 -0.176389,0.176389 z M 90.263923,6.9994624 v 8.5901446 q 0,0.229306 -0.105833,0.511528 -0.08819,0.264584 -0.264584,0.511528 -0.15875,0.229306 -0.405695,0.405695 -0.246944,0.15875 -0.546805,0.15875 h -1.852085 q -0.3175,0 -0.564445,-0.15875 Q 86.29517,16.841969 86.13642,16.612663 85.97767,16.365719 85.889476,16.101135 85.81892,15.818913 85.81892,15.607246 V 6.9994624 q 0,-0.176389 -0.176389,-0.176389 h -2.204863 q -0.176389,0 -0.176389,0.176389 v 9.0663946 q 0,0.49389 0.123473,0.934862 0.141111,0.423334 0.370417,0.81139 0.229305,0.352778 0.564445,0.687917 0.264583,0.264583 0.635,0.493889 0.352778,0.229306 0.846667,0.352778 0.511528,0.123472 1.093612,0.123472 h 2.063751 q 0.458612,0 0.846668,-0.07056 0.388055,-0.08819 0.705556,-0.194028 0.3175,-0.123473 0.670278,-0.299862 0.352778,-0.194027 0.617361,-0.458611 0.246945,-0.264584 0.440973,-0.564445 0.211667,-0.3175 0.3175,-0.599722 0.123472,-0.299862 0.194028,-0.776112 0.07056,-0.493889 0.07056,-1.12889 V 6.9994624 q 0,-0.176389 -0.176389,-0.176389 h -2.204863 q -0.176389,0 -0.176389,0.176389 z"
       id="text1"
       aria-label="uxq3LduU" /></g></svg>
