<?xml version="1.0" encoding="UTF-8" standalone="no"?>
<!-- Created with Inkscape (http://www.inkscape.org/) -->

<svg
   style="background-color:black"
   width="128mm"
   height="32mm"
   viewBox="0 0 128 32"
   version="1.1"
   id="svg1"
   xml:space="preserve"
   inkscape:version="1.3.2 (091e20e, 2023-11-25)"
   sodipodi:docname="error intro.svg"
   inkscape:export-filename="Error Intro.png"
   inkscape:export-xdpi="50.799999"
   inkscape:export-ydpi="50.799999"
   xmlns:inkscape="http://www.inkscape.org/namespaces/inkscape"
   xmlns:sodipodi="http://sodipodi.sourceforge.net/DTD/sodipodi-0.dtd"
   xmlns:xlink="http://www.w3.org/1999/xlink"
   xmlns="http://www.w3.org/2000/svg"
   xmlns:svg="http://www.w3.org/2000/svg"><sodipodi:namedview
     id="namedview1"
     pagecolor="#000000"
     bordercolor="#000000"
     borderopacity="0.25"
     inkscape:showpageshadow="2"
     inkscape:pageopacity="0.0"
     inkscape:pagecheckerboard="0"
     inkscape:deskcolor="#d1d1d1"
     inkscape:document-units="mm"
     inkscape:zoom="3.1895021"
     inkscape:cx="276.21866"
     inkscape:cy="37.780191"
     inkscape:window-width="2800"
     inkscape:window-height="1212"
     inkscape:window-x="0"
     inkscape:window-y="25"
     inkscape:window-maximized="0"
     inkscape:current-layer="layer1"
     inkscape:export-bgcolor="#000000ff" /><defs
     id="defs1"><color-profile
       name="Black-White"
       xlink:href="file:///Library/ColorSync/Profiles/Black%20&amp;%20White.icc"
       id="color-profile2" /></defs><g
     inkscape:label="Layer 1"
     inkscape:groupmode="layer"
     id="layer1"><path
       d="m 20.567885,20.529369 q 0.313224,0 0.515131,-0.201448 0.201926,-0.201473 0.201926,-0.514685 0,-0.313212 -0.201449,-0.515133 -0.201449,-0.201921 -0.514654,-0.201921 -0.313204,0 -0.515131,0.201473 -0.201926,0.201447 -0.201926,0.51466 0,0.313212 0.201449,0.515133 0.201449,0.201921 0.514654,0.201921 z m -0.537968,-3.712537 h 1.194294 v -6.566805 h -1.194294 z m 0.547218,8.732787 q -2.077771,0 -3.892049,-0.787369 -1.814258,-0.787371 -3.177775,-2.150271 -1.363518,-1.362923 -2.151234,-3.17835 -0.787715,-1.815425 -0.787715,-3.895404 0,-2.069874 0.787377,-3.89117 0.787357,-1.8212924 2.150259,-3.1716374 1.362921,-1.350373 3.178352,-2.138085 1.815431,-0.787713 3.89541,-0.787713 2.069874,0 3.891173,0.787371 1.82128,0.787369 3.171629,2.13711 1.350369,1.349766 2.138085,3.1744544 0.787715,1.824664 0.787715,3.892301 0,2.077769 -0.787377,3.892037 -0.787357,1.814268 -2.13711,3.17293 -1.349752,1.35866 -3.174453,2.151215 -1.824662,0.792581 -3.892287,0.792581 z"
       id="path1"
       style="fill:#ffffff;fill-opacity:1;fill-rule:nonzero;stroke-width:0.026316"
       inkscape:label="Icon" /><path
       style="-inkscape-font-specification:Prototype;fill:#ffffff;stroke-width:0.264583"
       d="m 51.058896,20.379702 q 0,0.335139 0.141111,0.670278 0.15875,0.317501 0.405695,0.582084 0.246945,0.264584 0.564445,0.440973 0.3175,0.15875 0.635,0.15875 h 6.826255 q 0.176389,0 0.176389,-0.176389 v -1.940279 q 0,-0.176389 -0.176389,-0.176389 h -5.838476 q -0.176389,0 -0.176389,-0.176389 V 17.2047 q 0,-0.176389 0.176389,-0.176389 h 5.415142 q 0.176389,0 0.176389,-0.176389 v -2.028474 q 0,-0.176389 -0.176389,-0.176389 h -5.415142 q -0.176389,0 -0.176389,-0.176389 v -2.39889 q 0,-0.194028 0.176389,-0.194028 h 5.838476 q 0.176389,0 0.176389,-0.176389 V 9.7610839 q 0,-0.176389 -0.229306,-0.176389 h -5.979587 q -1.234723,0 -1.887362,0.7584731 -0.65264,0.740833 -0.65264,1.940279 z m 12.470697,-7.337783 q -0.47625,0 -0.899584,0.194028 -0.423333,0.176389 -0.740834,0.49389 -0.3175,0.3175 -0.511528,0.740833 -0.176389,0.423334 -0.176389,0.881945 v 6.702783 q 0,0.176389 0.176389,0.176389 h 1.975557 q 0.176389,0 0.176389,-0.176389 v -6.085421 q 0,-0.105833 0.05292,-0.229306 0.05292,-0.141111 0.141111,-0.246944 0.105834,-0.123473 0.229306,-0.211667 0.123472,-0.08819 0.282222,-0.08819 h 1.693335 q 0.176389,0 0.176389,-0.176389 v -1.799168 q 0,-0.176389 -0.176389,-0.176389 z m 5.803207,0 q -0.476251,0 -0.899584,0.194028 -0.423334,0.176389 -0.740834,0.49389 -0.3175,0.3175 -0.511528,0.740833 -0.176389,0.423334 -0.176389,0.881945 v 6.702783 q 0,0.176389 0.176389,0.176389 h 1.975557 q 0.176389,0 0.176389,-0.176389 v -6.085421 q 0,-0.105833 0.05292,-0.229306 0.05292,-0.141111 0.141112,-0.246944 0.105833,-0.123473 0.229305,-0.211667 0.123473,-0.08819 0.282223,-0.08819 h 1.693334 q 0.176389,0 0.176389,-0.176389 v -1.799168 q 0,-0.176389 -0.176389,-0.176389 z m 12.311961,2.645836 q 0,-0.635001 -0.246944,-1.111251 -0.229306,-0.493889 -0.617362,-0.829029 -0.370417,-0.352778 -0.864306,-0.529167 -0.47625,-0.176389 -0.9525,-0.176389 h -3.563058 q -0.564445,0 -1.075973,0.194028 -0.49389,0.194028 -0.864306,0.564445 -0.370417,0.352778 -0.599723,0.864306 -0.211667,0.511528 -0.211667,1.146529 v 3.104446 q 0,0.617362 0.123472,1.217085 0.123473,0.582083 0.440973,1.058334 0.3175,0.458611 0.846667,0.758472 0.529167,0.282223 1.340557,0.282223 h 3.139724 q 0.811389,0 1.393473,-0.15875 0.582084,-0.15875 0.952501,-0.564445 0.388056,-0.405695 0.564445,-1.093612 0.194027,-0.687917 0.194027,-1.746251 z m -2.169584,1.92264 v 1.411112 q 0,0.458611 -0.476251,0.758473 -0.458611,0.299861 -1.093612,0.299861 h -1.622778 q -0.229306,0 -0.49389,-0.03528 -0.264583,-0.05292 -0.493889,-0.176389 -0.229306,-0.141111 -0.388056,-0.370417 -0.141111,-0.229306 -0.141111,-0.582084 v -2.822224 q 0,-0.246944 0.123472,-0.423333 0.123473,-0.176389 0.299862,-0.282223 0.194028,-0.105833 0.423333,-0.141111 0.229306,-0.05292 0.458612,-0.05292 h 1.92264 q 0.264584,0 0.529167,0.05292 0.264584,0.05292 0.47625,0.176389 0.211667,0.105833 0.335139,0.282222 0.141112,0.158751 0.141112,0.370417 z m 5.732626,-4.568476 q -0.47625,0 -0.899583,0.194028 -0.423334,0.176389 -0.740834,0.49389 -0.3175,0.3175 -0.511528,0.740833 -0.176389,0.423334 -0.176389,0.881945 v 6.702783 q 0,0.176389 0.176389,0.176389 h 1.975556 q 0.176389,0 0.176389,-0.176389 v -6.085421 q 0,-0.105833 0.05292,-0.229306 0.05292,-0.141111 0.141111,-0.246944 0.105834,-0.123473 0.229306,-0.211667 0.123472,-0.08819 0.282223,-0.08819 h 1.693334 q 0.176389,0 0.176389,-0.176389 v -1.799168 q 0,-0.176389 -0.176389,-0.176389 z"
       id="text1"
       aria-label="Error" /></g></svg>
