<?xml version="1.0" encoding="UTF-8" standalone="no"?>
<!-- Created with Inkscape (http://www.inkscape.org/) -->

<svg
   style="background-color:black"
   width="128mm"
   height="32mm"
   viewBox="0 0 128 32"
   version="1.1"
   id="svg1"
   xml:space="preserve"
   inkscape:version="1.3.2 (091e20e, 2023-11-25)"
   sodipodi:docname="error.svg"
   inkscape:export-filename="Error.png"
   inkscape:export-xdpi="50.799999"
   inkscape:export-ydpi="50.799999"
   xmlns:inkscape="http://www.inkscape.org/namespaces/inkscape"
   xmlns:sodipodi="http://sodipodi.sourceforge.net/DTD/sodipodi-0.dtd"
   xmlns:xlink="http://www.w3.org/1999/xlink"
   xmlns="http://www.w3.org/2000/svg"
   xmlns:svg="http://www.w3.org/2000/svg"><sodipodi:namedview
     id="namedview1"
     pagecolor="#000000"
     bordercolor="#000000"
     borderopacity="0.25"
     inkscape:showpageshadow="2"
     inkscape:pageopacity="0.0"
     inkscape:pagecheckerboard="0"
     inkscape:deskcolor="#d1d1d1"
     inkscape:document-units="mm"
     inkscape:zoom="3.1895021"
     inkscape:cx="213.51295"
     inkscape:cy="27.12022"
     inkscape:window-width="2800"
     inkscape:window-height="1212"
     inkscape:window-x="0"
     inkscape:window-y="25"
     inkscape:window-maximized="0"
     inkscape:current-layer="layer1"
     inkscape:export-bgcolor="#000000ff" /><defs
     id="defs1"><color-profile
       name="Black-White"
       xlink:href="file:///Library/ColorSync/Profiles/Black%20&amp;%20White.icc"
       id="color-profile2" /></defs><g
     inkscape:label="Layer 1"
     inkscape:groupmode="layer"
     id="layer1"><path
       style="font-size:9.17222px;line-height:0;font-family:Monospace;-inkscape-font-specification:Monospace;fill:#ffffff;stroke:#000000;stroke-width:0.264583;stroke-opacity:0"
       d="M 4.6619835,14.050534 H 1.3612382 V 7.731197 H 4.6351118 V 8.3716401 H 2.0957324 V 10.328798 H 4.536582 v 0.640444 H 2.0957324 v 2.440849 H 4.6619835 Z M 10.322963,13.840039 Q 9.6198191,14.1625 8.9390684,14.1625 q -1.2495359,0 -1.2495359,-1.321194 V 9.988423 H 6.7938079 V 9.3838089 H 7.6895325 V 8.1074013 H 8.3702832 V 9.3838089 H 9.9557158 V 9.988423 H 8.3702832 v 2.669259 q 0,0.42547 0.1881022,0.662837 0.1881022,0.232888 0.5105631,0.232888 0.5732637,0 1.1330915,-0.255281 z m 5.459441,0.210495 h -0.698665 v -2.99172 q 0,-0.622529 -0.201538,-0.900203 -0.197059,-0.2821535 -0.622529,-0.2821535 -0.640443,0 -1.374937,0.7971945 v 3.376882 H 12.18607 V 7.731197 h 0.698665 v 2.337841 q 0.752409,-0.7971947 1.585433,-0.7971947 1.312236,0 1.312236,1.5854327 z m 5.643066,-2.310969 h -3.202215 q 0,0.792716 0.456819,1.307758 0.461298,0.515041 1.128613,0.515041 0.635965,0 1.312237,-0.228409 l 0.120923,0.559827 q -0.61805,0.277675 -1.442117,0.277675 -1.039041,0 -1.675005,-0.667315 -0.635964,-0.667315 -0.635964,-1.800406 0,-1.110699 0.568785,-1.7690564 0.573263,-0.6628363 1.477945,-0.6628363 0.806152,0 1.348066,0.6135714 0.541913,0.6135713 0.541913,1.6346973 z M 20.664104,11.17078 q 0,-0.546392 -0.340375,-0.918118 -0.340375,-0.3762045 -0.761366,-0.3762045 -0.541913,0 -0.900203,0.3582895 -0.353811,0.35829 -0.394119,0.936033 z m 6.198414,-1.6615696 -0.282154,0.6717936 q -0.461298,-0.2015382 -0.797195,-0.2015382 -0.309025,0 -0.604614,0.1791452 -0.295589,0.174666 -0.546392,0.506084 -0.246324,0.32694 -0.246324,0.367247 v 3.018592 H 23.691652 V 9.3838089 h 0.694187 v 0.9449891 q 0.559828,-1.0569547 1.451074,-1.0569547 0.528477,0 1.025605,0.2373671 z m 5.432568,4.5413236 h -0.698665 v -2.99172 q 0,-0.622529 -0.201538,-0.900203 -0.197059,-0.2821535 -0.622529,-0.2821535 -0.640443,0 -1.374937,0.7971945 v 3.376882 H 28.698752 V 9.3838089 h 0.698665 v 0.6852291 q 0.752409,-0.7971947 1.585433,-0.7971947 1.312236,0 1.312236,1.5854327 z m 5.643068,-2.310969 h -3.202215 q 0,0.792716 0.456819,1.307758 0.461298,0.515041 1.128613,0.515041 0.635965,0 1.312237,-0.228409 l 0.120923,0.559827 q -0.61805,0.277675 -1.442117,0.277675 -1.039041,0 -1.675005,-0.667315 -0.635965,-0.667315 -0.635965,-1.800406 0,-1.110699 0.568786,-1.7690564 0.573263,-0.6628363 1.477945,-0.6628363 0.806152,0 1.348066,0.6135714 0.541913,0.6135713 0.541913,1.6346973 z M 37.176788,11.17078 q 0,-0.546392 -0.340375,-0.918118 -0.340376,-0.3762045 -0.761366,-0.3762045 -0.541914,0 -0.900203,0.3582895 -0.353812,0.35829 -0.394119,0.936033 z m 6.171542,2.669259 q -0.703144,0.322461 -1.383895,0.322461 -1.249536,0 -1.249536,-1.321194 V 9.988423 H 39.819175 V 9.3838089 h 0.895724 V 8.1074013 h 0.680751 v 1.2764076 h 1.585433 V 9.988423 H 41.39565 v 2.669259 q 0,0.42547 0.188102,0.662837 0.188102,0.232888 0.510563,0.232888 0.573264,0 1.133092,-0.255281 z m 10.945752,0.210495 h -0.698665 v -0.671793 q -0.214974,0.344854 -0.61805,0.568785 -0.398597,0.223931 -0.841981,0.223931 -0.801674,0 -1.26745,-0.712101 -0.465777,-0.71658 -0.465777,-1.813842 0,-1.025605 0.483691,-1.6973986 0.48817,-0.6762721 1.289844,-0.6762721 0.882288,0 1.419723,0.7165797 V 7.731197 h 0.698665 z M 53.595417,12.621853 V 10.68261 q -0.501606,-0.8061525 -1.209228,-0.8061525 -0.577742,0 -0.913639,0.5150415 -0.335897,0.510563 -0.335897,1.294322 0,0.806152 0.313504,1.33463 0.317982,0.523999 0.868853,0.523999 0.264238,0 0.532956,-0.143316 0.268717,-0.143316 0.506084,-0.429948 0.237367,-0.286632 0.237367,-0.349333 z m 4.715989,-5.0026216 q 0.19706,0 0.335897,0.1433159 0.138837,0.1388374 0.138837,0.3358968 0,0.2060166 -0.138837,0.344854 -0.134359,0.1388373 -0.335897,0.1388373 -0.183623,0 -0.326939,-0.143316 -0.138838,-0.1477945 -0.138838,-0.3403753 0,-0.1925808 0.138838,-0.3358968 0.143316,-0.1433159 0.326939,-0.1433159 z m 0.340376,6.4313026 H 57.953116 V 9.988423 H 56.578179 V 9.3838089 h 2.073603 z m 6.180502,-3.99941 q -0.5867,-0.192581 -1.10622,-0.192581 -0.568785,0 -0.900203,0.192581 -0.331418,0.188102 -0.331418,0.506084 0,0.201538 0.152273,0.353811 0.152273,0.147795 0.609093,0.277675 l 0.667315,0.192581 q 0.461298,0.12988 0.752408,0.313503 0.291111,0.179145 0.434427,0.438906 0.147794,0.255281 0.147794,0.595656 0,0.667315 -0.559828,1.056955 -0.559827,0.385162 -1.424202,0.385162 -0.859895,0 -1.419723,-0.25976 l 0.134358,-0.604614 q 0.5867,0.277674 1.258494,0.277674 0.582221,0 0.944989,-0.214973 0.367247,-0.219453 0.367247,-0.577743 0,-0.241846 -0.183623,-0.429948 -0.179145,-0.19258 -0.850939,-0.398597 -0.541913,-0.165709 -0.797195,-0.246324 -0.255281,-0.08509 -0.474734,-0.246325 -0.219452,-0.16123 -0.335897,-0.385161 -0.111965,-0.223931 -0.111965,-0.501606 0,-0.6046142 0.528477,-0.9584254 0.528478,-0.3538113 1.401809,-0.3538113 0.564307,0 1.254015,0.1925808 z m 5.974486,3.842658 q -0.609093,0.277675 -1.339108,0.277675 -1.101742,0 -1.760099,-0.667315 -0.653879,-0.671793 -0.653879,-1.782492 0,-1.110698 0.658357,-1.7780132 0.662837,-0.6717935 1.737706,-0.6717935 0.703144,0 1.339109,0.2463243 L 70.605232,10.09591 q -0.635964,-0.2194525 -1.146528,-0.2194525 -0.770323,0 -1.222664,0.4971275 -0.447862,0.497127 -0.447862,1.348065 0,0.779281 0.465777,1.312237 0.465777,0.528477 1.213707,0.528477 0.591178,0 1.218185,-0.228409 z m 3.712777,-4.6219387 q 0.962904,0 1.53169,0.6717935 0.568785,0.6717932 0.568785,1.7690562 0,1.10622 -0.568785,1.782492 -0.568786,0.676272 -1.53169,0.676272 -0.967382,0 -1.536167,-0.671793 -0.564307,-0.676272 -0.564307,-1.786971 0,-1.101741 0.568785,-1.7690562 0.568785,-0.6717935 1.531689,-0.6717935 z m 0,4.2905207 q 0.635965,0 1.003212,-0.537434 0.367247,-0.537435 0.367247,-1.30328 0,-0.806152 -0.362768,-1.325672 -0.362769,-0.5195205 -1.007691,-0.5195205 -0.6494,0 -1.00769,0.5150415 -0.35829,0.510563 -0.35829,1.330151 0,0.779281 0.362769,1.312237 0.362768,0.528477 1.003211,0.528477 z m 7.313591,0.48817 h -0.698665 v -2.99172 q 0,-0.622529 -0.201538,-0.900203 -0.19706,-0.2821535 -0.622529,-0.2821535 -0.640443,0 -1.374937,0.7971945 v 3.376882 H 78.236804 V 9.3838089 h 0.698665 v 0.6852291 q 0.752408,-0.7971947 1.585432,-0.7971947 1.312237,0 1.312237,1.5854327 z m 5.504227,0 h -0.698666 v -2.99172 q 0,-0.622529 -0.201538,-0.900203 -0.197059,-0.2821535 -0.622528,-0.2821535 -0.640443,0 -1.374938,0.7971945 v 3.376882 H 83.74103 V 9.3838089 h 0.698665 v 0.6852291 q 0.752409,-0.7971947 1.585433,-0.7971947 1.312237,0 1.312237,1.5854327 z m 5.643064,-2.310969 h -3.202216 q 0,0.792716 0.45682,1.307758 0.461298,0.515041 1.128613,0.515041 0.635964,0 1.312236,-0.228409 l 0.120923,0.559827 q -0.61805,0.277675 -1.442117,0.277675 -1.03904,0 -1.675005,-0.667315 -0.635964,-0.667315 -0.635964,-1.800406 0,-1.110699 0.568785,-1.7690564 0.573264,-0.6628363 1.477946,-0.6628363 0.806152,0 1.348065,0.6135714 0.541914,0.6135713 0.541914,1.6346973 z M 92.219063,11.17078 q 0,-0.546392 -0.340376,-0.918118 -0.340375,-0.3762045 -0.761366,-0.3762045 -0.541913,0 -0.900203,0.3582895 -0.353811,0.35829 -0.394119,0.936033 z m 6.10884,2.723002 q -0.609092,0.277675 -1.339108,0.277675 -1.101741,0 -1.760099,-0.667315 -0.653879,-0.671793 -0.653879,-1.782492 0,-1.110698 0.658358,-1.7780132 0.662836,-0.6717935 1.737706,-0.6717935 0.703143,0 1.339108,0.2463243 L 98.126365,10.09591 q -0.635964,-0.2194525 -1.146527,-0.2194525 -0.770323,0 -1.222664,0.4971275 -0.447863,0.497127 -0.447863,1.348065 0,0.779281 0.465777,1.312237 0.465777,0.528477 1.213707,0.528477 0.591178,0 1.218186,-0.228409 z m 5.566927,-0.05374 q -0.70314,0.322461 -1.38389,0.322461 -1.24954,0 -1.24954,-1.321194 V 9.988423 h -0.89572 V 9.3838089 h 0.89572 V 8.1074013 h 0.68075 v 1.2764076 h 1.58543 V 9.988423 h -1.58543 v 2.669259 q 0,0.42547 0.1881,0.662837 0.18811,0.232888 0.51057,0.232888 0.57326,0 1.13309,-0.255281 z m 5.59828,-2.100474 h -3.20222 q 0,0.792716 0.45682,1.307758 0.4613,0.515041 1.12862,0.515041 0.63596,0 1.31223,-0.228409 l 0.12093,0.559827 q -0.61805,0.277675 -1.44212,0.277675 -1.03904,0 -1.67501,-0.667315 -0.63596,-0.667315 -0.63596,-1.800406 0,-1.110699 0.56878,-1.7690564 0.57327,-0.6628363 1.47795,-0.6628363 0.80615,0 1.34807,0.6135714 0.54191,0.6135713 0.54191,1.6346973 z m -0.76137,-0.568785 q 0,-0.546392 -0.34037,-0.918118 -0.34038,-0.3762045 -0.76137,-0.3762045 -0.54191,0 -0.9002,0.3582895 -0.35381,0.35829 -0.39412,0.936033 z m 6.10884,2.879754 h -0.69866 v -0.671793 q -0.21498,0.344854 -0.61805,0.568785 -0.3986,0.223931 -0.84198,0.223931 -0.80168,0 -1.26745,-0.712101 -0.46578,-0.71658 -0.46578,-1.813842 0,-1.025605 0.48369,-1.6973986 0.48817,-0.6762721 1.28984,-0.6762721 0.88229,0 1.41973,0.7165797 V 7.731197 h 0.69866 z m -0.69866,-1.428681 V 10.68261 q -0.50161,-0.8061525 -1.20923,-0.8061525 -0.57774,0 -0.91364,0.5150415 -0.3359,0.510563 -0.3359,1.294322 0,0.806152 0.31351,1.33463 0.31798,0.523999 0.86885,0.523999 0.26424,0 0.53296,-0.143316 0.26871,-0.143316 0.50608,-0.429948 0.23737,-0.286632 0.23737,-0.349333 z"
       id="text1-6"
       aria-label="Ethernet disconnected" /><path
       style="font-size:9.17222px;line-height:0;font-family:Monospace;-inkscape-font-specification:Monospace;fill:#ffffff;stroke:#000000;stroke-width:0.264583;stroke-opacity:0"
       d="M 3.4169262,21.320044 H 0.54612879 V 20.6796 H 1.6344342 V 15.641149 H 0.54612879 V 15.000706 H 3.4169262 v 0.640443 H 2.3689284 V 20.6796 h 1.0479978 z m 5.9073038,0 H 8.6255647 v -2.991721 q 0,-0.622528 -0.201538,-0.900203 -0.1970594,-0.282153 -0.6225286,-0.282153 -0.6404431,0 -1.3749373,0.797195 v 3.376882 H 5.7278956 v -4.666726 h 0.6986652 v 0.68523 q 0.7524087,-0.797195 1.5854326,-0.797195 1.3122366,0 1.3122366,1.585432 z m 2.606558,-4.062112 q 0.232889,-0.322461 0.627008,-0.51952 0.398597,-0.197059 0.837502,-0.197059 0.806152,0 1.262972,0.667315 0.461298,0.662836 0.461298,1.728748 0,1.07487 -0.483691,1.791449 -0.479213,0.712101 -1.294322,0.712101 -0.434427,0 -0.81511,-0.214974 -0.376204,-0.219452 -0.595657,-0.577742 v 2.516986 h -0.698665 v -6.511918 h 0.698665 z m 0,0.694187 v 1.939244 q 0.19706,0.394119 0.532957,0.658357 0.335896,0.264239 0.694186,0.264239 0.564307,0 0.895725,-0.528477 0.335897,-0.528478 0.335897,-1.312237 0,-0.806152 -0.317983,-1.316715 -0.317982,-0.510563 -0.886767,-0.510563 -0.738973,0 -1.254015,0.806152 z m 8.446684,3.157429 q -0.703143,0.322461 -1.383894,0.322461 -1.249536,0 -1.249536,-1.321194 v -2.852883 h -0.895725 v -0.604614 h 0.895725 v -1.276407 h 0.680751 v 1.276407 h 1.585432 v 0.604614 h -1.585432 v 2.66926 q 0,0.425469 0.188102,0.662836 0.188102,0.232888 0.510563,0.232888 0.573264,0 1.133092,-0.255281 z m 10.945753,0.05374 q -0.609093,0.277674 -1.339108,0.277674 -1.101742,0 -1.760099,-0.667314 -0.653879,-0.671794 -0.653879,-1.782492 0,-1.110699 0.658357,-1.778014 0.662837,-0.671793 1.737706,-0.671793 0.703144,0 1.339109,0.246324 l -0.183624,0.577742 q -0.635964,-0.219452 -1.146528,-0.219452 -0.770323,0 -1.222664,0.497127 -0.447862,0.497127 -0.447862,1.348066 0,0.77928 0.465777,1.312236 0.465777,0.528478 1.213707,0.528478 0.591178,0 1.218185,-0.22841 z m 5.566931,-0.05374 q -0.703144,0.322461 -1.383894,0.322461 -1.249536,0 -1.249536,-1.321194 v -2.852883 h -0.895725 v -0.604614 h 0.895725 v -1.276407 h 0.680751 v 1.276407 h 1.585432 v 0.604614 h -1.585432 v 2.66926 q 0,0.425469 0.188102,0.662836 0.188102,0.232888 0.510563,0.232888 0.573264,0 1.133091,-0.255281 z m 5.119065,0.210496 H 40.101328 V 15.60532 h -1.218186 v -0.604614 h 1.916851 v 5.714723 h 1.209228 z m 9.530508,-6.440261 q 1.003212,0 1.540646,0.864375 0.541914,0.859895 0.541914,2.418456 0,1.509296 -0.523999,2.396064 -0.523999,0.882288 -1.558561,0.882288 -0.998733,0 -1.540646,-0.859895 -0.541914,-0.859896 -0.541914,-2.418457 0,-1.513774 0.523999,-2.396063 0.528478,-0.886768 1.558561,-0.886768 z m 0,5.916262 q 0.662836,0 0.980819,-0.627008 0.32246,-0.631485 0.32246,-2.006423 0,-1.379416 -0.32246,-2.001944 -0.317983,-0.627008 -0.980819,-0.627008 -0.653879,0 -0.97634,0.640444 -0.322461,0.640443 -0.322461,1.988508 0,1.36598 0.317983,2.001945 0.322461,0.631486 0.980818,0.631486 z m -0.01791,-3.305224 q 0.282153,0 0.474734,0.197059 0.197059,0.192581 0.197059,0.474734 0,0.291111 -0.197059,0.501606 -0.19706,0.206017 -0.474734,0.206017 -0.273196,0 -0.470256,-0.206017 -0.192581,-0.210495 -0.192581,-0.501606 0,-0.286632 0.188103,-0.479212 0.19258,-0.192581 0.474734,-0.192581 z m 7.506171,3.829223 h -0.788238 l -1.249536,-1.827279 -1.294322,1.827279 h -0.743451 l 1.661569,-2.337842 -1.661569,-2.328884 h 0.801673 l 1.254015,1.813843 1.276407,-1.813843 h 0.743452 l -1.652612,2.302013 z m 5.172812,0 h -3.475411 v -0.532957 q 1.321193,-1.473467 1.715312,-1.975072 0.394119,-0.501606 0.640443,-1.052477 0.246325,-0.55087 0.246325,-1.097263 0,-0.528477 -0.322461,-0.833023 -0.317982,-0.304547 -0.895725,-0.304547 -0.443383,0 -1.191314,0.273196 l -0.103008,-0.631486 q 0.676272,-0.286632 1.415245,-0.286632 0.84646,0 1.361501,0.479213 0.519521,0.474734 0.519521,1.271929 0,0.568785 -0.268718,1.128613 -0.264238,0.559828 -0.68075,1.07487 -0.416512,0.515041 -1.621262,1.845192 h 2.660302 z m 3.851619,-6.440261 q 1.003211,0 1.540646,0.864375 0.541914,0.859895 0.541914,2.418456 0,1.509296 -0.523999,2.396064 -0.523999,0.882288 -1.558561,0.882288 -0.998733,0 -1.540647,-0.859895 -0.541913,-0.859896 -0.541913,-2.418457 0,-1.513774 0.523999,-2.396063 0.528477,-0.886768 1.558561,-0.886768 z m 0,5.916262 q 0.662836,0 0.980818,-0.627008 0.322461,-0.631485 0.322461,-2.006423 0,-1.379416 -0.322461,-2.001944 -0.317982,-0.627008 -0.980818,-0.627008 -0.653879,0 -0.97634,0.640444 -0.322461,0.640443 -0.322461,1.988508 0,1.36598 0.317982,2.001945 0.322461,0.631486 0.980819,0.631486 z m -0.01792,-3.305224 q 0.282154,0 0.474734,0.197059 0.19706,0.192581 0.19706,0.474734 0,0.291111 -0.19706,0.501606 -0.197059,0.206017 -0.474734,0.206017 -0.273196,0 -0.470255,-0.206017 -0.192581,-0.210495 -0.192581,-0.501606 0,-0.286632 0.188102,-0.479212 0.192581,-0.192581 0.474734,-0.192581 z m 11.035325,-0.949468 q 0.962904,0 1.53169,0.671793 0.568785,0.671794 0.568785,1.769056 0,1.10622 -0.568785,1.782492 -0.568786,0.676272 -1.53169,0.676272 -0.967382,0 -1.536167,-0.671793 -0.564307,-0.676272 -0.564307,-1.786971 0,-1.101741 0.568785,-1.769056 0.568785,-0.671793 1.531689,-0.671793 z m 0,4.290521 q 0.635965,0 1.003212,-0.537435 0.367247,-0.537435 0.367247,-1.303279 0,-0.806153 -0.362768,-1.325673 -0.362769,-0.51952 -1.007691,-0.51952 -0.6494,0 -1.00769,0.515041 -0.35829,0.510563 -0.35829,1.330152 0,0.77928 0.362769,1.312236 0.362768,0.528478 1.003211,0.528478 z m 7.358377,-5.75951 -0.183623,0.568785 q -0.497128,-0.143316 -0.891246,-0.143316 -0.376205,0 -0.519521,0.214974 -0.138837,0.210496 -0.138837,0.855417 v 0.08509 h 1.567518 v 0.604614 h -1.567518 v 4.062112 h -0.698665 v -4.062112 h -1.1734 v -0.604614 h 1.1734 v -0.156752 q 0,-0.891246 0.304546,-1.249535 0.304546,-0.35829 1.052477,-0.35829 0.483691,0 1.074869,0.183623 z m 5.504227,0 -0.183624,0.568785 q -0.497127,-0.143316 -0.891246,-0.143316 -0.376204,0 -0.51952,0.214974 -0.138837,0.210496 -0.138837,0.855417 v 0.08509 h 1.567518 v 0.604614 h -1.567518 v 4.062112 h -0.698666 v -4.062112 h -1.173399 v -0.604614 h 1.173399 v -0.156752 q 0,-0.891246 0.304547,-1.249535 0.304546,-0.35829 1.052476,-0.35829 0.483692,0 1.07487,0.183623 z m 5.119065,6.24768 H 95.143602 V 15.60532 h -1.218185 v -0.604614 h 1.916851 v 5.714723 h 1.209228 z m 4.339784,-6.431303 q 0.19706,0 0.3359,0.143316 0.13883,0.138837 0.13883,0.335896 0,0.206017 -0.13883,0.344854 -0.13436,0.138838 -0.3359,0.138838 -0.18362,0 -0.32694,-0.143316 -0.13884,-0.147795 -0.13884,-0.340376 0,-0.19258 0.13884,-0.335896 0.14332,-0.143316 0.32694,-0.143316 z m 0.34038,6.431303 h -0.69867 v -4.062112 h -1.374937 v -0.604614 h 2.073607 z m 6.66866,0 h -0.69866 v -2.991721 q 0,-0.622528 -0.20154,-0.900203 -0.19706,-0.282153 -0.62253,-0.282153 -0.64044,0 -1.37493,0.797195 v 3.376882 h -0.69867 v -4.666726 h 0.69867 v 0.68523 q 0.7524,-0.797195 1.58543,-0.797195 1.31223,0 1.31223,1.585432 z m 5.64307,-2.31097 h -3.20222 q 0,0.792716 0.45682,1.307758 0.4613,0.515042 1.12862,0.515042 0.63596,0 1.31223,-0.22841 l 0.12093,0.559828 q -0.61805,0.277674 -1.44212,0.277674 -1.03904,0 -1.67501,-0.667314 -0.63596,-0.667315 -0.63596,-1.800407 0,-1.110699 0.56878,-1.769056 0.57327,-0.662836 1.47795,-0.662836 0.80615,0 1.34807,0.613571 0.54191,0.613571 0.54191,1.634697 z m -0.76137,-0.568785 q 0,-0.546392 -0.34037,-0.918118 -0.34038,-0.376204 -0.76137,-0.376204 -0.54191,0 -0.9002,0.35829 -0.35381,0.358289 -0.39412,0.936032 z"
       id="text1-62"
       aria-label="Inpt ctl 0x20 offline" /><path
       style="font-size:9.17222px;line-height:0;font-family:Monospace;-inkscape-font-specification:Monospace;fill:#ffffff;stroke:#000000;stroke-width:0.264583;stroke-opacity:0"
       d="M 4.335044,23.063225 H 2.3868429 v 5.72368 H 1.6568273 v -5.72368 H -0.30033099 V 22.467568 H 4.335044 Z m 5.1280233,3.412711 H 6.2608517 q 0,0.792716 0.4568196,1.307758 0.4612982,0.515041 1.128613,0.515041 0.6359645,0 1.3122366,-0.228409 l 0.1209228,0.559827 q -0.61805,0.277675 -1.4421166,0.277675 -1.0390406,0 -1.6750051,-0.667315 -0.6359645,-0.667315 -0.6359645,-1.800406 0,-1.110699 0.5687852,-1.769056 0.5732637,-0.662837 1.4779456,-0.662837 0.8061522,0 1.3480656,0.613572 0.5419134,0.613571 0.5419134,1.634697 z m -0.761366,-0.568785 q 0,-0.546392 -0.3403753,-0.918118 -0.3403754,-0.376204 -0.761366,-0.376204 -0.5419134,0 -0.9002032,0.358289 -0.3538112,0.35829 -0.3941189,0.936033 z m 6.4940037,2.879754 h -0.698666 v -3.063378 q 0,-1.110698 -0.412033,-1.110698 -0.210495,0 -0.465777,0.385161 -0.250803,0.380683 -0.250803,0.420991 v 3.367924 H 12.67424 v -3.063378 q 0,-1.110698 -0.416512,-1.110698 -0.206017,0 -0.461298,0.385161 -0.250803,0.380683 -0.250803,0.420991 v 3.367924 H 10.846962 V 24.12018 h 0.671793 v 0.703144 q 0.19706,-0.371726 0.465777,-0.591178 0.273196,-0.223932 0.541913,-0.223932 0.282154,0 0.506085,0.223932 0.223931,0.219452 0.309025,0.591178 0.197059,-0.371726 0.470255,-0.591178 0.273196,-0.223932 0.537435,-0.223932 0.84646,0 0.84646,1.513775 z m 2.239312,-4.062111 q 0.232888,-0.322461 0.627007,-0.51952 0.398598,-0.19706 0.837503,-0.19706 0.806152,0 1.262972,0.667315 0.461298,0.662836 0.461298,1.728749 0,1.074869 -0.483692,1.791449 -0.479212,0.712101 -1.294322,0.712101 -0.434426,0 -0.815109,-0.214974 -0.376204,-0.219452 -0.595657,-0.577742 v 2.516986 H 16.736352 V 24.12018 h 0.698665 z m 0,0.694187 v 1.939244 q 0.197059,0.394118 0.532956,0.658357 0.335897,0.264239 0.694187,0.264239 0.564306,0 0.895724,-0.528478 0.335897,-0.528477 0.335897,-1.312236 0,-0.806152 -0.317982,-1.316715 -0.317982,-0.510563 -0.886768,-0.510563 -0.738972,0 -1.254014,0.806152 z M 30.85297,24.787495 q -0.5867,-0.192581 -1.10622,-0.192581 -0.568785,0 -0.900204,0.192581 -0.331418,0.188102 -0.331418,0.506084 0,0.201538 0.152274,0.353811 0.152273,0.147795 0.609092,0.277675 l 0.667315,0.192581 q 0.461298,0.12988 0.752409,0.313504 0.29111,0.179144 0.434426,0.438905 0.147795,0.255281 0.147795,0.595656 0,0.667315 -0.559828,1.056956 -0.559828,0.385161 -1.424202,0.385161 -0.859896,0 -1.419724,-0.25976 l 0.134359,-0.604614 q 0.5867,0.277674 1.258493,0.277674 0.582221,0 0.94499,-0.214973 0.367247,-0.219453 0.367247,-0.577743 0,-0.241845 -0.183624,-0.429948 -0.179145,-0.19258 -0.850938,-0.398597 -0.541914,-0.165709 -0.797195,-0.246324 -0.255282,-0.08509 -0.474734,-0.246325 -0.219453,-0.16123 -0.335897,-0.385161 -0.111966,-0.223931 -0.111966,-0.501606 0,-0.604614 0.528478,-0.958425 0.528477,-0.353812 1.401809,-0.353812 0.564306,0 1.254014,0.192581 z m 6.131237,1.688441 h -3.202215 q 0,0.792716 0.456819,1.307758 0.461299,0.515041 1.128613,0.515041 0.635965,0 1.312237,-0.228409 l 0.120923,0.559827 q -0.61805,0.277675 -1.442117,0.277675 -1.03904,0 -1.675005,-0.667315 -0.635964,-0.667315 -0.635964,-1.800406 0,-1.110699 0.568785,-1.769056 0.573264,-0.662837 1.477945,-0.662837 0.806153,0 1.348066,0.613572 0.541913,0.613571 0.541913,1.634697 z m -0.761366,-0.568785 q 0,-0.546392 -0.340375,-0.918118 -0.340375,-0.376204 -0.761366,-0.376204 -0.541913,0 -0.900203,0.358289 -0.353811,0.35829 -0.394119,0.936033 z m 6.126756,2.879754 h -0.698665 v -2.99172 q 0,-0.622529 -0.201539,-0.900203 -0.197059,-0.282153 -0.622528,-0.282153 -0.640443,0 -1.374937,0.797194 v 3.376882 H 38.753262 V 24.12018 h 0.698666 v 0.685229 q 0.752408,-0.797195 1.585432,-0.797195 1.312237,0 1.312237,1.585433 z m 9.190132,-6.44026 q 1.003212,0 1.540646,0.864374 0.541914,0.859896 0.541914,2.418457 0,1.509296 -0.523999,2.396063 -0.523999,0.882289 -1.558561,0.882289 -0.998733,0 -1.540646,-0.859896 -0.541914,-0.859895 -0.541914,-2.418456 0,-1.513775 0.523999,-2.396063 0.528478,-0.886768 1.558561,-0.886768 z m 0,5.916261 q 0.662836,0 0.980819,-0.627007 0.32246,-0.631486 0.32246,-2.006423 0,-1.379416 -0.32246,-2.001945 -0.317983,-0.627007 -0.980819,-0.627007 -0.653879,0 -0.97634,0.640443 -0.322461,0.640443 -0.322461,1.988509 0,1.36598 0.317983,2.001945 0.322461,0.631485 0.980818,0.631485 z m -0.01791,-3.305224 q 0.282153,0 0.474734,0.19706 0.197059,0.192581 0.197059,0.474734 0,0.29111 -0.197059,0.501606 -0.19706,0.206016 -0.474734,0.206016 -0.273196,0 -0.470256,-0.206016 -0.192581,-0.210496 -0.192581,-0.501606 0,-0.286632 0.188103,-0.479213 0.19258,-0.192581 0.474734,-0.192581 z m 7.506171,3.829223 h -0.788238 l -1.249536,-1.827278 -1.294322,1.827278 h -0.743451 l 1.661569,-2.337841 -1.661569,-2.328884 h 0.801673 l 1.254015,1.813842 1.276407,-1.813842 h 0.743452 l -1.652612,2.302012 z m 5.584846,-1.460031 h -0.779281 v 1.460031 h -0.734494 v -1.460031 h -2.749875 v -0.559828 l 2.494593,-4.299478 h 0.989776 v 4.218863 h 0.779281 z m -1.513775,-0.640443 v -3.493326 l -2.006423,3.493326 z m 5.598282,-1.36598 q 0.644921,0.188102 0.998732,0.640443 0.35829,0.452341 0.35829,1.056955 0,0.868853 -0.577742,1.379416 -0.573264,0.510563 -1.415245,0.510563 -0.882289,0 -1.451074,-0.515042 -0.564306,-0.515041 -0.564306,-1.36598 0,-0.600135 0.367247,-1.056955 0.367247,-0.456819 1.025604,-0.6494 -0.523998,-0.134359 -0.841981,-0.515042 -0.313503,-0.385161 -0.313503,-0.859895 0,-0.609093 0.483691,-1.101742 0.483691,-0.497127 1.276408,-0.497127 0.783759,0 1.294322,0.492649 0.515041,0.492648 0.515041,1.10622 0,0.461298 -0.322461,0.850938 -0.32246,0.385162 -0.833023,0.523999 z M 68.04346,25.015905 q 0.02239,0 0.214973,-0.05374 0.192581,-0.05374 0.32694,-0.12988 0.138837,-0.08061 0.255281,-0.201538 0.116445,-0.120923 0.188103,-0.282153 0.07166,-0.165709 0.07166,-0.367247 0,-0.429948 -0.309025,-0.712101 -0.309025,-0.286632 -0.74793,-0.286632 -0.42547,0 -0.730016,0.29111 -0.304546,0.291111 -0.304546,0.707623 0,0.264238 0.107487,0.461298 0.111965,0.197059 0.273196,0.317982 0.165709,0.120923 0.376204,0.188102 0.214974,0.06718 0.277675,0.06718 z m 0,0.627007 q -1.227143,0.35829 -1.227143,1.348065 0,0.577743 0.371726,0.927075 0.371725,0.344854 0.873331,0.344854 0.51952,0 0.873332,-0.340375 0.358289,-0.344854 0.358289,-0.931554 0,-0.443383 -0.246324,-0.792716 -0.246324,-0.353811 -1.003211,-0.555349 z m 12.880517,-3.103686 -0.183623,0.568785 q -0.497127,-0.143316 -0.891246,-0.143316 -0.376205,0 -0.51952,0.214974 -0.138838,0.210495 -0.138838,0.855417 v 0.08509 h 1.567518 v 0.604614 H 79.19075 v 4.062111 H 78.492085 V 24.724794 H 77.318686 V 24.12018 h 1.173399 v -0.156752 q 0,-0.891246 0.304546,-1.249536 0.304547,-0.35829 1.052477,-0.35829 0.483691,0 1.074869,0.183624 z m 5.575885,6.247679 h -0.694187 q -0.08509,-0.282153 -0.08509,-0.752408 -0.595657,0.873331 -1.621262,0.873331 -0.51952,0 -0.918118,-0.367247 -0.394119,-0.371726 -0.394119,-0.953947 0,-0.344854 0.138838,-0.609092 0.138837,-0.264239 0.407554,-0.443384 0.268718,-0.183624 0.653879,-0.286632 0.385162,-0.107487 0.91364,-0.147795 l 0.783759,-0.0627 V 25.8131 q 0,-1.200271 -1.119656,-1.200271 -0.264239,0 -0.671794,0.116444 -0.403076,0.111965 -0.694186,0.268717 l -0.183624,-0.501606 q 0.953947,-0.48817 1.773535,-0.48817 1.59439,0 1.59439,1.688441 v 2.006423 q 0,0.609093 0.116444,1.083827 z m -0.815109,-1.383894 v -0.84646 q -0.94499,0.08509 -1.298801,0.16123 -0.349333,0.07166 -0.609093,0.273196 -0.255281,0.201538 -0.255281,0.546392 0,0.313504 0.219452,0.506085 0.219453,0.192581 0.559828,0.192581 0.371726,0 0.738973,-0.219453 0.367247,-0.223931 0.644922,-0.613571 z m 4.698074,-5.047409 q 0.19706,0 0.335897,0.143316 0.138837,0.138838 0.138837,0.335897 0,0.206017 -0.138837,0.344854 -0.134359,0.138837 -0.335897,0.138837 -0.183623,0 -0.326939,-0.143316 -0.138838,-0.147794 -0.138838,-0.340375 0,-0.192581 0.138838,-0.335897 0.143316,-0.143316 0.326939,-0.143316 z m 0.340376,6.431303 H 90.024537 V 24.724794 H 88.6496 V 24.12018 h 2.073603 z m 6.328293,0 h -1.907894 v -5.714723 h -1.218185 v -0.604614 h 1.916851 v 5.714723 h 1.209228 z m 9.933584,-3.394796 q 0.57774,0.16123 0.92707,0.591178 0.34934,0.425469 0.34934,0.958426 0,0.833023 -0.6494,1.401809 -0.6494,0.564306 -1.53169,0.564306 -0.75241,0 -1.34807,-0.331418 l 0.14332,-0.604614 q 0.62253,0.29111 1.23162,0.29111 0.57326,0 0.97634,-0.353811 0.40755,-0.35829 0.40755,-0.918118 0,-0.55087 -0.43442,-0.895724 -0.43443,-0.344854 -1.15101,-0.344854 h -0.19258 v -0.604614 h 0.0537 q 0.68971,0 1.13757,-0.322461 0.44787,-0.32694 0.44787,-0.87781 0,-0.447863 -0.32246,-0.698666 -0.32246,-0.255281 -0.88677,-0.255281 -0.48817,0 -1.09279,0.264239 l -0.0985,-0.631486 q 0.6091,-0.277675 1.22715,-0.277675 0.84646,0 1.39285,0.447863 0.55087,0.443383 0.55087,1.142048 0,0.483692 -0.3359,0.904682 -0.33141,0.416512 -0.80167,0.523999 z"
       id="text1-3"
       aria-label="Temp sen 0x48 fail 3" /><path
       id="rect1"
       style="fill:#ffffff;stroke:#000000;stroke-width:0.264002;stroke-opacity:0"
       d="m 123.4359,1.2440263 h 3.736 V 30.980024 h -3.736 z" /><path
       id="rect2"
       style="stroke:#000000;stroke-width:0.272199;stroke-opacity:0"
       d="m 123.44001,22.31855 h 3.7278 v 3.727801 h -3.7278 z" /><path
       id="rect3"
       style="fill:#ffffff;stroke:#000000;stroke-width:0.25906;stroke-opacity:0"
       d="M -0.00276192,-0.08571635 H 123.52192 V 7.6552247 H -0.00276192 Z" /><path
       style="font-size:9.17222px;line-height:0;font-family:Monospace;-inkscape-font-specification:Monospace;stroke:#000000;stroke-width:0.264583;stroke-opacity:0"
       d="M 52.319335,6.8022637 H 49.01859 V 0.48292646 h 3.273874 V 1.1233696 h -2.53938 v 1.9571583 h 2.44085 V 3.720971 h -2.44085 v 2.4408496 h 2.566251 z m 6.314859,0 H 57.716076 L 55.861926,3.9314663 H 55.046817 V 6.8022637 H 54.312323 V 0.48292646 h 1.78697 q 0.900203,0 1.419724,0.43890507 0.523999,0.43442647 0.523999,1.21370687 0,0.5777424 -0.380683,1.0300833 Q 57.28165,3.613484 56.614335,3.7747145 Z M 55.046817,3.2910232 h 0.927075 q 0.582221,0 0.944989,-0.3135036 0.362769,-0.3179823 0.362769,-0.797195 0,-1.056955 -1.289844,-1.056955 h -0.944989 z m 9.091605,3.5112405 h -0.918118 l -1.85415,-2.8707974 h -0.81511 V 6.8022637 H 59.81655 V 0.48292646 h 1.786971 q 0.900203,0 1.419723,0.43890507 0.523999,0.43442647 0.523999,1.21370687 0,0.5777424 -0.380683,1.0300833 -0.380683,0.4478623 -1.047997,0.6090928 z M 60.551044,3.2910232 h 0.927075 q 0.582221,0 0.94499,-0.3135036 0.362768,-0.3179823 0.362768,-0.797195 0,-1.056955 -1.289843,-1.056955 h -0.94499 z m 6.57462,-2.92901957 q 1.061434,0 1.616783,0.84198117 0.559828,0.8375025 0.559828,2.4408496 0,1.5943899 -0.555349,2.436371 -0.55535,0.8419812 -1.621262,0.8419812 -1.056955,0 -1.616783,-0.8375026 -0.555349,-0.8419811 -0.555349,-2.4408496 0,-1.5988685 0.555349,-2.4408496 0.555349,-0.84198117 1.616783,-0.84198117 z m 0,5.91626117 q 1.39733,0 1.39733,-2.6334304 0,-2.637909 -1.39733,-2.637909 -0.680751,0 -1.039041,0.6852293 -0.353811,0.6807507 -0.353811,1.9526797 0,1.2853649 0.353811,1.961637 0.353812,0.6717934 1.039041,0.6717934 z m 8.021213,0.5239989 H 74.228759 L 72.374609,3.9314663 H 71.5595 V 6.8022637 H 70.825005 V 0.48292646 h 1.786971 q 0.900203,0 1.419724,0.43890507 0.523999,0.43442647 0.523999,1.21370687 0,0.5777424 -0.380683,1.0300833 -0.380683,0.4478623 -1.047998,0.6090928 z M 71.5595,3.2910232 h 0.927075 q 0.582221,0 0.944989,-0.3135036 0.362769,-0.3179823 0.362769,-0.797195 0,-1.056955 -1.289844,-1.056955 H 71.5595 Z"
       id="text1"
       aria-label="ERROR" /></g></svg>
