<?xml version="1.0" encoding="UTF-8" standalone="no"?>
<!-- Created with Inkscape (http://www.inkscape.org/) -->

<svg
   style="background-color:black"
   width="128mm"
   height="32mm"
   viewBox="0 0 128 32"
   version="1.1"
   id="svg1"
   xml:space="preserve"
   inkscape:version="1.3.2 (091e20e, 2023-11-25)"
   sodipodi:docname="ethernet.svg"
   inkscape:export-filename="Ethernet.png"
   inkscape:export-xdpi="50.799999"
   inkscape:export-ydpi="50.799999"
   xmlns:inkscape="http://www.inkscape.org/namespaces/inkscape"
   xmlns:sodipodi="http://sodipodi.sourceforge.net/DTD/sodipodi-0.dtd"
   xmlns:xlink="http://www.w3.org/1999/xlink"
   xmlns="http://www.w3.org/2000/svg"
   xmlns:svg="http://www.w3.org/2000/svg"><sodipodi:namedview
     id="namedview1"
     pagecolor="#000000"
     bordercolor="#000000"
     borderopacity="0.25"
     inkscape:showpageshadow="2"
     inkscape:pageopacity="0.0"
     inkscape:pagecheckerboard="0"
     inkscape:deskcolor="#d1d1d1"
     inkscape:document-units="mm"
     inkscape:zoom="3.1895021"
     inkscape:cx="207.24238"
     inkscape:cy="18.968478"
     inkscape:window-width="2800"
     inkscape:window-height="1212"
     inkscape:window-x="1"
     inkscape:window-y="25"
     inkscape:window-maximized="0"
     inkscape:current-layer="layer1"
     inkscape:export-bgcolor="#000000ff" /><defs
     id="defs1"><color-profile
       name="Black-White"
       xlink:href="file:///Library/ColorSync/Profiles/Black%20&amp;%20White.icc"
       id="color-profile2" /></defs><g
     inkscape:label="Layer 1"
     inkscape:groupmode="layer"
     id="layer1"><path
       style="font-size:9.17222px;line-height:0;font-family:Monospace;-inkscape-font-specification:Monospace;fill:#ffffff;stroke:#000000;stroke-width:0.264583;stroke-opacity:0"
       d="m 34.501645,6.8229169 q -0.743451,0.5150417 -1.72427,0.5150417 -1.227142,0 -1.867585,-0.8419812 -0.635965,-0.8419811 -0.635965,-2.436371 0,-1.5406463 0.61805,-2.4094992 0.61805,-0.87333153 1.8855,-0.87333153 0.45682,0 0.904682,0.1164442 0.447863,0.11644423 0.721059,0.30902503 L 34.16127,1.7799873 q -0.631486,-0.3582899 -1.383895,-0.3582899 -0.873331,0 -1.2988,0.6359645 -0.425469,0.6314859 -0.425469,2.0019445 0,2.6334305 1.724269,2.6334305 0.730016,0 1.495861,-0.4478624 z m 3.457497,-4.384572 q 0.962904,0 1.531689,0.6717934 0.568785,0.6717935 0.568785,1.7690562 0,1.1062199 -0.568785,1.782492 -0.568785,0.6762721 -1.531689,0.6762721 -0.967382,0 -1.536168,-0.6717935 -0.564306,-0.6762721 -0.564306,-1.7869706 0,-1.1017413 0.568785,-1.7690562 0.568785,-0.6717934 1.531689,-0.6717934 z m 0,4.2905209 q 0.635965,0 1.003212,-0.5374347 0.367247,-0.5374348 0.367247,-1.3032794 0,-0.8061521 -0.362769,-1.3256724 -0.362768,-0.5195203 -1.00769,-0.5195203 -0.6494,0 -1.00769,0.5150416 -0.35829,0.5105631 -0.35829,1.3301511 0,0.7792805 0.362769,1.3122366 0.362768,0.5284775 1.003211,0.5284775 z m 7.313592,0.48817 H 44.574068 V 4.2253155 q 0,-0.6225286 -0.201538,-0.9002033 -0.197059,-0.2821532 -0.622528,-0.2821532 -0.640443,0 -1.374938,0.7971949 V 7.2170358 H 41.676399 V 2.5503104 h 0.698665 v 0.6852294 q 0.752409,-0.7971949 1.585433,-0.7971949 1.312237,0 1.312237,1.5854326 z m 5.504228,0 H 50.078297 V 4.2253155 q 0,-0.6225286 -0.201538,-0.9002033 Q 49.6797,3.042959 49.25423,3.042959 q -0.640443,0 -1.374937,0.7971949 V 7.2170358 H 47.180628 V 2.5503104 h 0.698665 v 0.6852294 q 0.752409,-0.7971949 1.585433,-0.7971949 1.312236,0 1.312236,1.5854326 z m 5.643064,-2.3109696 h -3.202215 q 0,0.7927163 0.456819,1.307758 0.461298,0.5150416 1.128613,0.5150416 0.635965,0 1.312237,-0.2284097 l 0.120923,0.5598279 q -0.61805,0.2776746 -1.442117,0.2776746 -1.039041,0 -1.675005,-0.6673149 -0.635965,-0.6673148 -0.635965,-1.8004065 0,-1.1106985 0.568786,-1.7690561 0.573263,-0.6628362 1.477945,-0.6628362 0.806152,0 1.348066,0.6135713 0.541913,0.6135714 0.541913,1.6346975 z M 55.65866,4.3372811 q 0,-0.546392 -0.340375,-0.9181178 Q 54.97791,3.042959 54.556919,3.042959 q -0.541913,0 -0.900203,0.3582898 -0.353811,0.3582899 -0.394119,0.9360323 z m 6.108841,2.7230029 q -0.609093,0.2776746 -1.339108,0.2776746 -1.101742,0 -1.760099,-0.6673149 -0.653879,-0.6717934 -0.653879,-1.782492 0,-1.1106985 0.658357,-1.7780134 0.662837,-0.6717934 1.737706,-0.6717934 0.703144,0 1.339109,0.2463242 L 61.565963,3.2624115 Q 60.929999,3.042959 60.419436,3.042959 q -0.770324,0 -1.222665,0.4971272 -0.447862,0.4971271 -0.447862,1.3480655 0,0.7792805 0.465777,1.3122366 0.465777,0.5284775 1.213707,0.5284775 0.591178,0 1.218185,-0.2284097 z m 5.566931,-0.053744 q -0.703144,0.3224608 -1.383894,0.3224608 -1.249536,0 -1.249536,-1.3211938 V 3.1549246 H 63.805277 V 2.5503104 h 0.895725 V 1.2739028 h 0.680751 v 1.2764076 h 1.585432 V 3.1549246 H 65.381753 V 5.824184 q 0,0.4254692 0.188102,0.6628362 0.188102,0.2328884 0.510563,0.2328884 0.573264,0 1.133091,-0.2552815 z M 72.93271,4.9060662 h -3.202215 q 0,0.7927163 0.456819,1.307758 0.461298,0.5150416 1.128613,0.5150416 0.635965,0 1.312237,-0.2284097 l 0.120923,0.5598279 q -0.61805,0.2776746 -1.442117,0.2776746 -1.039041,0 -1.675005,-0.6673149 Q 68.996,6.0033289 68.996,4.8702372 q 0,-1.1106985 0.568785,-1.7690561 0.573264,-0.6628362 1.477946,-0.6628362 0.806152,0 1.348066,0.6135713 0.541913,0.6135714 0.541913,1.6346975 z M 72.171344,4.3372811 q 0,-0.546392 -0.340375,-0.9181178 -0.340376,-0.3762043 -0.761366,-0.3762043 -0.541914,0 -0.900203,0.3582898 -0.353812,0.3582899 -0.394119,0.9360323 z m 6.108841,2.8797547 H 77.58152 V 6.5452423 q -0.214974,0.344854 -0.61805,0.5687851 -0.398598,0.2239312 -0.841981,0.2239312 -0.801674,0 -1.267451,-0.7121011 -0.465777,-0.7165797 -0.465777,-1.8138424 0,-1.0256047 0.483692,-1.6973981 0.48817,-0.6762721 1.289843,-0.6762721 0.882289,0 1.419724,0.7165797 V 0.89769849 h 0.698665 z M 77.58152,5.788355 V 3.8491112 Q 77.079914,3.042959 76.372292,3.042959 q -0.577743,0 -0.91364,0.5150416 -0.335896,0.5105631 -0.335896,1.2943221 0,0.8061522 0.313503,1.3346297 0.317983,0.523999 0.868853,0.523999 0.264239,0 0.532956,-0.143316 Q 77.106786,6.4243195 77.344153,6.1376876 77.58152,5.8510557 77.58152,5.788355 Z"
       id="text1"
       aria-label="Connected" /><path
       style="font-size:9.17222px;line-height:0;font-family:Monospace;-inkscape-font-specification:Monospace;fill:#ffffff;stroke:#000000;stroke-width:0.264583;stroke-opacity:0"
       d="m 34.056864,14.382352 h -3.323139 v -0.640443 h 1.339109 V 8.8333378 L 30.809862,9.4648236 V 8.7303294 l 1.36598,-0.7031438 h 0.631486 v 5.7147234 h 1.249536 z m 4.899613,-3.036507 q -0.546392,0.479213 -1.285365,0.479213 -0.801673,0 -1.339108,-0.510563 -0.532956,-0.515042 -0.532956,-1.3256724 0,-0.8688529 0.510563,-1.4600312 0.515042,-0.5956569 1.325672,-0.5956569 0.989776,0 1.545125,0.9046819 0.55535,0.9046819 0.55535,2.2975336 0,1.392852 -0.653879,2.378149 -0.649401,0.980818 -1.742185,0.980818 -0.734494,0 -1.271929,-0.223931 l 0.116445,-0.6494 q 0.618049,0.22841 1.13757,0.22841 0.743451,0 1.186835,-0.721059 0.447862,-0.721058 0.447862,-1.782492 z m -0.01791,-0.631485 q 0,-0.8509389 -0.344854,-1.491382 -0.344854,-0.6449217 -0.904682,-0.6449217 -0.506085,0 -0.810631,0.3762043 -0.300068,0.3717257 -0.300068,0.9718612 0,0.5508702 0.304547,0.9046822 0.309025,0.349332 0.806152,0.349332 0.685229,0 1.191314,-0.42099 z m 5.961047,3.667992 h -3.475412 v -0.532956 q 1.321194,-1.473467 1.715313,-1.975073 0.394119,-0.501606 0.640443,-1.052477 0.246324,-0.55087 0.246324,-1.0972622 0,-0.5284775 -0.32246,-0.8330239 -0.317983,-0.3045464 -0.895725,-0.3045464 -0.443384,0 -1.191314,0.273196 L 41.513771,8.2287237 q 0.676272,-0.2866319 1.415245,-0.2866319 0.84646,0 1.361501,0.4792127 0.51952,0.474734 0.51952,1.2719289 0,0.5687856 -0.268717,1.1286126 -0.264239,0.559828 -0.680751,1.07487 -0.416512,0.515042 -1.621261,1.845193 h 2.660302 z m 3.833702,-1.025605 q 0.237367,0 0.398598,0.161231 0.16123,0.16123 0.16123,0.398597 0,0.241846 -0.165709,0.416512 -0.16123,0.170188 -0.394119,0.170188 -0.22841,0 -0.38964,-0.170188 -0.161231,-0.174666 -0.161231,-0.416512 0,-0.241846 0.156752,-0.398597 0.161231,-0.161231 0.394119,-0.161231 z m 7.340462,1.025605 h -3.323138 v -0.640443 h 1.339108 V 8.8333378 L 52.826772,9.4648236 V 8.7303294 l 1.365981,-0.7031438 h 0.631485 v 5.7147234 h 1.249536 z m 2.56625,-3.291788 q 0.591178,-0.479213 1.285365,-0.479213 0.801674,0 1.33463,0.515042 0.537434,0.510563 0.537434,1.321194 0,0.891246 -0.474734,1.473467 -0.474734,0.582221 -1.26745,0.582221 -1.012169,0 -1.603347,-0.927075 -0.591178,-0.931554 -0.591178,-2.275141 0,-1.4331593 0.613571,-2.3960632 0.61805,-0.962904 1.688441,-0.962904 0.738973,0 1.276408,0.2194525 l -0.116445,0.653879 q -0.622528,-0.2284098 -1.13757,-0.2284098 -0.730015,0 -1.13757,0.6986652 -0.407555,0.6986652 -0.407555,1.8048853 z m 0.02239,0.631486 q 0,0.810631 0.380683,1.473467 0.380683,0.662836 0.958426,0.662836 0.48817,0 0.752408,-0.35829 0.264239,-0.35829 0.264239,-0.989776 0,-0.582221 -0.29111,-0.918117 -0.291111,-0.335897 -0.819588,-0.335897 -0.68523,0 -1.245058,0.465777 z m 7.246415,-0.806152 q 0.644922,0.188102 0.998733,0.640443 0.35829,0.452341 0.35829,1.056955 0,0.868853 -0.577742,1.379416 -0.573264,0.510563 -1.415245,0.510563 -0.882289,0 -1.451074,-0.515042 -0.564307,-0.515042 -0.564307,-1.36598 0,-0.600136 0.367247,-1.056955 0.367247,-0.45682 1.025605,-0.6494 -0.523999,-0.134359 -0.841981,-0.515042 -0.313504,-0.385162 -0.313504,-0.8598958 0,-0.6090927 0.483692,-1.1017413 0.483691,-0.4971271 1.276407,-0.4971271 0.783759,0 1.294322,0.4926485 0.515042,0.4926486 0.515042,1.1062199 0,0.4612978 -0.322461,0.8509388 -0.322461,0.385161 -0.833024,0.523999 z m -0.653879,-0.304547 q 0.02239,0 0.214974,-0.05374 0.192581,-0.05374 0.32694,-0.12988 0.138837,-0.08062 0.255281,-0.201538 0.116444,-0.120923 0.188102,-0.2821537 0.07166,-0.165709 0.07166,-0.3672471 0,-0.4299478 -0.309025,-0.7121011 -0.309025,-0.2866318 -0.74793,-0.2866318 -0.425469,0 -0.730015,0.2911105 -0.304547,0.2911105 -0.304547,0.7076224 0,0.2642388 0.107487,0.4612978 0.111966,0.19706 0.273196,0.317983 0.165709,0.120922 0.376205,0.188102 0.214973,0.06718 0.277674,0.06718 z m 0,0.627007 q -1.227143,0.35829 -1.227143,1.348066 0,0.577742 0.371726,0.927075 0.371726,0.344854 0.873332,0.344854 0.51952,0 0.873331,-0.340375 0.35829,-0.344854 0.35829,-0.931554 0,-0.443384 -0.246324,-0.792716 -0.246324,-0.353812 -1.003212,-0.55535 z m 5.49527,2.118389 q 0.237367,0 0.398597,0.161231 0.161231,0.16123 0.161231,0.398597 0,0.241846 -0.16571,0.416512 -0.16123,0.170188 -0.394118,0.170188 -0.22841,0 -0.389641,-0.170188 -0.16123,-0.174666 -0.16123,-0.416512 0,-0.241846 0.156752,-0.398597 0.16123,-0.161231 0.394119,-0.161231 z m 7.340462,1.025605 h -3.323139 v -0.640443 h 1.339109 V 8.8333378 L 74.843683,9.4648236 V 8.7303294 l 1.36598,-0.7031438 h 0.631486 v 5.7147234 h 1.249536 z m 3.685906,-6.4402602 q 1.003211,0 1.540646,0.8643742 0.541913,0.8598957 0.541913,2.418457 0,1.509296 -0.523999,2.396063 -0.523999,0.882289 -1.55856,0.882289 -0.998733,0 -1.540647,-0.859896 -0.541913,-0.859896 -0.541913,-2.418456 0,-1.5137751 0.523999,-2.3960638 0.528477,-0.8867674 1.558561,-0.8867674 z m 0,5.9162612 q 0.662836,0 0.980818,-0.627007 0.322461,-0.631486 0.322461,-2.006423 0,-1.3794164 -0.322461,-2.001945 -0.317982,-0.6270072 -0.980818,-0.6270072 -0.653879,0 -0.97634,0.6404431 -0.322461,0.6404431 -0.322461,1.9885091 0,1.36598 0.317982,2.001944 0.322461,0.631486 0.980819,0.631486 z m -0.01792,-3.305224 q 0.282153,0 0.474734,0.197059 0.197059,0.192581 0.197059,0.474735 0,0.29111 -0.197059,0.501605 -0.197059,0.206017 -0.474734,0.206017 -0.273196,0 -0.470255,-0.206017 -0.192581,-0.210495 -0.192581,-0.501605 0,-0.286632 0.188102,-0.479213 0.192581,-0.192581 0.474734,-0.192581 z m 7.340462,3.829223 H 85.776 v -0.640443 h 1.339108 V 8.8333378 L 85.852136,9.4648236 V 8.7303294 l 1.36598,-0.7031438 h 0.631486 v 5.7147234 h 1.249536 z m 3.667995,-1.025605 q 0.237367,0 0.398598,0.161231 0.16123,0.16123 0.16123,0.398597 0,0.241846 -0.165709,0.416512 -0.16123,0.170188 -0.394119,0.170188 -0.22841,0 -0.38964,-0.170188 -0.16123,-0.174666 -0.16123,-0.416512 0,-0.241846 0.156751,-0.398597 0.161231,-0.161231 0.394119,-0.161231 z m 7.340467,1.025605 h -3.323139 v -0.640443 h 1.339108 V 8.8333378 L 96.860597,9.4648236 V 8.7303294 l 1.36598,-0.7031438 h 0.631486 v 5.7147234 h 1.249537 z"
       id="text1-6"
       aria-label="192.168.101.1" /><path
       style="font-size:9.17222px;line-height:0;font-family:Monospace;-inkscape-font-specification:Monospace;fill:#ffffff;stroke:#000000;stroke-width:0.264583;stroke-opacity:0"
       d="m 30.641072,15.332524 h 1.245057 q 1.240579,0 1.988509,0.84646 0.74793,0.841981 0.74793,2.315448 0,1.504817 -0.761366,2.333363 -0.756887,0.824066 -1.943722,0.824066 h -1.276408 z m 0.734494,5.678894 h 0.519521 q 0.900203,0 1.424202,-0.667315 0.523999,-0.667315 0.523999,-1.849671 0,-1.173399 -0.528478,-1.845193 -0.523999,-0.676272 -1.419723,-0.676272 h -0.519521 z m 8.280974,0.640443 h -3.300745 v -6.319337 h 3.273874 v 0.640443 h -2.53938 v 1.957158 h 2.44085 v 0.640443 h -2.44085 v 2.44085 h 2.566251 z m 3.771001,-4.733904 q 0.22841,0 0.385161,0.156751 0.156752,0.152274 0.156752,0.376205 0,0.223931 -0.156752,0.380683 -0.156751,0.152273 -0.385161,0.152273 -0.223931,0 -0.380683,-0.152273 -0.152273,-0.156752 -0.152273,-0.380683 0,-0.223931 0.152273,-0.376205 0.156752,-0.156751 0.380683,-0.156751 z m 0,3.744128 q 0.22841,0 0.385161,0.152274 0.156752,0.152273 0.156752,0.380683 0,0.223931 -0.156752,0.376204 -0.156751,0.152273 -0.385161,0.152273 -0.223931,0 -0.380683,-0.152273 -0.152273,-0.152273 -0.152273,-0.376204 0,-0.22841 0.152273,-0.380683 0.156752,-0.152274 0.380683,-0.152274 z m 8.057044,0.989776 h -0.770324 l -0.698665,-2.21244 h -2.073602 l -0.707623,2.21244 h -0.761366 l 2.064646,-6.319337 h 0.882288 z m -1.679484,-2.852883 -0.828545,-2.615516 -0.824067,2.615516 z m 2.852882,-3.466454 h 1.245057 q 1.240579,0 1.988509,0.84646 0.74793,0.841981 0.74793,2.315448 0,1.504817 -0.761366,2.333363 -0.756887,0.824066 -1.943723,0.824066 h -1.276407 z m 0.734494,5.678894 h 0.51952 q 0.900204,0 1.424202,-0.667315 0.523999,-0.667315 0.523999,-1.849671 0,-1.173399 -0.528477,-1.845193 -0.523999,-0.676272 -1.419724,-0.676272 h -0.51952 z m 6.547746,-4.093461 q 0.22841,0 0.385161,0.156751 0.156752,0.152274 0.156752,0.376205 0,0.223931 -0.156752,0.380683 -0.156751,0.152273 -0.385161,0.152273 -0.223931,0 -0.380683,-0.152273 -0.152273,-0.156752 -0.152273,-0.380683 0,-0.223931 0.152273,-0.376205 0.156752,-0.156751 0.380683,-0.156751 z m 0,3.744128 q 0.22841,0 0.385161,0.152274 0.156752,0.152273 0.156752,0.380683 0,0.223931 -0.156752,0.376204 -0.156751,0.152273 -0.385161,0.152273 -0.223931,0 -0.380683,-0.152273 -0.152273,-0.152273 -0.152273,-0.376204 0,-0.22841 0.152273,-0.380683 0.156752,-0.152274 0.380683,-0.152274 z m 6.301425,-2.476678 q 0.631486,0.147794 0.989776,0.573264 0.35829,0.425469 0.35829,1.012168 0,0.859896 -0.627007,1.370459 -0.622529,0.510563 -1.500339,0.510563 H 63.66644 v -6.319337 h 1.751142 q 0.913639,0 1.42868,0.403076 0.515042,0.398597 0.515042,1.128613 0,0.447862 -0.300068,0.797195 -0.295589,0.349333 -0.819588,0.506084 z m -1.840714,-0.340375 h 0.859896 q 1.348065,0 1.348065,-0.962904 0,-0.438906 -0.331418,-0.671794 -0.331418,-0.237367 -0.971861,-0.237367 h -0.904682 z m 0,3.166386 h 0.833024 q 0.730016,0 1.155485,-0.331418 0.429948,-0.331418 0.429948,-0.909161 0,-0.613571 -0.420991,-0.949468 -0.42099,-0.335896 -1.218185,-0.335896 h -0.779281 z m 8.280973,0.640443 h -3.300745 v -6.319337 h 3.273873 v 0.640443 h -2.539379 v 1.957158 h 2.44085 v 0.640443 h -2.44085 v 2.44085 h 2.566251 z m 3.771,-4.733904 q 0.228409,0 0.385161,0.156751 0.156752,0.152274 0.156752,0.376205 0,0.223931 -0.156752,0.380683 -0.156752,0.152273 -0.385161,0.152273 -0.223931,0 -0.380683,-0.152273 -0.152273,-0.156752 -0.152273,-0.380683 0,-0.223931 0.152273,-0.376205 0.156752,-0.156751 0.380683,-0.156751 z m 0,3.744128 q 0.228409,0 0.385161,0.152274 0.156752,0.152273 0.156752,0.380683 0,0.223931 -0.156752,0.376204 -0.156752,0.152273 -0.385161,0.152273 -0.223931,0 -0.380683,-0.152273 -0.152273,-0.152273 -0.152273,-0.376204 0,-0.22841 0.152273,-0.380683 0.156752,-0.152274 0.380683,-0.152274 z m 7.237454,0.989776 h -3.300746 v -6.319337 h 3.273874 v 0.640443 h -2.53938 v 1.957158 h 2.44085 v 0.640443 h -2.44085 v 2.44085 h 2.566252 z m 5.553491,-5.678894 h -2.615516 v 2.064645 h 2.382628 v 0.640443 h -2.382628 v 2.973806 h -0.734494 v -6.319337 h 3.35001 z m 3.721739,0.94499 q 0.228409,0 0.385161,0.156751 0.156752,0.152274 0.156752,0.376205 0,0.223931 -0.156752,0.380683 -0.156752,0.152273 -0.385161,0.152273 -0.223932,0 -0.380683,-0.152273 -0.152274,-0.156752 -0.152274,-0.380683 0,-0.223931 0.152274,-0.376205 0.156751,-0.156751 0.380683,-0.156751 z m 0,3.744128 q 0.228409,0 0.385161,0.152274 0.156752,0.152273 0.156752,0.380683 0,0.223931 -0.156752,0.376204 -0.156752,0.152273 -0.385161,0.152273 -0.223932,0 -0.380683,-0.152273 -0.152274,-0.152273 -0.152274,-0.376204 0,-0.22841 0.152274,-0.380683 0.156751,-0.152274 0.380683,-0.152274 z m 7.286719,-4.689118 h -2.615513 v 2.064645 h 2.382623 v 0.640443 h -2.382623 v 2.973806 h -0.734494 v -6.319337 h 3.350007 z m 5.45496,5.678894 h -3.30074 v -6.319337 h 3.27387 v 0.640443 h -2.53938 v 1.957158 h 2.44085 v 0.640443 h -2.44085 v 2.44085 h 2.56625 z m 3.771,-4.733904 q 0.22841,0 0.38517,0.156751 0.15675,0.152274 0.15675,0.376205 0,0.223931 -0.15675,0.380683 -0.15676,0.152273 -0.38517,0.152273 -0.22393,0 -0.38068,-0.152273 -0.15227,-0.156752 -0.15227,-0.380683 0,-0.223931 0.15227,-0.376205 0.15675,-0.156751 0.38068,-0.156751 z m 0,3.744128 q 0.22841,0 0.38517,0.152274 0.15675,0.152273 0.15675,0.380683 0,0.223931 -0.15675,0.376204 -0.15676,0.152273 -0.38517,0.152273 -0.22393,0 -0.38068,-0.152273 -0.15227,-0.152273 -0.15227,-0.376204 0,-0.22841 0.15227,-0.380683 0.15675,-0.152274 0.38068,-0.152274 z m 7.23746,0.989776 h -3.30075 v -6.319337 h 3.27388 v 0.640443 h -2.53938 v 1.957158 h 2.44085 v 0.640443 h -2.44085 v 2.44085 h 2.56625 z m 1.99298,-6.319337 h 1.24506 q 1.24058,0 1.98851,0.84646 0.74793,0.841981 0.74793,2.315448 0,1.504817 -0.76137,2.333363 -0.75688,0.824066 -1.94372,0.824066 h -1.27641 z m 0.7345,5.678894 h 0.51952 q 0.9002,0 1.4242,-0.667315 0.524,-0.667315 0.524,-1.849671 0,-1.173399 -0.52848,-1.845193 -0.524,-0.676272 -1.41972,-0.676272 h -0.51952 z"
       id="text1-62"
       aria-label="DE:AD:BE:EF:FE:ED" /><path
       style="font-size:9.17222px;line-height:0;font-family:Monospace;-inkscape-font-specification:Monospace;fill:#ffffff;stroke:#000000;stroke-width:0.264583;stroke-opacity:0"
       d="M 34.264278,29.118723 H 30.94114 V 28.47828 h 1.339108 v -4.908571 l -1.262971,0.631486 V 23.4667 l 1.36598,-0.703143 h 0.631485 v 5.714723 h 1.249536 z m 3.685907,-6.44026 q 1.003212,0 1.540646,0.864374 0.541914,0.859896 0.541914,2.418457 0,1.509296 -0.523999,2.396063 -0.523999,0.882289 -1.558561,0.882289 -0.998733,0 -1.540646,-0.859896 -0.541914,-0.859896 -0.541914,-2.418456 0,-1.513775 0.523999,-2.396064 0.528478,-0.886767 1.558561,-0.886767 z m 0,5.916261 q 0.662836,0 0.980818,-0.627007 0.322461,-0.631486 0.322461,-2.006423 0,-1.379416 -0.322461,-2.001945 -0.317982,-0.627007 -0.980818,-0.627007 -0.653879,0 -0.97634,0.640443 -0.322461,0.640443 -0.322461,1.988509 0,1.36598 0.317983,2.001944 0.32246,0.631486 0.980818,0.631486 z M 37.93227,25.2895 q 0.282154,0 0.474735,0.19706 0.197059,0.19258 0.197059,0.474734 0,0.29111 -0.197059,0.501605 -0.19706,0.206017 -0.474735,0.206017 -0.273196,0 -0.470255,-0.206017 -0.192581,-0.210495 -0.192581,-0.501605 0,-0.286632 0.188102,-0.479213 Q 37.650117,25.2895 37.93227,25.2895 Z m 5.522143,-2.611037 q 1.003211,0 1.540646,0.864374 0.541913,0.859896 0.541913,2.418457 0,1.509296 -0.523999,2.396063 -0.523998,0.882289 -1.55856,0.882289 -0.998733,0 -1.540647,-0.859896 -0.541913,-0.859896 -0.541913,-2.418456 0,-1.513775 0.523999,-2.396064 0.528477,-0.886767 1.558561,-0.886767 z m 0,5.916261 q 0.662836,0 0.980818,-0.627007 0.322461,-0.631486 0.322461,-2.006423 0,-1.379416 -0.322461,-2.001945 -0.317982,-0.627007 -0.980818,-0.627007 -0.653879,0 -0.97634,0.640443 -0.322461,0.640443 -0.322461,1.988509 0,1.36598 0.317982,2.001944 0.322461,0.631486 0.980819,0.631486 z M 43.436498,25.2895 q 0.282153,0 0.474734,0.19706 0.19706,0.19258 0.19706,0.474734 0,0.29111 -0.19706,0.501605 -0.197059,0.206017 -0.474734,0.206017 -0.273196,0 -0.470255,-0.206017 -0.192581,-0.210495 -0.192581,-0.501605 0,-0.286632 0.188102,-0.479213 0.192581,-0.192581 0.474734,-0.192581 z m 7.568874,3.829223 H 50.29775 v -5.419134 l -0.953947,2.593123 h -0.694187 l -0.953947,-2.593123 v 5.419134 h -0.707622 v -6.319337 h 0.953947 l 1.056955,2.879754 1.052476,-2.879754 h 0.953947 z m 4.227819,-3.466454 q 0.631486,0.147794 0.989776,0.573263 0.35829,0.42547 0.35829,1.012169 0,0.859896 -0.627008,1.370459 -0.622528,0.510563 -1.500338,0.510563 h -1.795928 v -6.319337 h 1.751141 q 0.91364,0 1.428681,0.403076 0.515042,0.398597 0.515042,1.128613 0,0.447862 -0.300068,0.797195 -0.295589,0.349332 -0.819588,0.506084 z m -1.840714,-0.340376 h 0.859896 q 1.348065,0 1.348065,-0.962904 0,-0.438905 -0.331418,-0.671793 -0.331418,-0.237367 -0.971861,-0.237367 h -0.904682 z m 0,3.166387 h 0.833024 q 0.730015,0 1.155485,-0.331418 0.429947,-0.331418 0.429947,-0.909161 0,-0.613571 -0.42099,-0.949468 -0.420991,-0.335897 -1.218186,-0.335897 h -0.77928 z m 13.834468,-5.038451 h -2.615516 v 2.064645 h 2.382628 v 0.640443 h -2.382628 v 2.973806 h -0.734494 v -6.319337 h 3.35001 z m 1.943722,-0.640443 h 1.245057 q 1.240578,0 1.988509,0.846459 0.74793,0.841982 0.74793,2.315449 0,1.504817 -0.761366,2.333362 -0.756888,0.824067 -1.943723,0.824067 h -1.276407 z m 0.734494,5.678894 h 0.51952 q 0.900203,0 1.424202,-0.667315 0.523999,-0.667315 0.523999,-1.849671 0,-1.1734 -0.528477,-1.845193 -0.523999,-0.676272 -1.419724,-0.676272 h -0.51952 z m 9.042339,0.640443 h -0.81511 l -1.603347,-2.588644 -1.589911,2.588644 h -0.815109 l 2.019859,-3.22013 -2.010902,-3.099207 h 0.841981 l 1.554082,2.50355 1.567518,-2.50355 h 0.806153 l -1.979552,3.099207 z"
       id="text1-3"
       aria-label="100MB FDX" /><path
       id="rect1"
       style="fill:#ffffff;stroke:#000000;stroke-width:0.264002;stroke-opacity:0"
       d="m 123.4359,1.2440263 h 3.736 V 30.980024 h -3.736 z" /><path
       id="rect2"
       style="stroke:#000000;stroke-width:0.272199;stroke-opacity:0"
       d="m 123.44001,7.7185698 h 3.7278 v 3.7278012 h -3.7278 z" /><path
       d="m 19.844534,20.488279 -0.776098,-0.707463 4.679097,-4.292536 -4.679097,-4.292538 0.776098,-0.707463 5.485077,5.000001 z m -9.029846,0 -5.4850771,-4.999999 5.4850771,-5.000001 0.776098,0.707463 -4.679097,4.292538 4.679097,4.292536 z M 11.44638,16.18555 q -0.308945,0 -0.535622,-0.207227 -0.226677,-0.207227 -0.226677,-0.48885 0,-0.281623 0.227331,-0.494288 0.227332,-0.212689 0.536277,-0.212689 0.308945,0 0.542242,0.213285 0.233322,0.213262 0.233322,0.494885 0,0.281624 -0.233977,0.488254 -0.233951,0.20663 -0.542896,0.20663 z m 3.880611,0 q -0.308945,0 -0.535622,-0.207227 -0.226674,-0.207227 -0.226674,-0.48885 0,-0.281623 0.227331,-0.494288 0.227331,-0.212689 0.536276,-0.212689 0.308945,0 0.542242,0.213285 0.233323,0.213262 0.233323,0.494885 0,0.281624 -0.233978,0.488254 -0.233953,0.20663 -0.542898,0.20663 z m 3.880613,0 q -0.308945,0 -0.535621,-0.207227 -0.226677,-0.207227 -0.226677,-0.48885 0,-0.281623 0.227331,-0.494288 0.227331,-0.212689 0.536276,-0.212689 0.308946,0 0.542244,0.213285 0.233321,0.213262 0.233321,0.494885 0,0.281624 -0.233975,0.488254 -0.233954,0.20663 -0.542899,0.20663 z"
       id="path1"
       style="fill:#ffffff;fill-opacity:1;stroke-width:0.0231567" /></g></svg>
