<?xml version="1.0" encoding="UTF-8" standalone="no"?>
<!-- Created with Inkscape (http://www.inkscape.org/) -->

<svg
   style="background-color:black"
   width="128mm"
   height="32mm"
   viewBox="0 0 128 32"
   version="1.1"
   id="svg1"
   xml:space="preserve"
   inkscape:version="1.3.2 (091e20e, 2023-11-25)"
   sodipodi:docname="event_log.svg"
   inkscape:export-filename="Event Log.png"
   inkscape:export-xdpi="50.799999"
   inkscape:export-ydpi="50.799999"
   xmlns:inkscape="http://www.inkscape.org/namespaces/inkscape"
   xmlns:sodipodi="http://sodipodi.sourceforge.net/DTD/sodipodi-0.dtd"
   xmlns:xlink="http://www.w3.org/1999/xlink"
   xmlns="http://www.w3.org/2000/svg"
   xmlns:svg="http://www.w3.org/2000/svg"><sodipodi:namedview
     id="namedview1"
     pagecolor="#000000"
     bordercolor="#000000"
     borderopacity="0.25"
     inkscape:showpageshadow="2"
     inkscape:pageopacity="0.0"
     inkscape:pagecheckerboard="0"
     inkscape:deskcolor="#d1d1d1"
     inkscape:document-units="mm"
     inkscape:zoom="3.1895021"
     inkscape:cx="209.75061"
     inkscape:cy="35.271963"
     inkscape:window-width="2800"
     inkscape:window-height="1212"
     inkscape:window-x="0"
     inkscape:window-y="25"
     inkscape:window-maximized="0"
     inkscape:current-layer="layer1"
     inkscape:export-bgcolor="#000000ff" /><defs
     id="defs1"><color-profile
       name="Black-White"
       xlink:href="file:///Library/ColorSync/Profiles/Black%20&amp;%20White.icc"
       id="color-profile2" /></defs><g
     inkscape:label="Layer 1"
     inkscape:groupmode="layer"
     id="layer1"><path
       style="font-size:9.17222px;line-height:0;font-family:Monospace;-inkscape-font-specification:Monospace;fill:#ffffff;stroke:#000000;stroke-width:0.264583;stroke-opacity:0"
       d="M 3.7080367,6.8852181 H 0.40729147 V 0.56588087 H 3.681165 V 1.206324 H 1.1417857 V 3.1634823 H 3.5826353 V 3.8039254 H 1.1417857 V 6.244775 h 2.566251 z M 9.3690162,6.6747229 q -0.7031438,0.3224608 -1.3838946,0.3224608 -1.2495358,0 -1.2495358,-1.3211938 V 2.8231069 H 5.8398611 V 2.2184928 H 6.7355858 V 0.94208521 H 7.4163365 V 2.2184928 H 9.0017691 V 2.8231069 H 7.4163365 v 2.6692594 q 0,0.4254692 0.1881022,0.6628363 0.1881021,0.2328884 0.510563,0.2328884 0.5732638,0 1.1330917,-0.2552815 z M 14.828458,6.8852181 H 14.129792 V 3.8934979 q 0,-0.6225286 -0.201538,-0.9002033 -0.197059,-0.2821532 -0.622528,-0.2821532 -0.640443,0 -1.374938,0.7971949 V 6.8852181 H 11.232123 V 0.56588087 h 0.698665 V 2.9037222 q 0.752409,-0.797195 1.585433,-0.797195 1.312237,0 1.312237,1.5854326 z m 5.643066,-2.3109695 h -3.202216 q 0,0.7927163 0.45682,1.307758 0.461298,0.5150416 1.128613,0.5150416 0.635964,0 1.312236,-0.2284098 L 20.2879,6.7284663 q -0.61805,0.2776747 -1.442117,0.2776747 -1.03904,0 -1.675005,-0.6673149 -0.635964,-0.6673148 -0.635964,-1.8004065 0,-1.1106985 0.568785,-1.7690561 0.573264,-0.6628363 1.477946,-0.6628363 0.806152,0 1.348065,0.6135714 0.541914,0.6135714 0.541914,1.6346975 z M 19.710158,4.0054635 q 0,-0.5463921 -0.340376,-0.9181178 -0.340375,-0.3762043 -0.761366,-0.3762043 -0.541913,0 -0.900203,0.3582898 -0.353811,0.3582899 -0.394119,0.9360323 z m 6.198413,-1.6615692 -0.282153,0.6717934 q -0.461299,-0.201538 -0.797195,-0.201538 -0.309025,0 -0.604614,0.1791449 -0.29559,0.1746663 -0.546392,0.5060844 -0.246325,0.3269395 -0.246325,0.3672471 v 3.018592 H 22.737706 V 2.2184928 h 0.694186 v 0.9449895 q 0.559828,-1.0569551 1.451074,-1.0569551 0.528478,0 1.025605,0.2373671 z M 31.34114,6.8852181 H 30.642474 V 3.8934979 q 0,-0.6225286 -0.201538,-0.9002033 -0.197059,-0.2821532 -0.622528,-0.2821532 -0.640443,0 -1.374938,0.7971949 V 6.8852181 H 27.744805 V 2.2184928 h 0.698665 v 0.6852294 q 0.752409,-0.797195 1.585433,-0.797195 1.312237,0 1.312237,1.5854326 z m 5.643067,-2.3109695 h -3.202215 q 0,0.7927163 0.456819,1.307758 0.461299,0.5150416 1.128613,0.5150416 0.635965,0 1.312237,-0.2284098 l 0.120923,0.5598279 q -0.61805,0.2776747 -1.442117,0.2776747 -1.03904,0 -1.675005,-0.6673149 -0.635964,-0.6673148 -0.635964,-1.8004065 0,-1.1106985 0.568785,-1.7690561 0.573264,-0.6628363 1.477945,-0.6628363 0.806153,0 1.348066,0.6135714 0.541913,0.6135714 0.541913,1.6346975 z M 36.222841,4.0054635 q 0,-0.5463921 -0.340375,-0.9181178 -0.340375,-0.3762043 -0.761366,-0.3762043 -0.541913,0 -0.900203,0.3582898 -0.353811,0.3582899 -0.394119,0.9360323 z m 6.171542,2.6692594 q -0.703144,0.3224608 -1.383895,0.3224608 -1.249535,0 -1.249535,-1.3211938 V 2.8231069 H 38.865228 V 2.2184928 h 0.895725 V 0.94208521 h 0.68075 V 2.2184928 h 1.585433 v 0.6046141 h -1.585433 v 2.6692594 q 0,0.4254692 0.188102,0.6628363 0.188103,0.2328884 0.510563,0.2328884 0.573264,0 1.133092,-0.2552815 z M 53.340136,6.8852181 H 52.64147 V 6.2134247 q -0.214974,0.344854 -0.61805,0.5687851 -0.398597,0.2239312 -0.841981,0.2239312 -0.801673,0 -1.26745,-0.7121011 -0.465777,-0.7165797 -0.465777,-1.8138424 0,-1.0256047 0.483691,-1.6973982 0.48817,-0.6762721 1.289844,-0.6762721 0.882289,0 1.419723,0.7165797 V 0.56588087 h 0.698666 z M 52.64147,5.4565374 V 3.5172935 q -0.501605,-0.8061521 -1.209228,-0.8061521 -0.577742,0 -0.913639,0.5150416 -0.335897,0.5105631 -0.335897,1.2943221 0,0.8061522 0.313504,1.3346297 0.317982,0.5239989 0.868853,0.5239989 0.264239,0 0.532956,-0.1433159 Q 52.166736,6.0925018 52.404103,5.80587 52.64147,5.5192381 52.64147,5.4565374 Z m 4.715989,-5.00262211 q 0.19706,0 0.335897,0.14331594 0.138837,0.13883732 0.138837,0.33589673 0,0.20601664 -0.138837,0.34485394 -0.134359,0.1388374 -0.335897,0.1388374 -0.183623,0 -0.326939,-0.143316 -0.138837,-0.1477945 -0.138837,-0.34037534 0,-0.19258079 0.138837,-0.33589673 0.143316,-0.14331594 0.326939,-0.14331594 z M 57.697835,6.8852181 H 56.99917 V 2.8231069 H 55.624232 V 2.2184928 h 2.073603 z m 6.180502,-3.9994104 q -0.586699,-0.1925808 -1.10622,-0.1925808 -0.568785,0 -0.900203,0.1925808 -0.331418,0.1881021 -0.331418,0.5060844 0,0.201538 0.152273,0.3538112 0.152273,0.1477946 0.609093,0.2776746 l 0.667315,0.1925808 q 0.461298,0.1298801 0.752409,0.3135037 0.29111,0.1791449 0.434426,0.438905 0.147795,0.2552816 0.147795,0.5956569 0,0.6673149 -0.559828,1.0569551 -0.559828,0.3851616 -1.424202,0.3851616 -0.859896,0 -1.419724,-0.2597602 l 0.134359,-0.6046141 q 0.586699,0.2776746 1.258493,0.2776746 0.582221,0 0.944989,-0.2149739 0.367247,-0.2194525 0.367247,-0.5777424 0,-0.2418456 -0.183623,-0.4299478 Q 63.242373,5.0041964 62.570579,4.7981798 62.028666,4.6324707 61.773384,4.5518555 61.518103,4.4667616 61.29865,4.3055312 61.079198,4.1443008 60.962754,3.9203696 60.850788,3.6964385 60.850788,3.4187638 q 0,-0.6046141 0.528478,-0.9584253 0.528477,-0.3538113 1.401809,-0.3538113 0.564306,0 1.254014,0.1925808 z m 5.974486,3.8426586 q -0.609092,0.2776747 -1.339108,0.2776747 -1.101741,0 -1.760099,-0.6673149 -0.653879,-0.6717935 -0.653879,-1.782492 0,-1.1106985 0.658358,-1.7780134 0.662836,-0.6717935 1.737705,-0.6717935 0.703144,0 1.339109,0.2463243 l -0.183624,0.5777424 q -0.635964,-0.2194525 -1.146527,-0.2194525 -0.770323,0 -1.222664,0.4971271 -0.447863,0.4971272 -0.447863,1.3480656 0,0.7792804 0.465777,1.3122366 0.465777,0.5284775 1.213707,0.5284775 0.591178,0 1.218185,-0.2284098 z m 3.712778,-4.6219391 q 0.962904,0 1.531689,0.6717935 0.568785,0.6717935 0.568785,1.7690562 0,1.1062199 -0.568785,1.782492 -0.568785,0.6762721 -1.531689,0.6762721 -0.967383,0 -1.536168,-0.6717935 -0.564307,-0.6762721 -0.564307,-1.7869706 0,-1.1017413 0.568786,-1.7690562 0.568785,-0.6717935 1.531689,-0.6717935 z m 0,4.290521 q 0.635964,0 1.003211,-0.5374348 0.367247,-0.5374347 0.367247,-1.3032793 0,-0.8061522 -0.362768,-1.3256725 -0.362769,-0.5195202 -1.00769,-0.5195202 -0.649401,0 -1.00769,0.5150416 -0.35829,0.5105631 -0.35829,1.3301511 0,0.7792804 0.362768,1.3122366 0.362769,0.5284775 1.003212,0.5284775 z m 7.31359,0.4881699 H 80.180526 V 3.8934979 q 0,-0.6225286 -0.201538,-0.9002033 -0.19706,-0.2821532 -0.622529,-0.2821532 -0.640443,0 -1.374937,0.7971949 V 6.8852181 H 77.282857 V 2.2184928 h 0.698665 v 0.6852294 q 0.752409,-0.797195 1.585433,-0.797195 1.312236,0 1.312236,1.5854326 z m 5.504227,0 H 85.684753 V 3.8934979 q 0,-0.6225286 -0.201538,-0.9002033 -0.19706,-0.2821532 -0.622529,-0.2821532 -0.640443,0 -1.374937,0.7971949 V 6.8852181 H 82.787083 V 2.2184928 h 0.698666 v 0.6852294 q 0.752408,-0.797195 1.585432,-0.797195 1.312237,0 1.312237,1.5854326 z m 5.643064,-2.3109695 h -3.202216 q 0,0.7927163 0.45682,1.307758 0.461298,0.5150416 1.128613,0.5150416 0.635964,0 1.312236,-0.2284098 l 0.120923,0.5598279 q -0.61805,0.2776747 -1.442116,0.2776747 -1.039041,0 -1.675005,-0.6673149 -0.635965,-0.6673148 -0.635965,-1.8004065 0,-1.1106985 0.568785,-1.7690561 0.573264,-0.6628363 1.477946,-0.6628363 0.806152,0 1.348065,0.6135714 0.541914,0.6135714 0.541914,1.6346975 z M 91.265116,4.0054635 q 0,-0.5463921 -0.340375,-0.9181178 -0.340376,-0.3762043 -0.761366,-0.3762043 -0.541914,0 -0.900204,0.3582898 -0.353811,0.3582899 -0.394118,0.9360323 z m 6.108841,2.7230028 q -0.609093,0.2776747 -1.339109,0.2776747 -1.101741,0 -1.760099,-0.6673149 -0.653878,-0.6717935 -0.653878,-1.782492 0,-1.1106985 0.658357,-1.7780134 0.662836,-0.6717935 1.737706,-0.6717935 0.703144,0 1.339108,0.2463243 l -0.183623,0.5777424 q -0.635965,-0.2194525 -1.146528,-0.2194525 -0.770323,0 -1.222664,0.4971271 -0.447862,0.4971272 -0.447862,1.3480656 0,0.7792804 0.465777,1.3122366 0.465776,0.5284775 1.213706,0.5284775 0.591179,0 1.218186,-0.2284098 z m 5.566923,-0.053743 q -0.70314,0.3224608 -1.38389,0.3224608 -1.24954,0 -1.24954,-1.3211938 V 2.8231069 H 99.411729 V 2.2184928 h 0.895721 V 0.94208521 h 0.68075 V 2.2184928 h 1.58544 v 0.6046141 h -1.58544 v 2.6692594 q 0,0.4254692 0.18811,0.6628363 0.1881,0.2328884 0.51056,0.2328884 0.57326,0 1.13309,-0.2552815 z m 5.59828,-2.1004743 h -3.20221 q 0,0.7927163 0.45682,1.307758 0.46129,0.5150416 1.12861,0.5150416 0.63596,0 1.31224,-0.2284098 l 0.12092,0.5598279 q -0.61805,0.2776747 -1.44212,0.2776747 -1.03904,0 -1.675,-0.6673149 -0.63597,-0.6673148 -0.63597,-1.8004065 0,-1.1106985 0.56879,-1.7690561 0.57326,-0.6628363 1.47794,-0.6628363 0.80616,0 1.34807,0.6135714 0.54191,0.6135714 0.54191,1.6346975 z M 107.7778,4.0054635 q 0,-0.5463921 -0.34038,-0.9181178 -0.34037,-0.3762043 -0.76137,-0.3762043 -0.54191,0 -0.9002,0.3582898 -0.35381,0.3582899 -0.39412,0.9360323 z m 6.10884,2.8797546 h -0.69867 V 6.2134247 q -0.21497,0.344854 -0.61805,0.5687851 -0.3986,0.2239312 -0.84198,0.2239312 -0.80167,0 -1.26745,-0.7121011 -0.46578,-0.7165797 -0.46578,-1.8138424 0,-1.0256047 0.48369,-1.6973982 0.48817,-0.6762721 1.28985,-0.6762721 0.88229,0 1.41972,0.7165797 V 0.56588087 h 0.69867 z M 113.18797,5.4565374 V 3.5172935 q -0.5016,-0.8061521 -1.20923,-0.8061521 -0.57774,0 -0.91364,0.5150416 -0.33589,0.5105631 -0.33589,1.2943221 0,0.8061522 0.3135,1.3346297 0.31798,0.5239989 0.86885,0.5239989 0.26424,0 0.53296,-0.1433159 0.26872,-0.143316 0.50608,-0.4299478 0.23737,-0.2866319 0.23737,-0.3493326 z"
       id="text1"
       aria-label="Ethernet disconnected" /><path
       style="font-size:9.17222px;line-height:0;font-family:Monospace;-inkscape-font-specification:Monospace;fill:#ffffff;stroke:#000000;stroke-width:0.264583;stroke-opacity:0"
       d="M 5.5263578,7.731197 4.7202056,14.050534 H 4.0394549 L 2.9645853,10.490029 1.8941944,14.050534 H 1.1955292 L 0.40729149,7.731197 H 1.1328284 L 1.6657846,12.868178 2.5973382,9.7600133 H 3.3318324 L 4.2678647,12.877135 4.8097781,7.731197 Z m 4.8906562,4.008368 H 7.2147985 q 0,0.792716 0.4568195,1.307758 0.4612982,0.515041 1.1286131,0.515041 0.6359645,0 1.3122369,-0.228409 l 0.120922,0.559827 q -0.6180495,0.277675 -1.4421162,0.277675 -1.0390405,0 -1.675005,-0.667315 -0.6359645,-0.667315 -0.6359645,-1.800406 0,-1.110699 0.5687851,-1.7690564 0.5732638,-0.6628363 1.4779457,-0.6628363 0.8061521,0 1.3480655,0.6135714 0.5419134,0.6135713 0.5419134,1.6346973 z M 9.6556481,11.17078 q 0,-0.546392 -0.3403754,-0.918118 -0.3403753,-0.3762045 -0.7613659,-0.3762045 -0.5419134,0 -0.9002033,0.3582895 -0.3538112,0.35829 -0.3941188,0.936033 z M 12.884735,9.988423 q 0.232889,-0.3224608 0.627007,-0.5195202 0.398598,-0.1970595 0.837503,-0.1970595 0.815109,0 1.26745,0.653879 0.45682,0.6538787 0.45682,1.7197917 0,1.079348 -0.483691,1.804885 -0.483692,0.721058 -1.294323,0.721058 -0.434426,0 -0.815109,-0.214974 -0.376204,-0.219452 -0.595657,-0.577742 v 0.671793 H 12.18607 V 7.731197 h 0.698665 z m 0,0.694187 v 1.939243 q 0.19706,0.394119 0.532956,0.658358 0.335897,0.264239 0.694187,0.264239 0.564306,0 0.895725,-0.537435 0.335896,-0.537435 0.335896,-1.321194 0,-0.806152 -0.317982,-1.307758 -0.317982,-0.5016055 -0.886767,-0.5016055 -0.738973,0 -1.254015,0.8061525 z M 26.30269,10.051124 q -0.5867,-0.192581 -1.10622,-0.192581 -0.568785,0 -0.900203,0.192581 -0.331419,0.188102 -0.331419,0.506084 0,0.201538 0.152274,0.353811 0.152273,0.147795 0.609092,0.277675 l 0.667315,0.192581 q 0.461298,0.12988 0.752409,0.313503 0.29111,0.179145 0.434426,0.438906 0.147795,0.255281 0.147795,0.595656 0,0.667315 -0.559828,1.056955 -0.559828,0.385162 -1.424202,0.385162 -0.859896,0 -1.419724,-0.25976 l 0.134359,-0.604614 q 0.5867,0.277674 1.258493,0.277674 0.582221,0 0.94499,-0.214973 0.367247,-0.219453 0.367247,-0.577743 0,-0.241846 -0.183624,-0.429948 -0.179145,-0.19258 -0.850938,-0.398597 -0.541914,-0.165709 -0.797195,-0.246324 -0.255282,-0.08509 -0.474734,-0.246325 -0.219453,-0.16123 -0.335897,-0.385161 -0.111966,-0.223931 -0.111966,-0.501606 0,-0.6046142 0.528478,-0.9584254 0.528478,-0.3538113 1.401809,-0.3538113 0.564307,0 1.254015,0.1925808 z m 6.131234,1.688441 h -3.202216 q 0,0.792716 0.45682,1.307758 0.461298,0.515041 1.128613,0.515041 0.635964,0 1.312236,-0.228409 l 0.120923,0.559827 q -0.61805,0.277675 -1.442117,0.277675 -1.03904,0 -1.675005,-0.667315 -0.635964,-0.667315 -0.635964,-1.800406 0,-1.110699 0.568785,-1.7690564 0.573264,-0.6628363 1.477946,-0.6628363 0.806152,0 1.348065,0.6135714 0.541914,0.6135713 0.541914,1.6346973 z M 31.672558,11.17078 q 0,-0.546392 -0.340376,-0.918118 -0.340375,-0.3762045 -0.761366,-0.3762045 -0.541913,0 -0.900203,0.3582895 -0.353811,0.35829 -0.394119,0.936033 z m 6.198417,-1.6615696 -0.282153,0.6717936 q -0.461299,-0.2015382 -0.797195,-0.2015382 -0.309025,0 -0.604615,0.1791452 -0.295589,0.174666 -0.546392,0.506084 -0.246324,0.32694 -0.246324,0.367247 v 3.018592 H 34.70011 V 9.3838089 h 0.694186 v 0.9449891 q 0.559828,-1.0569547 1.451074,-1.0569547 0.528478,0 1.025605,0.2373671 z M 43.514039,9.3838089 41.744983,14.050534 H 41.109018 L 39.348919,9.3838089 h 0.761366 l 1.321194,3.7127791 1.321194,-3.7127791 z m 5.432568,2.3557561 h -3.202215 q 0,0.792716 0.45682,1.307758 0.461298,0.515041 1.128613,0.515041 0.635964,0 1.312236,-0.228409 l 0.120923,0.559827 q -0.61805,0.277675 -1.442117,0.277675 -1.03904,0 -1.675005,-0.667315 -0.635964,-0.667315 -0.635964,-1.800406 0,-1.110699 0.568785,-1.7690564 0.573264,-0.6628363 1.477946,-0.6628363 0.806152,0 1.348065,0.6135714 0.541913,0.6135713 0.541913,1.6346973 z M 48.185242,11.17078 q 0,-0.546392 -0.340376,-0.918118 -0.340375,-0.3762045 -0.761366,-0.3762045 -0.541913,0 -0.900203,0.3582895 -0.353811,0.35829 -0.394119,0.936033 z m 6.198413,-1.6615696 -0.282153,0.6717936 q -0.461299,-0.2015382 -0.797195,-0.2015382 -0.309025,0 -0.604614,0.1791452 -0.29559,0.174666 -0.546392,0.506084 -0.246325,0.32694 -0.246325,0.367247 v 3.018592 H 51.21279 V 9.3838089 h 0.694186 v 0.9449891 q 0.559828,-1.0569547 1.451074,-1.0569547 0.528478,0 1.025605,0.2373671 z m 10.448629,0.5419136 q -0.5867,-0.192581 -1.10622,-0.192581 -0.568785,0 -0.900203,0.192581 -0.331418,0.188102 -0.331418,0.506084 0,0.201538 0.152273,0.353811 0.152273,0.147795 0.609093,0.277675 l 0.667315,0.192581 q 0.461298,0.12988 0.752408,0.313503 0.291111,0.179145 0.434427,0.438906 0.147794,0.255281 0.147794,0.595656 0,0.667315 -0.559828,1.056955 -0.559827,0.385162 -1.424202,0.385162 -0.859895,0 -1.419723,-0.25976 l 0.134358,-0.604614 q 0.5867,0.277674 1.258494,0.277674 0.582221,0 0.944989,-0.214973 0.367247,-0.219453 0.367247,-0.577743 0,-0.241846 -0.183623,-0.429948 -0.179145,-0.19258 -0.850939,-0.398597 -0.541913,-0.165709 -0.797195,-0.246324 -0.255281,-0.08509 -0.474734,-0.246325 -0.219452,-0.16123 -0.335897,-0.385161 -0.111965,-0.223931 -0.111965,-0.501606 0,-0.6046142 0.528477,-0.9584254 0.528478,-0.3538113 1.401809,-0.3538113 0.564307,0 1.254015,0.1925808 z m 6.037187,3.788915 q -0.703144,0.322461 -1.383895,0.322461 -1.249536,0 -1.249536,-1.321194 V 9.988423 H 67.340316 V 9.3838089 H 68.23604 V 8.1074013 h 0.680751 v 1.2764076 h 1.585433 V 9.988423 h -1.585433 v 2.669259 q 0,0.42547 0.188102,0.662837 0.188102,0.232888 0.510563,0.232888 0.573264,0 1.133092,-0.255281 z m 5.575884,0.210495 h -0.694186 q -0.08509,-0.282153 -0.08509,-0.752408 -0.595657,0.873331 -1.621262,0.873331 -0.51952,0 -0.918117,-0.367247 -0.394119,-0.371726 -0.394119,-0.953947 0,-0.344854 0.138837,-0.609093 0.138837,-0.264238 0.407555,-0.443383 0.268717,-0.183624 0.653879,-0.286632 0.385161,-0.107487 0.913639,-0.147795 l 0.783759,-0.0627 v -0.223932 q 0,-1.2002705 -1.119656,-1.2002705 -0.264239,0 -0.671793,0.1164442 -0.403076,0.1119653 -0.694187,0.2687173 L 72.960987,9.7600133 q 0.953946,-0.48817 1.773534,-0.48817 1.59439,0 1.59439,1.6884407 v 2.006423 q 0,0.609093 0.116444,1.083827 z M 75.630246,12.66664 v -0.84646 q -0.944989,0.08509 -1.298801,0.16123 -0.349332,0.07166 -0.609092,0.273196 -0.255282,0.201538 -0.255282,0.546392 0,0.313504 0.219453,0.506085 0.219452,0.192581 0.559827,0.192581 0.371726,0 0.738973,-0.219453 0.367247,-0.223931 0.644922,-0.613571 z m 6.27455,-3.1574296 -0.282153,0.6717936 q -0.461299,-0.2015382 -0.797195,-0.2015382 -0.309025,0 -0.604614,0.1791452 -0.29559,0.174666 -0.546392,0.506084 -0.246325,0.32694 -0.246325,0.367247 v 3.018592 H 78.733931 V 9.3838089 h 0.694186 v 0.9449891 q 0.559828,-1.0569547 1.451074,-1.0569547 0.528478,0 1.025605,0.2373671 z m 5.477355,4.3308286 q -0.703144,0.322461 -1.383895,0.322461 -1.249536,0 -1.249536,-1.321194 V 9.988423 H 83.852996 V 9.3838089 H 84.74872 V 8.1074013 h 0.680751 v 1.2764076 h 1.585433 V 9.988423 h -1.585433 v 2.669259 q 0,0.42547 0.188102,0.662837 0.188102,0.232888 0.510563,0.232888 0.573264,0 1.133092,-0.255281 z m 5.598278,-2.100474 h -3.202216 q 0,0.792716 0.45682,1.307758 0.461298,0.515041 1.128613,0.515041 0.635964,0 1.312236,-0.228409 l 0.120923,0.559827 q -0.61805,0.277675 -1.442117,0.277675 -1.03904,0 -1.675005,-0.667315 -0.635964,-0.667315 -0.635964,-1.800406 0,-1.110699 0.568785,-1.7690564 0.573264,-0.6628363 1.477946,-0.6628363 0.806152,0 1.348065,0.6135714 0.541914,0.6135713 0.541914,1.6346973 z M 92.219063,11.17078 q 0,-0.546392 -0.340376,-0.918118 -0.340375,-0.3762045 -0.761366,-0.3762045 -0.541913,0 -0.900203,0.3582895 -0.353811,0.35829 -0.394119,0.936033 z m 6.10884,2.879754 h -0.698665 v -0.671793 q -0.214974,0.344854 -0.61805,0.568785 -0.398597,0.223931 -0.841981,0.223931 -0.801673,0 -1.26745,-0.712101 -0.465777,-0.71658 -0.465777,-1.813842 0,-1.025605 0.483691,-1.6973986 0.48817,-0.6762721 1.289844,-0.6762721 0.882288,0 1.419723,0.7165797 V 7.731197 h 0.698665 z M 97.629238,12.621853 V 10.68261 Q 97.127632,9.8764575 96.42001,9.8764575 q -0.577742,0 -0.913639,0.5150415 -0.335897,0.510563 -0.335897,1.294322 0,0.806152 0.313504,1.33463 0.317982,0.523999 0.868853,0.523999 0.264238,0 0.532956,-0.143316 0.268717,-0.143316 0.506084,-0.429948 0.237367,-0.286632 0.237367,-0.349333 z"
       id="text1-6"
       aria-label="Web server started" /><path
       style="font-size:9.17222px;line-height:0;font-family:Monospace;-inkscape-font-specification:Monospace;fill:#ffffff;stroke:#000000;stroke-width:0.264583;stroke-opacity:0"
       d="M 3.7080367,21.320044 H 0.40729147 V 15.000706 H 3.681165 v 0.640443 H 1.1417857 v 1.957159 h 2.4408496 v 0.640443 H 1.1417857 V 20.6796 h 2.566251 z m 5.6609795,-0.210496 q -0.7031438,0.322461 -1.3838946,0.322461 -1.2495358,0 -1.2495358,-1.321194 V 17.257932 H 5.8398611 v -0.604614 h 0.8957247 v -1.276407 h 0.6807507 v 1.276407 h 1.5854326 v 0.604614 H 7.4163365 v 2.66926 q 0,0.425469 0.1881022,0.662836 0.1881021,0.232888 0.510563,0.232888 0.5732638,0 1.1330917,-0.255281 z m 5.4594418,0.210496 h -0.698666 v -2.991721 q 0,-0.622528 -0.201538,-0.900203 -0.197059,-0.282153 -0.622528,-0.282153 -0.640443,0 -1.374938,0.797195 v 3.376882 h -0.698665 v -6.319338 h 0.698665 v 2.337842 q 0.752409,-0.797195 1.585433,-0.797195 1.312237,0 1.312237,1.585432 z m 5.643066,-2.31097 h -3.202216 q 0,0.792716 0.45682,1.307758 0.461298,0.515042 1.128613,0.515042 0.635964,0 1.312236,-0.22841 l 0.120923,0.559828 q -0.61805,0.277674 -1.442117,0.277674 -1.03904,0 -1.675005,-0.667314 -0.635964,-0.667315 -0.635964,-1.800407 0,-1.110699 0.568785,-1.769056 0.573264,-0.662836 1.477946,-0.662836 0.806152,0 1.348065,0.613571 0.541914,0.613571 0.541914,1.634697 z m -0.761366,-0.568785 q 0,-0.546392 -0.340376,-0.918118 -0.340375,-0.376204 -0.761366,-0.376204 -0.541913,0 -0.900203,0.35829 -0.353811,0.358289 -0.394119,0.936032 z m 6.198413,-1.661569 -0.282153,0.671793 q -0.461299,-0.201538 -0.797195,-0.201538 -0.309025,0 -0.604614,0.179145 -0.29559,0.174666 -0.546392,0.506084 -0.246325,0.32694 -0.246325,0.367248 v 3.018592 h -0.694186 v -4.666726 h 0.694186 v 0.94499 q 0.559828,-1.056955 1.451074,-1.056955 0.528478,0 1.025605,0.237367 z m 5.432569,4.541324 h -0.698666 v -2.991721 q 0,-0.622528 -0.201538,-0.900203 -0.197059,-0.282153 -0.622528,-0.282153 -0.640443,0 -1.374938,0.797195 v 3.376882 h -0.698665 v -4.666726 h 0.698665 v 0.68523 q 0.752409,-0.797195 1.585433,-0.797195 1.312237,0 1.312237,1.585432 z m 5.643067,-2.31097 h -3.202215 q 0,0.792716 0.456819,1.307758 0.461299,0.515042 1.128613,0.515042 0.635965,0 1.312237,-0.22841 l 0.120923,0.559828 q -0.61805,0.277674 -1.442117,0.277674 -1.03904,0 -1.675005,-0.667314 -0.635964,-0.667315 -0.635964,-1.800407 0,-1.110699 0.568785,-1.769056 0.573264,-0.662836 1.477945,-0.662836 0.806153,0 1.348066,0.613571 0.541913,0.613571 0.541913,1.634697 z m -0.761366,-0.568785 q 0,-0.546392 -0.340375,-0.918118 -0.340375,-0.376204 -0.761366,-0.376204 -0.541913,0 -0.900203,0.35829 -0.353811,0.358289 -0.394119,0.936032 z m 6.171542,2.669259 q -0.703144,0.322461 -1.383895,0.322461 -1.249535,0 -1.249535,-1.321194 v -2.852883 h -0.895725 v -0.604614 h 0.895725 v -1.276407 h 0.68075 v 1.276407 h 1.585433 v 0.604614 h -1.585433 v 2.66926 q 0,0.425469 0.188102,0.662836 0.188103,0.232888 0.510563,0.232888 0.573264,0 1.133092,-0.255281 z m 10.945753,0.05374 q -0.609093,0.277674 -1.339109,0.277674 -1.101741,0 -1.760099,-0.667314 -0.653879,-0.671794 -0.653879,-1.782492 0,-1.110699 0.658358,-1.778014 0.662836,-0.671793 1.737706,-0.671793 0.703144,0 1.339108,0.246324 l -0.183623,0.577742 q -0.635965,-0.219452 -1.146528,-0.219452 -0.770323,0 -1.222664,0.497127 -0.447862,0.497127 -0.447862,1.348066 0,0.77928 0.465776,1.312236 0.465777,0.528478 1.213707,0.528478 0.591179,0 1.218186,-0.22841 z m 3.712777,-4.621939 q 0.962904,0 1.531689,0.671793 0.568785,0.671794 0.568785,1.769056 0,1.10622 -0.568785,1.782492 -0.568785,0.676272 -1.531689,0.676272 -0.967383,0 -1.536168,-0.671793 -0.564306,-0.676272 -0.564306,-1.786971 0,-1.101741 0.568785,-1.769056 0.568785,-0.671793 1.531689,-0.671793 z m 0,4.290521 q 0.635965,0 1.003212,-0.537435 0.367247,-0.537435 0.367247,-1.303279 0,-0.806153 -0.362769,-1.325673 -0.362768,-0.51952 -1.00769,-0.51952 -0.6494,0 -1.00769,0.515041 -0.35829,0.510563 -0.35829,1.330152 0,0.77928 0.362768,1.312236 0.362769,0.528478 1.003212,0.528478 z m 7.313594,0.48817 h -0.698665 v -2.991721 q 0,-0.622528 -0.201538,-0.900203 -0.197059,-0.282153 -0.622529,-0.282153 -0.640443,0 -1.374937,0.797195 v 3.376882 h -0.698665 v -4.666726 h 0.698665 v 0.68523 q 0.752409,-0.797195 1.585433,-0.797195 1.312236,0 1.312236,1.585432 z m 5.504231,0 h -0.698665 v -2.991721 q 0,-0.622528 -0.201538,-0.900203 -0.19706,-0.282153 -0.622529,-0.282153 -0.640443,0 -1.374937,0.797195 v 3.376882 h -0.698666 v -4.666726 h 0.698666 v 0.68523 q 0.752408,-0.797195 1.585432,-0.797195 1.312237,0 1.312237,1.585432 z m 5.643064,-2.31097 h -3.202216 q 0,0.792716 0.45682,1.307758 0.461298,0.515042 1.128613,0.515042 0.635964,0 1.312236,-0.22841 l 0.120923,0.559828 q -0.61805,0.277674 -1.442116,0.277674 -1.039041,0 -1.675005,-0.667314 -0.635965,-0.667315 -0.635965,-1.800407 0,-1.110699 0.568785,-1.769056 0.573264,-0.662836 1.477946,-0.662836 0.806152,0 1.348065,0.613571 0.541914,0.613571 0.541914,1.634697 z m -0.761366,-0.568785 q 0,-0.546392 -0.340376,-0.918118 -0.340375,-0.376204 -0.761365,-0.376204 -0.541914,0 -0.900204,0.35829 -0.353811,0.358289 -0.394119,0.936032 z m 6.108841,2.723003 q -0.609093,0.277674 -1.339109,0.277674 -1.101741,0 -1.760099,-0.667314 -0.653879,-0.671794 -0.653879,-1.782492 0,-1.110699 0.658358,-1.778014 0.662836,-0.671793 1.737706,-0.671793 0.703144,0 1.339108,0.246324 l -0.183623,0.577742 q -0.635965,-0.219452 -1.146528,-0.219452 -0.770323,0 -1.222664,0.497127 -0.447862,0.497127 -0.447862,1.348066 0,0.77928 0.465776,1.312236 0.465777,0.528478 1.213707,0.528478 0.591179,0 1.218186,-0.22841 z m 5.566927,-0.05374 q -0.703144,0.322461 -1.383894,0.322461 -1.249536,0 -1.249536,-1.321194 v -2.852883 h -0.895725 v -0.604614 h 0.895725 v -1.276407 h 0.68075 v 1.276407 h 1.585433 v 0.604614 h -1.585433 v 2.66926 q 0,0.425469 0.188103,0.662836 0.188102,0.232888 0.510563,0.232888 0.573263,0 1.133091,-0.255281 z m 5.598278,-2.100474 h -3.202216 q 0,0.792716 0.45682,1.307758 0.461298,0.515042 1.128613,0.515042 0.635964,0 1.312236,-0.22841 l 0.120923,0.559828 q -0.61805,0.277674 -1.442116,0.277674 -1.039041,0 -1.675005,-0.667314 -0.635965,-0.667315 -0.635965,-1.800407 0,-1.110699 0.568785,-1.769056 0.573264,-0.662836 1.477946,-0.662836 0.806152,0 1.348065,0.613571 0.541914,0.613571 0.541914,1.634697 z m -0.761366,-0.568785 q 0,-0.546392 -0.340375,-0.918118 -0.340376,-0.376204 -0.761366,-0.376204 -0.541914,0 -0.900204,0.35829 -0.353811,0.358289 -0.394118,0.936032 z m 6.108841,2.879755 H 96.675292 V 20.64825 q -0.214974,0.344854 -0.61805,0.568785 -0.398598,0.223931 -0.841982,0.223931 -0.801673,0 -1.26745,-0.712101 -0.465777,-0.716579 -0.465777,-1.813842 0,-1.025605 0.483691,-1.697398 0.48817,-0.676272 1.289844,-0.676272 0.882289,0 1.419724,0.716579 v -2.257226 h 0.698665 z m -0.698665,-1.428681 v -1.939244 q -0.501606,-0.806152 -1.209229,-0.806152 -0.577742,0 -0.913639,0.515041 -0.335897,0.510563 -0.335897,1.294323 0,0.806152 0.313504,1.334629 0.317982,0.523999 0.868853,0.523999 0.264239,0 0.532956,-0.143316 0.268717,-0.143316 0.506084,-0.429948 0.237368,-0.286631 0.237368,-0.349332 z"
       id="text1-62"
       aria-label="Ethernet connected" /><path
       style="font-size:9.17222px;line-height:0;font-family:Monospace;-inkscape-font-specification:Monospace;fill:#ffffff;stroke:#000000;stroke-width:0.264583;stroke-opacity:0"
       d="M 3.7080367,28.786905 H 0.40729147 V 22.467568 H 3.681165 v 0.640443 H 1.1417857 v 1.957158 h 2.4408496 v 0.640444 H 1.1417857 v 2.440849 h 2.566251 z M 9.5347252,24.12018 7.7656691,28.786905 H 7.1297046 L 5.3696057,24.12018 h 0.7613659 l 1.3211939,3.712779 1.3211938,-3.712779 z m 5.4325698,2.355756 h -3.202216 q 0,0.792716 0.45682,1.307758 0.461298,0.515041 1.128613,0.515041 0.635964,0 1.312237,-0.228409 l 0.120922,0.559827 q -0.61805,0.277675 -1.442116,0.277675 -1.039041,0 -1.675005,-0.667315 -0.635965,-0.667315 -0.635965,-1.800406 0,-1.110699 0.568785,-1.769056 0.573264,-0.662837 1.477946,-0.662837 0.806152,0 1.348066,0.613572 0.541913,0.613571 0.541913,1.634697 z m -0.761366,-0.568785 q 0,-0.546392 -0.340375,-0.918118 -0.340376,-0.376204 -0.761366,-0.376204 -0.541914,0 -0.900204,0.358289 -0.353811,0.35829 -0.394118,0.936033 z m 6.126757,2.879754 h -0.698665 v -2.99172 q 0,-0.622529 -0.201538,-0.900203 -0.197059,-0.282153 -0.622529,-0.282153 -0.640443,0 -1.374937,0.797194 v 3.376882 H 16.736352 V 24.12018 h 0.698665 v 0.685229 q 0.752409,-0.797195 1.585433,-0.797195 1.312236,0 1.312236,1.585433 z m 5.549013,-0.210495 q -0.703144,0.322461 -1.383894,0.322461 -1.249536,0 -1.249536,-1.321194 V 24.724794 H 22.352544 V 24.12018 h 0.895725 v -1.276408 h 0.68075 v 1.276408 h 1.585433 v 0.604614 h -1.585433 v 2.669259 q 0,0.42547 0.188103,0.662837 0.188102,0.232888 0.510563,0.232888 0.573263,0 1.133091,-0.255281 z m 10.623296,0.210495 h -1.907894 v -5.714723 h -1.218185 v -0.604614 h 1.91685 v 5.714723 h 1.209229 z m 4.035238,-4.778691 q 0.962904,0 1.531689,0.671794 0.568785,0.671793 0.568785,1.769056 0,1.10622 -0.568785,1.782492 -0.568785,0.676272 -1.531689,0.676272 -0.967383,0 -1.536168,-0.671793 -0.564306,-0.676272 -0.564306,-1.786971 0,-1.101741 0.568785,-1.769056 0.568785,-0.671794 1.531689,-0.671794 z m 0,4.290521 q 0.635964,0 1.003212,-0.537434 0.367247,-0.537435 0.367247,-1.30328 0,-0.806152 -0.362769,-1.325672 -0.362768,-0.51952 -1.00769,-0.51952 -0.6494,0 -1.00769,0.515041 -0.35829,0.510563 -0.35829,1.330151 0,0.779281 0.362768,1.312237 0.362769,0.528477 1.003212,0.528477 z m 5.011578,-1.271929 q -0.653879,0.317983 -0.653879,0.559828 0,0.12988 0.147795,0.219453 0.152273,0.08957 0.412033,0.08957 l 1.571997,-0.04479 q 0.559828,0 0.868853,0.273196 0.313503,0.273196 0.313503,0.774802 0,0.792716 -0.707622,1.262972 -0.707623,0.470255 -1.652612,0.470255 -0.774802,0 -1.26745,-0.326939 -0.492649,-0.322461 -0.492649,-0.837503 0,-0.559828 0.761366,-0.944989 -0.631486,-0.29559 -0.631486,-0.725537 0,-0.492649 0.815109,-0.918118 -0.376204,-0.22841 -0.577742,-0.591178 -0.201538,-0.362769 -0.201538,-0.765845 0,-0.658358 0.447862,-1.079348 0.447863,-0.425469 1.119656,-0.425469 0.483691,0 0.873332,0.201538 l 1.383894,-0.210496 v 0.680751 h -0.891246 q 0.201538,0.353811 0.201538,0.833024 0,0.635964 -0.443383,1.07487 -0.443384,0.438905 -1.124135,0.438905 -0.143316,0 -0.273196,-0.009 z m 0.273196,-0.532956 q 0.385162,0 0.627007,-0.264239 0.246325,-0.268717 0.246325,-0.698665 0,-0.452341 -0.237367,-0.707622 -0.237367,-0.255282 -0.635965,-0.255282 -0.371726,0 -0.627007,0.268718 -0.250803,0.264238 -0.250803,0.694186 0,0.420991 0.250803,0.694187 0.255281,0.268717 0.627007,0.268717 z m 0.02687,3.596335 q 0.689708,0 1.173399,-0.309025 0.48817,-0.304547 0.48817,-0.756888 0,-0.465776 -0.689708,-0.465776 -0.22841,0 -0.788238,0.02687 -0.353811,0.01791 -0.555349,0.01791 -0.09853,0 -0.309025,0.16123 -0.206017,0.161231 -0.317982,0.322461 -0.107487,0.165709 -0.107487,0.340375 0,0.273196 0.304546,0.465777 0.304547,0.19706 0.801674,0.19706 z m 12.522228,-5.30269 q -0.5867,-0.192581 -1.10622,-0.192581 -0.568785,0 -0.900203,0.192581 -0.331418,0.188102 -0.331418,0.506084 0,0.201538 0.152273,0.353811 0.152273,0.147795 0.609093,0.277675 l 0.667314,0.192581 q 0.461299,0.12988 0.752409,0.313504 0.291111,0.179144 0.434427,0.438905 0.147794,0.255281 0.147794,0.595656 0,0.667315 -0.559828,1.056956 -0.559828,0.385161 -1.424202,0.385161 -0.859896,0 -1.419724,-0.25976 l 0.134359,-0.604614 q 0.5867,0.277674 1.258493,0.277674 0.582221,0 0.94499,-0.214973 0.367247,-0.219453 0.367247,-0.577743 0,-0.241845 -0.183624,-0.429948 -0.179145,-0.19258 -0.850938,-0.398597 -0.541913,-0.165709 -0.797195,-0.246324 -0.255282,-0.08509 -0.474734,-0.246325 -0.219453,-0.16123 -0.335897,-0.385161 -0.111965,-0.223931 -0.111965,-0.501606 0,-0.604614 0.528477,-0.958425 0.528478,-0.353812 1.401809,-0.353812 0.564307,0 1.254015,0.192581 z m 6.037187,3.788915 q -0.703144,0.322461 -1.383895,0.322461 -1.249536,0 -1.249536,-1.321194 V 24.724794 H 60.882138 V 24.12018 h 0.895725 v -1.276408 h 0.680751 v 1.276408 h 1.585432 v 0.604614 h -1.585432 v 2.669259 q 0,0.42547 0.188102,0.662837 0.188102,0.232888 0.510563,0.232888 0.573264,0 1.133092,-0.255281 z m 5.575888,0.210495 h -0.694187 q -0.08509,-0.282153 -0.08509,-0.752408 -0.595657,0.873331 -1.621262,0.873331 -0.51952,0 -0.918118,-0.367247 -0.394119,-0.371726 -0.394119,-0.953947 0,-0.344854 0.138838,-0.609092 0.138837,-0.264239 0.407554,-0.443384 0.268718,-0.183624 0.653879,-0.286632 0.385162,-0.107487 0.91364,-0.147795 l 0.783759,-0.0627 V 25.8131 q 0,-1.200271 -1.119656,-1.200271 -0.264239,0 -0.671794,0.116444 -0.403076,0.111965 -0.694186,0.268717 l -0.183624,-0.501606 q 0.953947,-0.48817 1.773535,-0.48817 1.59439,0 1.59439,1.688441 v 2.006423 q 0,0.609093 0.116444,1.083827 z m -0.815109,-1.383894 v -0.84646 q -0.94499,0.08509 -1.298801,0.16123 -0.349333,0.07166 -0.609093,0.273196 -0.255281,0.201538 -0.255281,0.546392 0,0.313504 0.219452,0.506085 0.219453,0.192581 0.559828,0.192581 0.371726,0 0.738973,-0.219453 0.367247,-0.223931 0.644922,-0.613571 z m 6.274549,-3.15743 -0.282153,0.671794 q -0.461298,-0.201538 -0.797195,-0.201538 -0.309025,0 -0.604614,0.179145 -0.295589,0.174666 -0.546392,0.506084 -0.246324,0.32694 -0.246324,0.367247 v 3.018592 H 72.275757 V 24.12018 h 0.694187 v 0.944989 q 0.559828,-1.056955 1.451074,-1.056955 0.528477,0 1.025604,0.237367 z m 5.477355,4.330829 q -0.703143,0.322461 -1.383894,0.322461 -1.249536,0 -1.249536,-1.321194 V 24.724794 H 77.394822 V 24.12018 h 0.895725 v -1.276408 h 0.680751 v 1.276408 h 1.585432 v 0.604614 h -1.585432 v 2.669259 q 0,0.42547 0.188102,0.662837 0.188102,0.232888 0.510563,0.232888 0.573264,0 1.133092,-0.255281 z m 5.598278,-2.100474 H 83.32004 q 0,0.792716 0.456819,1.307758 0.461298,0.515041 1.128613,0.515041 0.635965,0 1.312237,-0.228409 l 0.120923,0.559827 q -0.61805,0.277675 -1.442117,0.277675 -1.039041,0 -1.675005,-0.667315 -0.635965,-0.667315 -0.635965,-1.800406 0,-1.110699 0.568786,-1.769056 0.573263,-0.662837 1.477945,-0.662837 0.806152,0 1.348066,0.613572 0.541913,0.613571 0.541913,1.634697 z m -0.761366,-0.568785 q 0,-0.546392 -0.340375,-0.918118 -0.340375,-0.376204 -0.761366,-0.376204 -0.541913,0 -0.900203,0.358289 -0.353812,0.35829 -0.394119,0.936033 z m 6.108841,2.879754 h -0.698665 v -0.671793 q -0.214974,0.344854 -0.61805,0.568785 -0.398598,0.223931 -0.841981,0.223931 -0.801674,0 -1.267451,-0.712101 -0.465776,-0.71658 -0.465776,-1.813842 0,-1.025605 0.483691,-1.697399 0.48817,-0.676272 1.289843,-0.676272 0.882289,0 1.419724,0.71658 v -2.257226 h 0.698665 z m -0.698665,-1.42868 v -1.939244 q -0.501606,-0.806152 -1.209228,-0.806152 -0.577743,0 -0.91364,0.515041 -0.335896,0.510563 -0.335896,1.294322 0,0.806152 0.313503,1.33463 0.317983,0.523999 0.868853,0.523999 0.264239,0 0.532956,-0.143316 0.268718,-0.143316 0.506085,-0.429948 0.237367,-0.286632 0.237367,-0.349332 z"
       id="text1-3"
       aria-label="Event log started" /><path
       id="rect1"
       style="fill:#ffffff;stroke:#000000;stroke-width:0.264002;stroke-opacity:0"
       d="m 123.4359,1.2440263 h 3.736 V 30.980024 h -3.736 z" /><path
       id="rect2"
       style="stroke:#000000;stroke-width:0.272199;stroke-opacity:0"
       d="m 123.44001,1.9117594 h 3.7278 v 3.7278013 h -3.7278 z" /></g></svg>
