<?xml version="1.0" encoding="UTF-8" standalone="no"?>
<!-- Created with Inkscape (http://www.inkscape.org/) -->

<svg
   style="background-color:black"
   width="128mm"
   height="32mm"
   viewBox="0 0 128 32"
   version="1.1"
   id="svg1"
   xml:space="preserve"
   inkscape:version="1.3.2 (091e20e, 2023-11-25)"
   sodipodi:docname="event_log_intro.svg"
   inkscape:export-filename="Event Log Intro.png"
   inkscape:export-xdpi="50.799999"
   inkscape:export-ydpi="50.799999"
   xmlns:inkscape="http://www.inkscape.org/namespaces/inkscape"
   xmlns:sodipodi="http://sodipodi.sourceforge.net/DTD/sodipodi-0.dtd"
   xmlns:xlink="http://www.w3.org/1999/xlink"
   xmlns="http://www.w3.org/2000/svg"
   xmlns:svg="http://www.w3.org/2000/svg"><sodipodi:namedview
     id="namedview1"
     pagecolor="#000000"
     bordercolor="#000000"
     borderopacity="0.25"
     inkscape:showpageshadow="2"
     inkscape:pageopacity="0.0"
     inkscape:pagecheckerboard="0"
     inkscape:deskcolor="#d1d1d1"
     inkscape:document-units="mm"
     inkscape:zoom="3.1895021"
     inkscape:cx="276.21866"
     inkscape:cy="37.780191"
     inkscape:window-width="2800"
     inkscape:window-height="1212"
     inkscape:window-x="0"
     inkscape:window-y="25"
     inkscape:window-maximized="0"
     inkscape:current-layer="layer1"
     inkscape:export-bgcolor="#000000ff" /><defs
     id="defs1"><color-profile
       name="Black-White"
       xlink:href="file:///Library/ColorSync/Profiles/Black%20&amp;%20White.icc"
       id="color-profile2" /></defs><g
     inkscape:label="Layer 1"
     inkscape:groupmode="layer"
     id="layer1"><path
       style="font-size:17.6389px;line-height:0;font-family:Prototype;-inkscape-font-specification:Prototype;fill:#ffffff;stroke-width:0.264583"
       d="m 41.685044,18.554705 q 0,0.335139 0.141112,0.670278 0.15875,0.317501 0.405694,0.582084 0.246945,0.264584 0.564445,0.440973 0.3175,0.15875 0.635001,0.15875 h 6.826254 q 0.176389,0 0.176389,-0.176389 v -1.940279 q 0,-0.176389 -0.176389,-0.176389 h -5.838476 q -0.176389,0 -0.176389,-0.176389 v -2.557641 q 0,-0.176389 0.176389,-0.176389 h 5.415143 q 0.176389,0 0.176389,-0.176389 v -2.028474 q 0,-0.176389 -0.176389,-0.176389 h -5.415143 q -0.176389,0 -0.176389,-0.176389 v -2.39889 q 0,-0.194028 0.176389,-0.194028 h 5.838476 q 0.176389,0 0.176389,-0.176389 V 7.9360869 q 0,-0.176389 -0.229306,-0.176389 h -5.979587 q -1.234723,0 -1.887362,0.7584728 -0.65264,0.7408338 -0.65264,1.9402793 z m 19.032369,-7.231949 v -0.05292 q 0,-0.08819 -0.08819,-0.08819 h -2.028474 q -0.105833,0 -0.141111,0.03528 -0.03528,0.03528 -0.07055,0.141112 l -2.081391,5.591531 q -0.01764,0.03528 -0.08819,0.194028 -0.07056,0.15875 -0.141111,0.15875 -0.07056,0 -0.141112,-0.15875 -0.07055,-0.15875 -0.08819,-0.194028 l -2.046113,-5.591531 q -0.03528,-0.105834 -0.07055,-0.141112 -0.03528,-0.03528 -0.141111,-0.03528 h -2.028474 q -0.08819,0 -0.08819,0.08819 v 0.05292 l 3.051529,8.202089 q 0.370417,1.005417 1.552224,1.005417 1.199445,0 1.569862,-1.005417 z m 2.22252,5.520976 h 6.526394 q 0.176389,0 0.176389,-0.176389 v -1.834446 q 0,-0.829028 -0.246945,-1.499306 -0.229306,-0.670279 -0.740834,-1.12889 -0.511528,-0.47625 -1.305279,-0.723195 -0.79375,-0.264584 -1.887362,-0.264584 -0.881945,0 -1.76389,0.229306 -0.864306,0.211667 -1.569862,0.758473 -0.687917,0.546806 -1.12889,1.481668 -0.423333,0.917222 -0.423333,2.328334 0,1.164168 0.246944,1.993196 0.264584,0.829029 0.864306,1.375835 0.617362,0.529167 1.60514,0.776111 1.005418,0.246945 2.487085,0.246945 h 2.980975 q 0.176389,0 0.176389,-0.176389 v -1.799168 q 0,-0.176389 -0.176389,-0.176389 h -4.198059 q -0.370417,0 -0.705556,-0.08819 -0.335139,-0.105833 -0.582084,-0.264583 -0.229305,-0.176389 -0.370417,-0.388056 -0.141111,-0.229306 -0.141111,-0.493889 0,-0.176389 0.176389,-0.176389 z m 0,-2.063752 q -0.176389,0 -0.176389,-0.176389 0,-0.335139 0.264584,-0.599722 0.264583,-0.282223 0.652639,-0.458612 0.405695,-0.194028 0.829028,-0.299861 0.440973,-0.105833 0.793751,-0.105833 1.111251,0 1.728612,0.405694 0.617362,0.388056 0.617362,1.058334 0,0.176389 -0.176389,0.176389 z m 10.160012,-1.164167 q 0,-0.15875 0.15875,-0.299861 0.176389,-0.141112 0.370417,-0.141112 h 1.710973 q 0.370417,0 0.687917,0.07056 0.3175,0.05292 0.546806,0.211667 0.246945,0.15875 0.370417,0.440972 0.141111,0.282223 0.141111,0.723195 v 5.609171 q 0,0.176389 0.176389,0.176389 h 1.781529 q 0.194028,0 0.194028,-0.176389 v -5.979588 q 0,-0.582083 -0.229305,-1.128889 -0.229306,-0.546806 -0.65264,-0.97014 -0.405695,-0.423333 -0.9525,-0.670278 -0.546806,-0.264584 -1.181807,-0.264584 h -3.986391 q -0.564445,0 -0.934862,0.370417 -0.352778,0.352778 -0.352778,0.793751 v 7.320144 q 0,0.282222 0.105833,0.493889 0.123473,0.211667 0.370417,0.211667 h 1.181807 q 0.493889,0 0.493889,-0.564445 z m 10.548049,-0.07056 q 0,-0.176389 0.176389,-0.176389 h 1.44639 q 0.176389,0 0.176389,-0.176389 v -1.799168 q 0,-0.176389 -0.176389,-0.176389 h -1.44639 q -0.176389,0 -0.176389,-0.176389 V 8.8356709 q 0,-0.176389 -0.176389,-0.176389 h -1.799168 q -0.176389,0 -0.176389,0.176389 v 2.2048621 q 0,0.176389 -0.176389,0.176389 h -0.934862 q -0.176389,0 -0.176389,0.176389 v 1.799168 q 0,0.176389 0.176389,0.176389 h 0.934862 q 0.176389,0 0.176389,0.176389 v 5.503337 q 0,0.546806 0.440972,0.952501 0.440973,0.405695 1.111251,0.405695 h 2.222502 q 0.176389,0 0.176389,-0.176389 v -1.799168 q 0,-0.15875 -0.141112,-0.176389 h -1.481667 q -0.176389,0 -0.176389,-0.176389 z m 15.96321,4.568476 h -4.780143 q -0.687917,0 -0.687917,-0.582084 V 7.9360869 q 0,-0.176389 -0.176389,-0.176389 h -2.204862 q -0.176389,0 -0.176389,0.176389 v 9.3838951 q 0,1.481668 0.617361,2.222502 0.617362,0.723195 2.081391,0.846667 0.08819,0.01764 0.211666,0.01764 0.123473,0 0.264584,0 h 4.850698 q 0.176389,0 0.176389,-0.176389 v -1.940279 q 0,-0.176389 -0.176389,-0.176389 z m 9.807216,-4.250975 q 0,-0.635001 -0.24695,-1.111251 -0.2293,-0.493889 -0.61736,-0.829028 -0.37042,-0.352778 -0.86431,-0.529168 -0.47625,-0.176389 -0.9525,-0.176389 h -3.56305 q -0.56445,0 -1.07598,0.194028 -0.49389,0.194028 -0.8643,0.564445 -0.37042,0.352778 -0.59973,0.864306 -0.21166,0.511528 -0.21166,1.146529 v 3.104446 q 0,0.617362 0.12347,1.217085 0.12347,0.582083 0.44097,1.058334 0.3175,0.458611 0.84667,0.758472 0.52917,0.282223 1.34056,0.282223 h 3.13972 q 0.81139,0 1.39347,-0.15875 0.58209,-0.15875 0.9525,-0.564445 0.38806,-0.405695 0.56445,-1.093612 0.19403,-0.687917 0.19403,-1.746251 z m -2.16959,1.92264 v 1.411112 q 0,0.458611 -0.47625,0.758473 -0.45861,0.299861 -1.09361,0.299861 h -1.62278 q -0.22931,0 -0.49389,-0.03528 -0.26458,-0.05292 -0.49389,-0.176389 -0.2293,-0.141111 -0.38805,-0.370417 -0.14111,-0.229306 -0.14111,-0.582084 v -2.822224 q 0,-0.246944 0.12347,-0.423333 0.12347,-0.176389 0.29986,-0.282223 0.19403,-0.105833 0.42333,-0.141111 0.22931,-0.05292 0.45861,-0.05292 h 1.92264 q 0.26459,0 0.52917,0.05292 0.26458,0.05292 0.47625,0.176389 0.21167,0.105833 0.33514,0.282222 0.14111,0.158751 0.14111,0.370417 z m 4.18041,6.385282 v 1.622779 q 0,0.176389 0.17638,0.176389 h 5.29167 q 0.47625,0 0.89959,-0.246945 0.42333,-0.229306 0.74083,-0.599723 0.3175,-0.352778 0.49389,-0.79375 0.19403,-0.423334 0.19403,-0.793751 v -9.45445 q 0,-0.458612 -0.26458,-0.65264 -0.26459,-0.211667 -0.70556,-0.211667 h -4.07459 q -0.9525,0 -1.65805,0.317501 -0.68792,0.3175 -1.12889,0.846667 -0.44098,0.511528 -0.65264,1.181806 -0.21167,0.670279 -0.21167,1.393473 v 1.12889 q 0,1.040695 0.33514,1.852085 0.35278,0.79375 0.89958,1.358195 0.54681,0.546806 1.21709,0.829028 0.68792,0.282223 1.37583,0.282223 h 2.6282 v 0.440972 q 0,0.15875 -0.0176,0.352778 0,0.211667 -0.0706,0.370417 -0.0529,0.176389 -0.17638,0.299862 -0.12348,0.123472 -0.35278,0.123472 h -4.76251 q -0.17638,0 -0.17638,0.176389 z m 1.46402,-6.297088 v -0.458611 q 0,-0.952501 0.37042,-1.499307 0.38806,-0.546806 1.23472,-0.546806 h 2.3107 q 0.17639,0 0.17639,0.176389 v 4.533198 q 0,0.176389 -0.17639,0.176389 h -1.12889 q -0.81139,0 -1.3582,-0.141111 -0.52916,-0.141112 -0.84666,-0.440973 -0.3175,-0.299861 -0.45861,-0.740834 -0.12348,-0.440972 -0.12348,-1.058334 z"
       id="text1"
       aria-label="Event Log" /><path
       d="m 17.253238,18.074155 h 7.761099 v -1.224056 h -7.761099 z m 0,-3.433635 H 29.35848 V 13.416491 H 17.253238 Z m 0,-3.433607 H 29.35848 V 9.9828575 H 17.253238 Z M 13.305859,25.920608 V 7.4766508 q 0,-0.620335 0.448396,-1.0881753 0.448369,-0.4678672 1.069844,-0.4678672 h 16.96352 q 0.605265,0 1.061739,0.4678672 0.456501,0.4678403 0.456501,1.0881753 V 20.547159 q 0,0.620336 -0.456501,1.088176 -0.456474,0.467868 -1.061739,0.467868 H 17.030554 Z"
       id="path1"
       style="fill:#ffffff;fill-opacity:1;stroke-width:0.0266416" /></g></svg>
