<?xml version="1.0" encoding="UTF-8" standalone="no"?>
<!-- Created with Inkscape (http://www.inkscape.org/) -->

<svg
   style="background-color:black"
   width="128mm"
   height="32mm"
   viewBox="0 0 128 32"
   version="1.1"
   id="svg1"
   xml:space="preserve"
   inkscape:version="1.3.2 (091e20e, 2023-11-25)"
   sodipodi:docname="event_log.svg"
   inkscape:export-filename="Event Log.png"
   inkscape:export-xdpi="50.799999"
   inkscape:export-ydpi="50.799999"
   xmlns:inkscape="http://www.inkscape.org/namespaces/inkscape"
   xmlns:sodipodi="http://sodipodi.sourceforge.net/DTD/sodipodi-0.dtd"
   xmlns:xlink="http://www.w3.org/1999/xlink"
   xmlns="http://www.w3.org/2000/svg"
   xmlns:svg="http://www.w3.org/2000/svg"><sodipodi:namedview
     id="namedview1"
     pagecolor="#000000"
     bordercolor="#000000"
     borderopacity="0.25"
     inkscape:showpageshadow="2"
     inkscape:pageopacity="0.0"
     inkscape:pagecheckerboard="0"
     inkscape:deskcolor="#d1d1d1"
     inkscape:document-units="mm"
     inkscape:zoom="3.1895021"
     inkscape:cx="209.75061"
     inkscape:cy="35.271963"
     inkscape:window-width="3376"
     inkscape:window-height="1212"
     inkscape:window-x="0"
     inkscape:window-y="25"
     inkscape:window-maximized="0"
     inkscape:current-layer="layer1"
     inkscape:export-bgcolor="#000000ff" /><defs
     id="defs1"><color-profile
       name="Black-White"
       xlink:href="file:///Library/ColorSync/Profiles/Black%20&amp;%20White.icc"
       id="color-profile2" /></defs><g
     inkscape:label="Layer 1"
     inkscape:groupmode="layer"
     id="layer1"><path
       style="font-size:9.17222px;line-height:0;font-family:Monospace;-inkscape-font-specification:Monospace;fill:#ffffff;stroke:#000000;stroke-width:0.264583;stroke-opacity:0"
       d="M 3.7080367,31.190867 H 0.40729147 V 24.871529 H 3.681165 v 0.640443 H 1.1417857 v 1.957159 h 2.4408496 v 0.640443 H 1.1417857 v 2.440849 h 2.566251 z m 5.6609795,-0.210496 q -0.7031438,0.322461 -1.3838946,0.322461 -1.2495358,0 -1.2495358,-1.321194 V 27.128755 H 5.8398611 v -0.604614 h 0.8957247 v -1.276407 h 0.6807507 v 1.276407 h 1.5854326 v 0.604614 H 7.4163365 v 2.66926 q 0,0.425469 0.1881022,0.662836 0.1881021,0.232888 0.510563,0.232888 0.5732638,0 1.1330917,-0.255281 z m 5.4594418,0.210496 h -0.698666 v -2.991721 q 0,-0.622528 -0.201538,-0.900203 -0.197059,-0.282153 -0.622528,-0.282153 -0.640443,0 -1.374938,0.797195 v 3.376882 h -0.698665 v -6.319338 h 0.698665 v 2.337842 q 0.752409,-0.797195 1.585433,-0.797195 1.312237,0 1.312237,1.585432 z m 5.643066,-2.31097 h -3.202216 q 0,0.792716 0.45682,1.307758 0.461298,0.515042 1.128613,0.515042 0.635964,0 1.312236,-0.22841 l 0.120923,0.559828 q -0.61805,0.277674 -1.442117,0.277674 -1.03904,0 -1.675005,-0.667314 -0.635964,-0.667315 -0.635964,-1.800407 0,-1.110698 0.568785,-1.769056 0.573264,-0.662836 1.477946,-0.662836 0.806152,0 1.348065,0.613571 0.541914,0.613571 0.541914,1.634698 z m -0.761366,-0.568785 q 0,-0.546392 -0.340376,-0.918118 -0.340375,-0.376204 -0.761366,-0.376204 -0.541913,0 -0.900203,0.35829 -0.353811,0.35829 -0.394119,0.936032 z m 6.198413,-1.661569 -0.282153,0.671793 q -0.461299,-0.201538 -0.797195,-0.201538 -0.309025,0 -0.604614,0.179145 -0.29559,0.174666 -0.546392,0.506084 -0.246325,0.32694 -0.246325,0.367248 v 3.018592 h -0.694186 v -4.666726 h 0.694186 v 0.94499 q 0.559828,-1.056955 1.451074,-1.056955 0.528478,0 1.025605,0.237367 z m 5.432569,4.541324 h -0.698666 v -2.991721 q 0,-0.622528 -0.201538,-0.900203 -0.197059,-0.282153 -0.622528,-0.282153 -0.640443,0 -1.374938,0.797195 v 3.376882 h -0.698665 v -4.666726 h 0.698665 v 0.68523 q 0.752409,-0.797195 1.585433,-0.797195 1.312237,0 1.312237,1.585432 z m 5.643067,-2.31097 h -3.202215 q 0,0.792716 0.456819,1.307758 0.461299,0.515042 1.128613,0.515042 0.635965,0 1.312237,-0.22841 l 0.120923,0.559828 q -0.61805,0.277674 -1.442117,0.277674 -1.03904,0 -1.675005,-0.667314 -0.635964,-0.667315 -0.635964,-1.800407 0,-1.110698 0.568785,-1.769056 0.573264,-0.662836 1.477945,-0.662836 0.806153,0 1.348066,0.613571 0.541913,0.613571 0.541913,1.634698 z m -0.761366,-0.568785 q 0,-0.546392 -0.340375,-0.918118 -0.340375,-0.376204 -0.761366,-0.376204 -0.541913,0 -0.900203,0.35829 -0.353811,0.35829 -0.394119,0.936032 z m 6.171542,2.669259 q -0.703144,0.322461 -1.383895,0.322461 -1.249535,0 -1.249535,-1.321194 v -2.852883 h -0.895725 v -0.604614 h 0.895725 v -1.276407 h 0.68075 v 1.276407 h 1.585433 v 0.604614 h -1.585433 v 2.66926 q 0,0.425469 0.188102,0.662836 0.188103,0.232888 0.510563,0.232888 0.573264,0 1.133092,-0.255281 z m 10.945753,0.210496 H 52.64147 v -0.671794 q -0.214974,0.344854 -0.61805,0.568785 -0.398597,0.223931 -0.841981,0.223931 -0.801673,0 -1.26745,-0.712101 -0.465777,-0.716579 -0.465777,-1.813842 0,-1.025605 0.483691,-1.697398 0.48817,-0.676272 1.289844,-0.676272 0.882289,0 1.419723,0.716579 v -2.257226 h 0.698666 z M 52.64147,29.762186 v -1.939244 q -0.501605,-0.806152 -1.209228,-0.806152 -0.577742,0 -0.913639,0.515041 -0.335897,0.510564 -0.335897,1.294323 0,0.806152 0.313504,1.334629 0.317982,0.523999 0.868853,0.523999 0.264239,0 0.532956,-0.143316 0.268717,-0.143316 0.506084,-0.429948 0.237367,-0.286631 0.237367,-0.349332 z m 4.715989,-5.002622 q 0.19706,0 0.335897,0.143316 0.138837,0.138837 0.138837,0.335896 0,0.206017 -0.138837,0.344854 -0.134359,0.138838 -0.335897,0.138838 -0.183623,0 -0.326939,-0.143316 -0.138837,-0.147795 -0.138837,-0.340376 0,-0.19258 0.138837,-0.335896 0.143316,-0.143316 0.326939,-0.143316 z m 0.340376,6.431303 H 56.99917 v -4.062112 h -1.374938 v -0.604614 h 2.073603 z m 6.180502,-3.999411 q -0.586699,-0.192581 -1.10622,-0.192581 -0.568785,0 -0.900203,0.192581 -0.331418,0.188102 -0.331418,0.506085 0,0.201538 0.152273,0.353811 0.152273,0.147794 0.609093,0.277674 l 0.667315,0.192581 q 0.461298,0.12988 0.752409,0.313504 0.29111,0.179145 0.434426,0.438905 0.147795,0.255281 0.147795,0.595657 0,0.667315 -0.559828,1.056955 -0.559828,0.385161 -1.424202,0.385161 -0.859896,0 -1.419724,-0.25976 l 0.134359,-0.604614 q 0.586699,0.277675 1.258493,0.277675 0.582221,0 0.944989,-0.214974 0.367247,-0.219453 0.367247,-0.577743 0,-0.241845 -0.183623,-0.429947 -0.179145,-0.192581 -0.850939,-0.398598 -0.541913,-0.165709 -0.797195,-0.246324 -0.255281,-0.08509 -0.474734,-0.246324 -0.219452,-0.161231 -0.335896,-0.385162 -0.111966,-0.223931 -0.111966,-0.501606 0,-0.604614 0.528478,-0.958425 0.528477,-0.353811 1.401809,-0.353811 0.564306,0 1.254014,0.19258 z m 5.974486,3.842659 q -0.609092,0.277674 -1.339108,0.277674 -1.101741,0 -1.760099,-0.667314 -0.653879,-0.671794 -0.653879,-1.782492 0,-1.110699 0.658358,-1.778014 0.662836,-0.671793 1.737705,-0.671793 0.703144,0 1.339109,0.246324 l -0.183624,0.577742 q -0.635964,-0.219452 -1.146527,-0.219452 -0.770323,0 -1.222664,0.497127 -0.447863,0.497127 -0.447863,1.348066 0,0.77928 0.465777,1.312236 0.465777,0.528478 1.213707,0.528478 0.591178,0 1.218185,-0.22841 z m 3.712778,-4.621939 q 0.962904,0 1.531689,0.671793 0.568785,0.671794 0.568785,1.769056 0,1.10622 -0.568785,1.782492 -0.568785,0.676272 -1.531689,0.676272 -0.967383,0 -1.536168,-0.671793 -0.564307,-0.676272 -0.564307,-1.786971 0,-1.101741 0.568786,-1.769056 0.568785,-0.671793 1.531689,-0.671793 z m 0,4.290521 q 0.635964,0 1.003211,-0.537435 0.367247,-0.537435 0.367247,-1.303279 0,-0.806153 -0.362768,-1.325673 -0.362769,-0.51952 -1.00769,-0.51952 -0.649401,0 -1.00769,0.515041 -0.35829,0.510564 -0.35829,1.330152 0,0.77928 0.362768,1.312236 0.362769,0.528478 1.003212,0.528478 z m 7.31359,0.48817 h -0.698665 v -2.991721 q 0,-0.622528 -0.201538,-0.900203 -0.19706,-0.282153 -0.622529,-0.282153 -0.640443,0 -1.374937,0.797195 v 3.376882 h -0.698665 v -4.666726 h 0.698665 v 0.68523 q 0.752409,-0.797195 1.585433,-0.797195 1.312236,0 1.312236,1.585432 z m 5.504227,0 h -0.698665 v -2.991721 q 0,-0.622528 -0.201538,-0.900203 -0.19706,-0.282153 -0.622529,-0.282153 -0.640443,0 -1.374937,0.797195 v 3.376882 h -0.698666 v -4.666726 h 0.698666 v 0.68523 q 0.752408,-0.797195 1.585432,-0.797195 1.312237,0 1.312237,1.585432 z m 5.643064,-2.31097 h -3.202216 q 0,0.792716 0.45682,1.307758 0.461298,0.515042 1.128613,0.515042 0.635964,0 1.312236,-0.22841 l 0.120923,0.559828 q -0.61805,0.277674 -1.442116,0.277674 -1.039041,0 -1.675005,-0.667314 -0.635965,-0.667315 -0.635965,-1.800407 0,-1.110698 0.568785,-1.769056 0.573264,-0.662836 1.477946,-0.662836 0.806152,0 1.348065,0.613571 0.541914,0.613571 0.541914,1.634698 z m -0.761366,-0.568785 q 0,-0.546392 -0.340375,-0.918118 -0.340376,-0.376204 -0.761366,-0.376204 -0.541914,0 -0.900204,0.35829 -0.353811,0.35829 -0.394118,0.936032 z m 6.108841,2.723003 q -0.609093,0.277674 -1.339109,0.277674 -1.101741,0 -1.760099,-0.667314 -0.653878,-0.671794 -0.653878,-1.782492 0,-1.110699 0.658357,-1.778014 0.662836,-0.671793 1.737706,-0.671793 0.703144,0 1.339108,0.246324 l -0.183623,0.577742 q -0.635965,-0.219452 -1.146528,-0.219452 -0.770323,0 -1.222664,0.497127 -0.447862,0.497127 -0.447862,1.348066 0,0.77928 0.465777,1.312236 0.465776,0.528478 1.213706,0.528478 0.591179,0 1.218186,-0.22841 z m 5.566923,-0.05374 q -0.70314,0.322461 -1.38389,0.322461 -1.24954,0 -1.24954,-1.321194 v -2.852884 h -0.895721 v -0.604614 h 0.895721 v -1.276407 h 0.68075 v 1.276407 h 1.58544 v 0.604614 h -1.58544 v 2.66926 q 0,0.425469 0.18811,0.662836 0.1881,0.232888 0.51056,0.232888 0.57326,0 1.13309,-0.255281 z m 5.59828,-2.100475 h -3.20221 q 0,0.792717 0.45682,1.307758 0.46129,0.515042 1.12861,0.515042 0.63596,0 1.31224,-0.22841 l 0.12092,0.559828 q -0.61805,0.277675 -1.44212,0.277675 -1.03904,0 -1.675,-0.667315 -0.63597,-0.667315 -0.63597,-1.800407 0,-1.110698 0.56879,-1.769056 0.57326,-0.662836 1.47794,-0.662836 0.80616,0 1.34807,0.613571 0.54191,0.613572 0.54191,1.634698 z m -0.76136,-0.568785 q 0,-0.546392 -0.34038,-0.918118 -0.34037,-0.376204 -0.76137,-0.376204 -0.54191,0 -0.9002,0.35829 -0.35381,0.35829 -0.39412,0.936032 z m 6.10884,2.879755 h -0.69867 v -0.671794 q -0.21497,0.344854 -0.61805,0.568785 -0.3986,0.223931 -0.84198,0.223931 -0.80167,0 -1.26745,-0.712101 -0.46578,-0.716579 -0.46578,-1.813842 0,-1.025605 0.48369,-1.697398 0.48817,-0.676272 1.28985,-0.676272 0.88229,0 1.41972,0.716579 v -2.257226 h 0.69867 z m -0.69867,-1.428681 v -1.939244 q -0.5016,-0.806152 -1.20923,-0.806152 -0.57774,0 -0.91364,0.515041 -0.33589,0.510564 -0.33589,1.294323 0,0.806152 0.3135,1.334629 0.31798,0.523999 0.86885,0.523999 0.26424,0 0.53296,-0.143316 0.26872,-0.143316 0.50608,-0.429948 0.23737,-0.286631 0.23737,-0.349332 z"
       id="text1"
       aria-label="Ethernet disconnected" /><path
       style="font-size:9.17222px;line-height:0;font-family:Monospace;-inkscape-font-specification:Monospace;fill:#ffffff;stroke:#000000;stroke-width:0.264583;stroke-opacity:0"
       d="M 5.443403,17.270956 4.637251,23.590294 H 3.956501 L 2.881631,20.029788 1.81124,23.590294 H 1.112575 L 0.32433705,17.270956 H 1.049874 l 0.532956,5.136981 0.931554,-3.108164 h 0.734494 l 0.936032,3.117121 0.541914,-5.145938 z m 4.890657,4.008368 H 7.131844 q 0,0.792716 0.45682,1.307758 0.461298,0.515042 1.128613,0.515042 0.635964,0 1.312237,-0.22841 l 0.120922,0.559828 q -0.61805,0.277675 -1.442117,0.277675 -1.03904,0 -1.675005,-0.667316 -0.635964,-0.667315 -0.635964,-1.800406 0,-1.110699 0.568785,-1.769056 0.573264,-0.662836 1.477946,-0.662836 0.806152,0 1.348065,0.613571 0.541914,0.613571 0.541914,1.634697 z M 9.572694,20.710539 q 0,-0.546392 -0.340376,-0.918118 -0.340375,-0.376204 -0.761366,-0.376204 -0.541913,0 -0.900203,0.358289 -0.353811,0.35829 -0.394119,0.936033 z m 3.229087,-1.182357 q 0.232889,-0.32246 0.627007,-0.51952 0.398598,-0.197059 0.837503,-0.197059 0.815109,0 1.26745,0.653879 0.45682,0.653878 0.45682,1.719791 0,1.079348 -0.483691,1.804885 -0.483692,0.721059 -1.294323,0.721059 -0.434426,0 -0.815109,-0.214974 -0.376204,-0.219452 -0.595657,-0.577743 v 0.671794 h -0.698665 v -6.319338 h 0.698665 z m 0,0.694187 v 1.939243 q 0.19706,0.394119 0.532956,0.658358 0.335897,0.264239 0.694187,0.264239 0.564306,0 0.895725,-0.537435 0.335896,-0.537435 0.335896,-1.321194 0,-0.806152 -0.317982,-1.307758 -0.317982,-0.501605 -0.886767,-0.501605 -0.738973,0 -1.254015,0.806152 z m 13.417955,-0.631486 q -0.5867,-0.192581 -1.10622,-0.192581 -0.568785,0 -0.900203,0.192581 -0.331419,0.188102 -0.331419,0.506084 0,0.201538 0.152274,0.353811 0.152273,0.147795 0.609092,0.277675 l 0.667315,0.192581 q 0.461298,0.12988 0.752409,0.313503 0.29111,0.179145 0.434426,0.438906 0.147795,0.255281 0.147795,0.595656 0,0.667315 -0.559828,1.056956 -0.559828,0.385162 -1.424202,0.385162 -0.859896,0 -1.419724,-0.25976 l 0.134359,-0.604615 q 0.5867,0.277675 1.258493,0.277675 0.582221,0 0.94499,-0.214974 0.367247,-0.219453 0.367247,-0.577743 0,-0.241846 -0.183624,-0.429948 -0.179145,-0.19258 -0.850938,-0.398597 -0.541914,-0.165709 -0.797195,-0.246324 -0.255282,-0.08509 -0.474734,-0.246325 -0.219453,-0.16123 -0.335897,-0.385161 -0.111966,-0.223931 -0.111966,-0.501606 0,-0.604614 0.528478,-0.958425 0.528478,-0.353811 1.401809,-0.353811 0.564307,0 1.254015,0.192581 z m 6.131234,1.688441 h -3.202216 q 0,0.792716 0.45682,1.307758 0.461298,0.515042 1.128613,0.515042 0.635964,0 1.312236,-0.22841 l 0.120923,0.559828 q -0.61805,0.277675 -1.442117,0.277675 -1.03904,0 -1.675005,-0.667316 -0.635964,-0.667315 -0.635964,-1.800406 0,-1.110699 0.568785,-1.769056 0.573264,-0.662836 1.477946,-0.662836 0.806152,0 1.348065,0.613571 0.541914,0.613571 0.541914,1.634697 z m -0.761366,-0.568785 q 0,-0.546392 -0.340376,-0.918118 -0.340375,-0.376204 -0.761366,-0.376204 -0.541913,0 -0.900203,0.358289 -0.353811,0.35829 -0.394119,0.936033 z m 6.198417,-1.661569 -0.282153,0.671793 q -0.461299,-0.201538 -0.797195,-0.201538 -0.309025,0 -0.604615,0.179145 -0.295589,0.174666 -0.546392,0.506084 -0.246324,0.32694 -0.246324,0.367247 v 3.018593 h -0.694186 v -4.666726 h 0.694186 v 0.944989 q 0.559828,-1.056954 1.451074,-1.056954 0.528478,0 1.025605,0.237367 z m 5.643064,-0.125402 -1.769056,4.666726 h -0.635965 l -1.760099,-4.666726 h 0.761366 l 1.321194,3.712779 1.321194,-3.712779 z m 5.432568,2.355756 h -3.202215 q 0,0.792716 0.45682,1.307758 0.461298,0.515042 1.128613,0.515042 0.635964,0 1.312236,-0.22841 l 0.120923,0.559828 q -0.61805,0.277675 -1.442117,0.277675 -1.03904,0 -1.675005,-0.667316 -0.635964,-0.667315 -0.635964,-1.800406 0,-1.110699 0.568785,-1.769056 0.573264,-0.662836 1.477946,-0.662836 0.806152,0 1.348065,0.613571 0.541913,0.613571 0.541913,1.634697 z m -0.761365,-0.568785 q 0,-0.546392 -0.340376,-0.918118 -0.340375,-0.376204 -0.761366,-0.376204 -0.541913,0 -0.900203,0.358289 -0.353811,0.35829 -0.394119,0.936033 z m 6.198413,-1.661569 -0.282153,0.671793 q -0.461299,-0.201538 -0.797195,-0.201538 -0.309025,0 -0.604614,0.179145 -0.29559,0.174666 -0.546392,0.506084 -0.246325,0.32694 -0.246325,0.367247 v 3.018593 h -0.694186 v -4.666726 h 0.694186 v 0.944989 q 0.559828,-1.056954 1.451074,-1.056954 0.528478,0 1.025605,0.237367 z m 10.448629,0.541913 q -0.5867,-0.192581 -1.10622,-0.192581 -0.568785,0 -0.900203,0.192581 -0.331418,0.188102 -0.331418,0.506084 0,0.201538 0.152273,0.353811 0.152273,0.147795 0.609093,0.277675 l 0.667315,0.192581 q 0.461298,0.12988 0.752408,0.313503 0.291111,0.179145 0.434427,0.438906 0.147794,0.255281 0.147794,0.595656 0,0.667315 -0.559828,1.056956 -0.559827,0.385162 -1.424202,0.385162 -0.859895,0 -1.419723,-0.25976 l 0.134358,-0.604615 q 0.5867,0.277675 1.258494,0.277675 0.582221,0 0.944989,-0.214974 0.367247,-0.219453 0.367247,-0.577743 0,-0.241846 -0.183623,-0.429948 -0.179145,-0.19258 -0.850939,-0.398597 -0.541913,-0.165709 -0.797195,-0.246324 -0.255281,-0.08509 -0.474734,-0.246325 -0.219452,-0.16123 -0.335897,-0.385161 -0.111965,-0.223931 -0.111965,-0.501606 0,-0.604614 0.528477,-0.958425 0.528478,-0.353811 1.401809,-0.353811 0.564307,0 1.254015,0.192581 z m 6.037187,3.788916 q -0.703144,0.322461 -1.383895,0.322461 -1.249536,0 -1.249536,-1.321195 v -2.852883 h -0.895724 v -0.604614 h 0.895724 v -1.276407 h 0.680751 v 1.276407 h 1.585433 v 0.604614 h -1.585433 v 2.669259 q 0,0.42547 0.188102,0.662837 0.188102,0.232888 0.510563,0.232888 0.573264,0 1.133092,-0.255281 z m 5.575884,0.210495 h -0.694186 q -0.08509,-0.282153 -0.08509,-0.752409 -0.595657,0.873332 -1.621262,0.873332 -0.51952,0 -0.918117,-0.367247 -0.394119,-0.371727 -0.394119,-0.953948 0,-0.344854 0.138837,-0.609093 0.138837,-0.264238 0.407555,-0.443383 0.268717,-0.183624 0.653879,-0.286632 0.385161,-0.107487 0.913639,-0.147795 l 0.783759,-0.0627 v -0.223932 q 0,-1.20027 -1.119656,-1.20027 -0.264239,0 -0.671793,0.116444 -0.403076,0.111965 -0.694187,0.268717 l -0.183627,-0.501605 q 0.953946,-0.48817 1.773534,-0.48817 1.59439,0 1.59439,1.68844 v 2.006423 q 0,0.609094 0.116444,1.083828 z m -0.815109,-1.383895 v -0.84646 q -0.944989,0.08509 -1.298801,0.16123 -0.349332,0.07166 -0.609092,0.273196 -0.255282,0.201538 -0.255282,0.546392 0,0.313504 0.219453,0.506085 0.219452,0.192581 0.559827,0.192581 0.371726,0 0.738973,-0.219453 0.367247,-0.223931 0.644922,-0.613571 z m 6.27455,-3.157429 -0.282153,0.671793 q -0.461299,-0.201538 -0.797195,-0.201538 -0.309025,0 -0.604614,0.179145 -0.29559,0.174666 -0.546392,0.506084 -0.246325,0.32694 -0.246325,0.367247 v 3.018593 h -0.694186 v -4.666726 h 0.694186 v 0.944989 q 0.559828,-1.056954 1.451074,-1.056954 0.528478,0 1.025605,0.237367 z m 5.477355,4.330829 q -0.703144,0.322461 -1.383895,0.322461 -1.249536,0 -1.249536,-1.321195 v -2.852883 h -0.895724 v -0.604614 h 0.895724 v -1.276407 h 0.680751 v 1.276407 h 1.585433 v 0.604614 h -1.585433 v 2.669259 q 0,0.42547 0.188102,0.662837 0.188102,0.232888 0.510563,0.232888 0.573264,0 1.133092,-0.255281 z m 5.598279,-2.100475 h -3.202217 q 0,0.792716 0.45682,1.307758 0.461297,0.515042 1.128617,0.515042 0.63596,0 1.31223,-0.22841 l 0.12092,0.559828 q -0.61805,0.277675 -1.44211,0.277675 -1.039042,0 -1.675007,-0.667316 -0.635964,-0.667315 -0.635964,-1.800406 0,-1.110699 0.568785,-1.769056 0.573264,-0.662836 1.477946,-0.662836 0.80615,0 1.34806,0.613571 0.54192,0.613571 0.54192,1.634697 z m -0.76137,-0.568785 q 0,-0.546392 -0.34037,-0.918118 -0.34038,-0.376204 -0.76137,-0.376204 -0.54191,0 -0.900202,0.358289 -0.353811,0.35829 -0.394119,0.936033 z m 6.10884,2.879755 h -0.69866 V 22.9185 q -0.21498,0.344855 -0.61805,0.568786 -0.3986,0.223931 -0.84198,0.223931 -0.80168,0 -1.26745,-0.712102 -0.46578,-0.71658 -0.46578,-1.813842 0,-1.025605 0.48369,-1.697398 0.48817,-0.676272 1.28984,-0.676272 0.88229,0 1.41973,0.716579 v -2.257226 h 0.69866 z m -0.69866,-1.428682 v -1.939243 q -0.50161,-0.806152 -1.20923,-0.806152 -0.57774,0 -0.91364,0.515041 -0.3359,0.510563 -0.3359,1.294322 0,0.806152 0.31351,1.33463 0.31798,0.523999 0.86885,0.523999 0.26424,0 0.53296,-0.143316 0.26871,-0.143316 0.50608,-0.429948 0.23737,-0.286632 0.23737,-0.349333 z"
       id="text1-6"
       aria-label="Web server started" /><path
       style="font-size:9.17222px;line-height:0;font-family:Monospace;-inkscape-font-specification:Monospace;fill:#ffffff;stroke:#000000;stroke-width:0.264583;stroke-opacity:0"
       d="M 3.7080367,15.679143 H 0.40729147 V 9.3598046 H 3.681165 V 10.000248 H 1.1417857 v 1.957159 H 3.5826353 V 12.59785 H 1.1417857 v 2.440849 h 2.566251 z m 5.6609795,-0.210496 q -0.7031438,0.322461 -1.3838946,0.322461 -1.2495358,0 -1.2495358,-1.321194 V 11.617031 H 5.8398611 V 11.012417 H 6.7355858 V 9.7360096 h 0.6807507 v 1.2764074 h 1.5854326 v 0.604614 H 7.4163365 v 2.66926 q 0,0.425469 0.1881022,0.662836 0.1881021,0.232888 0.510563,0.232888 0.5732638,0 1.1330917,-0.255281 z m 5.4594418,0.210496 h -0.698666 v -2.991721 q 0,-0.622528 -0.201538,-0.900203 -0.197059,-0.282153 -0.622528,-0.282153 -0.640443,0 -1.374938,0.797195 v 3.376882 H 11.232123 V 9.3598046 h 0.698665 v 2.3378424 q 0.752409,-0.797195 1.585433,-0.797195 1.312237,0 1.312237,1.585432 z m 5.643066,-2.31097 h -3.202216 q 0,0.792716 0.45682,1.307758 0.461298,0.515042 1.128613,0.515042 0.635964,0 1.312236,-0.22841 l 0.120923,0.559828 q -0.61805,0.277674 -1.442117,0.277674 -1.03904,0 -1.675005,-0.667314 -0.635964,-0.667315 -0.635964,-1.800407 0,-1.110699 0.568785,-1.769056 0.573264,-0.662836 1.477946,-0.662836 0.806152,0 1.348065,0.613571 0.541914,0.613571 0.541914,1.634697 z m -0.761366,-0.568785 q 0,-0.546392 -0.340376,-0.918118 -0.340375,-0.376204 -0.761366,-0.376204 -0.541913,0 -0.900203,0.35829 -0.353811,0.358289 -0.394119,0.936032 z m 6.198413,-1.661569 -0.282153,0.671793 q -0.461299,-0.201538 -0.797195,-0.201538 -0.309025,0 -0.604614,0.179145 -0.29559,0.174666 -0.546392,0.506084 -0.246325,0.32694 -0.246325,0.367248 v 3.018592 h -0.694186 v -4.666726 h 0.694186 v 0.94499 q 0.559828,-1.056955 1.451074,-1.056955 0.528478,0 1.025605,0.237367 z m 5.432569,4.541324 h -0.698666 v -2.991721 q 0,-0.622528 -0.201538,-0.900203 -0.197059,-0.282153 -0.622528,-0.282153 -0.640443,0 -1.374938,0.797195 v 3.376882 h -0.698665 v -4.666726 h 0.698665 v 0.68523 q 0.752409,-0.797195 1.585433,-0.797195 1.312237,0 1.312237,1.585432 z m 5.643067,-2.31097 h -3.202215 q 0,0.792716 0.456819,1.307758 0.461299,0.515042 1.128613,0.515042 0.635965,0 1.312237,-0.22841 l 0.120923,0.559828 q -0.61805,0.277674 -1.442117,0.277674 -1.03904,0 -1.675005,-0.667314 -0.635964,-0.667315 -0.635964,-1.800407 0,-1.110699 0.568785,-1.769056 0.573264,-0.662836 1.477945,-0.662836 0.806153,0 1.348066,0.613571 0.541913,0.613571 0.541913,1.634697 z m -0.761366,-0.568785 q 0,-0.546392 -0.340375,-0.918118 -0.340375,-0.376204 -0.761366,-0.376204 -0.541913,0 -0.900203,0.35829 -0.353811,0.358289 -0.394119,0.936032 z m 6.171542,2.669259 q -0.703144,0.322461 -1.383895,0.322461 -1.249535,0 -1.249535,-1.321194 v -2.852883 h -0.895725 v -0.604614 h 0.895725 V 9.7360096 h 0.68075 v 1.2764074 h 1.585433 v 0.604614 h -1.585433 v 2.66926 q 0,0.425469 0.188102,0.662836 0.188103,0.232888 0.510563,0.232888 0.573264,0 1.133092,-0.255281 z m 10.945753,0.05374 q -0.609093,0.277674 -1.339109,0.277674 -1.101741,0 -1.760099,-0.667314 -0.653879,-0.671794 -0.653879,-1.782492 0,-1.110699 0.658358,-1.778014 0.662836,-0.671793 1.737706,-0.671793 0.703144,0 1.339108,0.246324 l -0.183623,0.577742 q -0.635965,-0.219452 -1.146528,-0.219452 -0.770323,0 -1.222664,0.497127 -0.447862,0.497127 -0.447862,1.348066 0,0.77928 0.465776,1.312236 0.465777,0.528478 1.213707,0.528478 0.591179,0 1.218186,-0.22841 z m 3.712777,-4.621939 q 0.962904,0 1.531689,0.671793 0.568785,0.671794 0.568785,1.769056 0,1.10622 -0.568785,1.782492 -0.568785,0.676272 -1.531689,0.676272 -0.967383,0 -1.536168,-0.671793 -0.564306,-0.676272 -0.564306,-1.786971 0,-1.101741 0.568785,-1.769056 0.568785,-0.671793 1.531689,-0.671793 z m 0,4.290521 q 0.635965,0 1.003212,-0.537435 0.367247,-0.537435 0.367247,-1.303279 0,-0.806153 -0.362769,-1.325673 -0.362768,-0.51952 -1.00769,-0.51952 -0.6494,0 -1.00769,0.515041 -0.35829,0.510563 -0.35829,1.330152 0,0.77928 0.362768,1.312236 0.362769,0.528478 1.003212,0.528478 z m 7.313594,0.48817 h -0.698665 v -2.991721 q 0,-0.622528 -0.201538,-0.900203 -0.197059,-0.282153 -0.622529,-0.282153 -0.640443,0 -1.374937,0.797195 v 3.376882 h -0.698665 v -4.666726 h 0.698665 v 0.68523 q 0.752409,-0.797195 1.585433,-0.797195 1.312236,0 1.312236,1.585432 z m 5.504231,0 h -0.698665 v -2.991721 q 0,-0.622528 -0.201538,-0.900203 -0.19706,-0.282153 -0.622529,-0.282153 -0.640443,0 -1.374937,0.797195 v 3.376882 h -0.698666 v -4.666726 h 0.698666 v 0.68523 q 0.752408,-0.797195 1.585432,-0.797195 1.312237,0 1.312237,1.585432 z m 5.643064,-2.31097 h -3.202216 q 0,0.792716 0.45682,1.307758 0.461298,0.515042 1.128613,0.515042 0.635964,0 1.312236,-0.22841 l 0.120923,0.559828 q -0.61805,0.277674 -1.442116,0.277674 -1.039041,0 -1.675005,-0.667314 -0.635965,-0.667315 -0.635965,-1.800407 0,-1.110699 0.568785,-1.769056 0.573264,-0.662836 1.477946,-0.662836 0.806152,0 1.348065,0.613571 0.541914,0.613571 0.541914,1.634697 z m -0.761366,-0.568785 q 0,-0.546392 -0.340376,-0.918118 -0.340375,-0.376204 -0.761365,-0.376204 -0.541914,0 -0.900204,0.35829 -0.353811,0.358289 -0.394119,0.936032 z m 6.108841,2.723003 q -0.609093,0.277674 -1.339109,0.277674 -1.101741,0 -1.760099,-0.667314 -0.653879,-0.671794 -0.653879,-1.782492 0,-1.110699 0.658358,-1.778014 0.662836,-0.671793 1.737706,-0.671793 0.703144,0 1.339108,0.246324 l -0.183623,0.577742 q -0.635965,-0.219452 -1.146528,-0.219452 -0.770323,0 -1.222664,0.497127 -0.447862,0.497127 -0.447862,1.348066 0,0.77928 0.465776,1.312236 0.465777,0.528478 1.213707,0.528478 0.591179,0 1.218186,-0.22841 z m 5.566927,-0.05374 q -0.703144,0.322461 -1.383894,0.322461 -1.249536,0 -1.249536,-1.321194 v -2.852883 h -0.895725 v -0.604614 h 0.895725 V 9.7360096 h 0.68075 v 1.2764074 h 1.585433 v 0.604614 h -1.585433 v 2.66926 q 0,0.425469 0.188103,0.662836 0.188102,0.232888 0.510563,0.232888 0.573263,0 1.133091,-0.255281 z m 5.598278,-2.100474 h -3.202216 q 0,0.792716 0.45682,1.307758 0.461298,0.515042 1.128613,0.515042 0.635964,0 1.312236,-0.22841 l 0.120923,0.559828 q -0.61805,0.277674 -1.442116,0.277674 -1.039041,0 -1.675005,-0.667314 -0.635965,-0.667315 -0.635965,-1.800407 0,-1.110699 0.568785,-1.769056 0.573264,-0.662836 1.477946,-0.662836 0.806152,0 1.348065,0.613571 0.541914,0.613571 0.541914,1.634697 z m -0.761366,-0.568785 q 0,-0.546392 -0.340375,-0.918118 -0.340376,-0.376204 -0.761366,-0.376204 -0.541914,0 -0.900204,0.35829 -0.353811,0.358289 -0.394118,0.936032 z m 6.108841,2.879755 h -0.698665 v -0.671794 q -0.214974,0.344854 -0.61805,0.568785 -0.398598,0.223931 -0.841982,0.223931 -0.801673,0 -1.26745,-0.712101 -0.465777,-0.716579 -0.465777,-1.813842 0,-1.025605 0.483691,-1.697398 0.48817,-0.676272 1.289844,-0.676272 0.882289,0 1.419724,0.716579 V 9.3598046 h 0.698665 z m -0.698665,-1.428681 v -1.939244 q -0.501606,-0.806152 -1.209229,-0.806152 -0.577742,0 -0.913639,0.515041 -0.335897,0.510563 -0.335897,1.294323 0,0.806152 0.313504,1.334629 0.317982,0.523999 0.868853,0.523999 0.264239,0 0.532956,-0.143316 0.268717,-0.143316 0.506084,-0.429948 0.237368,-0.286631 0.237368,-0.349332 z"
       id="text1-62"
       aria-label="Ethernet connected" /><path
       style="font-size:9.17222px;line-height:0;font-family:Monospace;-inkscape-font-specification:Monospace;fill:#ffffff;stroke:#000000;stroke-width:0.264583;stroke-opacity:0"
       d="M 3.7080369,7.2187529 H 0.40729192 V 0.89941591 H 3.6811649 V 1.5398589 H 1.1417859 V 3.497017 h 2.440849 v 0.6404439 h -2.440849 v 2.440849 h 2.566251 z M 9.5347249,2.552028 7.7656689,7.2187529 H 7.1297049 L 5.3696059,2.552028 h 0.761366 l 1.321194,3.7127789 1.321193,-3.7127789 z m 5.4325701,2.3557559 h -3.202216 q 0,0.792716 0.45682,1.307758 0.461298,0.515041 1.128613,0.515041 0.635964,0 1.312237,-0.228409 l 0.120922,0.559827 q -0.61805,0.277675 -1.442116,0.277675 -1.039041,0 -1.675005,-0.667315 -0.635965,-0.667315 -0.635965,-1.800406 0,-1.1106989 0.568785,-1.7690559 0.573264,-0.662837 1.477946,-0.662837 0.806152,0 1.348066,0.613572 0.541913,0.613571 0.541913,1.6346969 z m -0.761366,-0.568785 q 0,-0.5463919 -0.340375,-0.9181179 -0.340376,-0.376204 -0.761366,-0.376204 -0.541914,0 -0.900204,0.358289 -0.353811,0.35829 -0.394118,0.9360329 z m 6.126757,2.879754 h -0.698665 v -2.99172 q 0,-0.6225289 -0.201538,-0.9002029 -0.197059,-0.282153 -0.622529,-0.282153 -0.640443,0 -1.374937,0.797194 V 7.2187529 H 16.736352 V 2.552028 h 0.698665 v 0.685229 q 0.752409,-0.797195 1.585433,-0.797195 1.312236,0 1.312236,1.5854329 z m 5.549013,-0.210495 q -0.703144,0.322461 -1.383894,0.322461 -1.249536,0 -1.249536,-1.321194 V 3.156642 H 22.352544 V 2.552028 h 0.895725 V 1.2756199 h 0.68075 V 2.552028 h 1.585433 v 0.604614 h -1.585433 v 2.6692589 q 0,0.42547 0.188103,0.662837 0.188102,0.232888 0.510563,0.232888 0.573263,0 1.133091,-0.255281 z m 10.623296,0.210495 H 34.597101 V 1.5040299 H 33.378916 V 0.89941591 h 1.91685 V 6.6141389 h 1.209229 z M 40.540233,2.440062 q 0.962904,0 1.531689,0.671794 0.568785,0.671793 0.568785,1.7690559 0,1.10622 -0.568785,1.782492 -0.568785,0.676272 -1.531689,0.676272 -0.967383,0 -1.536168,-0.671793 -0.564306,-0.676272 -0.564306,-1.786971 0,-1.1017409 0.568785,-1.7690559 0.568785,-0.671794 1.531689,-0.671794 z m 0,4.2905209 q 0.635964,0 1.003212,-0.537434 0.367247,-0.537435 0.367247,-1.30328 0,-0.806152 -0.362769,-1.3256719 -0.362768,-0.51952 -1.00769,-0.51952 -0.6494,0 -1.00769,0.515041 -0.35829,0.5105629 -0.35829,1.3301509 0,0.779281 0.362768,1.312237 0.362769,0.528477 1.003212,0.528477 z m 5.011578,-1.271929 q -0.653879,0.317983 -0.653879,0.559828 0,0.12988 0.147795,0.219453 0.152273,0.08957 0.412033,0.08957 l 1.571997,-0.04479 q 0.559828,0 0.868853,0.273196 0.313503,0.273196 0.313503,0.774802 0,0.792716 -0.707622,1.262972 -0.707623,0.470255 -1.652612,0.470255 -0.774802,0 -1.26745,-0.326939 -0.492649,-0.322461 -0.492649,-0.837503 0,-0.559828 0.761366,-0.944989 -0.631486,-0.29559 -0.631486,-0.725537 0,-0.492649 0.815109,-0.918118 -0.376204,-0.22841 -0.577742,-0.591178 -0.201538,-0.362769 -0.201538,-0.7658449 0,-0.658358 0.447862,-1.079348 0.447863,-0.425469 1.119656,-0.425469 0.483691,0 0.873332,0.201538 l 1.383894,-0.210496 v 0.680751 h -0.891246 q 0.201538,0.353811 0.201538,0.833024 0,0.6359639 -0.443383,1.0748699 -0.443384,0.438905 -1.124135,0.438905 -0.143316,0 -0.273196,-0.009 z m 0.273196,-0.532956 q 0.385162,0 0.627007,-0.264239 0.246325,-0.268717 0.246325,-0.6986649 0,-0.452341 -0.237367,-0.707622 -0.237367,-0.255282 -0.635965,-0.255282 -0.371726,0 -0.627007,0.268718 -0.250803,0.264238 -0.250803,0.694186 0,0.4209909 0.250803,0.6941869 0.255281,0.268717 0.627007,0.268717 z m 0.02687,3.596335 q 0.689708,0 1.173399,-0.309025 0.48817,-0.304547 0.48817,-0.756888 0,-0.465776 -0.689708,-0.465776 -0.22841,0 -0.788238,0.02687 -0.353811,0.01791 -0.555349,0.01791 -0.09853,0 -0.309025,0.16123 -0.206017,0.161231 -0.317982,0.322461 -0.107487,0.165709 -0.107487,0.340375 0,0.273196 0.304546,0.465777 0.304547,0.19706 0.801674,0.19706 z M 58.374105,3.219343 q -0.5867,-0.192581 -1.10622,-0.192581 -0.568785,0 -0.900203,0.192581 -0.331418,0.188102 -0.331418,0.506084 0,0.201538 0.152273,0.3538109 0.152273,0.147795 0.609093,0.277675 l 0.667314,0.192581 q 0.461299,0.12988 0.752409,0.313504 0.291111,0.179144 0.434427,0.438905 0.147794,0.255281 0.147794,0.595656 0,0.667315 -0.559828,1.056956 -0.559828,0.385161 -1.424202,0.385161 -0.859896,0 -1.419724,-0.25976 l 0.134359,-0.604614 q 0.5867,0.277674 1.258493,0.277674 0.582221,0 0.94499,-0.214973 0.367247,-0.219453 0.367247,-0.577743 0,-0.241845 -0.183624,-0.429948 -0.179145,-0.19258 -0.850938,-0.398597 -0.541913,-0.165709 -0.797195,-0.246324 -0.255282,-0.08509 -0.474734,-0.246325 -0.219453,-0.16123 -0.335897,-0.385161 -0.111965,-0.223931 -0.111965,-0.5016059 0,-0.604614 0.528477,-0.958425 0.528478,-0.353812 1.401809,-0.353812 0.564307,0 1.254015,0.192581 z m 6.037187,3.7889149 q -0.703144,0.322461 -1.383895,0.322461 -1.249536,0 -1.249536,-1.321194 V 3.156642 H 60.882138 V 2.552028 h 0.895725 V 1.2756199 h 0.680751 V 2.552028 h 1.585432 v 0.604614 h -1.585432 v 2.6692589 q 0,0.42547 0.188102,0.662837 0.188102,0.232888 0.510563,0.232888 0.573264,0 1.133092,-0.255281 z m 5.575888,0.210495 h -0.694187 q -0.08509,-0.282153 -0.08509,-0.752408 -0.595657,0.873331 -1.621262,0.873331 -0.51952,0 -0.918118,-0.367247 -0.394119,-0.371726 -0.394119,-0.953947 0,-0.344854 0.138838,-0.609092 0.138837,-0.264239 0.407554,-0.443384 0.268718,-0.183624 0.653879,-0.286632 0.385162,-0.107487 0.91364,-0.147795 l 0.783759,-0.0627 v -0.223931 q 0,-1.2002709 -1.119656,-1.2002709 -0.264239,0 -0.671794,0.116444 -0.403076,0.111965 -0.694186,0.268717 L 66.502814,2.928232 q 0.953947,-0.48817 1.773535,-0.48817 1.59439,0 1.59439,1.6884409 v 2.006423 q 0,0.609093 0.116444,1.083827 z m -0.815109,-1.383894 v -0.84646 q -0.94499,0.08509 -1.298801,0.16123 -0.349333,0.07166 -0.609093,0.273196 -0.255281,0.201538 -0.255281,0.546392 0,0.313504 0.219452,0.506085 0.219453,0.192581 0.559828,0.192581 0.371726,0 0.738973,-0.219453 0.367247,-0.223931 0.644922,-0.613571 z M 75.44662,2.677429 75.164467,3.349223 q -0.461298,-0.201538 -0.797195,-0.201538 -0.309025,0 -0.604614,0.179145 -0.295589,0.174666 -0.546392,0.506084 -0.246324,0.3269399 -0.246324,0.3672469 v 3.018592 H 72.275757 V 2.552028 h 0.694187 v 0.944989 q 0.559828,-1.056955 1.451074,-1.056955 0.528477,0 1.025604,0.237367 z m 5.477355,4.3308289 q -0.703143,0.322461 -1.383894,0.322461 -1.249536,0 -1.249536,-1.321194 V 3.156642 H 77.394822 V 2.552028 h 0.895725 V 1.2756199 h 0.680751 V 2.552028 h 1.585432 v 0.604614 h -1.585432 v 2.6692589 q 0,0.42547 0.188102,0.662837 0.188102,0.232888 0.510563,0.232888 0.573264,0 1.133092,-0.255281 z m 5.598278,-2.100474 h -3.20221 q 0,0.792716 0.45682,1.307758 0.46129,0.515041 1.12861,0.515041 0.63596,0 1.31224,-0.228409 l 0.12092,0.559827 q -0.61805,0.277675 -1.44212,0.277675 -1.03904,0 -1.675,-0.667315 -0.63597,-0.667315 -0.63597,-1.800406 0,-1.1106989 0.56879,-1.7690559 0.57326,-0.662837 1.47794,-0.662837 0.80616,0 1.34807,0.613572 0.54191,0.613571 0.54191,1.6346969 z m -0.76137,-0.568785 q 0,-0.5463919 -0.34037,-0.9181179 -0.34038,-0.376204 -0.76137,-0.376204 -0.54191,0 -0.9002,0.358289 -0.35381,0.35829 -0.39412,0.9360329 z m 6.10885,2.879754 h -0.69867 v -0.671793 q -0.21497,0.344854 -0.61805,0.568785 -0.3986,0.223931 -0.84198,0.223931 -0.80167,0 -1.26745,-0.712101 -0.46578,-0.71658 -0.46578,-1.813842 0,-1.0256049 0.48369,-1.6973989 0.48817,-0.676272 1.28985,-0.676272 0.88229,0 1.41972,0.71658 V 0.89941591 h 0.69867 z m -0.69867,-1.42868 V 3.850829 q -0.50161,-0.806152 -1.20923,-0.806152 -0.57774,0 -0.91364,0.515041 -0.33589,0.5105629 -0.33589,1.2943219 0,0.806152 0.3135,1.33463 0.31798,0.523999 0.86885,0.523999 0.26424,0 0.53296,-0.143316 0.26872,-0.143316 0.50608,-0.429948 0.23737,-0.286632 0.23737,-0.349332 z"
       id="text1-3"
       aria-label="Event log started" /><path
       id="rect1"
       style="fill:#ffffff;stroke:#000000;stroke-width:0.264002;stroke-opacity:0"
       d="m 123.4359,1.2440263 h 3.736 V 30.980024 h -3.736 z" /><path
       id="rect2"
       style="stroke:#000000;stroke-width:0.272199;stroke-opacity:0"
       d="m 123.44001,1.9117594 h 3.7278 v 3.7278013 h -3.7278 z" /></g></svg>
