<?xml version="1.0" encoding="UTF-8" standalone="no"?>
<!-- Created with Inkscape (http://www.inkscape.org/) -->

<svg
   style="background-color:black"
   width="128mm"
   height="32mm"
   viewBox="0 0 128 32"
   version="1.1"
   id="svg1"
   xml:space="preserve"
   inkscape:version="1.3.2 (091e20e, 2023-11-25)"
   sodipodi:docname="hardware intro.svg"
   inkscape:export-filename="Hardware Intro.png"
   inkscape:export-xdpi="50.799999"
   inkscape:export-ydpi="50.799999"
   xmlns:inkscape="http://www.inkscape.org/namespaces/inkscape"
   xmlns:sodipodi="http://sodipodi.sourceforge.net/DTD/sodipodi-0.dtd"
   xmlns:xlink="http://www.w3.org/1999/xlink"
   xmlns="http://www.w3.org/2000/svg"
   xmlns:svg="http://www.w3.org/2000/svg"><sodipodi:namedview
     id="namedview1"
     pagecolor="#000000"
     bordercolor="#000000"
     borderopacity="0.25"
     inkscape:showpageshadow="2"
     inkscape:pageopacity="0.0"
     inkscape:pagecheckerboard="0"
     inkscape:deskcolor="#d1d1d1"
     inkscape:document-units="mm"
     inkscape:zoom="3.1895021"
     inkscape:cx="276.21866"
     inkscape:cy="-6.740864"
     inkscape:window-width="2800"
     inkscape:window-height="1212"
     inkscape:window-x="0"
     inkscape:window-y="25"
     inkscape:window-maximized="0"
     inkscape:current-layer="layer1"
     inkscape:export-bgcolor="#000000ff" /><defs
     id="defs1"><color-profile
       name="Black-White"
       xlink:href="file:///Library/ColorSync/Profiles/Black%20&amp;%20White.icc"
       id="color-profile2" /></defs><g
     inkscape:label="Layer 1"
     inkscape:groupmode="layer"
     id="layer1"><path
       style="font-size:17.6389px;line-height:0;font-family:Prototype;-inkscape-font-specification:Prototype;fill:#ffffff;stroke-width:0.264583"
       d="m 44.108361,21.391762 q 0,0.176389 0.176389,0.176389 h 2.204863 q 0.176389,0 0.176389,-0.176389 v -4.850697 q 0,-0.176389 0.176389,-0.176389 h 4.180419 q 0.176389,0 0.176389,0.176389 v 4.850697 q 0,0.176389 0.176389,0.176389 h 2.204863 q 0.176389,0 0.176389,-0.176389 V 9.0974486 q 0,-0.176389 -0.176389,-0.176389 h -2.204863 q -0.176389,0 -0.176389,0.176389 V 13.89523 q 0,0.176389 -0.176389,0.176389 h -4.180419 q -0.176389,0 -0.176389,-0.176389 V 9.0974486 q 0,-0.176389 -0.176389,-0.176389 H 44.28475 q -0.176389,0 -0.176389,0.176389 z m 11.447632,-8.837089 v 1.799168 q 0,0.176389 0.176389,0.176389 h 4.639031 q 0.282222,0 0.458611,0.246945 0.176389,0.246944 0.176389,0.493889 0,0.299861 -0.282222,0.529167 -0.264584,0.211667 -0.723195,0.211667 h -2.945697 q -0.529167,0 -0.899584,0.299861 -0.370417,0.299861 -0.599722,0.740834 -0.229306,0.423333 -0.335139,0.934862 -0.105834,0.511528 -0.105834,0.934861 0,0.229306 0.07056,0.670279 0.07056,0.440972 0.246944,0.881945 0.194028,0.440972 0.529167,0.776111 0.33514,0.3175 0.864307,0.3175 h 6.155976 q 0.176389,0 0.176389,-0.176389 v -5.820837 q 0,-0.564445 -0.141111,-1.128889 -0.123473,-0.564445 -0.423334,-1.023057 -0.282222,-0.458611 -0.758473,-0.740834 -0.458611,-0.299861 -1.128889,-0.299861 h -4.97417 q -0.176389,0 -0.176389,0.176389 z m 2.24014,6.949727 q -0.3175,0 -0.493889,-0.229306 -0.176389,-0.229305 -0.176389,-0.529167 0,-0.246944 0.15875,-0.440972 0.15875,-0.211667 0.405695,-0.211667 h 3.139724 q 0.176389,0 0.176389,0.176389 v 1.058334 q 0,0.176389 -0.176389,0.176389 z m 9.048769,-7.126116 q -0.476251,0 -0.899584,0.194028 -0.423334,0.176389 -0.740834,0.493889 -0.3175,0.317501 -0.511528,0.740834 -0.176389,0.423334 -0.176389,0.881945 v 6.702782 q 0,0.176389 0.176389,0.176389 h 1.975557 q 0.176389,0 0.176389,-0.176389 v -6.08542 q 0,-0.105834 0.05292,-0.229306 0.05292,-0.141111 0.141111,-0.246945 0.105833,-0.123472 0.229305,-0.211666 0.123473,-0.0882 0.282223,-0.0882 h 1.693334 q 0.176389,0 0.176389,-0.176389 v -1.799168 q 0,-0.176389 -0.176389,-0.176389 z m 9.754321,-0.176389 V 9.0974486 q 0,-0.176389 0.176389,-0.176389 h 1.799168 q 0.176389,0 0.176389,0.176389 V 21.391762 q 0,0.176389 -0.176389,0.176389 h -5.485698 q -0.846668,0 -1.44639,-0.423333 -0.599723,-0.440973 -0.987779,-1.111251 -0.388055,-0.670278 -0.582083,-1.464029 -0.176389,-0.79375 -0.176389,-1.534584 0,-1.040695 0.176389,-1.905001 0.194028,-0.864306 0.582083,-1.464029 0.388056,-0.617362 0.987779,-0.952501 0.599722,-0.335139 1.44639,-0.335139 h 3.333752 q 0.176389,0 0.176389,-0.176389 z m 0,2.504724 q 0,-0.176389 -0.176389,-0.176389 h -1.92264 q -0.546806,0 -1.005418,0.105833 -0.440972,0.0882 -0.776111,0.370417 -0.3175,0.264584 -0.493889,0.758473 -0.176389,0.493889 -0.176389,1.270001 0,0.723195 0.176389,1.181806 0.176389,0.458612 0.493889,0.723195 0.3175,0.264584 0.758473,0.370417 0.458611,0.105834 1.023056,0.105834 h 1.92264 q 0.176389,0 0.176389,-0.176389 z m 15.751541,-2.204863 q 0,-0.123472 -0.211667,-0.123472 h -1.746251 q -0.123472,0 -0.15875,0.05292 -0.03528,0.05292 -0.05292,0.141111 l -0.829028,5.997226 q -0.01764,0.105834 -0.105833,0.176389 -0.07056,0.05292 -0.141111,0.05292 -0.07056,0 -0.158751,-0.05292 -0.07055,-0.07055 -0.08819,-0.176389 l -0.440973,-4.850697 q -0.05292,-0.49389 -0.229305,-0.776112 -0.176389,-0.299861 -0.458612,-0.440973 -0.264583,-0.15875 -0.635,-0.194027 -0.352778,-0.03528 -0.740834,-0.03528 h -0.458611 q -0.405695,0 -0.758473,0.03528 -0.352778,0.03528 -0.635001,0.194027 -0.264583,0.141112 -0.440972,0.440973 -0.176389,0.282222 -0.229306,0.776112 l -0.440972,4.850697 q -0.01764,0.105834 -0.105834,0.176389 -0.07055,0.05292 -0.141111,0.05292 -0.07056,0 -0.15875,-0.05292 -0.07056,-0.07055 -0.08819,-0.176389 l -0.829028,-5.997226 q -0.01764,-0.08819 -0.05292,-0.141111 -0.03528,-0.05292 -0.15875,-0.05292 h -1.746251 q -0.211667,0 -0.211667,0.15875 l 1.075973,7.496533 q 0.07056,0.47625 0.176389,0.81139 0.123473,0.3175 0.335139,0.529167 0.211667,0.194027 0.546806,0.282222 0.335139,0.08819 0.864306,0.08819 h 0.49389 q 0.299861,0 0.635,-0.05292 0.335139,-0.05292 0.617362,-0.211667 0.299861,-0.15875 0.511528,-0.458611 0.211667,-0.317501 0.264583,-0.846668 l 0.476251,-5.080003 q 0.01764,-0.0882 0.08819,-0.105834 0.08819,-0.03528 0.141111,-0.03528 0.05292,0 0.123473,0.03528 0.08819,0.01764 0.105833,0.105834 l 0.47625,5.080003 q 0.05292,0.529167 0.264584,0.846668 0.211667,0.299861 0.493889,0.458611 0.299861,0.15875 0.635,0.211667 0.33514,0.05292 0.635001,0.05292 h 0.493889 q 0.529167,0 0.864306,-0.08819 0.335139,-0.08819 0.546806,-0.282222 0.211667,-0.211667 0.3175,-0.529167 0.123473,-0.33514 0.194028,-0.81139 z m 1.234735,0.05292 v 1.799168 q 0,0.176389 0.176389,0.176389 h 4.63903 q 0.282223,0 0.458612,0.246945 0.176389,0.246944 0.176389,0.493889 0,0.299861 -0.282223,0.529167 -0.264583,0.211667 -0.723195,0.211667 h -2.945696 q -0.529167,0 -0.899584,0.299861 -0.370417,0.299861 -0.599722,0.740834 -0.229306,0.423333 -0.33514,0.934862 -0.105833,0.511528 -0.105833,0.934861 0,0.229306 0.07056,0.670279 0.07055,0.440972 0.246944,0.881945 0.194028,0.440972 0.529167,0.776111 0.335139,0.3175 0.864306,0.3175 h 6.155981 q 0.17638,0 0.17638,-0.176389 v -5.820837 q 0,-0.564445 -0.14111,-1.128889 -0.12347,-0.564445 -0.42333,-1.023057 -0.28222,-0.458611 -0.758473,-0.740834 -0.458611,-0.299861 -1.128889,-0.299861 h -4.97417 q -0.176389,0 -0.176389,0.176389 z m 2.24014,6.949727 q -0.3175,0 -0.493889,-0.229306 -0.176389,-0.229305 -0.176389,-0.529167 0,-0.246944 0.15875,-0.440972 0.15875,-0.211667 0.405694,-0.211667 h 3.139725 q 0.176389,0 0.176389,0.176389 v 1.058334 q 0,0.176389 -0.176389,0.176389 z m 9.048771,-7.126116 q -0.47625,0 -0.89959,0.194028 -0.42333,0.176389 -0.74083,0.493889 -0.3175,0.317501 -0.51153,0.740834 -0.17639,0.423334 -0.17639,0.881945 v 6.702782 q 0,0.176389 0.17639,0.176389 h 1.97556 q 0.17639,0 0.17639,-0.176389 v -6.08542 q 0,-0.105834 0.0529,-0.229306 0.0529,-0.141111 0.14111,-0.246945 0.10584,-0.123472 0.22931,-0.211666 0.12347,-0.0882 0.28222,-0.0882 h 1.69334 q 0.17639,0 0.17639,-0.176389 v -1.799168 q 0,-0.176389 -0.17639,-0.176389 z m 5.43279,5.62681 h 6.52639 q 0.17639,0 0.17639,-0.176389 v -1.834446 q 0,-0.829029 -0.24694,-1.499307 -0.22931,-0.670278 -0.74084,-1.128889 -0.51152,-0.476251 -1.30527,-0.723195 -0.79375,-0.264584 -1.88737,-0.264584 -0.88194,0 -1.76389,0.229306 -0.8643,0.211667 -1.56986,0.758473 -0.68792,0.546806 -1.12889,1.481667 -0.42333,0.917223 -0.42333,2.328335 0,1.164168 0.24694,1.993196 0.26459,0.829028 0.86431,1.375834 0.61736,0.529167 1.60514,0.776112 1.00542,0.246944 2.48708,0.246944 h 2.98098 q 0.17639,0 0.17639,-0.176389 v -1.799167 q 0,-0.176389 -0.17639,-0.176389 h -4.19806 q -0.37042,0 -0.70556,-0.08819 -0.33514,-0.105833 -0.58208,-0.264583 -0.22931,-0.176389 -0.37042,-0.388056 -0.14111,-0.229306 -0.14111,-0.493889 0,-0.176389 0.17639,-0.176389 z m 0,-2.063752 q -0.17639,0 -0.17639,-0.176389 0,-0.335139 0.26459,-0.599723 0.26458,-0.282222 0.65263,-0.458611 0.4057,-0.194028 0.82903,-0.299861 0.44098,-0.105834 0.79375,-0.105834 1.11125,0 1.72862,0.405695 0.61736,0.388056 0.61736,1.058334 0,0.176389 -0.17639,0.176389 z"
       id="text1"
       aria-label="Hardware" /><path
       d="m 16.515526,9.1941372 q -0.524355,0 -0.888621,0.359258 -0.364236,0.35923 -0.364236,0.8724398 0,0.513209 0.36706,0.869703 0.367031,0.356525 0.891384,0.356525 0.524356,0 0.888592,-0.359258 0.364265,-0.35923 0.364265,-0.87244 0,-0.5132078 -0.36706,-0.8697338 -0.367031,-0.356494 -0.891384,-0.356494 z m 0,11.0983158 q -0.524355,0 -0.888621,0.359258 -0.364236,0.359228 -0.364236,0.872438 0,0.513211 0.36706,0.869734 0.367031,0.356494 0.891384,0.356494 0.524356,0 0.888592,-0.359258 0.364265,-0.35923 0.364265,-0.872438 0,-0.513211 -0.36706,-0.869705 -0.367031,-0.356523 -0.891384,-0.356523 z M 13.002485,5.9811093 h 18.164938 q 0.410853,0 0.668207,0.2511069 0.257353,0.251077 0.257353,0.674097 v 6.8626378 q 0,0.490554 -0.257353,0.802199 -0.257354,0.311645 -0.668207,0.311645 H 13.002485 q -0.394795,0 -0.652149,-0.311645 -0.257353,-0.311645 -0.257353,-0.802199 V 6.9063132 q 0,-0.42302 0.257353,-0.674097 0.257354,-0.2511069 0.652149,-0.2511069 z m 0,11.0806097 h 18.045231 q 0.418559,0 0.731914,0.331192 0.313353,0.33119 0.313353,0.75021 v 6.71309 q 0,0.542515 -0.313353,0.833721 -0.313355,0.291177 -0.731914,0.291177 H 13.13825 q -0.447971,0 -0.746619,-0.291177 -0.298648,-0.291206 -0.298648,-0.833721 v -6.71309 q 0,-0.41902 0.245501,-0.75021 0.24547,-0.331192 0.664001,-0.331192 z"
       id="path1"
       style="fill:#ffffff;fill-opacity:1;stroke-width:0.0290976" /></g></svg>
