<?xml version="1.0" encoding="UTF-8" standalone="no"?>
<!-- Created with Inkscape (http://www.inkscape.org/) -->

<svg
   style="background-color:black"
   width="128mm"
   height="32mm"
   viewBox="0 0 128 32"
   version="1.1"
   id="svg1"
   xml:space="preserve"
   inkscape:version="1.3.2 (091e20e, 2023-11-25)"
   sodipodi:docname="hardware.svg"
   inkscape:export-filename="Hardware.png"
   inkscape:export-xdpi="50.799999"
   inkscape:export-ydpi="50.799999"
   xmlns:inkscape="http://www.inkscape.org/namespaces/inkscape"
   xmlns:sodipodi="http://sodipodi.sourceforge.net/DTD/sodipodi-0.dtd"
   xmlns:xlink="http://www.w3.org/1999/xlink"
   xmlns="http://www.w3.org/2000/svg"
   xmlns:svg="http://www.w3.org/2000/svg"><sodipodi:namedview
     id="namedview1"
     pagecolor="#000000"
     bordercolor="#000000"
     borderopacity="0.25"
     inkscape:showpageshadow="2"
     inkscape:pageopacity="0.0"
     inkscape:pagecheckerboard="0"
     inkscape:deskcolor="#d1d1d1"
     inkscape:document-units="mm"
     inkscape:zoom="3.1895021"
     inkscape:cx="144.22314"
     inkscape:cy="20.849649"
     inkscape:window-width="2800"
     inkscape:window-height="1212"
     inkscape:window-x="0"
     inkscape:window-y="25"
     inkscape:window-maximized="0"
     inkscape:current-layer="layer1"
     inkscape:export-bgcolor="#000000ff" /><defs
     id="defs1"><color-profile
       name="Black-White"
       xlink:href="file:///Library/ColorSync/Profiles/Black%20&amp;%20White.icc"
       id="color-profile2" /></defs><g
     inkscape:label="Layer 1"
     inkscape:groupmode="layer"
     id="layer1"><path
       style="font-size:9.17222px;line-height:0;font-family:Monospace;-inkscape-font-specification:Monospace;fill:#ffffff;stroke:#000000;stroke-width:0.264583;stroke-opacity:0"
       d="M 0.40729147,0.56588087 H 2.0106386 q 0.9091605,0 1.4555525,0.45681953 0.546392,0.4568196 0.546392,1.2584931 0,0.8061522 -0.546392,1.2898435 Q 2.9242777,4.0502497 2.0419889,4.0502497 H 1.1417857 V 6.8852181 H 0.40729147 Z M 1.1417857,3.4098066 h 0.7971949 q 1.2943221,0 1.2943221,-1.0838268 0,-0.5016058 -0.3538112,-0.8106308 Q 2.5301588,1.206324 1.9748096,1.206324 H 1.1417857 Z M 8.9211539,6.8852181 H 6.0503564 V 6.244775 H 7.1386619 V 1.206324 H 6.0503564 V 0.56588087 H 8.9211539 V 1.206324 H 7.8731561 V 6.244775 H 8.9211539 Z M 11.205251,0.56588087 h 1.245058 q 1.240578,0 1.988508,0.84645973 0.74793,0.8419812 0.74793,2.3154482 0,1.5048174 -0.761365,2.3333627 -0.756888,0.8240666 -1.943723,0.8240666 H 11.205251 Z M 11.939746,6.244775 h 0.51952 q 0.900203,0 1.424202,-0.6673148 0.523999,-0.6673149 0.523999,-1.8496714 0,-1.1733993 -0.528478,-1.8451927 Q 13.354991,1.206324 12.459266,1.206324 h -0.51952 z m 6.547747,-4.0934615 q 0.22841,0 0.385162,0.1567518 0.156752,0.1522732 0.156752,0.3762043 0,0.2239312 -0.156752,0.380683 -0.156752,0.1522732 -0.385162,0.1522732 -0.223931,0 -0.380683,-0.1522732 -0.152273,-0.1567518 -0.152273,-0.380683 0,-0.2239311 0.152273,-0.3762043 0.156752,-0.1567518 0.380683,-0.1567518 z m 0,3.7441289 q 0.22841,0 0.385162,0.1522732 0.156752,0.1522732 0.156752,0.380683 0,0.2239311 -0.156752,0.3762043 -0.156752,0.1522732 -0.385162,0.1522732 -0.223931,0 -0.380683,-0.1522732 -0.152273,-0.1522732 -0.152273,-0.3762043 0,-0.2284098 0.152273,-0.380683 0.156752,-0.1522732 0.380683,-0.1522732 z M 25.774212,1.206324 h -2.615516 v 2.0646453 h 2.382628 V 3.9114124 H 23.158696 V 6.8852181 H 22.424202 V 0.56588087 h 3.35001 z m 5.504227,0 H 28.662923 V 3.2709693 H 31.04555 V 3.9114124 H 28.662923 V 6.8852181 H 27.928429 V 0.56588087 h 3.35001 z m 5.804298,5.2847753 q -0.743451,0.5150417 -1.72427,0.5150417 -1.227143,0 -1.867586,-0.8419812 -0.635964,-0.8419811 -0.635964,-2.436371 0,-1.5406464 0.61805,-2.4094992 0.61805,-0.87333156 1.8855,-0.87333156 0.45682,0 0.904682,0.1164442 0.447862,0.1164442 0.721058,0.309025 L 36.742362,1.4481696 q -0.631486,-0.3582898 -1.383895,-0.3582898 -0.873331,0 -1.298801,0.6359645 -0.425469,0.6314858 -0.425469,2.0019445 0,2.6334304 1.72427,2.6334304 0.730016,0 1.49586,-0.4478623 z m 3.448539,-6.04614126 q 1.003211,0 1.540646,0.86437426 0.541914,0.8598957 0.541914,2.4184565 0,1.509296 -0.523999,2.3960634 -0.523999,0.8822888 -1.558561,0.8822888 -0.998733,0 -1.540647,-0.8598957 -0.541913,-0.8598956 -0.541913,-2.4184565 0,-1.5137746 0.523999,-2.3960634 0.528477,-0.88676736 1.558561,-0.88676736 z m 0,5.91626116 q 0.662836,0 0.980818,-0.6270072 0.322461,-0.6314859 0.322461,-2.0064232 0,-1.3794159 -0.322461,-2.0019445 -0.317982,-0.6270073 -0.980818,-0.6270073 -0.653879,0 -0.97634,0.6404431 -0.322461,0.6404431 -0.322461,1.9885087 0,1.3659801 0.317982,2.0019446 0.322461,0.6314858 0.980819,0.6314858 z m -0.01791,-3.3052239 q 0.282154,0 0.474734,0.1970595 0.19706,0.1925808 0.19706,0.474734 0,0.2911105 -0.19706,0.5016058 -0.197059,0.2060167 -0.474734,0.2060167 -0.273196,0 -0.470255,-0.2060167 -0.192581,-0.2104953 -0.192581,-0.5016058 0,-0.2866319 0.188102,-0.4792127 0.192581,-0.1925808 0.474734,-0.1925808 z m 6.167063,0.3627685 q 0.644922,0.1881022 0.998733,0.6404431 0.35829,0.452341 0.35829,1.0569551 0,0.8688529 -0.577742,1.3794159 -0.573264,0.5105631 -1.415245,0.5105631 -0.882289,0 -1.451074,-0.5150417 -0.564307,-0.5150417 -0.564307,-1.3659801 0,-0.6001355 0.367247,-1.056955 Q 44.763573,3.6113446 45.421931,3.4187638 44.897932,3.2844051 44.57995,2.9037222 44.266446,2.5185606 44.266446,2.0438265 q 0,-0.6090927 0.483692,-1.10174129 0.483691,-0.49712717 1.276407,-0.49712717 0.783759,0 1.294322,0.49264855 0.515042,0.49264851 0.515042,1.10621991 0,0.4612982 -0.322461,0.8509384 -0.322461,0.3851616 -0.833024,0.5239989 z M 46.026545,3.1142174 q 0.02239,0 0.214974,-0.053743 0.192581,-0.053743 0.32694,-0.1298801 0.138837,-0.080615 0.255281,-0.201538 0.116444,-0.1209229 0.188102,-0.2821533 0.07166,-0.1657091 0.07166,-0.3672471 0,-0.4299478 -0.309025,-0.7121011 -0.309025,-0.2866319 -0.74793,-0.2866319 -0.425469,0 -0.730015,0.2911105 -0.304547,0.2911105 -0.304547,0.7076225 0,0.2642388 0.107487,0.4612982 0.111966,0.1970594 0.273196,0.3179822 0.165709,0.1209228 0.376205,0.1881022 0.214973,0.067179 0.277674,0.067179 z m 0,0.6270073 q -1.227143,0.3582898 -1.227143,1.3480656 0,0.5777423 0.371726,0.927075 0.371726,0.3448539 0.873332,0.3448539 0.51952,0 0.873331,-0.3403753 0.35829,-0.344854 0.35829,-0.9315536 0,-0.4433837 -0.246324,-0.7927163 -0.246325,-0.3538113 -1.003212,-0.5553493 z m 5.513184,-3.29626666 q 1.003212,0 1.540646,0.86437426 0.541914,0.8598957 0.541914,2.4184565 0,1.509296 -0.523999,2.3960634 -0.523999,0.8822888 -1.558561,0.8822888 -0.998733,0 -1.540646,-0.8598957 -0.541914,-0.8598956 -0.541914,-2.4184565 0,-1.5137746 0.523999,-2.3960634 0.528478,-0.88676736 1.558561,-0.88676736 z m 0,5.91626116 q 0.662836,0 0.980819,-0.6270072 0.32246,-0.6314859 0.32246,-2.0064232 0,-1.3794159 -0.32246,-2.0019445 -0.317983,-0.6270073 -0.980819,-0.6270073 -0.653879,0 -0.97634,0.6404431 -0.322461,0.6404431 -0.322461,1.9885087 0,1.3659801 0.317983,2.0019446 0.322461,0.6314858 0.980818,0.6314858 z m -0.01791,-3.3052239 q 0.282153,0 0.474734,0.1970595 0.197059,0.1925808 0.197059,0.474734 0,0.2911105 -0.197059,0.5016058 -0.19706,0.2060167 -0.474734,0.2060167 -0.273196,0 -0.470256,-0.2060167 -0.192581,-0.2104953 -0.192581,-0.5016058 0,-0.2866319 0.188103,-0.4792127 0.19258,-0.1925808 0.474734,-0.1925808 z M 55.9243,3.5934301 q 0.591178,-0.4792127 1.285365,-0.4792127 0.801673,0 1.33463,0.5150417 0.537434,0.510563 0.537434,1.3211938 0,0.891246 -0.474734,1.4734671 -0.474734,0.582221 -1.26745,0.582221 -1.012169,0 -1.603347,-0.927075 -0.591178,-0.9315536 -0.591178,-2.2751406 0,-1.4331594 0.613571,-2.3960634 0.61805,-0.96290396 1.688441,-0.96290396 0.738973,0 1.276407,0.21945254 L 58.606995,1.3182896 q -0.622528,-0.2284098 -1.13757,-0.2284098 -0.730016,0 -1.13757,0.6986652 Q 55.9243,2.4872102 55.9243,3.5934301 Z m 0.02239,0.6314859 q 0,0.8106308 0.380683,1.473467 0.380683,0.6628362 0.958425,0.6628362 0.48817,0 0.752409,-0.3582898 0.264239,-0.3582899 0.264239,-0.9897757 0,-0.582221 -0.291111,-0.9181178 -0.29111,-0.3358967 -0.819588,-0.3358967 -0.685229,0 -1.245057,0.4657768 z m 7.895815,0.4792127 H 61.182206 V 4.0233779 h 2.660302 z m 5.862521,2.1810894 H 66.229617 V 6.352262 q 1.321194,-1.473467 1.715313,-1.9750728 0.394119,-0.5016058 0.640443,-1.0524765 0.246324,-0.5508706 0.246324,-1.0972626 0,-0.5284776 -0.322461,-0.8330239 -0.317982,-0.3045464 -0.895724,-0.3045464 -0.443384,0 -1.191314,0.273196 L 66.31919,0.73158992 q 0.676272,-0.28663188 1.415245,-0.28663188 0.846459,0 1.361501,0.47921268 0.51952,0.47473408 0.51952,1.27192898 0,0.5687851 -0.268717,1.128613 Q 69.0825,3.8845406 68.665988,4.3995823 68.249476,4.914624 67.044727,6.244775 h 2.660302 z M 73.95972,3.4904218 q 0.577742,0.1612304 0.927075,0.5911782 0.349332,0.4254692 0.349332,0.9584254 0,0.8330239 -0.6494,1.4018091 -0.649401,0.5643065 -1.531689,0.5643065 -0.752409,0 -1.348066,-0.3314181 l 0.143316,-0.6046142 q 0.622529,0.2911105 1.231621,0.2911105 0.573264,0 0.97634,-0.3538112 0.407555,-0.3582898 0.407555,-0.9181177 0,-0.5508707 -0.434426,-0.8957247 -0.434427,-0.344854 -1.151007,-0.344854 h -0.19258 V 3.2440975 h 0.05374 q 0.689708,0 1.13757,-0.3224609 0.447863,-0.3269394 0.447863,-0.8778101 0,-0.4478623 -0.322461,-0.6986652 -0.322461,-0.2552815 -0.886768,-0.2552815 -0.48817,0 -1.092784,0.2642387 l -0.09853,-0.63148582 q 0.609092,-0.27767464 1.227142,-0.27767464 0.84646,0 1.392852,0.44786232 0.550871,0.44338364 0.550871,1.14204894 0,0.4836913 -0.335897,0.9046818 -0.331418,0.416512 -0.801673,0.5239989 z m 5.10115,-3.04546376 q 1.003212,0 1.540647,0.86437426 0.541913,0.8598957 0.541913,2.4184565 0,1.509296 -0.523999,2.3960634 -0.523999,0.8822888 -1.558561,0.8822888 -0.998733,0 -1.540646,-0.8598957 -0.541914,-0.8598956 -0.541914,-2.4184565 0,-1.5137746 0.523999,-2.3960634 0.528478,-0.88676736 1.558561,-0.88676736 z m 0,5.91626116 q 0.662836,0 0.980819,-0.6270072 0.32246,-0.6314859 0.32246,-2.0064232 0,-1.3794159 -0.32246,-2.0019445 Q 79.723706,1.098837 79.06087,1.098837 q -0.653879,0 -0.97634,0.6404431 -0.322461,0.6404431 -0.322461,1.9885087 0,1.3659801 0.317983,2.0019446 0.322461,0.6314858 0.980818,0.6314858 z m -0.01791,-3.3052239 q 0.282153,0 0.474734,0.1970595 0.197059,0.1925808 0.197059,0.474734 0,0.2911105 -0.197059,0.5016058 -0.19706,0.2060167 -0.474734,0.2060167 -0.273196,0 -0.470256,-0.2060167 -0.192581,-0.2104953 -0.192581,-0.5016058 0,-0.2866319 0.188103,-0.4792127 0.19258,-0.1925808 0.474734,-0.1925808 z m 4.724946,0.058222 q 0.304546,-0.080615 0.595657,-0.080615 0.895724,0 1.415245,0.5508707 0.51952,0.546392 0.51952,1.36598 0,0.8598957 -0.604614,1.4600312 -0.604614,0.5956569 -1.473467,0.5956569 -0.828545,0 -1.388373,-0.2776747 l 0.147794,-0.6225286 q 0.609093,0.2552815 1.258493,0.2552815 0.577743,0 0.931554,-0.3717257 0.35829,-0.3717257 0.35829,-1.0390406 0,-0.6314858 -0.335897,-0.9718612 -0.335897,-0.3403753 -0.864374,-0.3403753 -0.385162,0 -0.761366,0.1477945 L 83.127459,3.5844729 V 0.56588087 h 2.888712 V 1.206324 h -2.248269 z"
       id="text1"
       aria-label="PID:FFC0806-2305 " /><path
       style="font-size:9.17222px;line-height:0;font-family:Monospace;-inkscape-font-specification:Monospace;fill:#ffffff;stroke:#000000;stroke-width:0.264583;stroke-opacity:0"
       d="m 4.0394549,12.062026 q 0,1.097262 -0.4478624,1.603347 -0.4433836,0.506084 -1.3525442,0.506084 -1.83175682,0 -1.83175682,-2.091517 V 7.731197 H 1.1417857 v 4.281564 q 0,1.513774 1.0972626,1.513774 0.5508707,0 0.8061522,-0.35829 0.2597602,-0.358289 0.2597602,-1.164442 V 7.731197 h 0.7344942 z m 5.5042276,0 q 0,1.097262 -0.4478623,1.603347 -0.4433837,0.506084 -1.3525442,0.506084 -1.8317569,0 -1.8317569,-2.091517 V 7.731197 h 0.7344942 v 4.281564 q 0,1.513774 1.0972627,1.513774 0.5508706,0 0.8061522,-0.35829 0.2597601,-0.358289 0.2597601,-1.164442 V 7.731197 h 0.7344942 z m 5.0921945,1.988508 h -2.870798 v -0.640443 h 1.088306 V 8.3716401 H 11.765079 V 7.731197 h 2.870798 v 0.6404431 h -1.047998 v 5.0384509 h 1.047998 z m 2.284098,-6.319337 h 1.245058 q 1.240578,0 1.988508,0.8464597 0.74793,0.8419812 0.74793,2.3154483 0,1.504817 -0.761366,2.333363 -0.756887,0.824066 -1.943722,0.824066 h -1.276408 z m 0.734495,5.678894 h 0.51952 q 0.900203,0 1.424202,-0.667315 0.523999,-0.667315 0.523999,-1.849671 0,-1.1733993 -0.528478,-1.8451928 Q 19.069714,8.3716401 18.17399,8.3716401 h -0.51952 z m 6.547745,-4.0934614 q 0.22841,0 0.385162,0.1567518 0.156752,0.1522732 0.156752,0.3762043 0,0.2239313 -0.156752,0.3806833 -0.156752,0.152273 -0.385162,0.152273 -0.223931,0 -0.380683,-0.152273 -0.152273,-0.156752 -0.152273,-0.3806833 0,-0.2239311 0.152273,-0.3762043 0.156752,-0.1567518 0.380683,-0.1567518 z m 0,3.7441294 q 0.22841,0 0.385162,0.152273 0.156752,0.152273 0.156752,0.380683 0,0.223931 -0.156752,0.376204 -0.156752,0.152273 -0.385162,0.152273 -0.223931,0 -0.380683,-0.152273 -0.152273,-0.152273 -0.152273,-0.376204 0,-0.22841 0.152273,-0.380683 0.156752,-0.152273 0.380683,-0.152273 z m 7.34942,0.989775 h -3.323139 v -0.640443 h 1.339109 V 8.5015202 L 28.304633,9.133006 V 8.3985118 l 1.36598,-0.7031438 h 0.631486 v 5.714723 h 1.249536 z m 4.330831,-3.466454 q 0.644922,0.188102 0.998733,0.640443 0.35829,0.452341 0.35829,1.056955 0,0.868853 -0.577742,1.379416 -0.573264,0.510563 -1.415245,0.510563 -0.882289,0 -1.451074,-0.515042 -0.564307,-0.515041 -0.564307,-1.36598 0,-0.600135 0.367247,-1.056955 0.367247,-0.456819 1.025605,-0.6494 -0.523999,-0.134359 -0.841981,-0.515042 -0.313504,-0.3851613 -0.313504,-0.8598954 0,-0.6090927 0.483691,-1.1017413 0.483692,-0.4971272 1.276408,-0.4971272 0.783759,0 1.294322,0.4926486 0.515042,0.4926485 0.515042,1.1062199 0,0.4612982 -0.322461,0.8509384 -0.322461,0.385162 -0.833024,0.523999 z m -0.653879,-0.304546 q 0.02239,0 0.214974,-0.05374 0.192581,-0.05374 0.32694,-0.12988 0.138837,-0.08061 0.255281,-0.201538 0.116444,-0.1209229 0.188102,-0.2821533 0.07166,-0.1657091 0.07166,-0.3672471 0,-0.4299478 -0.309025,-0.7121011 -0.309025,-0.2866319 -0.74793,-0.2866319 -0.425469,0 -0.730015,0.2911105 -0.304547,0.2911105 -0.304547,0.7076225 0,0.2642388 0.107487,0.4612982 0.111966,0.1970594 0.273196,0.3179822 0.165709,0.120923 0.376204,0.188102 0.214974,0.06718 0.277675,0.06718 z m 0,0.627007 q -1.227143,0.35829 -1.227143,1.348065 0,0.577743 0.371726,0.927075 0.371726,0.344854 0.873332,0.344854 0.51952,0 0.873331,-0.340375 0.35829,-0.344854 0.35829,-0.931554 0,-0.443383 -0.246324,-0.792716 -0.246325,-0.353811 -1.003212,-0.555349 z m 4.393528,-0.147795 q 0.591178,-0.479212 1.285365,-0.479212 0.801674,0 1.33463,0.515041 0.537435,0.510563 0.537435,1.321194 0,0.891246 -0.474734,1.473467 -0.474735,0.582221 -1.267451,0.582221 -1.012169,0 -1.603347,-0.927075 -0.591178,-0.931554 -0.591178,-2.27514 0,-1.4331599 0.613571,-2.3960639 0.61805,-0.962904 1.688441,-0.962904 0.738973,0 1.276408,0.2194526 l -0.116444,0.653879 Q 41.682282,8.2551959 41.16724,8.2551959 q -0.730015,0 -1.13757,0.6986652 -0.407555,0.6986652 -0.407555,1.8048849 z m 0.02239,0.631486 q 0,0.810631 0.380683,1.473467 0.380683,0.662836 0.958426,0.662836 0.48817,0 0.752408,-0.35829 0.264239,-0.358289 0.264239,-0.989775 0,-0.582221 -0.29111,-0.918118 -0.291111,-0.335897 -0.819588,-0.335897 -0.68523,0 -1.245058,0.465777 z m 8.254102,2.660302 h -3.475412 v -0.532956 q 1.321194,-1.473467 1.715313,-1.975073 0.394119,-0.501606 0.640443,-1.052476 0.246324,-0.5508708 0.246324,-1.0972628 0,-0.5284776 -0.322461,-0.8330239 -0.317982,-0.3045464 -0.895724,-0.3045464 -0.443384,0 -1.191314,0.273196 L 44.512771,7.896906 q 0.676272,-0.2866319 1.415244,-0.2866319 0.84646,0 1.361502,0.4792127 0.51952,0.4747341 0.51952,1.271929 0,0.5687851 -0.268717,1.1286132 -0.264239,0.559828 -0.680751,1.074869 -0.416512,0.515042 -1.621261,1.845193 h 2.660302 z m 5.652021,0 h -0.698665 v -0.671793 q -0.214974,0.344854 -0.61805,0.568785 -0.398598,0.223931 -0.841981,0.223931 -0.801674,0 -1.267451,-0.712101 -0.465777,-0.71658 -0.465777,-1.813842 0,-1.025605 0.483692,-1.6973986 0.48817,-0.6762721 1.289843,-0.6762721 0.882289,0 1.419724,0.7165797 V 7.731197 h 0.698665 z M 52.851966,12.621853 V 10.68261 Q 52.35036,9.8764575 51.642737,9.8764575 q -0.577742,0 -0.913639,0.5150415 -0.335896,0.510563 -0.335896,1.294322 0,0.806152 0.313503,1.33463 0.317982,0.523999 0.868853,0.523999 0.264239,0 0.532956,-0.143316 0.268718,-0.143316 0.506085,-0.429948 0.237367,-0.286632 0.237367,-0.349333 z m 6.055097,1.428681 h -3.475412 v -0.532956 q 1.321194,-1.473467 1.715313,-1.975073 0.394119,-0.501606 0.640443,-1.052476 0.246325,-0.5508708 0.246325,-1.0972628 0,-0.5284776 -0.322461,-0.8330239 -0.317983,-0.3045464 -0.895725,-0.3045464 -0.443384,0 -1.191314,0.273196 L 55.521224,7.896906 q 0.676272,-0.2866319 1.415245,-0.2866319 0.84646,0 1.361501,0.4792127 0.519521,0.4747341 0.519521,1.271929 0,0.5687851 -0.268718,1.1286132 -0.264239,0.559828 -0.680751,1.074869 -0.416511,0.515042 -1.621261,1.845193 h 2.660302 z m 5.808777,-2.310969 h -3.202216 q 0,0.792716 0.45682,1.307758 0.461298,0.515041 1.128613,0.515041 0.635964,0 1.312237,-0.228409 l 0.120922,0.559827 q -0.61805,0.277675 -1.442116,0.277675 -1.039041,0 -1.675005,-0.667315 -0.635965,-0.667315 -0.635965,-1.800406 0,-1.110699 0.568785,-1.7690564 0.573264,-0.6628363 1.477946,-0.6628363 0.806152,0 1.348066,0.6135714 0.541913,0.6135713 0.541913,1.6346973 z M 63.954474,11.17078 q 0,-0.546392 -0.340375,-0.918118 -0.340376,-0.3762045 -0.761366,-0.3762045 -0.541914,0 -0.900204,0.3582895 -0.353811,0.35829 -0.394118,0.936033 z m 6.126759,2.879754 h -3.323138 v -0.640443 h 1.339108 V 8.5015202 L 66.834231,9.133006 V 8.3985118 l 1.36598,-0.7031438 h 0.631486 v 5.714723 h 1.249536 z m 4.980228,-2.181089 h -2.660302 v -0.680751 h 2.660302 z m 6.167063,-0.12988 h -3.202216 q 0,0.792716 0.45682,1.307758 0.461298,0.515041 1.128613,0.515041 0.635964,0 1.312236,-0.228409 l 0.120923,0.559827 q -0.61805,0.277675 -1.442116,0.277675 -1.039041,0 -1.675005,-0.667315 -0.635965,-0.667315 -0.635965,-1.800406 0,-1.110699 0.568785,-1.7690564 0.573264,-0.6628363 1.477946,-0.6628363 0.806152,0 1.348065,0.6135714 0.541914,0.6135713 0.541914,1.6346973 z M 80.467158,11.17078 q 0,-0.546392 -0.340376,-0.918118 -0.340375,-0.3762045 -0.761365,-0.3762045 -0.541914,0 -0.900204,0.3582895 -0.353811,0.35829 -0.394119,0.936033 z m 4.953356,-0.5867 q 0.644922,0.188102 0.998733,0.640443 0.35829,0.452341 0.35829,1.056955 0,0.868853 -0.577743,1.379416 -0.573263,0.510563 -1.415245,0.510563 -0.882288,0 -1.451074,-0.515042 -0.564306,-0.515041 -0.564306,-1.36598 0,-0.600135 0.367247,-1.056955 0.367247,-0.456819 1.025605,-0.6494 -0.523999,-0.134359 -0.841981,-0.515042 -0.313504,-0.3851613 -0.313504,-0.8598954 0,-0.6090927 0.483691,-1.1017413 0.483692,-0.4971272 1.276408,-0.4971272 0.783759,0 1.294322,0.4926486 0.515042,0.4926485 0.515042,1.1062199 0,0.4612982 -0.322461,0.8509384 -0.322461,0.385162 -0.833024,0.523999 z m -0.653879,-0.304546 q 0.02239,0 0.214974,-0.05374 0.192581,-0.05374 0.326939,-0.12988 0.138838,-0.08061 0.255282,-0.201538 0.116444,-0.1209229 0.188102,-0.2821533 0.07166,-0.1657091 0.07166,-0.3672471 0,-0.4299478 -0.309025,-0.7121011 -0.309025,-0.2866319 -0.74793,-0.2866319 -0.425469,0 -0.730016,0.2911105 -0.304546,0.2911105 -0.304546,0.7076225 0,0.2642388 0.107487,0.4612982 0.111965,0.1970594 0.273196,0.3179822 0.165709,0.120923 0.376204,0.188102 0.214974,0.06718 0.277675,0.06718 z m 0,0.627007 q -1.227143,0.35829 -1.227143,1.348065 0,0.577743 0.371726,0.927075 0.371726,0.344854 0.873331,0.344854 0.519521,0 0.873332,-0.340375 0.35829,-0.344854 0.35829,-0.931554 0,-0.443383 -0.246325,-0.792716 -0.246324,-0.353811 -1.003211,-0.555349 z m 7.447949,3.143993 h -0.694187 q -0.08509,-0.282153 -0.08509,-0.752408 -0.595657,0.873331 -1.621262,0.873331 -0.51952,0 -0.918118,-0.367247 -0.394119,-0.371726 -0.394119,-0.953947 0,-0.344854 0.138838,-0.609093 0.138837,-0.264238 0.407554,-0.443383 0.268718,-0.183624 0.653879,-0.286632 0.385162,-0.107487 0.91364,-0.147795 l 0.783759,-0.0627 v -0.223932 q 0,-1.2002705 -1.119656,-1.2002705 -0.264239,0 -0.671794,0.1164442 -0.403076,0.1119653 -0.694186,0.2687173 L 88.730215,9.7600133 q 0.953947,-0.48817 1.773535,-0.48817 1.59439,0 1.59439,1.6884407 v 2.006423 q 0,0.609093 0.116444,1.083827 z M 91.399475,12.66664 v -0.84646 q -0.94499,0.08509 -1.298801,0.16123 -0.349333,0.07166 -0.609093,0.273196 -0.255281,0.201538 -0.255281,0.546392 0,0.313504 0.219452,0.506085 0.219453,0.192581 0.559828,0.192581 0.371726,0 0.738973,-0.219453 0.367247,-0.223931 0.644922,-0.613571 z m 3.587376,-2.387106 q 0.304546,-0.08062 0.595656,-0.08062 0.895725,0 1.415245,0.550871 0.519521,0.546392 0.519521,1.36598 0,0.859896 -0.604614,1.460031 -0.604615,0.595657 -1.473467,0.595657 -0.828546,0 -1.388374,-0.277675 l 0.147795,-0.622528 q 0.609093,0.255281 1.258493,0.255281 0.577742,0 0.931554,-0.371725 0.358289,-0.371726 0.358289,-1.039041 0,-0.631486 -0.335896,-0.971861 -0.335897,-0.340376 -0.864375,-0.340376 -0.385161,0 -0.761365,0.147795 L 94.346407,10.749789 V 7.731197 h 2.888712 v 0.6404431 h -2.248268 z m 7.595739,1.589911 h -2.660298 v -0.680751 h 2.660298 z m 6.27455,0.721058 h -0.77928 v 1.460031 h -0.73449 v -1.460031 h -2.74988 v -0.559828 l 2.4946,-4.299478 h 0.98977 v 4.218863 h 0.77928 z M 107.34337,11.95006 V 8.4567339 l -2.00642,3.4933261 z"
       id="text1-6"
       aria-label="UUID:1862d2e1-e8a5-4" /><path
       style="font-size:9.17222px;line-height:0;font-family:Monospace;-inkscape-font-specification:Monospace;fill:#ffffff;stroke:#000000;stroke-width:0.264583;stroke-opacity:0"
       d="m 1.1328284,17.609356 q 0.2328884,-0.322461 0.6270073,-0.519521 0.3985974,-0.197059 0.8375025,-0.197059 0.8151094,0 1.2674504,0.653879 0.4568195,0.653879 0.4568195,1.719791 0,1.079348 -0.4836913,1.804885 -0.4836913,0.721059 -1.2943221,0.721059 -0.4344264,0 -0.8151094,-0.214974 Q 1.352281,21.357963 1.1328284,20.999673 v 0.671794 H 0.43416322 V 15.35213 H 1.1328284 Z m 0,0.694186 v 1.939244 q 0.1970594,0.394119 0.5329562,0.658358 0.3358967,0.264238 0.6941866,0.264238 0.5643065,0 0.8957246,-0.537434 0.3358967,-0.537435 0.3358967,-1.321194 0,-0.806152 -0.3179822,-1.307758 -0.3179822,-0.501606 -0.8867674,-0.501606 -0.7389728,0 -1.2540145,0.806152 z m 5.4639201,0.07614 q 0.5911782,-0.479213 1.2853648,-0.479213 0.8016736,0 1.3346297,0.515042 0.5374348,0.510563 0.5374348,1.321194 0,0.891246 -0.4747341,1.473467 -0.474734,0.582221 -1.2674503,0.582221 -1.0121689,0 -1.6033471,-0.927075 -0.5911783,-0.931554 -0.5911783,-2.275141 0,-1.433159 0.6135714,-2.396063 0.61805,-0.962904 1.6884409,-0.962904 0.7389729,0 1.2764076,0.219452 l -0.1164442,0.653879 q -0.6225286,-0.22841 -1.1375703,-0.22841 -0.7300155,0 -1.1375702,0.698666 -0.4075547,0.698665 -0.4075547,1.804885 z m 0.022393,0.631486 q 0,0.81063 0.3806829,1.473467 0.380683,0.662836 0.9584254,0.662836 0.4881699,0 0.7524087,-0.35829 0.2642388,-0.35829 0.2642388,-0.989776 0,-0.582221 -0.2911105,-0.918117 -0.2911106,-0.335897 -0.8195881,-0.335897 -0.6852293,0 -1.2450572,0.465777 z m 8.5004264,-3.135037 -2.50355,5.795339 H 11.863609 L 14.33133,15.992573 H 11.370961 V 15.35213 h 3.748607 z m 4.899615,3.614249 H 17.35888 v -0.68075 h 2.660303 z m 5.423611,-0.855417 q -0.546392,0.479213 -1.285365,0.479213 -0.801673,0 -1.339108,-0.510563 -0.532956,-0.515042 -0.532956,-1.325672 0,-0.868853 0.510563,-1.460032 0.515041,-0.595657 1.325672,-0.595657 0.989776,0 1.545125,0.904682 0.555349,0.904682 0.555349,2.297534 0,1.392852 -0.653879,2.378149 -0.6494,0.980818 -1.742184,0.980818 -0.734494,0 -1.271929,-0.223931 l 0.116444,-0.6494 q 0.61805,0.22841 1.137571,0.22841 0.743451,0 1.186835,-0.721059 0.447862,-0.721058 0.447862,-1.782492 z m -0.01791,-0.631486 q 0,-0.850938 -0.344854,-1.491381 -0.344854,-0.644922 -0.904682,-0.644922 -0.506085,0 -0.810631,0.376205 -0.300068,0.371725 -0.300068,0.971861 0,0.55087 0.304547,0.904682 0.309025,0.349332 0.806152,0.349332 0.685229,0 1.191313,-0.42099 z m 5.961046,3.667993 h -3.475412 v -0.532956 q 1.321194,-1.473467 1.715313,-1.975073 0.394119,-0.501606 0.640443,-1.052477 0.246324,-0.55087 0.246324,-1.097262 0,-0.528478 -0.322461,-0.833024 -0.317982,-0.304547 -0.895724,-0.304547 -0.443384,0 -1.191314,0.273196 l -0.103008,-0.631485 q 0.676272,-0.286632 1.415245,-0.286632 0.846459,0 1.361501,0.479212 0.51952,0.474734 0.51952,1.271929 0,0.568786 -0.268717,1.128613 -0.264239,0.559828 -0.680751,1.07487 -0.416512,0.515042 -1.621261,1.845193 h 2.660302 z m 4.49654,-3.466454 q 0.644922,0.188102 0.998733,0.640443 0.35829,0.452341 0.35829,1.056955 0,0.868853 -0.577742,1.379416 -0.573264,0.510563 -1.415245,0.510563 -0.882289,0 -1.451074,-0.515042 -0.564307,-0.515042 -0.564307,-1.36598 0,-0.600136 0.367247,-1.056955 0.367247,-0.45682 1.025605,-0.6494 -0.523999,-0.134359 -0.841981,-0.515042 -0.313504,-0.385162 -0.313504,-0.859896 0,-0.609093 0.483691,-1.101741 0.483692,-0.497127 1.276408,-0.497127 0.783759,0 1.294322,0.492648 0.515042,0.492649 0.515042,1.10622 0,0.461298 -0.322461,0.850939 -0.322461,0.385161 -0.833024,0.523999 z m -0.653879,-0.304547 q 0.02239,0 0.214974,-0.05374 0.192581,-0.05374 0.32694,-0.12988 0.138837,-0.08062 0.255281,-0.201538 0.116444,-0.120923 0.188102,-0.282154 0.07166,-0.165709 0.07166,-0.367247 0,-0.429948 -0.309025,-0.712101 -0.309025,-0.286632 -0.74793,-0.286632 -0.425469,0 -0.730015,0.291111 -0.304547,0.29111 -0.304547,0.707622 0,0.264239 0.107487,0.461298 0.111966,0.19706 0.273196,0.317983 0.165709,0.120922 0.376204,0.188102 0.214974,0.06718 0.277675,0.06718 z m 0,0.627007 q -1.227143,0.35829 -1.227143,1.348066 0,0.577742 0.371726,0.927075 0.371726,0.344854 0.873332,0.344854 0.51952,0 0.873331,-0.340375 0.35829,-0.344854 0.35829,-0.931554 0,-0.443384 -0.246324,-0.792716 -0.246325,-0.353812 -1.003212,-0.55535 z m 7.313591,3.143994 h -0.698666 v -0.671794 q -0.214974,0.344854 -0.61805,0.568785 -0.398597,0.223932 -0.841981,0.223932 -0.801673,0 -1.26745,-0.712101 -0.465777,-0.71658 -0.465777,-1.813843 0,-1.025605 0.483691,-1.697398 0.48817,-0.676272 1.289844,-0.676272 0.882289,0 1.419723,0.71658 V 15.35213 h 0.698666 z m -0.698666,-1.428681 v -1.939244 q -0.501605,-0.806152 -1.209228,-0.806152 -0.577742,0 -0.913639,0.515042 -0.335897,0.510563 -0.335897,1.294322 0,0.806152 0.313504,1.33463 0.317982,0.523998 0.868853,0.523998 0.264238,0 0.532956,-0.143316 0.268717,-0.143315 0.506084,-0.429947 0.237367,-0.286632 0.237367,-0.349333 z m 5.696808,-0.752409 h -2.660302 v -0.68075 H 47.54032 Z M 52.1533,18.27667 q 0.577743,0.161231 0.927075,0.591179 0.349333,0.425469 0.349333,0.958425 0,0.833024 -0.6494,1.401809 -0.649401,0.564307 -1.531689,0.564307 -0.752409,0 -1.348066,-0.331418 l 0.143316,-0.604615 q 0.622529,0.291111 1.231621,0.291111 0.573264,0 0.97634,-0.353811 0.407555,-0.35829 0.407555,-0.918118 0,-0.550871 -0.434427,-0.895725 -0.434426,-0.344854 -1.151006,-0.344854 h -0.19258 v -0.604614 h 0.05374 q 0.689708,0 1.13757,-0.322461 0.447863,-0.326939 0.447863,-0.87781 0,-0.447862 -0.322461,-0.698665 -0.322461,-0.255282 -0.886768,-0.255282 -0.48817,0 -1.092784,0.264239 l -0.09853,-0.631486 q 0.609092,-0.277674 1.227142,-0.277674 0.84646,0 1.392852,0.447862 0.550871,0.443384 0.550871,1.142049 0,0.483691 -0.335897,0.904682 -0.331418,0.416512 -0.801674,0.523999 z m 5.101151,-3.045463 q 1.003212,0 1.540646,0.864374 0.541914,0.859896 0.541914,2.418457 0,1.509296 -0.523999,2.396063 -0.523999,0.882289 -1.558561,0.882289 -0.998733,0 -1.540646,-0.859896 -0.541914,-0.859896 -0.541914,-2.418456 0,-1.513775 0.523999,-2.396064 0.528478,-0.886767 1.558561,-0.886767 z m 0,5.916261 q 0.662836,0 0.980819,-0.627007 0.32246,-0.631486 0.32246,-2.006423 0,-1.379416 -0.32246,-2.001945 -0.317983,-0.627007 -0.980819,-0.627007 -0.653879,0 -0.97634,0.640443 -0.322461,0.640443 -0.322461,1.988509 0,1.36598 0.317983,2.001944 0.32246,0.631486 0.980818,0.631486 z m -0.01791,-3.305224 q 0.282153,0 0.474734,0.197059 0.197059,0.192581 0.197059,0.474735 0,0.29111 -0.197059,0.501605 -0.19706,0.206017 -0.474734,0.206017 -0.273196,0 -0.470256,-0.206017 -0.192581,-0.210495 -0.192581,-0.501605 0,-0.286632 0.188103,-0.479213 0.19258,-0.192581 0.474734,-0.192581 z m 6.735851,0.792716 q -0.546392,0.479213 -1.285364,0.479213 -0.801674,0 -1.339109,-0.510563 -0.532956,-0.515042 -0.532956,-1.325672 0,-0.868853 0.510563,-1.460032 0.515042,-0.595657 1.325673,-0.595657 0.989775,0 1.545125,0.904682 0.555349,0.904682 0.555349,2.297534 0,1.392852 -0.653879,2.378149 -0.6494,0.980818 -1.742185,0.980818 -0.734494,0 -1.271928,-0.223931 l 0.116444,-0.6494 q 0.61805,0.22841 1.13757,0.22841 0.743451,0 1.186835,-0.721059 0.447862,-0.721058 0.447862,-1.782492 z m -0.01791,-0.631486 q 0,-0.850938 -0.344854,-1.491381 -0.344854,-0.644922 -0.904682,-0.644922 -0.506084,0 -0.810631,0.376205 -0.300067,0.371725 -0.300067,0.971861 0,0.55087 0.304546,0.904682 0.309025,0.349332 0.806152,0.349332 0.685229,0 1.191314,-0.42099 z m 4.711514,0.273196 q 0.577743,0.161231 0.927075,0.591179 0.349333,0.425469 0.349333,0.958425 0,0.833024 -0.649401,1.401809 -0.6494,0.564307 -1.531689,0.564307 -0.752408,0 -1.348065,-0.331418 l 0.143316,-0.604615 q 0.622528,0.291111 1.231621,0.291111 0.573264,0 0.97634,-0.353811 0.407555,-0.35829 0.407555,-0.918118 0,-0.550871 -0.434427,-0.895725 Q 68.30322,18.63496 67.58664,18.63496 h -0.192581 v -0.604614 h 0.05374 q 0.689708,0 1.13757,-0.322461 0.447862,-0.326939 0.447862,-0.87781 0,-0.447862 -0.322461,-0.698665 -0.32246,-0.255282 -0.886767,-0.255282 -0.48817,0 -1.092784,0.264239 l -0.09853,-0.631486 q 0.609093,-0.277674 1.227143,-0.277674 0.84646,0 1.392852,0.447862 0.55087,0.443384 0.55087,1.142049 0,0.483691 -0.335896,0.904682 -0.331418,0.416512 -0.801674,0.523999 z m 6.919472,3.394797 h -3.323139 v -0.640443 h 1.339109 v -4.908571 l -1.262972,0.631486 v -0.734495 l 1.36598,-0.703143 h 0.631486 v 5.714723 h 1.249536 z m 5.486312,-0.156752 q -0.609093,0.277675 -1.339108,0.277675 -1.101742,0 -1.760099,-0.667315 -0.653879,-0.671794 -0.653879,-1.782492 0,-1.110699 0.658357,-1.778014 0.662837,-0.671793 1.737706,-0.671793 0.703144,0 1.339108,0.246324 l -0.183623,0.577743 q -0.635965,-0.219453 -1.146528,-0.219453 -0.770323,0 -1.222664,0.497127 -0.447862,0.497127 -0.447862,1.348066 0,0.77928 0.465777,1.312236 0.465777,0.528478 1.213707,0.528478 0.591178,0 1.218185,-0.22841 z m 5.504227,0.156752 h -0.698666 v -0.671794 q -0.214973,0.344854 -0.61805,0.568785 -0.398597,0.223932 -0.841981,0.223932 -0.801673,0 -1.26745,-0.712101 -0.465777,-0.71658 -0.465777,-1.813843 0,-1.025605 0.483691,-1.697398 0.48817,-0.676272 1.289844,-0.676272 0.882289,0 1.419723,0.71658 V 15.35213 h 0.698666 z m -0.698666,-1.428681 v -1.939244 q -0.501605,-0.806152 -1.209228,-0.806152 -0.577742,0 -0.913639,0.515042 -0.335897,0.510563 -0.335897,1.294322 0,0.806152 0.313504,1.33463 0.317982,0.523998 0.868853,0.523998 0.264239,0 0.532956,-0.143316 0.268717,-0.143315 0.506084,-0.429947 0.237367,-0.286632 0.237367,-0.349333 z m 6.337251,1.428681 h -0.694187 q -0.08509,-0.282153 -0.08509,-0.752409 -0.595657,0.873332 -1.621262,0.873332 -0.51952,0 -0.918118,-0.367247 -0.394119,-0.371726 -0.394119,-0.953947 0,-0.344854 0.138838,-0.609093 0.138837,-0.264239 0.407554,-0.443384 0.268718,-0.183623 0.653879,-0.286632 0.385162,-0.107486 0.91364,-0.147794 l 0.783759,-0.0627 v -0.223931 q 0,-1.200271 -1.119656,-1.200271 -0.264239,0 -0.671794,0.116444 -0.403076,0.111966 -0.694186,0.268718 l -0.183624,-0.501606 q 0.953947,-0.48817 1.773535,-0.48817 1.59439,0 1.59439,1.688441 v 2.006423 q 0,0.609093 0.116444,1.083827 z m -0.815109,-1.383895 v -0.84646 q -0.94499,0.08509 -1.298801,0.161231 -0.349333,0.07166 -0.609093,0.273196 -0.255281,0.201538 -0.255281,0.546392 0,0.313504 0.219452,0.506084 0.219453,0.192581 0.559828,0.192581 0.371726,0 0.738973,-0.219452 0.367247,-0.223932 0.644922,-0.613572 z m 6.247678,-4.863784 -0.183624,0.568785 q -0.497127,-0.143316 -0.891246,-0.143316 -0.376204,0 -0.51952,0.214974 -0.138837,0.210495 -0.138837,0.855417 v 0.08509 h 1.567518 v 0.604615 h -1.567518 v 4.062111 H 95.21526 V 17.609356 H 94.041861 V 17.004741 H 95.21526 V 16.84799 q 0,-0.891246 0.304547,-1.249536 0.304546,-0.35829 1.052476,-0.35829 0.483691,0 1.07487,0.183624 z m 5.705767,4.787648 h -0.77928 v 1.460031 h -0.7345 v -1.460031 h -2.749872 v -0.559828 l 2.494592,-4.299478 h 0.98978 v 4.218863 h 0.77928 z m -1.51378,-0.640443 v -3.493326 l -2.00642,3.493326 z m 7.018,0.640443 h -0.77928 v 1.460031 h -0.73449 v -1.460031 h -2.74988 v -0.559828 l 2.4946,-4.299478 h 0.98977 v 4.218863 h 0.77928 z m -1.51377,-0.640443 v -3.493326 l -2.00642,3.493326 z m 3.87401,-1.961637 q 0.23289,-0.322461 0.627,-0.519521 0.3986,-0.197059 0.83751,-0.197059 0.81511,0 1.26745,0.653879 0.45682,0.653879 0.45682,1.719791 0,1.079348 -0.48369,1.804885 -0.4837,0.721059 -1.29433,0.721059 -0.43442,0 -0.81511,-0.214974 -0.3762,-0.219453 -0.59565,-0.577743 v 0.671794 h -0.69867 V 15.35213 h 0.69867 z m 0,0.694186 v 1.939244 q 0.19706,0.394119 0.53295,0.658358 0.3359,0.264238 0.69419,0.264238 0.56431,0 0.89572,-0.537434 0.3359,-0.537435 0.3359,-1.321194 0,-0.806152 -0.31798,-1.307758 -0.31798,-0.501606 -0.88677,-0.501606 -0.73897,0 -1.25401,0.806152 z"
       id="text1-6-9"
       aria-label="b67-928d-30931cdaf44b " /><path
       id="rect1"
       style="fill:#ffffff;stroke:#000000;stroke-width:0.264002;stroke-opacity:0"
       d="m 123.4359,1.2440263 h 3.736 V 30.980024 h -3.736 z" /><path
       id="rect2"
       style="stroke:#000000;stroke-width:0.272199;stroke-opacity:0"
       d="m 123.44001,12.115154 h 3.7278 v 3.727801 h -3.7278 z" /></g></svg>
