<?xml version="1.0" encoding="UTF-8" standalone="no"?>
<!-- Created with Inkscape (http://www.inkscape.org/) -->

<svg
style="background-color:black"
   width="128mm"
   height="32mm"
   viewBox="0 0 128 32"
   version="1.1"
   id="svg1"
   xml:space="preserve"
   inkscape:version="1.3.2 (091e20e, 2023-11-25)"
   sodipodi:docname="logo.svg"
   inkscape:export-filename="Logo.png"
   inkscape:export-xdpi="50.799999"
   inkscape:export-ydpi="50.799999"
   xmlns:inkscape="http://www.inkscape.org/namespaces/inkscape"
   xmlns:sodipodi="http://sodipodi.sourceforge.net/DTD/sodipodi-0.dtd"
   xmlns:xlink="http://www.w3.org/1999/xlink"
   xmlns="http://www.w3.org/2000/svg"
   xmlns:svg="http://www.w3.org/2000/svg"><sodipodi:namedview
     id="namedview1"
     pagecolor="#000000"
     bordercolor="#000000"
     borderopacity="0.25"
     inkscape:showpageshadow="2"
     inkscape:pageopacity="0.0"
     inkscape:pagecheckerboard="0"
     inkscape:deskcolor="#0effff"
     inkscape:document-units="mm"
     inkscape:zoom="3.1895021"
     inkscape:cx="314.46915"
     inkscape:cy="47.186048"
     inkscape:window-width="2800"
     inkscape:window-height="1212"
     inkscape:window-x="0"
     inkscape:window-y="25"
     inkscape:window-maximized="0"
     inkscape:current-layer="layer1"
     inkscape:export-bgcolor="#000000ff" /><defs
     id="defs1"><color-profile
       name="Black-White"
       xlink:href="file:///Library/ColorSync/Profiles/Black%20&amp;%20White.icc"
       id="color-profile2" /></defs><g
     inkscape:label="Layer 1"
     inkscape:groupmode="layer"
     id="layer1"><path
       style="-inkscape-font-specification:Prototype;fill:#ffffff;stroke-width:0.264583"
       d="m 31.001565,10.121021 v 12.100286 q 0,0.176389 0.176389,0.176389 h 2.204862 q 0.176389,0 0.176389,-0.176389 v -4.039309 q 0,-0.176389 0.176389,-0.176389 h 3.069169 q 0.987779,0 1.675696,-0.282222 0.687917,-0.299861 1.111251,-0.846667 0.423333,-0.546806 0.617361,-1.305279 0.194028,-0.758473 0.194028,-1.693335 0,-0.899583 -0.194028,-1.658056 Q 40.015043,11.461577 39.59171,10.914771 39.168376,10.367965 38.480459,10.068104 37.792542,9.7506037 36.804763,9.7506037 h -5.626809 q -0.176389,0 -0.176389,0.176389 z m 6.103059,1.92264 q 0.317501,0 0.49389,0.229306 0.194028,0.211666 0.282222,0.511528 0.08819,0.299861 0.105834,0.617361 0.03528,0.299861 0.03528,0.47625 0,0.176389 -0.03528,0.49389 -0.01764,0.299861 -0.105834,0.599722 -0.08819,0.299862 -0.282222,0.529167 -0.176389,0.211667 -0.49389,0.211667 h -3.36903 q -0.176389,0 -0.176389,-0.176389 V 12.22005 q 0,-0.176389 0.176389,-0.176389 z m 10.036543,10.354035 q 1.093612,0 1.834446,-0.299862 0.758472,-0.3175 1.217084,-0.846667 0.47625,-0.546806 0.687917,-1.270001 0.211667,-0.723195 0.211667,-1.552223 0,-0.652639 -0.105834,-1.340557 -0.105833,-0.687917 -0.511528,-1.252362 -0.388056,-0.564444 -1.181806,-0.917222 -0.793751,-0.370417 -2.151946,-0.370417 h -2.980974 q -0.176389,0 -0.176389,-0.176389 v -2.240141 q 0,-0.176389 0.176389,-0.176389 h 6.103059 q 0.176389,0 0.176389,-0.176389 V 9.9269927 q 0,-0.176389 -0.176389,-0.176389 h -8.748894 q -0.176389,0 -0.176389,0.176389 v 6.7380603 q 0,0.176389 0.176389,0.176389 h 5.397503 q 0.282223,0 0.546806,0.05292 0.282223,0.03528 0.493889,0.194027 0.211667,0.158751 0.33514,0.476251 0.123472,0.3175 0.123472,0.864306 0,0.881945 -0.458612,1.322917 -0.458611,0.440973 -1.040695,0.440973 h -5.397503 q -0.176389,0 -0.176389,0.176389 v 1.852085 q 0,0.176389 0.176389,0.176389 z m 15.522239,-5.256393 q 0.440972,0 0.758472,0.08819 0.33514,0.07055 0.511529,0.264583 0.211666,0.246945 0.246944,0.564445 0.03528,0.299861 0.03528,0.582084 0,0.194028 -0.01764,0.370417 -0.01764,0.176389 -0.105833,0.370417 -0.08819,0.211666 -0.282223,0.47625 -0.194028,0.246944 -0.458611,0.246944 h -5.679726 q -0.176389,0 -0.176389,0.176389 v 1.94028 q 0,0.176389 0.176389,0.176389 h 6.42056 q 0.388055,0 0.811389,-0.229306 0.440973,-0.246945 0.740834,-0.493889 0.987778,-0.864307 1.12889,-2.469446 0.03528,-0.141112 0.03528,-0.299862 0,-0.176389 0,-0.370417 0,-0.405694 -0.05292,-0.846667 -0.05292,-0.440972 -0.194028,-0.846667 -0.123473,-0.405695 -0.335139,-0.758473 -0.194028,-0.352778 -0.49389,-0.599723 -0.511528,-0.423333 -1.11125,-0.564444 -0.599723,-0.15875 -1.146529,-0.15875 h -1.975557 q -0.405695,0 -0.758473,-0.03528 -0.335139,-0.03528 -0.529167,-0.229306 -0.211666,-0.229306 -0.246944,-0.529167 -0.03528,-0.299861 -0.03528,-0.582084 0,-0.176389 0.01764,-0.352778 0.01764,-0.176389 0.105833,-0.352778 0.0882,-0.194028 0.282223,-0.405694 0.211667,-0.229306 0.458611,-0.229306 h 5.097642 q 0.17639,0 0.17639,-0.176389 V 9.9269927 q 0,-0.176389 -0.17639,-0.176389 h -5.838476 q -0.423333,0 -0.864306,0.2293057 -0.440972,0.2293056 -0.740834,0.4762506 -1.023056,0.846667 -1.146528,2.381251 -0.03528,0.15875 -0.03528,0.317501 0,0.15875 0,0.335139 0,0.405694 0.05292,0.829028 0.07055,0.405695 0.194028,0.811389 0.141111,0.388056 0.335139,0.740834 0.211667,0.335139 0.511528,0.582084 0.511528,0.405695 1.12889,0.546806 0.635,0.141111 1.181806,0.141111 z m 14.234579,-1.28764 q 0,-0.635 -0.246945,-1.11125 -0.229305,-0.49389 -0.617361,-0.829029 -0.370417,-0.352778 -0.864306,-0.529167 -0.476251,-0.176389 -0.952501,-0.176389 h -3.563058 q -0.564445,0 -1.075973,0.194028 -0.493889,0.194028 -0.864306,0.564445 -0.370417,0.352778 -0.599723,0.864306 -0.211667,0.511528 -0.211667,1.146529 v 3.104446 q 0,0.617362 0.123473,1.217084 0.123472,0.582084 0.440972,1.058334 0.317501,0.458612 0.846668,0.758473 0.529167,0.282223 1.340556,0.282223 h 3.139724 q 0.81139,0 1.393474,-0.158751 0.582083,-0.15875 0.9525,-0.564444 0.388056,-0.405695 0.564445,-1.093612 0.194028,-0.687917 0.194028,-1.746251 z M 74.7284,17.776304 v 1.411112 q 0,0.458611 -0.47625,0.758472 -0.458612,0.299862 -1.093612,0.299862 h -1.622779 q -0.229306,0 -0.493889,-0.03528 -0.264584,-0.05292 -0.493889,-0.176389 -0.229306,-0.141111 -0.388056,-0.370417 -0.141111,-0.229306 -0.141111,-0.582084 v -2.822224 q 0,-0.246945 0.123472,-0.423334 0.123472,-0.176389 0.299861,-0.282222 0.194028,-0.105833 0.423334,-0.141111 0.229306,-0.05292 0.458611,-0.05292 h 1.92264 q 0.264584,0 0.529167,0.05292 0.264584,0.05292 0.476251,0.176389 0.211667,0.105833 0.335139,0.282222 0.141111,0.15875 0.141111,0.370417 z m 6.491103,-4.744865 q 0,0.176389 0.176389,0.176389 h 1.44639 q 0.176389,0 0.176389,0.176389 v 1.799168 q 0,0.176389 -0.176389,0.176389 h -1.44639 q -0.176389,0 -0.176389,0.176389 v 6.685144 q 0,0.176389 -0.176389,0.176389 h -1.799167 q -0.176389,0 -0.176389,-0.176389 v -6.685144 q 0,-0.176389 -0.176389,-0.176389 h -0.934862 q -0.176389,0 -0.176389,-0.176389 v -1.799168 q 0,-0.176389 0.176389,-0.176389 h 0.934862 q 0.176389,0 0.176389,-0.176389 v -1.111251 q 0,-0.388055 0.176389,-0.776111 0.194027,-0.405695 0.47625,-0.705556 0.299861,-0.299861 0.652639,-0.4938894 0.370417,-0.1940279 0.723195,-0.1940279 h 2.522363 q 0.176389,0 0.176389,0.176389 v 1.7991683 q 0,0.176389 -0.141111,0.176389 h -1.728613 q -0.08819,0 -0.211666,0.08819 -0.123473,0.07056 -0.229306,0.194028 -0.105833,0.105833 -0.194028,0.246945 -0.07056,0.123472 -0.07056,0.229305 z m 6.579309,2.504724 q 0,-0.176389 0.176389,-0.176389 h 1.446389 q 0.176389,0 0.176389,-0.176389 v -1.799168 q 0,-0.176389 -0.176389,-0.176389 h -1.446389 q -0.176389,0 -0.176389,-0.176389 v -2.204862 q 0,-0.176389 -0.176389,-0.176389 h -1.799168 q -0.176389,0 -0.176389,0.176389 v 2.204862 q 0,0.176389 -0.176389,0.176389 h -0.934862 q -0.176389,0 -0.176389,0.176389 v 1.799168 q 0,0.176389 0.176389,0.176389 h 0.934862 q 0.176389,0 0.176389,0.176389 V 21.0395 q 0,0.546806 0.440972,0.952501 0.440973,0.405695 1.111251,0.405695 h 2.222501 q 0.176389,0 0.176389,-0.176389 v -1.799168 q 0,-0.15875 -0.141111,-0.176389 h -1.481667 q -0.176389,0 -0.176389,-0.176389 z m 15.292938,-2.204862 q 0,-0.123473 -0.21167,-0.123473 h -1.74625 q -0.12347,0 -0.15875,0.05292 -0.0353,0.05292 -0.0529,0.141111 l -0.82903,5.997226 q -0.0176,0.105834 -0.105836,0.176389 -0.07056,0.05292 -0.141112,0.05292 -0.07055,0 -0.15875,-0.05292 -0.07055,-0.07055 -0.08819,-0.176389 l -0.440973,-4.850697 q -0.05292,-0.49389 -0.229305,-0.776112 -0.176389,-0.299861 -0.458612,-0.440972 -0.264583,-0.158751 -0.635,-0.194028 -0.352778,-0.03528 -0.740834,-0.03528 h -0.458612 q -0.405694,0 -0.758472,0.03528 -0.352778,0.03528 -0.635001,0.194028 -0.264583,0.141111 -0.440972,0.440972 -0.176389,0.282222 -0.229306,0.776112 l -0.440972,4.850697 q -0.01764,0.105834 -0.105834,0.176389 -0.07055,0.05292 -0.141111,0.05292 -0.07056,0 -0.15875,-0.05292 -0.07056,-0.07055 -0.08819,-0.176389 l -0.829028,-5.997226 q -0.01764,-0.08819 -0.05292,-0.141111 -0.03528,-0.05292 -0.15875,-0.05292 h -1.746251 q -0.211667,0 -0.211667,0.15875 l 1.075973,7.496533 q 0.07056,0.47625 0.176389,0.81139 0.123472,0.3175 0.335139,0.529167 0.211667,0.194028 0.546806,0.282222 0.335139,0.08819 0.864306,0.08819 h 0.49389 q 0.299861,0 0.635,-0.05292 0.335139,-0.05292 0.617362,-0.211667 0.299861,-0.15875 0.511528,-0.458611 0.211666,-0.317501 0.264583,-0.846668 l 0.47625,-5.080003 q 0.01764,-0.0882 0.08819,-0.105833 0.08819,-0.03528 0.141111,-0.03528 0.05292,0 0.123472,0.03528 0.08819,0.01764 0.105834,0.105833 l 0.47625,5.080003 q 0.05292,0.529167 0.264584,0.846668 0.211667,0.299861 0.493889,0.458611 0.299861,0.15875 0.635,0.211667 0.335139,0.05292 0.635001,0.05292 h 0.493892 q 0.52916,0 0.8643,-0.08819 0.33514,-0.08819 0.54681,-0.282222 0.21167,-0.211667 0.3175,-0.529167 0.12347,-0.33514 0.19403,-0.81139 z m 1.23473,0.05292 v 1.799168 q 0,0.176389 0.17639,0.176389 h 4.63903 q 0.28222,0 0.45861,0.246945 0.17639,0.246944 0.17639,0.493889 0,0.299861 -0.28222,0.529167 -0.26459,0.211667 -0.7232,0.211667 h -2.94569 q -0.52917,0 -0.89959,0.299861 -0.37041,0.299861 -0.59972,0.740834 -0.22931,0.423334 -0.33514,0.934862 -0.10583,0.511528 -0.10583,0.934861 0,0.229306 0.0705,0.670279 0.0706,0.440972 0.24695,0.881945 0.19403,0.440972 0.52917,0.776111 0.33513,0.317501 0.8643,0.317501 h 6.15598 q 0.17639,0 0.17639,-0.176389 v -5.820838 q 0,-0.564445 -0.14111,-1.128889 -0.12348,-0.564445 -0.42334,-1.023057 -0.28222,-0.458611 -0.75847,-0.740833 -0.45861,-0.299862 -1.12889,-0.299862 h -4.97417 q -0.17639,0 -0.17639,0.176389 z m 2.24014,6.949727 q -0.3175,0 -0.49389,-0.229306 -0.17639,-0.229305 -0.17639,-0.529167 0,-0.246944 0.15875,-0.440972 0.15875,-0.211667 0.4057,-0.211667 h 3.13972 q 0.17639,0 0.17639,0.176389 v 1.058334 q 0,0.176389 -0.17639,0.176389 z m 9.04877,-7.126116 q -0.47625,0 -0.89958,0.194028 -0.42334,0.176389 -0.74084,0.493889 -0.3175,0.317501 -0.51152,0.740834 -0.17639,0.423334 -0.17639,0.881945 v 6.702783 q 0,0.176389 0.17639,0.176389 h 1.97555 q 0.17639,0 0.17639,-0.176389 v -6.085421 q 0,-0.105834 0.0529,-0.229306 0.0529,-0.141111 0.14111,-0.246945 0.10583,-0.123472 0.22931,-0.211666 0.12347,-0.0882 0.28222,-0.0882 h 1.69333 q 0.17639,0 0.17639,-0.176389 v -1.799168 q 0,-0.176389 -0.17639,-0.176389 z m 5.43279,5.62681 h 6.5264 q 0.17639,0 0.17639,-0.176389 v -1.834446 q 0,-0.829028 -0.24695,-1.499307 -0.22931,-0.670278 -0.74083,-1.128889 -0.51153,-0.476251 -1.30528,-0.723195 -0.79375,-0.264584 -1.88736,-0.264584 -0.88195,0 -1.76389,0.229306 -0.86431,0.211667 -1.56987,0.758473 -0.68791,0.546806 -1.12889,1.481667 -0.42333,0.917223 -0.42333,2.328335 0,1.164168 0.24694,1.993196 0.26459,0.829028 0.86431,1.375834 0.61736,0.529167 1.60514,0.776112 1.00542,0.246945 2.48709,0.246945 h 2.98097 q 0.17639,0 0.17639,-0.176389 v -1.799168 q 0,-0.176389 -0.17639,-0.176389 h -4.19806 q -0.37042,0 -0.70555,-0.0882 -0.33514,-0.105833 -0.58209,-0.264583 -0.2293,-0.176389 -0.37041,-0.388056 -0.14112,-0.229306 -0.14112,-0.493889 0,-0.176389 0.17639,-0.176389 z m 0,-2.063752 q -0.17639,0 -0.17639,-0.176389 0,-0.335139 0.26459,-0.599722 0.26458,-0.282223 0.65264,-0.458612 0.40569,-0.194028 0.82903,-0.299861 0.44097,-0.105834 0.79375,-0.105834 1.11125,0 1.72861,0.405695 0.61736,0.388056 0.61736,1.058334 0,0.176389 -0.17639,0.176389 z"
       id="text1"
       aria-label="P5 Software" /><g
       id="layer2"
       inkscape:label="Layer 2"
       transform="matrix(0.74586136,0,0,0.74643704,-5.332816,-14.305082)"
       style="fill:#ffffff;fill-opacity:1"><path
         id="rect555-5"
         style="stroke-width:0.0336923"
         transform="matrix(0.90800819,0.41895241,-0.52245875,0.85266456,0,0)"
         d="m 56.749291,9.0889187 c 1.157848,0 2.089979,0.9321303 2.089979,2.0899783 v 18.906729 c 0,1.157848 -0.932131,2.089978 -2.089979,2.089978 -1.157848,0 -2.089978,-0.93213 -2.089978,-2.089978 V 11.178897 c 0,-1.157848 0.93213,-2.0899783 2.089978,-2.0899783 z" /><path
         id="rect555-5-8"
         style="stroke-width:0.0336923"
         transform="matrix(0.90800819,0.41895241,-0.52245875,0.85266456,0,0)"
         d="m 51.176877,11.826896 c 1.157848,0 2.089978,0.93213 2.089978,2.089978 v 18.906729 c 0,1.157848 -0.93213,2.089978 -2.089978,2.089978 -1.157848,0 -2.089978,-0.93213 -2.089978,-2.089978 V 13.916874 c 0,-1.157848 0.93213,-2.089978 2.089978,-2.089978 z" /><path
         id="rect555-5-6"
         style="stroke-width:0.0336923"
         transform="matrix(0.90800819,0.41895241,-0.52245875,0.85266456,0,0)"
         d="m 45.619874,14.557302 c 1.157848,0 2.089978,0.932131 2.089978,2.089979 v 18.906728 c 0,1.157848 -0.93213,2.089979 -2.089978,2.089979 -1.157848,0 -2.089978,-0.932131 -2.089978,-2.089979 V 16.647281 c 0,-1.157848 0.93213,-2.089979 2.089978,-2.089979 z" /><path
         id="rect555-5-7"
         style="stroke-width:0.0336923"
         transform="matrix(0.90800819,0.41895241,-0.52245875,0.85266456,0,0)"
         d="m 40.031957,17.302895 c 1.157848,0 2.089978,0.93213 2.089978,2.089978 v 18.906729 c 0,1.157847 -0.93213,2.089978 -2.089978,2.089978 -1.157848,0 -2.089979,-0.932131 -2.089979,-2.089978 V 19.392873 c 0,-1.157848 0.932131,-2.089978 2.089979,-2.089978 z" /><path
         id="rect1771"
         style="stroke-width:0.0336923"
         transform="matrix(0.90800819,0.41895241,-0.52245875,0.85266456,0,0)"
         d="m 34.459496,20.040897 c 1.157848,0 2.089979,0.932131 2.089979,2.089979 v 18.906728 c 0,1.157848 -0.932131,2.089979 -2.089979,2.089979 -1.157847,0 -2.089978,-0.932131 -2.089978,-2.089979 V 22.130876 c 0,-1.157848 0.932131,-2.089979 2.089978,-2.089979 z" /></g></g></svg>
