<?xml version="1.0" encoding="UTF-8" standalone="no"?>
<!-- Created with Inkscape (http://www.inkscape.org/) -->

<svg
   style="background-color:black"
   width="128mm"
   height="32mm"
   viewBox="0 0 128 32"
   version="1.1"
   id="svg1"
   xml:space="preserve"
   inkscape:version="1.3.2 (091e20e, 2023-11-25)"
   sodipodi:docname="network _intro.svg"
   inkscape:export-filename="Network Intro.png"
   inkscape:export-xdpi="50.799999"
   inkscape:export-ydpi="50.799999"
   xmlns:inkscape="http://www.inkscape.org/namespaces/inkscape"
   xmlns:sodipodi="http://sodipodi.sourceforge.net/DTD/sodipodi-0.dtd"
   xmlns:xlink="http://www.w3.org/1999/xlink"
   xmlns="http://www.w3.org/2000/svg"
   xmlns:svg="http://www.w3.org/2000/svg"><sodipodi:namedview
     id="namedview1"
     pagecolor="#000000"
     bordercolor="#000000"
     borderopacity="0.25"
     inkscape:showpageshadow="2"
     inkscape:pageopacity="0.0"
     inkscape:pagecheckerboard="0"
     inkscape:deskcolor="#d1d1d1"
     inkscape:document-units="mm"
     inkscape:zoom="3.1895021"
     inkscape:cx="276.21866"
     inkscape:cy="37.780191"
     inkscape:window-width="2800"
     inkscape:window-height="1212"
     inkscape:window-x="0"
     inkscape:window-y="25"
     inkscape:window-maximized="0"
     inkscape:current-layer="layer1"
     inkscape:export-bgcolor="#000000ff" /><defs
     id="defs1"><color-profile
       name="Black-White"
       xlink:href="file:///Library/ColorSync/Profiles/Black%20&amp;%20White.icc"
       id="color-profile2" /></defs><g
     inkscape:label="Layer 1"
     inkscape:groupmode="layer"
     id="layer1"><path
       style="font-size:17.6389px;line-height:0;font-family:Prototype;-inkscape-font-specification:Prototype;fill:#ffffff;stroke-width:0.264583"
       d="m 44.090722,21.391762 q 0,0.176389 0.176389,0.176389 h 2.204863 q 0.176389,0 0.176389,-0.176389 v -9.895423 q 0,-0.15875 0.123472,-0.15875 0.105834,0 0.15875,0.15875 l 2.381252,8.766534 q 0.07056,0.246944 0.229306,0.47625 0.15875,0.229306 0.370416,0.423334 0.211667,0.176389 0.440973,0.299861 0.246945,0.105833 0.458611,0.105833 h 1.622779 q 0.370417,0 0.687917,-0.176389 0.33514,-0.194027 0.564445,-0.493889 0.246945,-0.299861 0.388056,-0.652639 0.141111,-0.352778 0.141111,-0.705556 V 9.0974486 q 0,-0.176389 -0.176389,-0.176389 H 51.8342 q -0.176389,0 -0.176389,0.176389 v 9.8601454 q 0,0.176389 -0.123473,0.176389 -0.123472,0 -0.176389,-0.176389 L 48.994337,10.243977 Q 48.817948,9.6266157 48.306419,9.2738376 47.81253,8.9210596 46.70128,8.9210596 q -0.758473,0 -1.270001,0.1587501 -0.49389,0.1411112 -0.793751,0.4586115 -0.299861,0.2998613 -0.423333,0.7937508 -0.123473,0.493889 -0.123473,1.181806 z m 13.476133,-3.386668 h 6.526393 q 0.176389,0 0.176389,-0.176389 v -1.834446 q 0,-0.829029 -0.246944,-1.499307 -0.229306,-0.670278 -0.740834,-1.128889 -0.511528,-0.476251 -1.305279,-0.723195 -0.79375,-0.264584 -1.887362,-0.264584 -0.881945,0 -1.76389,0.229306 -0.864306,0.211667 -1.569863,0.758473 -0.687917,0.546806 -1.128889,1.481667 -0.423334,0.917223 -0.423334,2.328335 0,1.164168 0.246945,1.993196 0.264583,0.829028 0.864306,1.375834 0.617361,0.529167 1.60514,0.776112 1.005417,0.246944 2.487085,0.246944 h 2.980974 q 0.176389,0 0.176389,-0.176389 v -1.799167 q 0,-0.176389 -0.176389,-0.176389 h -4.198058 q -0.370417,0 -0.705556,-0.08819 -0.335139,-0.105833 -0.582084,-0.264583 -0.229306,-0.176389 -0.370417,-0.388056 -0.141111,-0.229306 -0.141111,-0.493889 0,-0.176389 0.176389,-0.176389 z m 0,-2.063752 q -0.176389,0 -0.176389,-0.176389 0,-0.335139 0.264583,-0.599723 0.264584,-0.282222 0.65264,-0.458611 0.405694,-0.194028 0.829028,-0.299861 0.440973,-0.105834 0.793751,-0.105834 1.11125,0 1.728612,0.405695 0.617361,0.388056 0.617361,1.058334 0,0.176389 -0.176389,0.176389 z m 11.00668,-1.234723 q 0,-0.176389 0.176389,-0.176389 h 1.446389 q 0.176389,0 0.176389,-0.176389 v -1.799168 q 0,-0.176389 -0.176389,-0.176389 h -1.446389 q -0.176389,0 -0.176389,-0.176389 V 9.9970326 q 0,-0.176389 -0.176389,-0.176389 h -1.799168 q -0.176389,0 -0.176389,0.176389 v 2.2048624 q 0,0.176389 -0.176389,0.176389 h -0.934862 q -0.176389,0 -0.176389,0.176389 v 1.799168 q 0,0.176389 0.176389,0.176389 H 66.2452 q 0.176389,0 0.176389,0.176389 v 5.503337 q 0,0.546806 0.440972,0.952501 0.440973,0.405694 1.111251,0.405694 h 2.222501 q 0.176389,0 0.176389,-0.176389 v -1.799167 q 0,-0.158751 -0.141111,-0.176389 h -1.481667 q -0.176389,0 -0.176389,-0.176389 z m 15.292938,-2.204863 q 0,-0.123472 -0.211667,-0.123472 h -1.746251 q -0.123472,0 -0.15875,0.05292 -0.03528,0.05292 -0.05292,0.141111 l -0.829028,5.997226 q -0.01764,0.105834 -0.105833,0.176389 -0.07056,0.05292 -0.141112,0.05292 -0.07055,0 -0.15875,-0.05292 -0.07055,-0.07055 -0.08819,-0.176389 l -0.440973,-4.850697 q -0.05292,-0.49389 -0.229305,-0.776112 -0.176389,-0.299861 -0.458612,-0.440973 -0.264583,-0.15875 -0.635,-0.194027 -0.352778,-0.03528 -0.740834,-0.03528 h -0.458611 q -0.405695,0 -0.758473,0.03528 -0.352778,0.03528 -0.635001,0.194027 -0.264583,0.141112 -0.440972,0.440973 -0.176389,0.282222 -0.229306,0.776112 l -0.440972,4.850697 q -0.01764,0.105834 -0.105834,0.176389 -0.07055,0.05292 -0.141111,0.05292 -0.07056,0 -0.15875,-0.05292 -0.07056,-0.07055 -0.0882,-0.176389 l -0.829028,-5.997226 q -0.01764,-0.08819 -0.05292,-0.141111 -0.03528,-0.05292 -0.15875,-0.05292 h -1.746251 q -0.211667,0 -0.211667,0.15875 l 1.075973,7.496533 q 0.07056,0.47625 0.176389,0.81139 0.123473,0.3175 0.335139,0.529167 0.211667,0.194027 0.546806,0.282222 0.335139,0.08819 0.864306,0.08819 h 0.49389 q 0.299861,0 0.635,-0.05292 0.335139,-0.05292 0.617362,-0.211667 0.299861,-0.15875 0.511528,-0.458611 0.211666,-0.317501 0.264583,-0.846668 l 0.476251,-5.080003 q 0.01764,-0.0882 0.08819,-0.105834 0.08819,-0.03528 0.141111,-0.03528 0.05292,0 0.123473,0.03528 0.08819,0.01764 0.105833,0.105834 l 0.47625,5.080003 q 0.05292,0.529167 0.264584,0.846668 0.211667,0.299861 0.493889,0.458611 0.299861,0.15875 0.635,0.211667 0.33514,0.05292 0.635001,0.05292 h 0.493889 q 0.529167,0 0.864306,-0.08819 0.335139,-0.08819 0.546806,-0.282222 0.211667,-0.211667 0.3175,-0.529167 0.123473,-0.33514 0.194028,-0.81139 z m 9.754317,2.522363 q 0,-0.635 -0.246945,-1.11125 -0.229305,-0.49389 -0.617361,-0.829029 -0.370417,-0.352778 -0.864306,-0.529167 -0.476251,-0.176389 -0.952501,-0.176389 h -3.563058 q -0.564445,0 -1.075973,0.194028 -0.493889,0.194028 -0.864306,0.564445 -0.370417,0.352778 -0.599723,0.864306 -0.211666,0.511528 -0.211666,1.146529 v 3.104446 q 0,0.617362 0.123472,1.217084 0.123472,0.582084 0.440972,1.058334 0.317501,0.458612 0.846668,0.758473 0.529167,0.282222 1.340556,0.282222 h 3.139724 q 0.81139,0 1.393474,-0.15875 0.582083,-0.15875 0.9525,-0.564444 0.388056,-0.405695 0.564445,-1.093612 0.194028,-0.687917 0.194028,-1.746251 z m -2.169585,1.92264 v 1.411113 q 0,0.458611 -0.47625,0.758472 -0.458612,0.299862 -1.093612,0.299862 h -1.622779 q -0.229306,0 -0.493889,-0.03528 -0.264584,-0.05292 -0.493889,-0.176389 -0.229306,-0.141111 -0.388056,-0.370417 -0.141111,-0.229306 -0.141111,-0.582084 v -2.822224 q 0,-0.246945 0.123472,-0.423334 0.123472,-0.176389 0.299861,-0.282222 0.194028,-0.105833 0.423334,-0.141111 0.229306,-0.05292 0.458611,-0.05292 h 1.92264 q 0.264584,0 0.529167,0.05292 0.264584,0.05292 0.476251,0.176389 0.211667,0.105833 0.335139,0.282222 0.141111,0.15875 0.141111,0.370417 z m 5.732627,-4.568475 q -0.47625,0 -0.899584,0.194028 -0.423334,0.176389 -0.740834,0.493889 -0.3175,0.317501 -0.511528,0.740834 -0.176389,0.423334 -0.176389,0.881945 v 6.702782 q 0,0.176389 0.176389,0.176389 h 1.975557 q 0.176389,0 0.176389,-0.176389 v -6.08542 q 0,-0.105834 0.05292,-0.229306 0.05292,-0.141111 0.141111,-0.246945 0.105833,-0.123472 0.229306,-0.211666 0.123472,-0.0882 0.282222,-0.0882 h 1.693334 q 0.176389,0 0.176389,-0.176389 v -1.799168 q 0,-0.176389 -0.176389,-0.176389 z m 6.350018,3.386669 q -0.14112,0.176389 -0.22931,0.388056 -0.0882,0.194028 -0.0882,0.335139 0,0.194028 0.0882,0.405695 0.0882,0.194028 0.21167,0.352778 l 3.06917,4.16278 q 0.12347,0.15875 0.29986,0.15875 h 2.27541 q 0.14112,0 0.0529,-0.123472 l -3.4925,-4.744864 q -0.0353,-0.03528 -0.0882,-0.105834 -0.0353,-0.07055 -0.0353,-0.105833 0,-0.03528 0.0353,-0.08819 0.0529,-0.05292 0.0882,-0.0882 l 3.29847,-3.757086 q 0.0706,-0.07055 0.0529,-0.123472 0,-0.05292 -0.0882,-0.05292 h -2.29306 q -0.19403,0 -0.29986,0.141111 z m -2.82223,-6.6675044 v 10.4598684 0.03528 1.799167 q 0,0.176389 0.17639,0.176389 h 1.79917 q 0.17639,0 0.17639,-0.176389 V 9.0974486 q 0,-0.176389 -0.17639,-0.176389 h -1.79917 q -0.17639,0 -0.17639,0.176389 z"
       id="text1"
       aria-label="Network" /><path
       d="m 12.790235,24.836648 v -6.479275 h 3.428581 V 14.2548 h 5.923075 V 11.315921 H 18.71331 V 4.8366472 h 8.15385 V 11.315921 H 23.438579 V 14.2548 h 5.923075 v 4.102573 h 3.428581 v 6.479275 h -8.153823 v -6.479275 h 3.428581 V 15.418494 H 17.515477 v 2.938879 h 3.428581 v 6.479275 z"
       id="path1"
       style="fill:#ffffff;fill-opacity:1;stroke-width:0.0270668" /></g></svg>
