<?xml version="1.0" encoding="UTF-8" standalone="no"?>
<!-- Created with Inkscape (http://www.inkscape.org/) -->

<svg
   style="background-color:black"
   width="128mm"
   height="32mm"
   viewBox="0 0 128 32"
   version="1.1"
   id="svg1"
   xml:space="preserve"
   inkscape:version="1.3.2 (091e20e, 2023-11-25)"
   sodipodi:docname="ota_progress.svg"
   inkscape:export-filename="Event Log.png"
   inkscape:export-xdpi="50.799999"
   inkscape:export-ydpi="50.799999"
   xmlns:inkscape="http://www.inkscape.org/namespaces/inkscape"
   xmlns:sodipodi="http://sodipodi.sourceforge.net/DTD/sodipodi-0.dtd"
   xmlns:xlink="http://www.w3.org/1999/xlink"
   xmlns="http://www.w3.org/2000/svg"
   xmlns:svg="http://www.w3.org/2000/svg"><sodipodi:namedview
     id="namedview1"
     pagecolor="#000000"
     bordercolor="#000000"
     borderopacity="0.25"
     inkscape:showpageshadow="2"
     inkscape:pageopacity="0.0"
     inkscape:pagecheckerboard="0"
     inkscape:deskcolor="#d1d1d1"
     inkscape:document-units="mm"
     inkscape:zoom="3.1895021"
     inkscape:cx="206.61532"
     inkscape:cy="35.271963"
     inkscape:window-width="3376"
     inkscape:window-height="1212"
     inkscape:window-x="90"
     inkscape:window-y="376"
     inkscape:window-maximized="0"
     inkscape:current-layer="layer1"
     inkscape:export-bgcolor="#000000ff" /><defs
     id="defs1"><color-profile
       name="Black-White"
       xlink:href="file:///Library/ColorSync/Profiles/Black%20&amp;%20White.icc"
       id="color-profile2" /></defs><g
     inkscape:label="Layer 1"
     inkscape:groupmode="layer"
     id="layer1"><path
       id="text1"
       style="font-size:9.17223px;line-height:0;font-family:Monospace;-inkscape-font-specification:Monospace;fill:#ffffff;stroke:#000000;stroke-width:0.264583;stroke-opacity:0"
       d="M 39.821342 3.1822347 C 39.113719 3.1822347 38.575136 3.4632398 38.204903 4.0245605 C 37.83467 4.5858813 37.649382 5.3993261 37.649382 6.4652384 C 37.649382 7.5311508 37.83467 8.3445955 38.204903 8.9059163 C 38.578122 9.4642514 39.116705 9.7435913 39.821342 9.7435913 C 40.53195 9.7435913 41.072716 9.463103 41.442948 8.9017822 C 41.813181 8.3404614 41.997953 7.528165 41.997953 6.4652384 C 41.997953 5.3963403 41.811516 4.5828956 41.438298 4.0245605 C 41.068065 3.4632398 40.528964 3.1822347 39.821342 3.1822347 z M 43.02373 3.3031576 L 43.02373 3.8989868 L 44.980717 3.8989868 L 44.980717 9.6226685 L 45.710905 9.6226685 L 45.710905 3.8989868 L 47.659106 3.8989868 L 47.659106 3.3031576 L 43.02373 3.3031576 z M 50.408809 3.3031576 L 48.344336 9.6226685 L 49.10553 9.6226685 L 49.813497 7.4104004 L 51.886755 7.4104004 L 52.585421 9.6226685 L 53.355916 9.6226685 L 51.291443 3.3031576 L 50.408809 3.3031576 z M 73.948458 3.3031576 L 73.948458 5.5603841 C 73.590168 5.0826643 73.117099 4.8441488 72.528906 4.8441488 C 71.994457 4.8441488 71.564509 5.0692284 71.239062 5.5200765 C 70.916602 5.9679388 70.755371 6.5339108 70.755371 7.2176473 C 70.755371 7.9491558 70.910458 8.5537702 71.220976 9.0314901 C 71.531494 9.5062241 71.95415 9.7435913 72.488599 9.7435913 C 72.784188 9.7435913 73.064676 9.6691198 73.330408 9.5198324 C 73.599125 9.3705449 73.805142 9.1807775 73.948458 8.9508748 L 73.948458 9.6226685 L 74.647123 9.6226685 L 74.647123 3.3031576 L 73.948458 3.3031576 z M 83.084851 3.679362 L 83.084851 4.9557699 L 82.189299 4.9557699 L 82.189299 5.5603841 L 83.084851 5.5603841 L 83.084851 8.4134399 C 83.084851 9.2942359 83.501363 9.7348063 84.334387 9.7348063 C 84.788221 9.7348063 85.249519 9.6273193 85.718282 9.4123454 L 85.597359 8.8702596 C 85.224141 9.0404473 84.846788 9.1255412 84.464612 9.1255412 C 84.249638 9.1255412 84.07945 9.0477394 83.954049 8.8924805 C 83.828647 8.7342358 83.765946 8.5136348 83.765946 8.2299886 L 83.765946 5.5603841 L 85.351379 5.5603841 L 85.351379 4.9557699 L 83.765946 4.9557699 L 83.765946 3.679362 L 83.084851 3.679362 z M 39.821342 3.8271566 C 40.752896 3.8271566 41.218673 4.7066323 41.218673 6.4652384 C 41.218673 8.2208588 40.752896 9.0986694 39.821342 9.0986694 C 39.364522 9.0986694 39.01852 8.8747381 38.782646 8.4268758 C 38.546772 7.9760277 38.428662 7.3221484 38.428662 6.4652384 C 38.428662 5.6172858 38.546772 4.9662199 38.782646 4.5123861 C 39.021506 4.0555665 39.367508 3.8271566 39.821342 3.8271566 z M 50.848059 4.1542684 L 51.676432 6.7696126 L 50.02382 6.7696126 L 50.848059 4.1542684 z M 67.727649 4.8441488 C 67.435046 4.8441488 67.156222 4.909663 66.890491 5.041036 C 66.627745 5.1724089 66.418398 5.3454102 66.263139 5.5603841 L 66.263139 4.9557699 L 65.564473 4.9557699 L 65.564473 11.468034 L 66.263139 11.468034 L 66.263139 8.9508748 C 66.409441 9.1897347 66.608165 9.3823157 66.858968 9.5286174 C 67.112757 9.6719333 67.384288 9.7435913 67.673905 9.7435913 C 68.217312 9.7435913 68.648925 9.5062241 68.9684 9.0314901 C 69.290861 8.5537702 69.452091 7.9564479 69.452091 7.2398682 C 69.452091 6.5292599 69.298153 5.9531823 68.990621 5.5112915 C 68.686075 5.0664149 68.265084 4.8441488 67.727649 4.8441488 z M 78.575049 4.8441488 C 78.028657 4.8441488 77.437478 5.0065277 76.801514 5.3319743 L 76.984965 5.8337524 C 77.179039 5.7292512 77.410779 5.6396787 77.679496 5.565035 C 77.951199 5.4874055 78.175131 5.448763 78.35129 5.448763 C 79.097727 5.448763 79.470601 5.8485091 79.470601 6.6486898 L 79.470601 6.8729655 L 78.687187 6.935494 C 78.334868 6.9623657 78.030322 7.0116306 77.773547 7.0832886 C 77.516773 7.1519608 77.298469 7.2476771 77.119324 7.3700928 C 76.940179 7.4895227 76.804672 7.6373174 76.712113 7.8134766 C 76.619555 7.9896357 76.573104 8.1923223 76.573104 8.4222249 C 76.573104 8.8103723 76.704649 9.1283547 76.967395 9.3761719 C 77.233127 9.6210033 77.538822 9.7435913 77.885168 9.7435913 C 78.568905 9.7435913 79.10967 9.4524806 79.506775 8.8702596 C 79.506775 9.1837632 79.534795 9.4345663 79.591524 9.6226685 L 80.286056 9.6226685 C 80.208426 9.3061791 80.169267 8.9450755 80.169267 8.5390137 L 80.169267 6.5324178 C 80.169267 5.4067905 79.637975 4.8441488 78.575049 4.8441488 z M 89.426583 4.8441488 C 88.823462 4.8441488 88.330813 5.0647498 87.948637 5.5066406 C 87.569447 5.9455457 87.380196 6.5355759 87.380196 7.2760417 C 87.380196 8.0314361 87.59184 8.631572 88.015816 9.0764486 C 88.439793 9.5213252 88.998472 9.7435913 89.691166 9.7435913 C 90.240544 9.7435913 90.720905 9.6512053 91.132939 9.4660889 L 91.012016 8.9059163 C 90.561168 9.0581895 90.123928 9.1343262 89.699951 9.1343262 C 89.255075 9.1343262 88.87887 8.96299 88.571338 8.6196289 C 88.266792 8.2762678 88.114518 7.840176 88.114518 7.3116984 L 91.316907 7.3116984 L 91.316907 7.0920736 C 91.316907 6.4113228 91.136097 5.8665956 90.774821 5.457548 C 90.413545 5.0485004 89.964018 4.8441488 89.426583 4.8441488 z M 60.051632 4.9557699 L 60.051632 8.1447225 C 60.051632 9.2046633 60.488872 9.7348063 61.363696 9.7348063 C 61.919046 9.7348063 62.447523 9.4672371 62.949129 8.9327881 L 62.949129 9.6226685 L 63.647795 9.6226685 L 63.647795 4.9557699 L 62.949129 4.9557699 L 62.949129 8.3281738 C 62.459466 8.8596371 62.000981 9.1255412 61.574019 9.1255412 C 61.275444 9.1255412 61.063801 9.0286765 60.938399 8.8346029 C 60.812998 8.6375434 60.750297 8.340289 60.750297 7.9431844 L 60.750297 4.9557699 L 60.051632 4.9557699 z M 67.517326 5.448763 C 67.896516 5.448763 68.192105 5.6189508 68.404093 5.9593262 C 68.616082 6.2997015 68.721903 6.7386069 68.721903 7.2760417 C 68.721903 7.7985477 68.609938 8.2357879 68.386007 8.5881063 C 68.165061 8.9404247 67.866658 9.1167562 67.490454 9.1167562 C 67.251594 9.1167562 67.020371 9.028332 66.79644 8.8521729 C 66.572508 8.6760137 66.394512 8.456561 66.263139 8.1938151 L 66.263139 6.2549154 C 66.6065 5.7174806 67.024677 5.448763 67.517326 5.448763 z M 72.739229 5.448763 C 73.210978 5.448763 73.614054 5.7174806 73.948458 6.2549154 L 73.948458 8.1938151 C 73.948458 8.2356156 73.869508 8.3520599 73.711263 8.5431478 C 73.553018 8.7342357 73.384496 8.8775517 73.205351 8.9730957 C 73.026206 9.0686397 72.848209 9.1167562 72.67205 9.1167562 C 72.304803 9.1167562 72.015357 8.9420898 71.803369 8.5927572 C 71.594367 8.2404388 71.489693 7.7953897 71.489693 7.2579549 C 71.489693 6.7354489 71.601659 6.3038357 71.82559 5.9634603 C 72.049521 5.6200992 72.354068 5.448763 72.739229 5.448763 z M 89.453455 5.448763 C 89.734115 5.448763 89.988248 5.5741645 90.215165 5.8249674 C 90.442082 6.0727846 90.555196 6.3784795 90.555196 6.7427409 L 88.159477 6.7427409 C 88.186348 6.3575793 88.317377 6.0457406 88.553251 5.8068807 C 88.792111 5.5680208 89.092179 5.448763 89.453455 5.448763 z M 79.470601 7.3923136 L 79.470601 8.2387736 C 79.285485 8.4985338 79.070511 8.7028854 78.82568 8.8521729 C 78.580848 8.9984745 78.334524 9.0717977 78.086707 9.0717977 C 77.85979 9.0717977 77.673352 9.0074318 77.527051 8.8790446 C 77.380749 8.7506574 77.307426 8.5821347 77.307426 8.3731323 C 77.307426 8.1432297 77.39252 7.9612711 77.562708 7.8269124 C 77.735881 7.6925537 77.939084 7.6013161 78.171973 7.5535441 C 78.407847 7.5027864 78.840608 7.4490429 79.470601 7.3923136 z " /><path
       id="text1-8"
       style="font-size:9.17223px;line-height:0;font-family:Monospace;-inkscape-font-specification:Monospace;fill:#ffffff;stroke:#000000;stroke-width:0.264583;stroke-opacity:0"
       d="M 29.480371 11.663371 C 29.357955 11.663371 29.24932 11.710971 29.153776 11.806514 C 29.061218 11.902058 29.014766 12.014024 29.014766 12.142411 C 29.014766 12.270798 29.061218 12.384429 29.153776 12.482959 C 29.24932 12.578503 29.357955 12.626103 29.480371 12.626103 C 29.61473 12.626103 29.726695 12.579651 29.816268 12.487093 C 29.908826 12.394535 29.955278 12.279756 29.955278 12.142411 C 29.955278 12.011038 29.908826 11.899073 29.816268 11.806514 C 29.72371 11.710971 29.611744 11.663371 29.480371 11.663371 z M 35.177698 13.315983 C 34.622348 13.315983 34.093871 13.58137 33.592265 14.112834 L 33.592265 13.427604 L 32.893599 13.427604 L 32.893599 18.094503 L 33.592265 18.094503 L 33.592265 14.717448 C 34.081928 14.185985 34.539896 13.920597 34.966858 13.920597 C 35.250504 13.920597 35.458186 14.014648 35.589559 14.202751 C 35.723918 14.387867 35.791097 14.687935 35.791097 15.102954 L 35.791097 18.094503 L 36.489762 18.094503 L 36.489762 14.901416 C 36.489762 13.844461 36.052522 13.315983 35.177698 13.315983 z M 46.064889 13.315983 C 45.772285 13.315983 45.493462 13.381497 45.22773 13.51287 C 44.964984 13.644243 44.755637 13.817245 44.600378 14.032218 L 44.600378 13.427604 L 43.901713 13.427604 L 43.901713 19.939868 L 44.600378 19.939868 L 44.600378 17.422709 C 44.74668 17.661569 44.945405 17.85415 45.196208 18.000452 C 45.449996 18.143768 45.721527 18.215426 46.011145 18.215426 C 46.554551 18.215426 46.986165 17.978058 47.30564 17.503324 C 47.628101 17.025605 47.789331 16.428282 47.789331 15.711702 C 47.789331 15.001094 47.635393 14.425017 47.327861 13.983126 C 47.023314 13.538249 46.602323 13.315983 46.064889 13.315983 z M 52.048503 13.315983 C 51.454339 13.315983 50.970647 13.668129 50.597428 14.372766 L 50.597428 13.427604 L 49.903414 13.427604 L 49.903414 18.094503 L 50.597428 18.094503 L 50.597428 15.076082 C 50.597428 15.049211 50.679709 14.926623 50.843925 14.708663 C 51.011127 14.487718 51.193085 14.319195 51.390145 14.202751 C 51.587204 14.083321 51.788742 14.023433 51.994759 14.023433 C 52.21869 14.023433 52.484594 14.090613 52.792126 14.224972 L 53.07428 13.553178 C 52.742862 13.394933 52.400821 13.315983 52.048503 13.315983 z M 56.697314 13.315983 C 56.055378 13.315983 55.544815 13.539914 55.165625 13.987777 C 54.786435 14.432653 54.596667 15.022167 54.596667 15.756661 C 54.596667 16.497127 54.78477 17.092784 55.160974 17.543632 C 55.540164 17.991494 56.052393 18.215426 56.697314 18.215426 C 57.33925 18.215426 57.849814 17.989829 58.229004 17.538981 C 58.608194 17.088133 58.797961 16.494141 58.797961 15.756661 C 58.797961 15.025152 58.608194 14.435639 58.229004 13.987777 C 57.849814 13.539914 57.33925 13.315983 56.697314 13.315983 z M 64.23949 13.315983 L 62.855595 13.526306 C 62.595835 13.391947 62.304724 13.324768 61.982263 13.324768 C 61.534401 13.324768 61.16101 13.466419 60.862435 13.750065 C 60.56386 14.030725 60.4144 14.390681 60.4144 14.829586 C 60.4144 15.098303 60.48158 15.353585 60.615938 15.595431 C 60.750297 15.837276 60.942878 16.034336 61.193681 16.186609 C 60.650275 16.470255 60.378743 16.776467 60.378743 17.104899 C 60.378743 17.391531 60.589239 17.633377 61.010229 17.830436 C 60.502652 18.087211 60.249036 18.401863 60.249036 18.775081 C 60.249036 19.118443 60.41308 19.397782 60.741512 19.612756 C 61.069944 19.830716 61.4926 19.939868 62.009135 19.939868 C 62.639128 19.939868 63.189999 19.783116 63.661747 19.469613 C 64.133496 19.156109 64.369198 18.735118 64.369198 18.206641 C 64.369198 17.872237 64.264524 17.613625 64.055522 17.431494 C 63.849505 17.249363 63.560059 17.158643 63.186841 17.158643 L 61.614844 17.203084 C 61.44167 17.203084 61.304498 17.173399 61.202983 17.113684 C 61.104453 17.053969 61.055188 16.980646 61.055188 16.894059 C 61.055188 16.732829 61.272976 16.546392 61.708895 16.334403 C 61.795482 16.340375 61.886719 16.343188 61.982263 16.343188 C 62.436097 16.343188 62.810636 16.197059 63.106226 15.904456 C 63.401815 15.611852 63.549609 15.253562 63.549609 14.829586 C 63.549609 14.510111 63.48243 14.232436 63.348071 13.996562 L 64.23949 13.996562 L 64.23949 13.315983 z M 68.56119 13.315983 C 67.967026 13.315983 67.483334 13.668129 67.110116 14.372766 L 67.110116 13.427604 L 66.416101 13.427604 L 66.416101 18.094503 L 67.110116 18.094503 L 67.110116 15.076082 C 67.110116 15.049211 67.192396 14.926623 67.356612 14.708663 C 67.523814 14.487718 67.705773 14.319195 67.902832 14.202751 C 68.099891 14.083321 68.30143 14.023433 68.507446 14.023433 C 68.731377 14.023433 68.997282 14.090613 69.304814 14.224972 L 69.586967 13.553178 C 69.255549 13.394933 68.913508 13.315983 68.56119 13.315983 z M 73.268396 13.315983 C 72.665275 13.315983 72.172626 13.536584 71.79045 13.978475 C 71.41126 14.41738 71.221493 15.00741 71.221493 15.747876 C 71.221493 16.50327 71.433653 17.103406 71.857629 17.548283 C 72.281606 17.993159 72.839769 18.215426 73.532463 18.215426 C 74.08184 18.215426 74.562718 18.12304 74.974752 17.937923 L 74.853829 17.377751 C 74.402981 17.530024 73.965224 17.60616 73.541248 17.60616 C 73.096371 17.60616 72.720166 17.434824 72.412634 17.091463 C 72.108088 16.748102 71.955815 16.31201 71.955815 15.783533 L 75.158203 15.783533 L 75.158203 15.563908 C 75.158203 14.883157 74.977393 14.33843 74.616117 13.929382 C 74.254842 13.520335 73.805831 13.315983 73.268396 13.315983 z M 78.938334 13.315983 C 78.356113 13.315983 77.888671 13.433576 77.536353 13.66945 C 77.184034 13.905324 77.007703 14.224972 77.007703 14.628048 C 77.007703 14.813164 77.045197 14.980538 77.11984 15.129826 C 77.19747 15.279113 77.309436 15.407328 77.455737 15.514815 C 77.602039 15.622302 77.760456 15.704583 77.930644 15.761312 C 78.100831 15.815055 78.366219 15.896819 78.727494 16.007292 C 79.175357 16.144636 79.459175 16.277847 79.578605 16.406234 C 79.701021 16.531635 79.762056 16.674951 79.762056 16.836182 C 79.762056 17.075042 79.639985 17.267622 79.395154 17.413924 C 79.153308 17.55724 78.838139 17.628898 78.449992 17.628898 C 78.00213 17.628898 77.582804 17.535995 77.191671 17.350879 L 77.057312 17.955493 C 77.430531 18.128667 77.9036 18.215426 78.476864 18.215426 C 79.053113 18.215426 79.527847 18.087211 79.901066 17.830436 C 80.274285 17.570676 80.460722 17.218013 80.460722 16.773136 C 80.460722 16.546219 80.411457 16.348012 80.312927 16.177824 C 80.217383 16.00465 80.072919 15.858004 79.878845 15.738574 C 79.684772 15.616159 79.433968 15.512002 79.126436 15.425415 L 78.458777 15.232662 C 78.15423 15.146075 77.951544 15.053689 77.850028 14.95516 C 77.748513 14.853644 77.697583 14.735535 77.697583 14.601176 C 77.697583 14.389188 77.807884 14.220665 78.028829 14.095264 C 78.249774 13.966876 78.549842 13.902511 78.929032 13.902511 C 79.275379 13.902511 79.644292 13.966876 80.035425 14.095264 L 80.192004 13.508219 C 79.732199 13.379832 79.314539 13.315983 78.938334 13.315983 z M 84.442391 13.315983 C 83.86017 13.315983 83.392728 13.433576 83.040409 13.66945 C 82.688091 13.905324 82.512276 14.224972 82.512276 14.628048 C 82.512276 14.813164 82.549254 14.980538 82.623897 15.129826 C 82.701527 15.279113 82.813492 15.407328 82.959794 15.514815 C 83.106096 15.622302 83.264513 15.704583 83.434701 15.761312 C 83.604888 15.815055 83.870792 15.896819 84.232068 16.007292 C 84.67993 16.144636 84.963232 16.277847 85.082662 16.406234 C 85.205078 16.531635 85.26663 16.674951 85.26663 16.836182 C 85.26663 17.075042 85.144042 17.267622 84.899211 17.413924 C 84.657365 17.55724 84.342196 17.628898 83.954049 17.628898 C 83.506186 17.628898 83.086861 17.535995 82.695728 17.350879 L 82.561369 17.955493 C 82.934587 18.128667 83.407657 18.215426 83.98092 18.215426 C 84.55717 18.215426 85.031904 18.087211 85.405123 17.830436 C 85.778341 17.570676 85.965295 17.218013 85.965295 16.773136 C 85.965295 16.546219 85.916031 16.348012 85.817501 16.177824 C 85.721957 16.00465 85.576976 15.858004 85.382902 15.738574 C 85.188828 15.616159 84.938025 15.512002 84.630493 15.425415 L 83.96335 15.232662 C 83.658804 15.146075 83.455601 15.053689 83.354085 14.95516 C 83.25257 14.853644 83.20164 14.735535 83.20164 14.601176 C 83.20164 14.389188 83.312457 14.220665 83.533403 14.095264 C 83.754348 13.966876 84.054416 13.902511 84.433606 13.902511 C 84.779953 13.902511 85.148349 13.966876 85.539482 14.095264 L 85.696578 13.508219 C 85.236773 13.379832 84.818595 13.315983 84.442391 13.315983 z M 27.747144 13.427604 L 27.747144 14.032218 L 29.122253 14.032218 L 29.122253 18.094503 L 29.820919 18.094503 L 29.820919 13.427604 L 27.747144 13.427604 z M 61.982263 13.875639 C 62.247995 13.875639 62.459639 13.960733 62.617883 14.13092 C 62.776128 14.301108 62.855595 14.53681 62.855595 14.838371 C 62.855595 15.125003 62.773314 15.357891 62.609098 15.537036 C 62.447868 15.713195 62.239038 15.801619 61.982263 15.801619 C 61.734446 15.801619 61.525099 15.712047 61.354911 15.532902 C 61.187709 15.350771 61.104281 15.119031 61.104281 14.838371 C 61.104281 14.551739 61.187709 14.320515 61.354911 14.144356 C 61.525099 13.965211 61.734446 13.875639 61.982263 13.875639 z M 45.854565 13.920597 C 46.233756 13.920597 46.529345 14.090785 46.741333 14.43116 C 46.953321 14.771536 47.059143 15.210441 47.059143 15.747876 C 47.059143 16.270382 46.947177 16.707622 46.723246 17.059941 C 46.502301 17.412259 46.203898 17.58859 45.827694 17.58859 C 45.588834 17.58859 45.35761 17.500166 45.133679 17.324007 C 44.909748 17.147848 44.731751 16.928395 44.600378 16.665649 L 44.600378 14.72675 C 44.94374 14.189315 45.361917 13.920597 45.854565 13.920597 z M 56.697314 13.920597 C 57.127262 13.920597 57.463159 14.093599 57.705005 14.439945 C 57.946851 14.786292 58.067773 15.228011 58.067773 15.765446 C 58.067773 16.276009 57.945185 16.710436 57.700354 17.068726 C 57.455523 17.427015 57.121291 17.60616 56.697314 17.60616 C 56.270352 17.60616 55.936121 17.430346 55.694275 17.078027 C 55.452429 16.722723 55.331506 16.284966 55.331506 15.765446 C 55.331506 15.219054 55.450764 14.77567 55.689624 14.435295 C 55.928484 14.091933 56.264381 13.920597 56.697314 13.920597 z M 73.295268 13.920597 C 73.575928 13.920597 73.829545 14.045999 74.056462 14.296802 C 74.283379 14.544619 74.397009 14.850314 74.397009 15.214575 L 72.000773 15.214575 C 72.027645 14.829414 72.15919 14.517575 72.395064 14.278715 C 72.633924 14.039855 72.933992 13.920597 73.295268 13.920597 z M 89.695817 17.068726 C 89.540558 17.068726 89.409013 17.122469 89.301526 17.229956 C 89.197025 17.334457 89.144946 17.467668 89.144946 17.628898 C 89.144946 17.790129 89.19869 17.928966 89.306177 18.04541 C 89.413664 18.158869 89.543544 18.215426 89.695817 18.215426 C 89.851076 18.215426 89.982621 18.158869 90.090108 18.04541 C 90.200581 17.928966 90.255473 17.790129 90.255473 17.628898 C 90.255473 17.470653 90.201729 17.337443 90.094242 17.229956 C 89.986755 17.122469 89.854062 17.068726 89.695817 17.068726 z M 95.199874 17.068726 C 95.044615 17.068726 94.913586 17.122469 94.806099 17.229956 C 94.701598 17.334457 94.649003 17.467668 94.649003 17.628898 C 94.649003 17.790129 94.702747 17.928966 94.810234 18.04541 C 94.917721 18.158869 95.047601 18.215426 95.199874 18.215426 C 95.355133 18.215426 95.486678 18.158869 95.594165 18.04541 C 95.704638 17.928966 95.760046 17.790129 95.760046 17.628898 C 95.760046 17.470653 95.706303 17.337443 95.598816 17.229956 C 95.491329 17.122469 95.358119 17.068726 95.199874 17.068726 z M 100.70445 17.068726 C 100.54919 17.068726 100.41764 17.122469 100.31016 17.229956 C 100.20566 17.334457 100.15358 17.467668 100.15358 17.628898 C 100.15358 17.790129 100.20732 17.928966 100.31481 18.04541 C 100.42229 18.158869 100.55217 18.215426 100.70445 18.215426 C 100.85971 18.215426 100.99073 18.158869 101.09822 18.04541 C 101.20869 17.928966 101.2641 17.790129 101.2641 17.628898 C 101.2641 17.470653 101.21036 17.337443 101.10287 17.229956 C 100.99539 17.122469 100.86269 17.068726 100.70445 17.068726 z M 62.980652 17.866093 C 63.440457 17.866093 63.670532 18.02118 63.670532 18.331698 C 63.670532 18.633258 63.507637 18.885726 63.18219 19.088757 C 62.859729 19.294774 62.46894 19.397782 62.009135 19.397782 C 61.677717 19.397782 61.410148 19.332268 61.207117 19.200895 C 61.004086 19.072508 60.902743 18.916904 60.902743 18.734774 C 60.902743 18.61833 60.938572 18.505216 61.010229 18.394743 C 61.084873 18.287256 61.190695 18.179769 61.32804 18.072282 C 61.46837 17.964795 61.571378 17.911051 61.637065 17.911051 C 61.771423 17.911051 61.956712 17.904908 62.192586 17.892965 C 62.565805 17.87505 62.828379 17.866093 62.980652 17.866093 z " /><path
       id="rect3"
       style="fill:#ffffff;stroke:#000000;stroke-width:0.236211;stroke-opacity:0"
       d="M 2.1817853,26.584924 H 123.94557 v 3.763789 H 2.1817853 Z" /><path
       id="rect2-4"
       style="stroke:#000000;stroke-width:1.04592;stroke-opacity:0"
       d="M 53.820452,26.989778 H 123.2756 v 2.954083 H 53.820452 Z" /></g></svg>
