<?xml version="1.0" encoding="UTF-8" standalone="no"?>
<!-- Created with Inkscape (http://www.inkscape.org/) -->

<svg
   style="background-color:black"
   width="128mm"
   height="32mm"
   viewBox="0 0 128 32"
   version="1.1"
   id="svg1"
   xml:space="preserve"
   inkscape:version="1.3.2 (091e20e, 2023-11-25)"
   sodipodi:docname="software_intro.svg"
   inkscape:export-filename="Software Intro.png"
   inkscape:export-xdpi="50.799999"
   inkscape:export-ydpi="50.799999"
   xmlns:inkscape="http://www.inkscape.org/namespaces/inkscape"
   xmlns:sodipodi="http://sodipodi.sourceforge.net/DTD/sodipodi-0.dtd"
   xmlns:xlink="http://www.w3.org/1999/xlink"
   xmlns="http://www.w3.org/2000/svg"
   xmlns:svg="http://www.w3.org/2000/svg"><sodipodi:namedview
     id="namedview1"
     pagecolor="#000000"
     bordercolor="#000000"
     borderopacity="0.25"
     inkscape:showpageshadow="2"
     inkscape:pageopacity="0.0"
     inkscape:pagecheckerboard="0"
     inkscape:deskcolor="#d1d1d1"
     inkscape:document-units="mm"
     inkscape:zoom="3.1895021"
     inkscape:cx="276.21866"
     inkscape:cy="35.89902"
     inkscape:window-width="2800"
     inkscape:window-height="1212"
     inkscape:window-x="0"
     inkscape:window-y="25"
     inkscape:window-maximized="0"
     inkscape:current-layer="layer1"
     inkscape:export-bgcolor="#000000ff" /><defs
     id="defs1"><color-profile
       name="Black-White"
       xlink:href="file:///Library/ColorSync/Profiles/Black%20&amp;%20White.icc"
       id="color-profile2" /></defs><g
     inkscape:label="Layer 1"
     inkscape:groupmode="layer"
     id="layer1"><path
       style="font-size:17.6389px;line-height:0;font-family:Prototype;-inkscape-font-specification:Prototype;fill:#ffffff;stroke-width:0.264583"
       d="m 49.400031,16.311759 q 0.440973,0 0.758473,0.0882 0.335139,0.07055 0.511528,0.264583 0.211667,0.246945 0.246945,0.564445 0.03528,0.299861 0.03528,0.582084 0,0.194028 -0.01764,0.370417 -0.01764,0.176389 -0.105834,0.370416 -0.08819,0.211667 -0.282222,0.476251 -0.194028,0.246944 -0.458612,0.246944 h -5.679726 q -0.176389,0 -0.176389,0.176389 v 1.940279 q 0,0.176389 0.176389,0.176389 h 6.42056 q 0.388056,0 0.81139,-0.229305 0.440972,-0.246945 0.740834,-0.493889 0.987778,-0.864307 1.128889,-2.469447 0.03528,-0.141111 0.03528,-0.299861 0,-0.176389 0,-0.370417 0,-0.405695 -0.05292,-0.846667 -0.05292,-0.440973 -0.194028,-0.846667 -0.123472,-0.405695 -0.335139,-0.758473 -0.194028,-0.352778 -0.493889,-0.599723 -0.511528,-0.423333 -1.111251,-0.564444 -0.599722,-0.158751 -1.146528,-0.158751 h -1.975557 q -0.405695,0 -0.758473,-0.03528 -0.335139,-0.03528 -0.529167,-0.229306 -0.211667,-0.229306 -0.246944,-0.529167 -0.03528,-0.299861 -0.03528,-0.582084 0,-0.176389 0.01764,-0.352778 0.01764,-0.176389 0.105833,-0.352778 0.08819,-0.194028 0.282222,-0.405695 0.211667,-0.229305 0.458612,-0.229305 h 5.097642 q 0.176389,0 0.176389,-0.176389 V 9.0974486 q 0,-0.176389 -0.176389,-0.176389 h -5.838476 q -0.423334,0 -0.864306,0.2293057 -0.440973,0.2293058 -0.740834,0.4762504 -1.023056,0.8466673 -1.146529,2.3812513 -0.03528,0.15875 -0.03528,0.3175 0,0.158751 0,0.33514 0,0.405694 0.05292,0.829028 0.07056,0.405695 0.194028,0.811389 0.141112,0.388056 0.335139,0.740834 0.211667,0.335139 0.511529,0.582084 0.511528,0.405695 1.128889,0.546806 0.635001,0.141111 1.181807,0.141111 z m 14.234581,-1.28764 q 0,-0.635 -0.246945,-1.11125 -0.229306,-0.49389 -0.617362,-0.829029 -0.370417,-0.352778 -0.864306,-0.529167 -0.47625,-0.176389 -0.9525,-0.176389 h -3.563058 q -0.564445,0 -1.075973,0.194028 -0.49389,0.194028 -0.864306,0.564445 -0.370417,0.352778 -0.599723,0.864306 -0.211667,0.511528 -0.211667,1.146529 v 3.104446 q 0,0.617362 0.123472,1.217084 0.123473,0.582084 0.440973,1.058334 0.3175,0.458612 0.846667,0.758473 0.529167,0.282222 1.340557,0.282222 h 3.139724 q 0.811389,0 1.393473,-0.15875 0.582084,-0.15875 0.952501,-0.564444 0.388056,-0.405695 0.564445,-1.093612 0.194028,-0.687917 0.194028,-1.746251 z m -2.169585,1.92264 v 1.411113 q 0,0.458611 -0.476251,0.758472 -0.458611,0.299862 -1.093611,0.299862 h -1.622779 q -0.229306,0 -0.49389,-0.03528 -0.264583,-0.05292 -0.493889,-0.176389 -0.229305,-0.141111 -0.388056,-0.370417 -0.141111,-0.229306 -0.141111,-0.582084 v -2.822224 q 0,-0.246945 0.123473,-0.423334 0.123472,-0.176389 0.299861,-0.282222 0.194028,-0.105833 0.423333,-0.141111 0.229306,-0.05292 0.458612,-0.05292 h 1.92264 q 0.264584,0 0.529167,0.05292 0.264584,0.05292 0.47625,0.176389 0.211667,0.105833 0.33514,0.282222 0.141111,0.15875 0.141111,0.370417 z m 6.4911,-4.744864 q 0,0.176389 0.176389,0.176389 h 1.44639 q 0.176389,0 0.176389,0.176389 v 1.799168 q 0,0.176389 -0.176389,0.176389 h -1.44639 q -0.176389,0 -0.176389,0.176389 v 6.685143 q 0,0.176389 -0.176389,0.176389 H 65.98057 q -0.176389,0 -0.176389,-0.176389 v -6.685143 q 0,-0.176389 -0.176389,-0.176389 h -0.934861 q -0.176389,0 -0.176389,-0.176389 v -1.799168 q 0,-0.176389 0.176389,-0.176389 h 0.934861 q 0.176389,0 0.176389,-0.176389 v -1.111251 q 0,-0.388055 0.176389,-0.776111 0.194028,-0.4056949 0.476251,-0.7055562 0.299861,-0.2998614 0.652639,-0.4938893 0.370417,-0.1940279 0.723195,-0.1940279 h 2.522363 q 0.176389,0 0.176389,0.176389 v 1.7991684 q 0,0.176389 -0.141111,0.176389 h -1.728613 q -0.08819,0 -0.211667,0.08819 -0.123472,0.07056 -0.229305,0.194028 -0.105834,0.105833 -0.194028,0.246945 -0.07056,0.123472 -0.07056,0.229305 z m 6.57931,2.504724 q 0,-0.176389 0.176389,-0.176389 h 1.44639 q 0.176389,0 0.176389,-0.176389 v -1.799168 q 0,-0.176389 -0.176389,-0.176389 h -1.44639 q -0.176389,0 -0.176389,-0.176389 V 9.9970326 q 0,-0.176389 -0.176389,-0.176389 H 72.55988 q -0.176389,0 -0.176389,0.176389 v 2.2048624 q 0,0.176389 -0.176389,0.176389 h -0.934861 q -0.176389,0 -0.176389,0.176389 v 1.799168 q 0,0.176389 0.176389,0.176389 h 0.934861 q 0.176389,0 0.176389,0.176389 v 5.503337 q 0,0.546806 0.440973,0.952501 0.440972,0.405694 1.111251,0.405694 h 2.222501 q 0.176389,0 0.176389,-0.176389 v -1.799167 q 0,-0.158751 -0.141111,-0.176389 h -1.481668 q -0.176389,0 -0.176389,-0.176389 z m 15.292939,-2.204863 q 0,-0.123472 -0.211667,-0.123472 h -1.746251 q -0.123472,0 -0.15875,0.05292 -0.03528,0.05292 -0.05292,0.141111 l -0.829028,5.997226 q -0.01764,0.105834 -0.105834,0.176389 -0.07055,0.05292 -0.141111,0.05292 -0.07056,0 -0.15875,-0.05292 -0.07056,-0.07055 -0.08819,-0.176389 l -0.440972,-4.850697 q -0.05292,-0.49389 -0.229306,-0.776112 -0.176389,-0.299861 -0.458611,-0.440973 -0.264584,-0.15875 -0.635001,-0.194027 -0.352778,-0.03528 -0.740833,-0.03528 h -0.458612 q -0.405695,0 -0.758473,0.03528 -0.352778,0.03528 -0.635,0.194027 -0.264584,0.141112 -0.440973,0.440973 -0.176389,0.282222 -0.229305,0.776112 l -0.440973,4.850697 q -0.01764,0.105834 -0.105833,0.176389 -0.07056,0.05292 -0.141111,0.05292 -0.07056,0 -0.15875,-0.05292 -0.07056,-0.07055 -0.08819,-0.176389 l -0.829028,-5.997226 q -0.01764,-0.08819 -0.05292,-0.141111 -0.03528,-0.05292 -0.15875,-0.05292 h -1.746251 q -0.211667,0 -0.211667,0.15875 l 1.075973,7.496533 q 0.07055,0.47625 0.176389,0.81139 0.123472,0.3175 0.335139,0.529167 0.211667,0.194027 0.546806,0.282222 0.335139,0.08819 0.864306,0.08819 h 0.493889 q 0.299862,0 0.635001,-0.05292 0.335139,-0.05292 0.617361,-0.211667 0.299861,-0.15875 0.511528,-0.458611 0.211667,-0.317501 0.264584,-0.846668 l 0.47625,-5.080003 q 0.01764,-0.0882 0.08819,-0.105834 0.08819,-0.03528 0.141111,-0.03528 0.05292,0 0.123472,0.03528 0.08819,0.01764 0.105834,0.105834 l 0.47625,5.080003 q 0.05292,0.529167 0.264583,0.846668 0.211667,0.299861 0.49389,0.458611 0.299861,0.15875 0.635,0.211667 0.335139,0.05292 0.635,0.05292 h 0.49389 q 0.529167,0 0.864306,-0.08819 0.335139,-0.08819 0.546806,-0.282222 0.211667,-0.211667 0.3175,-0.529167 0.123472,-0.33514 0.194028,-0.81139 z m 1.234734,0.05292 v 1.799168 q 0,0.176389 0.176389,0.176389 h 4.639031 q 0.282222,0 0.458611,0.246945 0.176389,0.246944 0.176389,0.493889 0,0.299861 -0.282222,0.529167 -0.264584,0.211667 -0.723195,0.211667 h -2.945696 q -0.529167,0 -0.899584,0.299861 -0.370417,0.299861 -0.599723,0.740834 -0.229306,0.423333 -0.335139,0.934862 -0.105833,0.511528 -0.105833,0.934861 0,0.229306 0.07055,0.670279 0.07056,0.440972 0.246945,0.881945 0.194028,0.440972 0.529167,0.776111 0.335139,0.3175 0.864306,0.3175 h 6.155976 q 0.176389,0 0.176389,-0.176389 v -5.820837 q 0,-0.564445 -0.141111,-1.128889 -0.123472,-0.564445 -0.423334,-1.023057 -0.282222,-0.458611 -0.758472,-0.740834 -0.458612,-0.299861 -1.12889,-0.299861 h -4.97417 q -0.176389,0 -0.176389,0.176389 z m 2.24014,6.949727 q -0.3175,0 -0.493889,-0.229306 -0.176389,-0.229305 -0.176389,-0.529167 0,-0.246944 0.15875,-0.440972 0.15875,-0.211667 0.405695,-0.211667 h 3.139724 q 0.176389,0 0.176389,0.176389 v 1.058334 q 0,0.176389 -0.176389,0.176389 z m 9.04877,-7.126116 q -0.47625,0 -0.89959,0.194028 -0.42333,0.176389 -0.74083,0.493889 -0.3175,0.317501 -0.51153,0.740834 -0.17639,0.423334 -0.17639,0.881945 v 6.702782 q 0,0.176389 0.17639,0.176389 h 1.97556 q 0.17639,0 0.17639,-0.176389 v -6.08542 q 0,-0.105834 0.0529,-0.229306 0.0529,-0.141111 0.14112,-0.246945 0.10583,-0.123472 0.2293,-0.211666 0.12347,-0.0882 0.28222,-0.0882 h 1.69334 q 0.17639,0 0.17639,-0.176389 v -1.799168 q 0,-0.176389 -0.17639,-0.176389 z m 5.43279,5.62681 h 6.52639 q 0.17639,0 0.17639,-0.176389 v -1.834446 q 0,-0.829029 -0.24694,-1.499307 -0.22931,-0.670278 -0.74084,-1.128889 -0.51153,-0.476251 -1.30528,-0.723195 -0.79375,-0.264584 -1.88736,-0.264584 -0.88194,0 -1.76389,0.229306 -0.8643,0.211667 -1.56986,0.758473 -0.68792,0.546806 -1.12889,1.481667 -0.42333,0.917223 -0.42333,2.328335 0,1.164168 0.24694,1.993196 0.26458,0.829028 0.86431,1.375834 0.61736,0.529167 1.60514,0.776112 1.00541,0.246944 2.48708,0.246944 h 2.98098 q 0.17638,0 0.17638,-0.176389 v -1.799167 q 0,-0.176389 -0.17638,-0.176389 h -4.19806 q -0.37042,0 -0.70556,-0.08819 -0.33514,-0.105833 -0.58208,-0.264583 -0.22931,-0.176389 -0.37042,-0.388056 -0.14111,-0.229306 -0.14111,-0.493889 0,-0.176389 0.17639,-0.176389 z m 0,-2.063752 q -0.17639,0 -0.17639,-0.176389 0,-0.335139 0.26458,-0.599723 0.26459,-0.282222 0.65264,-0.458611 0.4057,-0.194028 0.82903,-0.299861 0.44097,-0.105834 0.79375,-0.105834 1.11125,0 1.72861,0.405695 0.61737,0.388056 0.61737,1.058334 0,0.176389 -0.17639,0.176389 z"
       id="text1"
       aria-label="Software" /><path
       d="m 14.824099,22.85227 q -0.619185,0 -1.068712,-0.427052 -0.449528,-0.42705 -0.449528,-1.015277 V 9.2945998 q 0,-0.5882272 0.449528,-1.0152787 0.449527,-0.4270514 1.068712,-0.4270514 h 16.96352 q 0.619185,0 1.068712,0.4270514 0.449528,0.4270515 0.449528,1.0152787 V 21.409941 q 0,0.588227 -0.449528,1.015277 -0.449527,0.427052 -1.068712,0.427052 z m 0,-1.134604 h 16.96352 q 0.121482,0 0.22271,-0.09615 0.101212,-0.09617 0.101212,-0.211575 V 11.05803 H 14.500179 v 10.351911 q 0,0.115408 0.101212,0.211575 0.101232,0.09615 0.22271,0.09615 z m 3.744905,-1.944256 -0.831975,-0.780753 2.710533,-2.600008 -2.736849,-2.60001 0.858291,-0.790353 3.568827,3.390363 z m 5.192331,0.186558 V 18.82539 h 5.404856 v 1.134578 z"
       id="path1"
       style="fill:#ffffff;fill-opacity:1;stroke-width:0.0256496" /></g></svg>
