<?xml version="1.0" encoding="UTF-8" standalone="no"?>
<!-- Created with Inkscape (http://www.inkscape.org/) -->

<svg
   style="background-color:black"
   width="128mm"
   height="32mm"
   viewBox="0 0 128 32"
   version="1.1"
   id="svg1"
   xml:space="preserve"
   inkscape:version="1.3.2 (091e20e, 2023-11-25)"
   sodipodi:docname="software.svg"
   inkscape:export-filename="Software.png"
   inkscape:export-xdpi="50.799999"
   inkscape:export-ydpi="50.799999"
   xmlns:inkscape="http://www.inkscape.org/namespaces/inkscape"
   xmlns:sodipodi="http://sodipodi.sourceforge.net/DTD/sodipodi-0.dtd"
   xmlns:xlink="http://www.w3.org/1999/xlink"
   xmlns="http://www.w3.org/2000/svg"
   xmlns:svg="http://www.w3.org/2000/svg"><sodipodi:namedview
     id="namedview1"
     pagecolor="#000000"
     bordercolor="#000000"
     borderopacity="0.25"
     inkscape:showpageshadow="2"
     inkscape:pageopacity="0.0"
     inkscape:pagecheckerboard="0"
     inkscape:deskcolor="#d1d1d1"
     inkscape:document-units="mm"
     inkscape:zoom="3.1895021"
     inkscape:cx="142.34197"
     inkscape:cy="23.357878"
     inkscape:window-width="2800"
     inkscape:window-height="1212"
     inkscape:window-x="71"
     inkscape:window-y="176"
     inkscape:window-maximized="0"
     inkscape:current-layer="layer1"
     inkscape:export-bgcolor="#000000ff" /><defs
     id="defs1"><color-profile
       name="Black-White"
       xlink:href="file:///Library/ColorSync/Profiles/Black%20&amp;%20White.icc"
       id="color-profile2" /></defs><g
     inkscape:label="Layer 1"
     inkscape:groupmode="layer"
     id="layer1"><path
       style="font-size:9.17222px;line-height:0;font-family:Monospace;-inkscape-font-specification:Monospace;fill:#ffffff;stroke:#000000;stroke-width:0.264583;stroke-opacity:0"
       d="M 4.0394549,6.8852181 H 3.3049607 V 3.7501819 H 1.1417857 V 6.8852181 H 0.40729148 V 0.56588087 H 1.1417857 V 3.1052602 h 2.163175 V 0.56588087 H 4.0394549 Z M 10.287134,0.56588087 9.4809818,6.8852181 H 8.8002311 L 7.7253615,3.3247127 6.6549706,6.8852181 H 5.9563053 L 5.1680677,0.56588087 H 5.8936046 L 6.4265608,5.7028616 7.3581144,2.5946972 H 8.0926086 L 9.0286408,5.7118189 9.5705542,0.56588087 Z M 21.241847,6.8852181 H 20.323729 L 18.469579,4.0144207 H 17.65447 V 6.8852181 H 16.919975 V 0.56588087 h 1.786971 q 0.900203,0 1.419724,0.43890503 0.523998,0.4344265 0.523998,1.2137069 0,0.5777424 -0.380683,1.0300833 -0.380683,0.4478624 -1.047997,0.6090928 z M 17.65447,3.3739776 h 0.927075 q 0.582221,0 0.944989,-0.3135036 0.362768,-0.3179823 0.362768,-0.797195 0,-1.056955 -1.289843,-1.056955 H 17.65447 Z m 8.531775,1.200271 H 22.98403 q 0,0.7927163 0.456819,1.307758 0.461299,0.5150416 1.128614,0.5150416 0.635964,0 1.312236,-0.2284098 l 0.120923,0.5598279 q -0.61805,0.2776747 -1.442117,0.2776747 -1.03904,0 -1.675005,-0.6673149 -0.635964,-0.6673148 -0.635964,-1.8004065 0,-1.1106985 0.568785,-1.7690561 0.573264,-0.6628363 1.477946,-0.6628363 0.806152,0 1.348065,0.6135714 0.541913,0.6135714 0.541913,1.6346975 z M 25.42488,4.0054635 q 0,-0.5463921 -0.340376,-0.9181178 -0.340375,-0.3762043 -0.761366,-0.3762043 -0.541913,0 -0.900203,0.3582898 -0.353811,0.3582899 -0.394119,0.9360323 z m 3.824743,1.1196557 q -0.653879,0.3179823 -0.653879,0.5598279 0,0.1298801 0.147794,0.2194526 0.152273,0.089572 0.412033,0.089572 l 1.571997,-0.044786 q 0.559828,0 0.868853,0.273196 0.313504,0.273196 0.313504,0.7748018 0,0.7927163 -0.707623,1.2629718 -0.707622,0.4702554 -1.652612,0.4702554 -0.774802,0 -1.26745,-0.3269395 -0.492649,-0.3224609 -0.492649,-0.8375025 0,-0.5598279 0.761366,-0.9449895 -0.631486,-0.2955892 -0.631486,-0.725537 0,-0.4926485 0.81511,-0.9181177 Q 28.358377,4.7489149 28.156838,4.3861464 27.9553,4.0233779 27.9553,3.6203019 q 0,-0.6583576 0.447863,-1.0793482 0.447862,-0.4254692 1.119656,-0.4254692 0.483691,0 0.873331,0.201538 L 31.780045,2.1065272 V 2.787278 h -0.891246 q 0.201538,0.3538112 0.201538,0.8330239 0,0.6359644 -0.443384,1.0748695 -0.443384,0.4389051 -1.124134,0.4389051 -0.143316,0 -0.273196,-0.00896 z m 0.273196,-0.5329561 q 0.385161,0 0.627007,-0.2642388 0.246324,-0.2687174 0.246324,-0.6986652 0,-0.4523409 -0.237367,-0.7076225 -0.237367,-0.2552815 -0.635964,-0.2552815 -0.371726,0 -0.627008,0.2687174 -0.250803,0.2642388 -0.250803,0.6941866 0,0.4209906 0.250803,0.6941866 0.255282,0.2687174 0.627008,0.2687174 z m 0.02687,3.5963344 q 0.689708,0 1.1734,-0.309025 0.488169,-0.3045464 0.488169,-0.7568873 0,-0.4657768 -0.689707,-0.4657768 -0.22841,0 -0.788238,0.026872 -0.353811,0.017914 -0.555349,0.017914 -0.09853,0 -0.309025,0.1612304 -0.206017,0.1612305 -0.317983,0.3224609 -0.107487,0.1657091 -0.107487,0.3403754 0,0.273196 0.304547,0.4657768 0.304546,0.1970594 0.801673,0.1970594 z M 42.676536,6.8852181 H 41.98235 q -0.08509,-0.2821532 -0.08509,-0.7524086 -0.595657,0.8733315 -1.621262,0.8733315 -0.51952,0 -0.918118,-0.3672471 -0.394118,-0.3717258 -0.394118,-0.9539468 0,-0.3448539 0.138837,-0.6090927 0.138837,-0.2642388 0.407555,-0.4433837 0.268717,-0.1836236 0.653879,-0.2866319 0.385161,-0.1074869 0.913639,-0.1477946 l 0.783759,-0.062701 V 3.9114124 q 0,-1.200271 -1.119656,-1.200271 -0.264239,0 -0.671793,0.1164442 -0.403077,0.1119655 -0.694187,0.2687174 L 39.192167,2.5946972 q 0.953947,-0.48817 1.773535,-0.48817 1.59439,0 1.59439,1.688441 v 2.0064231 q 0,0.6090928 0.116444,1.0838268 z M 41.861427,5.5013236 V 4.6548638 q -0.94499,0.085094 -1.298801,0.1612304 -0.349333,0.071658 -0.609093,0.2731961 -0.255281,0.201538 -0.255281,0.546392 0,0.3135036 0.219452,0.5060844 0.219453,0.1925808 0.559828,0.1925808 0.371726,0 0.738973,-0.2194525 0.367247,-0.2239312 0.644922,-0.6135714 z m 6.202892,1.3838945 H 47.365654 V 3.8934979 q 0,-0.6225286 -0.201539,-0.9002033 -0.197059,-0.2821532 -0.622528,-0.2821532 -0.640443,0 -1.374937,0.7971949 V 6.8852181 H 44.467984 V 2.2184928 h 0.698666 v 0.6852294 q 0.752408,-0.797195 1.585432,-0.797195 1.312237,0 1.312237,1.5854326 z m 5.486312,0 H 52.851966 V 6.2134247 q -0.214974,0.344854 -0.61805,0.5687851 -0.398598,0.2239312 -0.841981,0.2239312 -0.801674,0 -1.267451,-0.7121011 -0.465777,-0.7165797 -0.465777,-1.8138424 0,-1.0256047 0.483692,-1.6973982 0.48817,-0.6762721 1.289843,-0.6762721 0.882289,0 1.419724,0.7165797 V 0.56588087 h 0.698665 z M 52.851966,5.4565374 V 3.5172935 Q 52.35036,2.7111414 51.642737,2.7111414 q -0.577742,0 -0.913639,0.5150416 -0.335896,0.5105631 -0.335896,1.2943221 0,0.8061522 0.313503,1.3346297 0.317982,0.5239989 0.868853,0.5239989 0.264239,0 0.532956,-0.1433159 0.268718,-0.143316 0.506085,-0.4299478 0.237367,-0.2866319 0.237367,-0.3493326 z M 64.81437,6.4910993 Q 64.070918,7.006141 63.0901,7.006141 q -1.227143,0 -1.867586,-0.8419812 -0.635965,-0.8419811 -0.635965,-2.436371 0,-1.5406464 0.61805,-2.4094992 0.61805,-0.87333156 1.885501,-0.87333156 0.456819,0 0.904682,0.1164442 0.447862,0.1164442 0.721058,0.309025 L 64.473994,1.4481696 Q 63.842508,1.0898798 63.0901,1.0898798 q -0.873332,0 -1.298801,0.6359645 -0.425469,0.6314858 -0.425469,2.0019445 0,2.6334304 1.72427,2.6334304 0.730015,0 1.49586,-0.4478623 z m 3.457499,-4.3845721 q 0.962904,0 1.531689,0.6717935 0.568786,0.6717935 0.568786,1.7690562 0,1.1062199 -0.568786,1.782492 -0.568785,0.6762721 -1.531689,0.6762721 -0.967382,0 -1.536167,-0.6717935 -0.564307,-0.6762721 -0.564307,-1.7869706 0,-1.1017413 0.568785,-1.7690562 0.568785,-0.6717935 1.531689,-0.6717935 z m 0,4.290521 q 0.635965,0 1.003212,-0.5374348 0.367247,-0.5374347 0.367247,-1.3032793 0,-0.8061522 -0.362768,-1.3256725 -0.362769,-0.5195202 -1.007691,-0.5195202 -0.6494,0 -1.00769,0.5150416 -0.35829,0.5105631 -0.35829,1.3301511 0,0.7792804 0.362769,1.3122366 0.362768,0.5284775 1.003211,0.5284775 z M 75.58546,6.8852181 H 74.886795 V 3.8934979 q 0,-0.6225286 -0.201538,-0.9002033 -0.19706,-0.2821532 -0.622529,-0.2821532 -0.640443,0 -1.374937,0.7971949 V 6.8852181 H 71.989125 V 2.2184928 h 0.698666 v 0.6852294 q 0.752408,-0.797195 1.585432,-0.797195 1.312237,0 1.312237,1.5854326 z M 81.134473,0.63753884 80.950849,1.206324 q -0.497127,-0.143316 -0.891246,-0.143316 -0.376204,0 -0.51952,0.2149739 -0.138837,0.2104953 -0.138837,0.8554171 v 0.085094 h 1.567518 V 2.8231069 H 79.401246 V 6.8852181 H 78.70258 V 2.8231069 H 77.529181 V 2.2184928 H 78.70258 V 2.061741 q 0,-0.891246 0.304547,-1.24953586 0.304546,-0.35828985 1.052476,-0.35828985 0.483691,0 1.07487,0.18362355 z m 3.954623,-0.18362355 q 0.197059,0 0.335896,0.14331594 0.138838,0.13883732 0.138838,0.33589673 0,0.20601664 -0.138838,0.34485394 -0.134358,0.1388374 -0.335896,0.1388374 -0.183624,0 -0.32694,-0.143316 -0.138837,-0.1477945 -0.138837,-0.34037534 0,-0.19258079 0.138837,-0.33589673 0.143316,-0.14331594 0.32694,-0.14331594 z M 85.429471,6.8852181 H 84.730806 V 2.8231069 H 83.355869 V 2.2184928 h 2.073602 z m 4.366657,-1.7600989 q -0.653879,0.3179823 -0.653879,0.5598279 0,0.1298801 0.147794,0.2194526 0.152273,0.089572 0.412033,0.089572 l 1.571997,-0.044786 q 0.559828,0 0.868853,0.273196 0.313504,0.273196 0.313504,0.7748018 0,0.7927163 -0.707623,1.2629718 -0.707622,0.4702554 -1.652612,0.4702554 -0.774802,0 -1.26745,-0.3269395 -0.492649,-0.3224609 -0.492649,-0.8375025 0,-0.5598279 0.761366,-0.9449895 -0.631486,-0.2955892 -0.631486,-0.725537 0,-0.4926485 0.81511,-0.9181177 -0.376204,-0.2284098 -0.577743,-0.5911783 -0.201538,-0.3627685 -0.201538,-0.7658445 0,-0.6583576 0.447863,-1.0793482 0.447862,-0.4254692 1.119656,-0.4254692 0.483691,0 0.873331,0.201538 L 92.32655,2.1065272 V 2.787278 h -0.891246 q 0.201538,0.3538112 0.201538,0.8330239 0,0.6359644 -0.443384,1.0748695 -0.443384,0.4389051 -1.124134,0.4389051 -0.143316,0 -0.273196,-0.00896 z m 0.273196,-0.5329561 q 0.385161,0 0.627007,-0.2642388 0.246324,-0.2687174 0.246324,-0.6986652 0,-0.4523409 -0.237367,-0.7076225 -0.237367,-0.2552815 -0.635964,-0.2552815 -0.371726,0 -0.627008,0.2687174 -0.250803,0.2642388 -0.250803,0.6941866 0,0.4209906 0.250803,0.6941866 0.255282,0.2687174 0.627008,0.2687174 z m 0.02687,3.5963344 q 0.689708,0 1.1734,-0.309025 0.488169,-0.3045464 0.488169,-0.7568873 0,-0.4657768 -0.689708,-0.4657768 -0.228409,0 -0.788237,0.026872 -0.353811,0.017914 -0.555349,0.017914 -0.09853,0 -0.309025,0.1612304 -0.206017,0.1612305 -0.317983,0.3224609 -0.107487,0.1657091 -0.107487,0.3403754 0,0.273196 0.304547,0.4657768 0.304546,0.1970594 0.801673,0.1970594 z"
       id="text1"
       aria-label="HW Reg and Config" /><path
       style="font-size:9.17222px;line-height:0;font-family:Monospace;-inkscape-font-specification:Monospace;fill:#ffffff;stroke:#000000;stroke-width:0.264583;stroke-opacity:0"
       d="M 5.4143922,9.2532144 3.3542255,15.572552 H 2.4719368 L 0.4072915,9.2532144 H 1.1776147 L 2.9108418,14.721613 4.6530263,9.2532144 Z M 10.372228,13.261582 H 7.1700122 q 0,0.792716 0.4568196,1.307758 0.4612982,0.515042 1.128613,0.515042 0.6359645,0 1.3122362,-0.22841 l 0.120923,0.559828 q -0.6180497,0.277675 -1.4421164,0.277675 -1.0390406,0 -1.6750051,-0.667315 -0.6359645,-0.667315 -0.6359645,-1.800407 0,-1.110698 0.5687852,-1.769056 0.5732637,-0.662836 1.4779456,-0.662836 0.8061522,0 1.3480656,0.613571 0.5419136,0.613572 0.5419136,1.634698 z M 9.6108619,12.692797 q 0,-0.546392 -0.3403754,-0.918118 -0.3403754,-0.376204 -0.7613659,-0.376204 -0.5419134,0 -0.9002033,0.35829 -0.3538112,0.35829 -0.3941188,0.936032 z m 6.1984141,-1.661569 -0.282153,0.671793 q -0.461298,-0.201538 -0.797195,-0.201538 -0.309025,0 -0.604614,0.179145 -0.295589,0.174667 -0.546392,0.506085 -0.246325,0.326939 -0.246325,0.367247 v 3.018592 h -0.694186 v -4.666726 h 0.694186 v 0.94499 q 0.559828,-1.056955 1.451074,-1.056955 0.528478,0 1.025605,0.237367 z m 3.587378,-0.192581 q 0.22841,0 0.385162,0.156752 0.156751,0.152273 0.156751,0.376204 0,0.223931 -0.156751,0.380683 -0.156752,0.152273 -0.385162,0.152273 -0.223931,0 -0.380683,-0.152273 -0.152273,-0.156752 -0.152273,-0.380683 0,-0.223931 0.152273,-0.376204 0.156752,-0.156752 0.380683,-0.156752 z m 0,3.744129 q 0.22841,0 0.385162,0.152273 0.156751,0.152273 0.156751,0.380683 0,0.223931 -0.156751,0.376205 -0.156752,0.152273 -0.385162,0.152273 -0.223931,0 -0.380683,-0.152273 -0.152273,-0.152274 -0.152273,-0.376205 0,-0.22841 0.152273,-0.380683 0.156752,-0.152273 0.380683,-0.152273 z m 12.687937,0.989776 h -3.475412 v -0.532956 q 1.321194,-1.473467 1.715313,-1.975073 0.394119,-0.501606 0.640443,-1.052477 0.246325,-0.55087 0.246325,-1.097262 0,-0.528478 -0.322461,-0.833024 -0.317983,-0.3045466 -0.895725,-0.3045466 -0.443384,0 -1.191314,0.2731956 L 28.698752,9.4189235 q 0.676272,-0.2866319 1.415245,-0.2866319 0.84646,0 1.361501,0.4792127 0.519521,0.4747337 0.519521,1.2719287 0,0.568785 -0.268718,1.128613 -0.264239,0.559828 -0.680751,1.07487 -0.416512,0.515042 -1.621261,1.845193 h 2.660302 z M 35.93621,9.1322916 q 1.003211,0 1.540646,0.8643743 0.541913,0.8598961 0.541913,2.4184561 0,1.509296 -0.523999,2.396064 -0.523998,0.882289 -1.55856,0.882289 -0.998733,0 -1.540647,-0.859896 -0.541913,-0.859896 -0.541913,-2.418457 0,-1.513774 0.523999,-2.396063 0.528477,-0.8867674 1.558561,-0.8867674 z m 0,5.9162614 q 0.662836,0 0.980818,-0.627007 0.322461,-0.631486 0.322461,-2.006424 0,-1.379416 -0.322461,-2.001944 -0.317982,-0.6270074 -0.980818,-0.6270074 -0.653879,0 -0.97634,0.6404434 -0.322461,0.640443 -0.322461,1.988508 0,1.36598 0.317982,2.001945 0.322461,0.631486 0.980819,0.631486 z m -0.01792,-3.305224 q 0.282153,0 0.474734,0.197059 0.19706,0.192581 0.19706,0.474734 0,0.291111 -0.19706,0.501606 -0.197059,0.206017 -0.474734,0.206017 -0.273196,0 -0.470255,-0.206017 -0.192581,-0.210495 -0.192581,-0.501606 0,-0.286631 0.188102,-0.479212 0.192581,-0.192581 0.474734,-0.192581 z m 7.174753,3.829223 h -3.475411 v -0.532956 q 1.321193,-1.473467 1.715312,-1.975073 0.394119,-0.501606 0.640443,-1.052477 0.246325,-0.55087 0.246325,-1.097262 0,-0.528478 -0.322461,-0.833024 -0.317982,-0.3045466 -0.895725,-0.3045466 -0.443383,0 -1.191314,0.2731956 L 39.707209,9.4189235 q 0.676272,-0.2866319 1.415245,-0.2866319 0.84646,0 1.361501,0.4792127 0.519521,0.4747337 0.519521,1.2719287 0,0.568785 -0.268718,1.128613 -0.264238,0.559828 -0.68075,1.07487 -0.416512,0.515042 -1.621262,1.845193 h 2.660302 z m 5.91626,-1.460031 h -0.77928 v 1.460031 h -0.734494 v -1.460031 h -2.749875 v -0.559828 l 2.494593,-4.2994786 h 0.989776 v 4.2188626 h 0.77928 z M 47.495534,13.472077 V 9.9787514 L 45.48911,13.472077 Z m 4.935441,1.07487 q 0.237367,0 0.398598,0.16123 0.16123,0.161231 0.16123,0.398598 0,0.241846 -0.165709,0.416512 -0.16123,0.170188 -0.394119,0.170188 -0.22841,0 -0.38964,-0.170188 -0.161231,-0.174666 -0.161231,-0.416512 0,-0.241846 0.156752,-0.398598 0.161231,-0.16123 0.394119,-0.16123 z m 5.522141,-5.4146554 q 1.003212,0 1.540647,0.8643743 0.541913,0.8598961 0.541913,2.4184561 0,1.509296 -0.523999,2.396064 -0.523999,0.882289 -1.558561,0.882289 -0.998733,0 -1.540646,-0.859896 -0.541913,-0.859896 -0.541913,-2.418457 0,-1.513774 0.523998,-2.396063 0.528478,-0.8867674 1.558561,-0.8867674 z m 0,5.9162614 q 0.662837,0 0.980819,-0.627007 0.322461,-0.631486 0.322461,-2.006424 0,-1.379416 -0.322461,-2.001944 -0.317982,-0.6270074 -0.980819,-0.6270074 -0.653879,0 -0.97634,0.6404434 -0.32246,0.640443 -0.32246,1.988508 0,1.36598 0.317982,2.001945 0.322461,0.631486 0.980818,0.631486 z m -0.01791,-3.305224 q 0.282153,0 0.474734,0.197059 0.197059,0.192581 0.197059,0.474734 0,0.291111 -0.197059,0.501606 -0.19706,0.206017 -0.474734,0.206017 -0.273196,0 -0.470256,-0.206017 -0.19258,-0.210495 -0.19258,-0.501606 0,-0.286631 0.188102,-0.479212 0.192581,-0.192581 0.474734,-0.192581 z m 5.925221,0.434426 q 0.577742,0.161231 0.927075,0.591179 0.349333,0.425469 0.349333,0.958425 0,0.833024 -0.649401,1.401809 -0.6494,0.564307 -1.531689,0.564307 -0.752409,0 -1.348066,-0.331419 l 0.143316,-0.604614 q 0.622529,0.291111 1.231622,0.291111 0.573264,0 0.97634,-0.353811 0.407554,-0.35829 0.407554,-0.918118 0,-0.550871 -0.434426,-0.895725 -0.434427,-0.344854 -1.151006,-0.344854 h -0.192581 v -0.604614 h 0.05374 q 0.689708,0 1.137571,-0.322461 0.447862,-0.326939 0.447862,-0.87781 0,-0.447862 -0.322461,-0.698665 -0.322461,-0.2552816 -0.886767,-0.2552816 -0.48817,0 -1.092784,0.2642386 l -0.09853,-0.6314857 q 0.609093,-0.2776747 1.227143,-0.2776747 0.84646,0 1.392852,0.4478623 0.55087,0.4433841 0.55087,1.1420491 0,0.483691 -0.335897,0.904682 -0.331418,0.416512 -0.801673,0.523999 z m 5.08324,2.369192 q 0.237367,0 0.398597,0.16123 0.161231,0.161231 0.161231,0.398598 0,0.241846 -0.165709,0.416512 -0.161231,0.170188 -0.394119,0.170188 -0.22841,0 -0.38964,-0.170188 -0.161231,-0.174666 -0.161231,-0.416512 0,-0.241846 0.156752,-0.398598 0.16123,-0.16123 0.394119,-0.16123 z m 5.522141,-5.4146554 q 1.003212,0 1.540646,0.8643743 0.541914,0.8598961 0.541914,2.4184561 0,1.509296 -0.523999,2.396064 -0.523999,0.882289 -1.558561,0.882289 -0.998733,0 -1.540646,-0.859896 -0.541914,-0.859896 -0.541914,-2.418457 0,-1.513774 0.523999,-2.396063 0.528478,-0.8867674 1.558561,-0.8867674 z m 0,5.9162614 q 0.662836,0 0.980818,-0.627007 0.322461,-0.631486 0.322461,-2.006424 0,-1.379416 -0.322461,-2.001944 -0.317982,-0.6270074 -0.980818,-0.6270074 -0.653879,0 -0.97634,0.6404434 -0.322461,0.640443 -0.322461,1.988508 0,1.36598 0.317983,2.001945 0.32246,0.631486 0.980818,0.631486 z m -0.01791,-3.305224 q 0.282153,0 0.474734,0.197059 0.197059,0.192581 0.197059,0.474734 0,0.291111 -0.197059,0.501606 -0.19706,0.206017 -0.474734,0.206017 -0.273197,0 -0.470256,-0.206017 -0.192581,-0.210495 -0.192581,-0.501606 0,-0.286631 0.188102,-0.479212 0.192581,-0.192581 0.474735,-0.192581 z m 5.522141,-2.6110374 q 1.003211,0 1.540646,0.8643743 0.541913,0.8598961 0.541913,2.4184561 0,1.509296 -0.523998,2.396064 -0.523999,0.882289 -1.558561,0.882289 -0.998733,0 -1.540647,-0.859896 -0.541913,-0.859896 -0.541913,-2.418457 0,-1.513774 0.523999,-2.396063 0.528477,-0.8867674 1.558561,-0.8867674 z m 0,5.9162614 q 0.662836,0 0.980818,-0.627007 0.322461,-0.631486 0.322461,-2.006424 0,-1.379416 -0.322461,-2.001944 -0.317982,-0.6270074 -0.980818,-0.6270074 -0.653879,0 -0.97634,0.6404434 -0.322461,0.640443 -0.322461,1.988508 0,1.36598 0.317982,2.001945 0.322461,0.631486 0.980819,0.631486 z m -0.01792,-3.305224 q 0.282153,0 0.474734,0.197059 0.19706,0.192581 0.19706,0.474734 0,0.291111 -0.19706,0.501606 -0.197059,0.206017 -0.474734,0.206017 -0.273196,0 -0.470255,-0.206017 -0.192581,-0.210495 -0.192581,-0.501606 0,-0.286631 0.188102,-0.479212 0.192581,-0.192581 0.474734,-0.192581 z m 7.174753,3.829223 h -3.475411 v -0.532956 q 1.321194,-1.473467 1.715312,-1.975073 0.394119,-0.501606 0.640444,-1.052477 0.246324,-0.55087 0.246324,-1.097262 0,-0.528478 -0.322461,-0.833024 -0.317982,-0.3045466 -0.895725,-0.3045466 -0.443383,0 -1.191313,0.2731956 L 83.74103,9.4189235 q 0.676272,-0.2866319 1.415245,-0.2866319 0.84646,0 1.361502,0.4792127 0.51952,0.4747337 0.51952,1.2719287 0,0.568785 -0.268718,1.128613 -0.264238,0.559828 -0.68075,1.07487 -0.416512,0.515042 -1.621262,1.845193 h 2.660302 z"
       id="text1-6"
       aria-label="Ver: 2024.03.002" /><path
       id="rect1"
       style="fill:#ffffff;stroke:#000000;stroke-width:0.264002;stroke-opacity:0"
       d="m 123.4359,1.2440263 h 3.736 V 30.980024 h -3.736 z" /><path
       id="rect2"
       style="stroke:#000000;stroke-width:0.272199;stroke-opacity:0"
       d="m 123.44001,15.59924 h 3.7278 v 3.727802 h -3.7278 z" /></g></svg>
