<?xml version="1.0" encoding="UTF-8" standalone="no"?>
<!-- Created with Inkscape (http://www.inkscape.org/) -->

<svg
   style="background-color:black"
   width="128mm"
   height="32mm"
   viewBox="0 0 128 32"
   version="1.1"
   id="svg1"
   xml:space="preserve"
   inkscape:version="1.3.2 (091e20e, 2023-11-25)"
   sodipodi:docname="wifi.svg"
   inkscape:export-filename="WiFi.png"
   inkscape:export-xdpi="50.799999"
   inkscape:export-ydpi="50.799999"
   xmlns:inkscape="http://www.inkscape.org/namespaces/inkscape"
   xmlns:sodipodi="http://sodipodi.sourceforge.net/DTD/sodipodi-0.dtd"
   xmlns:xlink="http://www.w3.org/1999/xlink"
   xmlns="http://www.w3.org/2000/svg"
   xmlns:svg="http://www.w3.org/2000/svg"><sodipodi:namedview
     id="namedview1"
     pagecolor="#000000"
     bordercolor="#000000"
     borderopacity="0.25"
     inkscape:showpageshadow="2"
     inkscape:pageopacity="0.0"
     inkscape:pagecheckerboard="0"
     inkscape:deskcolor="#d1d1d1"
     inkscape:document-units="mm"
     inkscape:zoom="3.1895021"
     inkscape:cx="207.24238"
     inkscape:cy="18.968478"
     inkscape:window-width="2800"
     inkscape:window-height="1212"
     inkscape:window-x="1"
     inkscape:window-y="25"
     inkscape:window-maximized="0"
     inkscape:current-layer="layer1"
     inkscape:export-bgcolor="#000000ff" /><defs
     id="defs1"><color-profile
       name="Black-White"
       xlink:href="file:///Library/ColorSync/Profiles/Black%20&amp;%20White.icc"
       id="color-profile2" /></defs><g
     inkscape:label="Layer 1"
     inkscape:groupmode="layer"
     id="layer1"><path
       style="font-size:9.17222px;line-height:0;font-family:Monospace;-inkscape-font-specification:Monospace;fill:#ffffff;stroke:#000000;stroke-width:0.264583;stroke-opacity:0"
       d="m 34.201578,1.5381416 h -2.615516 v 2.0646453 h 2.382627 V 4.24323 H 31.586062 V 7.2170358 H 30.851568 V 0.89769849 h 3.35001 z m 4.062111,-0.75240869 q 0.197059,0 0.335896,0.14331594 0.138838,0.13883735 0.138838,0.33589675 0,0.2060167 -0.138838,0.344854 -0.134358,0.1388373 -0.335896,0.1388373 -0.183624,0 -0.32694,-0.1433159 -0.138837,-0.1477946 -0.138837,-0.3403754 0,-0.1925808 0.138837,-0.33589675 0.143316,-0.14331594 0.32694,-0.14331594 z M 38.604064,7.2170358 H 37.905399 V 3.1549246 H 36.530461 V 2.5503104 h 2.073603 z M 45.344392,2.6757119 45.062238,3.3475054 Q 44.60094,3.1459673 44.265043,3.1459673 q -0.309025,0 -0.604614,0.1791449 -0.295589,0.1746663 -0.546392,0.5060845 -0.246324,0.3269395 -0.246324,0.3672471 v 3.018592 H 42.173526 V 2.5503104 h 0.694187 v 0.9449895 q 0.559828,-1.056955 1.451074,-1.056955 0.528477,0 1.025605,0.237367 z M 50.9158,4.9060662 h -3.202216 q 0,0.7927163 0.45682,1.307758 0.461298,0.5150416 1.128613,0.5150416 0.635964,0 1.312236,-0.2284097 l 0.120923,0.5598279 q -0.61805,0.2776746 -1.442117,0.2776746 -1.03904,0 -1.675005,-0.6673149 -0.635964,-0.6673148 -0.635964,-1.8004065 0,-1.1106985 0.568785,-1.7690561 0.573264,-0.6628362 1.477946,-0.6628362 0.806152,0 1.348065,0.6135713 Q 50.9158,3.6654876 50.9158,4.6866137 Z M 50.154434,4.3372811 q 0,-0.546392 -0.340376,-0.9181178 -0.340375,-0.3762043 -0.761366,-0.3762043 -0.541913,0 -0.900203,0.3582898 -0.353811,0.3582899 -0.394119,0.9360323 z M 56.218488,1.5381416 H 53.602972 V 3.6027869 H 55.9856 V 4.24323 H 53.602972 V 7.2170358 H 52.868478 V 0.89769849 h 3.35001 z M 61.44504,7.2170358 H 59.537147 V 1.5023126 H 58.318961 V 0.89769849 h 1.916851 V 6.6124216 h 1.209228 z m 6.055101,-4.6667254 -1.769056,4.6667254 q -0.385161,1.0300833 -0.765844,1.437638 -0.376205,0.4075547 -0.859896,0.4075547 -0.429948,0 -0.850938,-0.1567518 l 0.116444,-0.5598279 q 0.340375,0.107487 0.609093,0.107487 0.376204,0 0.61805,-0.2911105 0.241845,-0.2911105 0.488169,-0.9539468 L 63.335022,2.5503104 h 0.761366 l 1.321194,3.7217359 1.321193,-3.7217359 z m 4.769733,2.4856359 H 69.609572 V 4.3551956 h 2.660302 z m 5.91626,2.1810895 H 74.885389 V 0.89769849 h 3.273873 V 1.5381416 h -2.539379 v 1.9571583 h 2.440849 V 4.135743 h -2.440849 v 2.4408497 h 2.566251 z m 5.553491,-5.6788942 h -2.615516 v 2.0646453 h 2.382628 V 4.24323 H 81.124109 V 7.2170358 H 80.389615 V 0.89769849 h 3.35001 z m 5.504227,0 h -2.615516 v 2.0646453 h 2.382628 V 4.24323 H 86.628336 V 7.2170358 H 85.893842 V 0.89769849 h 3.35001 z m 5.454966,5.6788942 H 91.398072 V 0.89769849 h 3.273874 V 1.5381416 h -2.539379 v 1.9571583 h 2.440849 V 4.135743 h -2.440849 v 2.4408497 h 2.566251 z m 5.504232,0 H 96.902303 V 0.89769849 h 3.273877 V 1.5381416 h -2.539383 v 1.9571583 h 2.440853 V 4.135743 h -2.440853 v 2.4408497 h 2.566253 z m 1.99298,-6.31933731 h 1.24506 q 1.24058,0 1.98851,0.84645981 0.74793,0.8419811 0.74793,2.3154481 0,1.5048174 -0.76137,2.3333627 -0.75688,0.8240667 -1.94372,0.8240667 h -1.27641 z m 0.7345,5.67889421 h 0.51952 q 0.9002,0 1.4242,-0.6673149 0.524,-0.6673148 0.524,-1.8496714 0,-1.1733992 -0.52848,-1.8451927 -0.524,-0.6762721 -1.41972,-0.6762721 h -0.51952 z"
       id="text1"
       aria-label="FireFly-EFFEED" /><path
       style="font-size:9.17222px;line-height:0;font-family:Monospace;-inkscape-font-specification:Monospace;fill:#ffffff;stroke:#000000;stroke-width:0.264583;stroke-opacity:0"
       d="m 34.056864,15.969851 h -3.323139 v -0.640444 h 1.339109 v -4.908571 l -1.262972,0.631486 v -0.734494 l 1.36598,-0.7031437 h 0.631486 v 5.7147227 h 1.249536 z m 4.899613,-3.036507 q -0.546392,0.479213 -1.285365,0.479213 -0.801673,0 -1.339108,-0.510563 -0.532956,-0.515042 -0.532956,-1.325673 0,-0.868853 0.510563,-1.460031 0.515042,-0.5956568 1.325672,-0.5956568 0.989776,0 1.545125,0.9046818 0.55535,0.904682 0.55535,2.297534 0,1.392852 -0.653879,2.378149 -0.649401,0.980818 -1.742185,0.980818 -0.734494,0 -1.271929,-0.223931 l 0.116445,-0.6494 q 0.618049,0.228409 1.13757,0.228409 0.743451,0 1.186835,-0.721058 0.447862,-0.721058 0.447862,-1.782492 z m -0.01791,-0.631486 q 0,-0.850938 -0.344854,-1.491381 -0.344854,-0.644922 -0.904682,-0.644922 -0.506085,0 -0.810631,0.376204 -0.300068,0.371726 -0.300068,0.971861 0,0.550871 0.304547,0.904682 0.309025,0.349333 0.806152,0.349333 0.685229,0 1.191314,-0.420991 z m 5.961047,3.667993 h -3.475412 v -0.532957 q 1.321194,-1.473467 1.715313,-1.975072 0.394119,-0.501606 0.640443,-1.052477 0.246324,-0.550871 0.246324,-1.097263 0,-0.528477 -0.32246,-0.833023 -0.317983,-0.304547 -0.895725,-0.304547 -0.443384,0 -1.191314,0.273196 L 41.513771,9.8162223 q 0.676272,-0.2866319 1.415245,-0.2866319 0.84646,0 1.361501,0.4792126 0.51952,0.474734 0.51952,1.271929 0,0.568785 -0.268717,1.128613 -0.264239,0.559828 -0.680751,1.07487 -0.416512,0.515041 -1.621261,1.845192 h 2.660302 z m 3.833702,-1.025605 q 0.237367,0 0.398598,0.16123 0.16123,0.161231 0.16123,0.398598 0,0.241845 -0.165709,0.416512 -0.16123,0.170187 -0.394119,0.170187 -0.22841,0 -0.38964,-0.170187 -0.161231,-0.174667 -0.161231,-0.416512 0,-0.241846 0.156752,-0.398598 0.161231,-0.16123 0.394119,-0.16123 z m 7.340462,1.025605 h -3.323138 v -0.640444 h 1.339108 v -4.908571 l -1.262972,0.631486 v -0.734494 l 1.365981,-0.7031437 h 0.631485 v 5.7147227 h 1.249536 z m 2.56625,-3.291788 q 0.591178,-0.479213 1.285365,-0.479213 0.801674,0 1.33463,0.515042 0.537434,0.510563 0.537434,1.321193 0,0.891246 -0.474734,1.473467 -0.474734,0.582221 -1.26745,0.582221 -1.012169,0 -1.603347,-0.927075 -0.591178,-0.931553 -0.591178,-2.27514 0,-1.43316 0.613571,-2.396064 0.61805,-0.9629036 1.688441,-0.9629036 0.738973,0 1.276408,0.2194526 l -0.116445,0.653879 q -0.622528,-0.22841 -1.13757,-0.22841 -0.730015,0 -1.13757,0.698665 -0.407555,0.698666 -0.407555,1.804886 z m 0.02239,0.631485 q 0,0.810631 0.380683,1.473467 0.380683,0.662837 0.958426,0.662837 0.48817,0 0.752408,-0.35829 0.264239,-0.35829 0.264239,-0.989776 0,-0.582221 -0.29111,-0.918118 -0.291111,-0.335896 -0.819588,-0.335896 -0.68523,0 -1.245058,0.465776 z m 7.246415,-0.806152 q 0.644922,0.188102 0.998733,0.640443 0.35829,0.452341 0.35829,1.056955 0,0.868853 -0.577742,1.379416 -0.573264,0.510563 -1.415245,0.510563 -0.882289,0 -1.451074,-0.515041 -0.564307,-0.515042 -0.564307,-1.36598 0,-0.600136 0.367247,-1.056955 0.367247,-0.45682 1.025605,-0.649401 -0.523999,-0.134358 -0.841981,-0.515041 -0.313504,-0.385162 -0.313504,-0.859896 0,-0.609093 0.483692,-1.101741 0.483691,-0.4971276 1.276407,-0.4971276 0.783759,0 1.294322,0.4926486 0.515042,0.492649 0.515042,1.10622 0,0.461298 -0.322461,0.850938 -0.322461,0.385162 -0.833024,0.523999 z M 65.254953,12.19885 q 0.02239,0 0.214974,-0.05374 0.192581,-0.05374 0.32694,-0.12988 0.138837,-0.08061 0.255281,-0.201538 0.116444,-0.120923 0.188102,-0.282153 0.07166,-0.165709 0.07166,-0.367247 0,-0.429948 -0.309025,-0.712101 -0.309025,-0.286632 -0.74793,-0.286632 -0.425469,0 -0.730015,0.29111 -0.304547,0.291111 -0.304547,0.707623 0,0.264239 0.107487,0.461298 0.111966,0.197059 0.273196,0.317982 0.165709,0.120923 0.376205,0.188102 0.214973,0.06718 0.277674,0.06718 z m 0,0.627007 q -1.227143,0.35829 -1.227143,1.348066 0,0.577742 0.371726,0.927075 0.371726,0.344854 0.873332,0.344854 0.51952,0 0.873331,-0.340376 0.35829,-0.344854 0.35829,-0.931553 0,-0.443384 -0.246324,-0.792717 -0.246324,-0.353811 -1.003212,-0.555349 z m 5.49527,2.118389 q 0.237367,0 0.398597,0.16123 0.161231,0.161231 0.161231,0.398598 0,0.241845 -0.16571,0.416512 -0.16123,0.170187 -0.394118,0.170187 -0.22841,0 -0.389641,-0.170187 -0.16123,-0.174667 -0.16123,-0.416512 0,-0.241846 0.156752,-0.398598 0.16123,-0.16123 0.394119,-0.16123 z m 7.586786,-0.434427 h -0.77928 v 1.460032 H 76.823234 V 14.509819 H 74.07336 v -0.559828 l 2.494593,-4.2994777 h 0.989776 v 4.2188627 h 0.77928 z M 76.823234,13.869376 V 10.37605 l -2.006423,3.493326 z m 4.935442,1.07487 q 0.237367,0 0.398597,0.16123 0.161231,0.161231 0.161231,0.398598 0,0.241845 -0.165709,0.416512 -0.161231,0.170187 -0.394119,0.170187 -0.22841,0 -0.38964,-0.170187 -0.161231,-0.174667 -0.161231,-0.416512 0,-0.241846 0.156752,-0.398598 0.161231,-0.16123 0.394119,-0.16123 z m 7.340462,1.025605 H 85.776 v -0.640444 h 1.339108 v -4.908571 l -1.262972,0.631486 v -0.734494 l 1.36598,-0.7031437 h 0.631486 v 5.7147227 h 1.249536 z"
       id="text1-6"
       aria-label="192.168.4.1" /><path
       style="font-size:9.17222px;line-height:0;font-family:Monospace;-inkscape-font-specification:Monospace;fill:#ffffff;stroke:#000000;stroke-width:0.264583;stroke-opacity:0"
       d="m 30.641072,16.920025 h 1.245057 q 1.240579,0 1.988509,0.84646 0.74793,0.841981 0.74793,2.315448 0,1.504818 -0.761366,2.333363 -0.756887,0.824067 -1.943722,0.824067 h -1.276408 z m 0.734494,5.678895 h 0.519521 q 0.900203,0 1.424202,-0.667315 0.523999,-0.667315 0.523999,-1.849672 0,-1.173399 -0.528478,-1.845192 -0.523999,-0.676272 -1.419723,-0.676272 h -0.519521 z m 8.280974,0.640443 h -3.300745 v -6.319338 h 3.273874 v 0.640444 h -2.53938 v 1.957158 h 2.44085 v 0.640443 h -2.44085 v 2.44085 h 2.566251 z m 3.771001,-4.733905 q 0.22841,0 0.385161,0.156752 0.156752,0.152273 0.156752,0.376204 0,0.223931 -0.156752,0.380683 -0.156751,0.152273 -0.385161,0.152273 -0.223931,0 -0.380683,-0.152273 -0.152273,-0.156752 -0.152273,-0.380683 0,-0.223931 0.152273,-0.376204 0.156752,-0.156752 0.380683,-0.156752 z m 0,3.744129 q 0.22841,0 0.385161,0.152273 0.156752,0.152273 0.156752,0.380683 0,0.223931 -0.156752,0.376204 -0.156751,0.152274 -0.385161,0.152274 -0.223931,0 -0.380683,-0.152274 -0.152273,-0.152273 -0.152273,-0.376204 0,-0.22841 0.152273,-0.380683 0.156752,-0.152273 0.380683,-0.152273 z m 8.057044,0.989776 h -0.770324 l -0.698665,-2.21244 h -2.073602 l -0.707623,2.21244 h -0.761366 l 2.064646,-6.319338 h 0.882288 z M 49.805101,20.38648 48.976556,17.770964 48.152489,20.38648 Z m 2.852882,-3.466455 h 1.245057 q 1.240579,0 1.988509,0.84646 0.74793,0.841981 0.74793,2.315448 0,1.504818 -0.761366,2.333363 -0.756887,0.824067 -1.943723,0.824067 h -1.276407 z m 0.734494,5.678895 h 0.51952 q 0.900204,0 1.424202,-0.667315 0.523999,-0.667315 0.523999,-1.849672 0,-1.173399 -0.528477,-1.845192 -0.523999,-0.676272 -1.419724,-0.676272 h -0.51952 z m 6.547746,-4.093462 q 0.22841,0 0.385161,0.156752 0.156752,0.152273 0.156752,0.376204 0,0.223931 -0.156752,0.380683 -0.156751,0.152273 -0.385161,0.152273 -0.223931,0 -0.380683,-0.152273 -0.152273,-0.156752 -0.152273,-0.380683 0,-0.223931 0.152273,-0.376204 0.156752,-0.156752 0.380683,-0.156752 z m 0,3.744129 q 0.22841,0 0.385161,0.152273 0.156752,0.152273 0.156752,0.380683 0,0.223931 -0.156752,0.376204 -0.156751,0.152274 -0.385161,0.152274 -0.223931,0 -0.380683,-0.152274 -0.152273,-0.152273 -0.152273,-0.376204 0,-0.22841 0.152273,-0.380683 0.156752,-0.152273 0.380683,-0.152273 z m 6.301425,-2.476679 q 0.631486,0.147795 0.989776,0.573264 0.35829,0.425469 0.35829,1.012169 0,0.859896 -0.627007,1.370459 -0.622529,0.510563 -1.500339,0.510563 H 63.66644 v -6.319338 h 1.751142 q 0.913639,0 1.42868,0.403077 0.515042,0.398597 0.515042,1.128613 0,0.447862 -0.300068,0.797194 -0.295589,0.349333 -0.819588,0.506085 z m -1.840714,-0.340375 h 0.859896 q 1.348065,0 1.348065,-0.962904 0,-0.438905 -0.331418,-0.671793 -0.331418,-0.237367 -0.971861,-0.237367 h -0.904682 z m 0,3.166387 h 0.833024 q 0.730016,0 1.155485,-0.331419 0.429948,-0.331418 0.429948,-0.90916 0,-0.613571 -0.420991,-0.949468 -0.42099,-0.335897 -1.218185,-0.335897 h -0.779281 z m 8.280973,0.640443 h -3.300745 v -6.319338 h 3.273873 v 0.640444 h -2.539379 v 1.957158 h 2.44085 v 0.640443 h -2.44085 v 2.44085 h 2.566251 z m 3.771,-4.733905 q 0.228409,0 0.385161,0.156752 0.156752,0.152273 0.156752,0.376204 0,0.223931 -0.156752,0.380683 -0.156752,0.152273 -0.385161,0.152273 -0.223931,0 -0.380683,-0.152273 -0.152273,-0.156752 -0.152273,-0.380683 0,-0.223931 0.152273,-0.376204 0.156752,-0.156752 0.380683,-0.156752 z m 0,3.744129 q 0.228409,0 0.385161,0.152273 0.156752,0.152273 0.156752,0.380683 0,0.223931 -0.156752,0.376204 -0.156752,0.152274 -0.385161,0.152274 -0.223931,0 -0.380683,-0.152274 -0.152273,-0.152273 -0.152273,-0.376204 0,-0.22841 0.152273,-0.380683 0.156752,-0.152273 0.380683,-0.152273 z m 7.237454,0.989776 h -3.300746 v -6.319338 h 3.273874 v 0.640444 h -2.53938 v 1.957158 h 2.44085 v 0.640443 h -2.44085 v 2.44085 h 2.566252 z m 5.553491,-5.678894 h -2.615516 v 2.064645 h 2.382628 v 0.640443 h -2.382628 v 2.973806 h -0.734494 v -6.319338 h 3.35001 z m 3.721739,0.944989 q 0.228409,0 0.385161,0.156752 0.156752,0.152273 0.156752,0.376204 0,0.223931 -0.156752,0.380683 -0.156752,0.152273 -0.385161,0.152273 -0.223932,0 -0.380683,-0.152273 -0.152274,-0.156752 -0.152274,-0.380683 0,-0.223931 0.152274,-0.376204 0.156751,-0.156752 0.380683,-0.156752 z m 0,3.744129 q 0.228409,0 0.385161,0.152273 0.156752,0.152273 0.156752,0.380683 0,0.223931 -0.156752,0.376204 -0.156752,0.152274 -0.385161,0.152274 -0.223932,0 -0.380683,-0.152274 -0.152274,-0.152273 -0.152274,-0.376204 0,-0.22841 0.152274,-0.380683 0.156751,-0.152273 0.380683,-0.152273 z m 7.286719,-4.689118 h -2.615513 v 2.064645 h 2.382623 v 0.640443 h -2.382623 v 2.973806 h -0.734494 v -6.319338 h 3.350007 z m 5.45496,5.678894 h -3.30074 v -6.319338 h 3.27387 v 0.640444 h -2.53938 v 1.957158 h 2.44085 v 0.640443 h -2.44085 v 2.44085 h 2.56625 z m 3.771,-4.733905 q 0.22841,0 0.38517,0.156752 0.15675,0.152273 0.15675,0.376204 0,0.223931 -0.15675,0.380683 -0.15676,0.152273 -0.38517,0.152273 -0.22393,0 -0.38068,-0.152273 -0.15227,-0.156752 -0.15227,-0.380683 0,-0.223931 0.15227,-0.376204 0.15675,-0.156752 0.38068,-0.156752 z m 0,3.744129 q 0.22841,0 0.38517,0.152273 0.15675,0.152273 0.15675,0.380683 0,0.223931 -0.15675,0.376204 -0.15676,0.152274 -0.38517,0.152274 -0.22393,0 -0.38068,-0.152274 -0.15227,-0.152273 -0.15227,-0.376204 0,-0.22841 0.15227,-0.380683 0.15675,-0.152273 0.38068,-0.152273 z m 7.23746,0.989776 h -3.30075 v -6.319338 h 3.27388 v 0.640444 h -2.53938 v 1.957158 h 2.44085 v 0.640443 h -2.44085 v 2.44085 h 2.56625 z m 5.55349,-5.678894 h -2.61552 v 2.064645 h 2.38263 v 0.640443 h -2.38263 v 2.973806 h -0.73449 v -6.319338 h 3.35001 z"
       id="text1-62"
       aria-label="DE:AD:BE:EF:FE:EF" /><path
       style="font-size:9.17222px;line-height:0;font-family:Monospace;-inkscape-font-specification:Monospace;fill:#ffffff;stroke:#000000;stroke-width:0.264583;stroke-opacity:0"
       d="m 34.501645,30.312106 q -0.743451,0.515041 -1.72427,0.515041 -1.227142,0 -1.867585,-0.841981 -0.635965,-0.841981 -0.635965,-2.436371 0,-1.540646 0.61805,-2.409499 0.61805,-0.873332 1.8855,-0.873332 0.45682,0 0.904682,0.116445 0.447863,0.116444 0.721059,0.309025 l -0.241846,0.577742 q -0.631486,-0.35829 -1.383895,-0.35829 -0.873331,0 -1.2988,0.635965 -0.425469,0.631485 -0.425469,2.001944 0,2.633431 1.724269,2.633431 0.730016,0 1.495861,-0.447863 z m 4.926486,0.394118 h -1.907894 v -5.714723 h -1.218185 v -0.604614 h 1.91685 v 5.714723 h 1.209229 z m 4.339785,-6.431302 q 0.19706,0 0.335897,0.143316 0.138837,0.138837 0.138837,0.335896 0,0.206017 -0.138837,0.344854 -0.134359,0.138838 -0.335897,0.138838 -0.183623,0 -0.326939,-0.143316 -0.138838,-0.147795 -0.138838,-0.340376 0,-0.192581 0.138838,-0.335896 0.143316,-0.143316 0.326939,-0.143316 z m 0.340376,6.431302 h -0.698666 v -4.062111 h -1.374937 v -0.604614 h 2.073603 z M 50.9158,28.395255 h -3.202216 q 0,0.792716 0.45682,1.307758 0.461298,0.515042 1.128613,0.515042 0.635964,0 1.312236,-0.22841 l 0.120923,0.559828 q -0.61805,0.277674 -1.442117,0.277674 -1.03904,0 -1.675005,-0.667315 -0.635964,-0.667314 -0.635964,-1.800406 0,-1.110699 0.568785,-1.769056 0.573264,-0.662836 1.477946,-0.662836 0.806152,0 1.348065,0.613571 0.541914,0.613571 0.541914,1.634697 z M 50.154434,27.82647 q 0,-0.546392 -0.340376,-0.918118 -0.340375,-0.376204 -0.761366,-0.376204 -0.541913,0 -0.900203,0.35829 -0.353811,0.358289 -0.394119,0.936032 z m 6.126755,2.879754 h -0.698665 v -2.99172 q 0,-0.622528 -0.201538,-0.900203 -0.19706,-0.282153 -0.622529,-0.282153 -0.640443,0 -1.374937,0.797195 v 3.376881 h -0.698665 v -4.666725 h 0.698665 v 0.685229 q 0.752408,-0.797194 1.585432,-0.797194 1.312237,0 1.312237,1.585432 z m 5.549013,-0.210495 q -0.703144,0.322461 -1.383895,0.322461 -1.249536,0 -1.249536,-1.321194 v -2.852883 h -0.895724 v -0.604614 h 0.895724 v -1.276407 h 0.680751 v 1.276407 h 1.585433 v 0.604614 h -1.585433 v 2.66926 q 0,0.425469 0.188102,0.662836 0.188102,0.232888 0.510563,0.232888 0.573264,0 1.133092,-0.255281 z m 4.971274,-3.788915 q -0.586699,-0.192581 -1.10622,-0.192581 -0.568785,0 -0.900203,0.192581 -0.331418,0.188102 -0.331418,0.506084 0,0.201538 0.152273,0.353812 0.152273,0.147794 0.609093,0.277674 l 0.667315,0.192581 q 0.461298,0.12988 0.752408,0.313504 0.291111,0.179145 0.434427,0.438905 0.147794,0.255281 0.147794,0.595657 0,0.667314 -0.559828,1.056955 -0.559827,0.385161 -1.424202,0.385161 -0.859895,0 -1.419723,-0.25976 l 0.134358,-0.604614 q 0.5867,0.277675 1.258494,0.277675 0.582221,0 0.944989,-0.214974 0.367247,-0.219453 0.367247,-0.577743 0,-0.241845 -0.183623,-0.429947 -0.179145,-0.192581 -0.850939,-0.398598 -0.541913,-0.165709 -0.797195,-0.246324 -0.255281,-0.08509 -0.474734,-0.246324 -0.219452,-0.161231 -0.335897,-0.385162 -0.111965,-0.223931 -0.111965,-0.501606 0,-0.604614 0.528477,-0.958425 0.528478,-0.353811 1.401809,-0.353811 0.564307,0 1.254015,0.19258 z M 70.94868,25.97232 q 0.22841,0 0.385162,0.156752 0.156751,0.152273 0.156751,0.376204 0,0.223931 -0.156751,0.380683 -0.156752,0.152273 -0.385162,0.152273 -0.223931,0 -0.380683,-0.152273 -0.152273,-0.156752 -0.152273,-0.380683 0,-0.223931 0.152273,-0.376204 0.156752,-0.156752 0.380683,-0.156752 z m 0,3.744129 q 0.22841,0 0.385162,0.152273 0.156751,0.152273 0.156751,0.380683 0,0.223931 -0.156751,0.376204 -0.156752,0.152273 -0.385162,0.152273 -0.223931,0 -0.380683,-0.152273 -0.152273,-0.152273 -0.152273,-0.376204 0,-0.22841 0.152273,-0.380683 0.156752,-0.152273 0.380683,-0.152273 z m 12.853646,0.989775 h -3.323138 v -0.640443 h 1.339108 V 25.15721 l -1.262972,0.631486 v -0.734494 l 1.36598,-0.703144 h 0.631486 v 5.714723 h 1.249536 z"
       id="text1-3"
       aria-label="Clients: 1" /><path
       id="rect1"
       style="fill:#ffffff;stroke:#000000;stroke-width:0.264002;stroke-opacity:0"
       d="m 123.4359,1.2440263 h 3.736 V 30.980024 h -3.736 z" /><path
       id="rect2"
       style="stroke:#000000;stroke-width:0.272199;stroke-opacity:0"
       d="m 123.44001,7.7185698 h 3.7278 v 3.7278012 h -3.7278 z" /><path
       d="m 10.099109,14.542031 -1.02179,-1.02179 q 1.384221,-1.39262 2.943768,-2.097306 1.559568,-0.704705 3.36158,-0.704705 1.802012,0 3.36158,0.704705 1.559547,0.704686 2.943768,2.08893 l -1.02179,1.030166 q -1.229856,-1.229856 -2.561227,-1.792785 -1.331391,-0.562907 -2.722331,-0.562907 -1.39094,0 -2.722331,0.562907 -1.331371,0.562929 -2.561227,1.792785 z M 6.412856,10.847401 5.3826671,9.8172124 Q 7.31891,7.8541194 9.882667,6.6687164 q 2.563757,-1.185403 5.5,-1.185403 2.936243,0 5.5,1.185403 2.563757,1.185403 4.5,3.148496 L 24.352478,10.847401 Q 22.500126,9.0571244 20.23755,8.0042744 q -2.262595,-1.052851 -4.854883,-1.052851 -2.592286,0 -4.854883,1.052851 -2.262576,1.05285 -4.114928,2.8431266 z m 8.969811,8.969813 2.716421,-2.729835 q -0.531889,-0.531889 -1.219802,-0.833051 -0.687911,-0.301182 -1.496619,-0.301182 -0.808708,0 -1.496619,0.301182 -0.687911,0.301162 -1.219802,0.833051 z"
       id="path1"
       style="fill:#ffffff;fill-opacity:1;stroke-width:0.0218122" /><path
       id="rect3"
       style="fill:#ffffff;stroke:#000000;stroke-width:0.127277;stroke-opacity:0"
       d="m 10.051792,22.66086 h 9.816685 v 6.743983 h -9.816685 z" /><path
       style="font-size:9.17222px;line-height:0;font-family:Monospace;-inkscape-font-specification:Monospace;stroke:#000000;stroke-width:0.264583;stroke-opacity:0"
       d="m 14.932654,29.246197 h -0.770323 l -0.698665,-2.21244 h -2.073603 l -0.707622,2.21244 H 9.9210749 L 11.98572,22.926859 h 0.882289 z m -1.679483,-2.852883 -0.828546,-2.615516 -0.824066,2.615516 z m 3.063378,-3.466455 h 1.603347 q 0.90916,0 1.455552,0.45682 0.546392,0.45682 0.546392,1.258493 0,0.806152 -0.546392,1.289844 -0.541913,0.479212 -1.424202,0.479212 h -0.900203 v 2.834969 h -0.734494 z m 0.734494,2.843926 h 0.797195 q 1.294322,0 1.294322,-1.083827 0,-0.501605 -0.353811,-0.81063 -0.349333,-0.309025 -0.904682,-0.309025 h -0.833024 z"
       id="text1-5"
       aria-label="AP" /></g></svg>
